<?xml version="1.0" encoding="utf-8"?>
<!-- Generator: Adobe Illustrator 16.0.0, SVG Export Plug-In . SVG Version: 6.00 Build 0)  -->
<!DOCTYPE svg PUBLIC "-//W3C//DTD SVG 1.1//EN" "http://www.w3.org/Graphics/SVG/1.1/DTD/svg11.dtd">
<svg version="1.1" xmlns="http://www.w3.org/2000/svg" xmlns:xlink="http://www.w3.org/1999/xlink" x="0px" y="0px" width="1920px"
	 height="46.106px" viewBox="0 0 1920 46.106" enable-background="new 0 0 1920 46.106" xml:space="preserve">
<g id="圖層_2" display="none">
</g>
<g id="圖層_1參考">
</g>
<g id="圖層_3">
</g>
<g id="圖層_4">
</g>
<g id="圖層_7">
</g>
<g id="圖層_6">
</g>
<g id="廣告圖1">
	<path fill="#A4B8CC" d="M998.368,0.599c-0.596-0.323-1.264-0.684-2.034-1.095c0.004,0.341,0.003,0.681,0.006,1.021
		c-1.332-0.558-2.431-0.998-2.645-0.995c0,0-12.125,0.149-33.694,0.47c-21.57-0.32-33.696-0.47-33.696-0.47
		c-0.304-0.004-1.49,0.133-2.641,0.264c-0.003,0.257-0.001,0.515-0.004,0.771C710.018,4.034,76.431,16.716,0,46.106h1920
		C1843.811,16.81,1213.963,4.113,998.368,0.599z"/>
</g>
<g id="圖層_8">
</g>
</svg>
