<?xml version="1.0" encoding="utf-8"?>
<!-- Generator: Adobe Illustrator 16.0.0, SVG Export Plug-In . SVG Version: 6.00 Build 0)  -->
<!DOCTYPE svg PUBLIC "-//W3C//DTD SVG 1.1//EN" "http://www.w3.org/Graphics/SVG/1.1/DTD/svg11.dtd">
<svg version="1.1" xmlns="http://www.w3.org/2000/svg" xmlns:xlink="http://www.w3.org/1999/xlink" x="0px" y="0px"
	 width="153.471px" height="144.301px" viewBox="0 0 153.471 144.301" enable-background="new 0 0 153.471 144.301"
	 xml:space="preserve">
<g id="圖層_2" display="none">
</g>
<g id="圖層_1參考">
</g>
<g id="圖層_3">
</g>
<g id="圖層_4">
</g>
<g id="圖層_7">
</g>
<g id="圖層_6">
</g>
<g id="廣告圖1">
</g>
<g id="圖層_8">
	<g>
		<path fill-rule="evenodd" clip-rule="evenodd" fill="#D7DBD8" d="M140.754,108.672c0.133,0.181,0.123,0.356-0.023,0.523
			c-3.91,1.011-6.035,4.266-8.711,6.855c-1.514,1.463-1.074,2.775-0.125,4.205c-7.297,5.854-14.271,12.063-21.218,18.336
			c-7.81,7.052-16.677,7.326-25.972,2.172c-3.314-1.837-6.734-3.484-10.105-5.22c0.324-1.511,2.363-4.161-0.422-4.133
			c-3.053,0.031-6.705,0.626-9.018,3.536c-3.646,0.494-6.524,0.12-8.808-3.676c-2.376-3.95-8.261-4.573-10.213-9.337
			c-2.831,2.242-6.067,1.219-9.224,1.285c-5.012,0.104-9.924-0.747-14.885-1.051c-6.896-0.422-8.908-6.006-10.938-10.878
			c-2.582-6.205-5.398-12.5-4.508-19.671c0.455-3.669-1.576-6.954-3.233-10.096c-4.769-9.044-3.851-18.228-0.965-27.48
			c0.987-3.168,2.239-6.256,3.421-9.36c0.682-1.79,2.275-2.813,3.898-2.164c1.252,0.501,2.043,2.154,3.039,3.295
			c-3.732-0.027-1.4,5.569-5.391,5.302c6.125,1.794,6.91,1.073,8.563-4.641c1.035-3.578,1.992-6.738-0.102-10.292
			c-1.074-1.825-1.042-3.907,1.035-5.728c1.861-1.631,3.242-2.649,5.455-0.696c0.791,0.698,1.936,0.29,2.666-0.557
			c0.893-1.035,1.013-2.343-0.074-3.097c-3.441-2.387-1.316-5.265,0.559-5.742c3.848-0.981,5.901-4.827,9.844-5.268
			c0.619-0.069,1.365-0.356,1.771-0.799C44.716,5.98,56.416,6.32,65.478,0.989c3.111-1.83,6.837-0.532,10.419-0.681
			c0.557,2.416-3.404,3.792-1.215,6.237c2.079,2.322,4.805,2.711,7.748,2.615c3.102-0.102,5.965-0.4,8.331,2.935
			c1.515,2.133,4.659,1.579,7.165-0.861c-4.235-0.49-4.902-1.107-4.236-1.829c2.066-2.238-2.043-2.385-0.895-4.206
			c5.113,0.746,9.963,1.868,14.783,4.628c7.161,4.1,14.67,7.574,21.576,12.197c5.68,3.802,6.066,3.966,6.475,10.586
			c1.668-0.098,0.424-2.252,1.796-2.553c0.884,6.025,3.737,11.115,7.147,16.06c3.691,5.356,5.115,11.446,5.388,18
			c0.151,3.65,1.538,7.291,2.644,10.85c1.679,5.406,0.829,10.431-1.734,15.307c-7.156-0.364-3.674,4.786-4.104,7.911l0.009-0.013
			c-1.093,0.416-0.526,0.749,0.054,1.082c-1.305,1.901-3.014,3.555-3.574,5.907C140.61,105.044,140.646,106.833,140.754,108.672z
			 M35.732,21.149c2.072-1.79,6.75,0.986,6.998-3.996c1.566-0.328,1.982,1.728,3.383,1.652c0.891-0.049,1.979-0.961,2.426,0.549
			c0.32,1.086-0.293,2.29-1.135,2.511c-3.479,0.917-5.91,4.176-9.65,4.322c-2.334,0.09-5.295,0.885-5.094-3.253
			c0.057-1.169-1.041-2.144-1.895-1.436c-1.33,1.1-2.186,2.773-3.242,4.204c1.803,0.588,0.268,3.23,2.871,3.911
			c2.867,0.751,5.434,1.989,8.354,0.556l-0.012-0.013c-0.695,2.293-0.086,3.577,2.516,2.961c3.234-0.765,6.488-1.059,9.805-0.986
			c2.66,0.057,3.59-2.073,2.09-3.491c-3.369-3.184,1.883-6.791-0.975-9.875c-0.363-0.391,1.208-1.676,2.59-0.902
			c0.861,0.482,0.941,2.402,2.594,1.463c1.936-5.386-3.043-6.037-5.646-6.74c-3.568-0.966-7.678-0.251-8.958,4.586
			c-3.134-0.069-5.808,0.666-6.995,4c-0.084,0.128-0.169,0.257-0.254,0.387C35.579,21.423,35.656,21.286,35.732,21.149z
			 M128.744,36.175c-6.206,0.747-6.053,5.662-5.852,10.584c1.941-3.535,3.883-7.07,5.826-10.606c1.453-0.856,2.439-1.833,0.92-3.886
			C128.5,33.649,128.832,34.965,128.744,36.175z M59.751,104.16c7.39-0.483,14.709-1.201,21.489-4.793
			c3.588-1.901,5.209-5.142,7.385-8.261c6.971-10,7.305-20.914,3.45-31.541c-2.943-8.114-9.595-13.807-17.421-18.209
			c-16.502-9.283-38.562,2.072-41.946,19.829c-2.169,11.382-0.275,22.621,7.368,31.648C45.022,98.675,50.32,105.347,59.751,104.16z
			 M46.938,37.985c-3.082-1.354-4.995-0.736-6.712,1.174c-2.229,2.481-4.657,4.774-7.563,6.43
			c-6.693,3.814-7.932,10.099-7.908,16.997c0.006,1.362,0.119,2.92,1.773,3.125c1.805,0.223,1.938-1.358,2.18-2.698
			C30.691,51.997,36.738,43.813,46.938,37.985z M93.971,113.132c-3.182,1.983-8.133,0.367-10.689,4.691
			c-0.467,0.789-2.793,0.243-1.895,2.067c0.836,1.698,2.238,0.684,3.424,0.167c3.258-1.419,5.809-4.505,9.883-4.041
			c1.133,0.129,2.633-0.247,2.475-1.714C96.988,112.637,95.328,113.507,93.971,113.132z M95.625,23.805
			c2.556,4.199,5.699,3.991,9.033,2.328c3.82-1.906,3.691-4.878,1.951-8.615C104.204,24.204,103.521,24.6,95.625,23.805z
			 M37.77,112.488c-0.125-1.24,0.283-3.036-1.611-3c-2.148,0.041-3.775,1.412-3.984,3.621c-0.141,1.49,0.525,3.037,2.468,2.995
			C36.904,116.056,37.734,114.576,37.77,112.488z M34.682,34.044c-1.637,2.361-3.666,4.011-2.781,6.893
			c0.211,0.692,0.83,1.158,1.531,0.675C36.18,39.718,35.283,37.122,34.682,34.044z M24.461,48.024
			c0.229-2.698,1.09-4.767-0.725-6.493c-0.523-0.498-1.455-0.106-1.654,0.502C21.322,44.348,22.385,46.021,24.461,48.024z
			 M111.174,25.623c-1.553-0.005-1.311,1.176-1.369,2.069c-0.078,1.213,0.097,2.399,1.744,2.219
			c1.053-0.115,1.889-0.802,1.771-1.914C113.191,26.79,112.219,26.098,111.174,25.623z"/>
		<path fill-rule="evenodd" clip-rule="evenodd" fill="#E2B064" d="M131.895,120.255c-0.949-1.43-1.389-2.741,0.125-4.205
			c2.676-2.589,4.801-5.844,8.711-6.855C138.256,113.26,135.492,117.091,131.895,120.255z"/>
		<path fill-rule="evenodd" clip-rule="evenodd" fill="#E2B064" d="M65.16,134.947c2.313-2.909,5.965-3.504,9.018-3.536
			c2.785-0.028,0.746,2.622,0.422,4.133C71.471,135.042,68.338,134.65,65.16,134.947z"/>
		<path fill-rule="evenodd" clip-rule="evenodd" fill="#D7DBD8" d="M89.607,4.343c-4.332,2.453-6.479-2.479-9.994-1.626
			C82.834,0.632,84.621,0.96,89.607,4.343z"/>
		<path fill-rule="evenodd" clip-rule="evenodd" fill="#E2B064" d="M146.766,98.186c0.43-3.125-3.053-8.275,4.104-7.911
			C149.877,93.108,149.855,96.442,146.766,98.186z"/>
		<path fill-rule="evenodd" clip-rule="evenodd" fill="#E2B064" d="M140.754,108.672c-0.107-1.839-0.144-3.628,2.5-3.51
			C142.422,106.332,141.588,107.501,140.754,108.672z"/>
		<path fill-rule="evenodd" clip-rule="evenodd" fill="#E2B064" d="M146.828,99.255c-0.58-0.333-1.146-0.666-0.054-1.082
			C146.793,98.534,146.811,98.894,146.828,99.255z"/>
		<path fill-rule="evenodd" clip-rule="evenodd" fill="#E2B064" d="M59.751,104.16c-9.431,1.187-14.729-5.485-19.675-11.327
			c-7.644-9.027-9.537-20.267-7.368-31.648c3.385-17.757,25.444-29.111,41.946-19.829c7.826,4.402,14.478,10.096,17.421,18.209
			c3.854,10.627,3.521,21.541-3.45,31.541c-2.176,3.119-3.797,6.359-7.385,8.261C74.46,102.959,67.141,103.677,59.751,104.16z
			 M51.404,63.865c2.625-1.292,5.65-0.667,8.137-2.289c1.559-1.016,3.313-1.75,2.883-4.065c-0.443-2.395-1.977-3.727-4.334-4.146
			c-2.369-0.42-9.361,3.27-9.758,5.573C47.955,61.131,48.217,63.607,51.404,63.865z"/>
		<path fill-rule="evenodd" clip-rule="evenodd" fill="#FFFFFF" d="M38.748,30.168c-2.92,1.434-5.486,0.196-8.354-0.556
			c-2.604-0.681-1.068-3.323-2.871-3.911c1.057-1.431,1.912-3.104,3.242-4.204c0.854-0.708,1.951,0.267,1.895,1.436
			c-0.201,4.139,2.76,3.344,5.094,3.253c3.74-0.146,6.171-3.404,9.65-4.322c0.842-0.222,1.455-1.425,1.135-2.511
			c-0.447-1.51-1.535-0.598-2.426-0.549c-1.4,0.076-1.816-1.98-3.383-1.652l0.021,0.02c1.28-4.837,5.39-5.553,8.958-4.586
			c2.604,0.704,7.582,1.354,5.646,6.74c-1.652,0.939-1.732-0.981-2.594-1.463c-1.382-0.774-2.953,0.511-2.59,0.902
			c2.857,3.083-2.395,6.691,0.975,9.875c1.5,1.418,0.57,3.548-2.09,3.491c-3.316-0.072-6.57,0.221-9.805,0.986
			c-2.602,0.615-3.211-0.668-2.516-2.961c3.599-0.666,7.368-0.748,10.428-3.262C45.381,26.927,41.387,26.235,38.748,30.168z"/>
		<path fill-rule="evenodd" clip-rule="evenodd" fill="#FFFFFF" d="M46.938,37.985c-10.199,5.828-16.246,14.012-18.23,25.027
			c-0.242,1.34-0.375,2.921-2.18,2.698c-1.654-0.205-1.768-1.763-1.773-3.125c-0.023-6.898,1.215-13.183,7.908-16.997
			c2.906-1.656,5.334-3.949,7.563-6.43C41.942,37.249,43.855,36.631,46.938,37.985z"/>
		<path fill-rule="evenodd" clip-rule="evenodd" fill="#FFFFFF" d="M93.971,113.132c1.357,0.375,3.018-0.495,3.197,1.17
			c0.158,1.467-1.342,1.844-2.475,1.714c-4.074-0.465-6.625,2.622-9.883,4.041c-1.186,0.518-2.588,1.532-3.424-0.167
			c-0.898-1.825,1.428-1.279,1.895-2.067C85.838,113.499,90.789,115.115,93.971,113.132z"/>
		<path fill-rule="evenodd" clip-rule="evenodd" fill="#FFFFFF" d="M95.625,23.805c7.896,0.794,8.579,0.398,10.984-6.287
			c1.74,3.736,1.869,6.709-1.951,8.615C101.324,27.796,98.181,28.004,95.625,23.805z"/>
		<path fill-rule="evenodd" clip-rule="evenodd" fill="#E2B064" d="M37.765,112.492c-0.03,2.083-0.86,3.563-3.123,3.612
			c-1.942,0.042-2.608-1.505-2.468-2.995c0.209-2.209,1.836-3.58,3.984-3.621C38.053,109.452,37.645,111.248,37.765,112.492z"/>
		<path fill-rule="evenodd" clip-rule="evenodd" fill="#FFFFFF" d="M128.719,36.152c-1.943,3.536-3.885,7.071-5.826,10.606
			c-0.201-4.922-0.354-9.837,5.852-10.584L128.719,36.152z"/>
		<path fill-rule="evenodd" clip-rule="evenodd" fill="#FFFFFF" d="M34.682,34.044c0.602,3.078,1.498,5.673-1.25,7.568
			c-0.701,0.482-1.32,0.017-1.531-0.675C31.016,38.056,33.045,36.405,34.682,34.044z"/>
		<path fill-rule="evenodd" clip-rule="evenodd" fill="#FFFFFF" d="M42.73,17.153c-0.248,4.982-4.926,2.207-6.998,3.996l0.023,0.024
			c1.188-3.334,3.861-4.069,6.995-4L42.73,17.153z"/>
		<path fill-rule="evenodd" clip-rule="evenodd" fill="#FFFFFF" d="M24.461,48.024c-2.076-2.003-3.139-3.677-2.379-5.991
			c0.199-0.608,1.131-1,1.654-0.502C25.551,43.257,24.689,45.326,24.461,48.024z"/>
		<path fill-rule="evenodd" clip-rule="evenodd" fill="#FFFFFF" d="M111.174,25.623c1.045,0.475,2.018,1.167,2.146,2.375
			c0.117,1.111-0.719,1.798-1.771,1.914c-1.647,0.18-1.822-1.006-1.744-2.219C109.863,26.799,109.621,25.618,111.174,25.623z"/>
		<path fill-rule="evenodd" clip-rule="evenodd" fill="#FFFFFF" d="M128.744,36.175c0.088-1.21-0.244-2.525,0.895-3.908
			c1.52,2.053,0.533,3.03-0.92,3.886L128.744,36.175z"/>
		<path fill-rule="evenodd" clip-rule="evenodd" fill="#FFFFFF" d="M35.732,21.149c-0.076,0.137-0.153,0.274-0.23,0.411
			c0.085-0.129,0.17-0.258,0.254-0.387L35.732,21.149z"/>
		<path fill-rule="evenodd" clip-rule="evenodd" fill="#D7DBD8" d="M51.404,63.865c-3.188-0.258-3.449-2.734-3.072-4.927
			c0.396-2.303,7.389-5.993,9.758-5.573c2.357,0.418,3.891,1.75,4.334,4.146c0.43,2.315-1.324,3.049-2.883,4.065
			C57.055,63.198,54.029,62.574,51.404,63.865z"/>
		<path fill-rule="evenodd" clip-rule="evenodd" fill="#D7DBD8" d="M38.748,30.168c2.639-3.933,6.633-3.242,10.416-3.274
			c-3.06,2.514-6.829,2.596-10.428,3.262L38.748,30.168z"/>
	</g>
</g>
</svg>
