<?xml version="1.0" encoding="utf-8"?>
<!-- Generator: Adobe Illustrator 16.0.0, SVG Export Plug-In . SVG Version: 6.00 Build 0)  -->
<!DOCTYPE svg PUBLIC "-//W3C//DTD SVG 1.1//EN" "http://www.w3.org/Graphics/SVG/1.1/DTD/svg11.dtd">
<svg version="1.1" xmlns="http://www.w3.org/2000/svg" xmlns:xlink="http://www.w3.org/1999/xlink" x="0px" y="0px"
	 width="220.082px" height="152.28px" viewBox="0 0 220.082 152.28" enable-background="new 0 0 220.082 152.28"
	 xml:space="preserve">
<g id="圖層_2" display="none">
</g>
<g id="圖層_1參考">
</g>
<g id="圖層_3">
</g>
<g id="圖層_4">
</g>
<g id="圖層_7">
</g>
<g id="圖層_6">
</g>
<g id="廣告圖1">
</g>
<g id="圖層_8">
	<g>
		<path fill-rule="evenodd" clip-rule="evenodd" fill="#EBB522" d="M133.336,153.018c-2.605,0.233-5.208,0.466-7.805,0.697
			c-1.059-0.501-2.113-0.49-3.16,0.057c-5.887-0.398-11.816,0.324-17.676-0.681c-0.395-2.748-2.533-1.423-3.893-1.523
			c-4.646-0.343-9.16-0.131-13.855-1.804c-4.381-1.561-8.377-4.908-13.484-4.28c-5.518-3.352-11.156-6.525-16.525-10.102
			c-6.115-4.075-11.946-8.563-16.936-14.032c-0.996-1.09-2.194-2.045-2.174-3.721c0.84-3.103-1.713-4.414-3.312-6.208
			c-2.176-2.441-2.161-4.723,0.388-6.87c2.59-2.178,3.715-0.843,4.466,1.777c0.128,0.447,1.067,1.029,1.536,0.952
			c4.049-0.658,6.353,1.973,9.018,4.285c1.586,1.378,3.863,1.838,6.085,1.837c1.54,0,3.128-0.025,3.714-1.805
			c0.586-1.783-0.758-2.73-1.906-3.701c-7.336-6.202-14.866-12.287-18.688-21.482c-2.504-6.027-3.686-12.383-2.947-18.944
			c0.141-1.255,0.738-2.651,2.332-2.923c1.045-0.179,1.982,0.037,2.34,1.263c2.124,7.327,6.348,13.56,10.016,20.142
			c4.334,7.775,10.918,13.29,17.678,18.162c10.402,7.499,21.553,13.565,34.826,15.895c9.658,1.695,19.012,1.909,28.398,0.527
			c7.756-1.142,15.268-3.878,22.932-5.72c8.799-2.114,17.52-4.334,25.251-9.338c0.823-0.533,1.974-0.567,1.821-1.884
			c-0.156-1.359-1.091-2.009-2.381-2.117c-0.992-0.083-1.997-0.095-2.993-0.056c-11.84,0.464-23.056,4.297-34.54,6.617
			c-21.146,4.271-41.426,3.865-60.414-7.856c-8.354-5.158-15.658-11.241-21.746-19.131c-6.104-7.912-8.77-17.531-14.281-25.639
			c-1.875-2.756-3.231-5.597-7.502-6.356c-3.236-0.576-6.016-3.815-8.281-6.689c-0.84-1.064-0.471-1.94,0.467-3.015
			c5.635-6.45,3.891-13.818-4.135-17.961c-5.115-4.844-2.158-10.437-0.734-15.368c0.996-3.456,5.164-3.903,8.715-3.746
			c0.086,1.962,0.333,3.934,0.214,5.883c-0.128,2.077,1.175,4.557,2.27,4.407c4.35-0.597,5.757,3.093,8.435,4.867
			c3.51,7.618,2.787,16.493,7.092,23.876c0.371,0.328,0.742,0.657,1.111,0.985l0.061,0.06c-0.363,2.86-3.631,5.462-0.68,8.619
			c6.307,6.744,10.285,15.17,18.086,21.06c11.209,8.464,23.06,14.919,36.555,18.363c13.584,3.466,27.288,3.434,40.988,0.509
			c1.773-0.378,3.645-0.549,5.283-1.25c16.728-7.15,33.412-14.392,46.994-27.027c0.585-0.545,1.361-0.933,2.111-1.245
			c3.324-1.382,3.186-3.383,1.109-5.779c1.404-1.791,2.609-2.262,4.896-0.727c5.097,3.423,6.808,11.014,3.856,18.153
			c-4.018,9.714-10.051,18.071-17.098,25.719c-1.495,1.623-3.771,2.606-5.818,3.621c-2.641,1.308-3.339,3.247-1.674,5.497
			c2.117,2.858,1.631,5.506-0.002,8.147c-5.834,9.427-13.021,17.635-22.048,24.165c-2.395,1.732-4.718,3.563-7.071,5.347
			c-3.566-0.734-4.568,1.725-5.428,4.363c-1.283,0.24-2.568,0.48-3.846,0.72c-3.146-0.367-6.063,0.659-9.007,1.526
			c-1.306,0.17-2.612,0.341-3.913,0.511C135.336,152.259,134.252,151.935,133.336,153.018z M39.141,18.991
			c-2.135,6.374-2.859,12.774-0.351,19.238C37.639,31.792,40.076,25.424,39.141,18.991z"/>
		<path fill-rule="evenodd" clip-rule="evenodd" fill="#F4D95D" d="M25.969,21.389c8.025,4.144,9.77,11.512,4.135,17.961
			c-0.938,1.074-1.307,1.95-0.467,3.015c2.266,2.874,5.045,6.113,8.281,6.689c4.271,0.759,5.627,3.6,7.502,6.356
			c5.512,8.107,8.178,17.727,14.281,25.639c6.088,7.891,13.393,13.974,21.746,19.131c18.988,11.722,39.269,12.128,60.414,7.856
			c11.484-2.32,22.7-6.153,34.54-6.617c0.996-0.039,2.001-0.027,2.993,0.056c1.29,0.108,2.225,0.758,2.381,2.117
			c0.152,1.317-0.998,1.352-1.821,1.884c-7.731,5.004-16.452,7.224-25.251,9.338c-7.664,1.842-15.176,4.578-22.932,5.72
			c-9.387,1.381-18.74,1.167-28.398-0.527c-13.273-2.33-24.424-8.396-34.826-15.895c-6.76-4.872-13.344-10.386-17.678-18.162
			c-3.668-6.582-7.892-12.815-10.016-20.142c-0.357-1.227-1.295-1.442-2.34-1.263c-1.594,0.272-2.191,1.668-2.332,2.923
			c-0.738,6.561,0.443,12.917,2.947,18.944c3.821,9.195,11.352,15.28,18.688,21.482c1.148,0.971,2.492,1.918,1.906,3.701
			c-0.586,1.78-2.174,1.804-3.714,1.805c-2.222,0.001-4.499-0.459-6.085-1.837c-2.665-2.312-4.969-4.942-9.018-4.285
			c-0.469,0.077-1.408-0.505-1.536-0.952c-0.751-2.62-1.876-3.955-4.466-1.777c-2.549,2.147-2.563,4.429-0.388,6.87
			c1.599,1.794,4.151,3.105,3.312,6.208c-3.42,0.039-4.658-2.985-6.346-4.973c-6.088-7.167-11.438-15.357-14.607-23.803
			c-3.979-10.593-6.682-22.599-1.5-33.908c1.602-3.495,3.426-7.233,5.879-10.365c4.582-5.85,4.313-12.604,4.156-19.405
			C25.381,23.9,24.796,22.501,25.969,21.389z"/>
		<path fill-rule="evenodd" clip-rule="evenodd" fill="#F4D95D" d="M203.578,55.603c2.076,2.396,2.215,4.397-1.109,5.779
			c-0.75,0.312-1.526,0.7-2.111,1.245c-13.582,12.636-30.267,19.877-46.994,27.027c-1.639,0.701-3.51,0.872-5.283,1.25
			c-13.7,2.924-27.404,2.957-40.988-0.509c-13.495-3.444-25.346-9.898-36.555-18.363c-7.801-5.889-11.779-14.315-18.086-21.06
			c-2.951-3.157,0.316-5.759,0.68-8.619c6.473,3.301,10.645,9.217,15.656,14.109c10.539,10.285,23.004,17.019,36.977,20.915
			c9.779,2.726,20.033,3.33,30.008,1.917c16.302-2.309,30.984-9.384,45.688-16.616C188.244,59.342,195.082,54.338,203.578,55.603z"
			/>
		<path fill-rule="evenodd" clip-rule="evenodd" fill="#F4D95D" d="M44.867,17.432c-2.678-1.774-4.085-5.464-8.435-4.867
			c-1.095,0.15-2.397-2.33-2.27-4.407c0.119-1.949-0.128-3.921-0.214-5.883c1.121-2.555,3.771-2.396,5.563-2.142
			c1.906,0.27,0.588,2.98,1.326,4.29C43.133,8.495,44.139,12.907,44.867,17.432z"/>
		<path fill-rule="evenodd" clip-rule="evenodd" fill="#F4D95D" d="M133.336,153.019c0.916-1.084,2-0.76,3.09-0.373
			C135.654,154.955,134.59,154.767,133.336,153.019z"/>
		<path fill-rule="evenodd" clip-rule="evenodd" fill="#F4D95D" d="M53.07,42.293c-0.369-0.329-0.74-0.657-1.111-0.985
			C52.672,41.25,53.066,41.55,53.07,42.293z"/>
		<path fill-rule="evenodd" clip-rule="evenodd" fill="#F4D95D" d="M39.141,18.991c0.936,6.433-1.502,12.8-0.351,19.238
			C36.281,31.766,37.006,25.365,39.141,18.991z"/>
	</g>
</g>
</svg>
