<?xml version="1.0" encoding="utf-8"?>
<!-- Generator: Adobe Illustrator 16.0.0, SVG Export Plug-In . SVG Version: 6.00 Build 0)  -->
<!DOCTYPE svg PUBLIC "-//W3C//DTD SVG 1.1//EN" "http://www.w3.org/Graphics/SVG/1.1/DTD/svg11.dtd">
<svg version="1.1" xmlns="http://www.w3.org/2000/svg" xmlns:xlink="http://www.w3.org/1999/xlink" x="0px" y="0px"
	 width="184.672px" height="132.32px" viewBox="0 0 184.672 132.32" enable-background="new 0 0 184.672 132.32"
	 xml:space="preserve">
<g id="圖層_2" display="none">
</g>
<g id="圖層_1參考">
</g>
<g id="圖層_3">
</g>
<g id="圖層_4">
</g>
<g id="圖層_7">
</g>
<g id="圖層_6">
</g>
<g id="廣告圖1">
</g>
<g id="圖層_8">
	<g>
		<path fill-rule="evenodd" clip-rule="evenodd" fill="#99AD6D" d="M168.896,25c4.008,2.6,8.033,5.368,9.873,9.92
			c3.019,7.459,3.666,15.257,1.777,23.146c-1.151,4.814-0.371,9.435,1.254,13.937c3.568,9.884,4.408,19.597-0.967,29.198
			c-0.635,1.134-1.107,0.848-2.084,1.034c-5.891,1.121-11.77,2.156-17.706,3.013c-4.433,0.639-8.919,3.052-13.68,4.065
			c-3.755,0.798-7.411,1.717-11.219,1.319c-2.165-0.227-3.67,0.363-4.282,2.377c-1.051,3.462-3.795,5.948-4.838,9.536
			c-1.303,4.479-8.28,6.422-12.826,4.204c-5.111-2.494-6.835-7.535-4.178-12.439c2.447-4.521,5.461-8.504,10.449-10.546
			c0.523-0.214,1.279-1.211,1.236-1.264c-3.68-4.39,1.58-9.375-1.216-14.111c-3.913-6.63-3.554-6.841-10.306-5.147
			c-1.393-3.141-2.43-6.463-6.664-7.129c-2.111-0.332-3.136,0.649-4.078,2.052c-0.801,1.19-0.822,2.355,0.189,3.627
			c2.084,2.621,0.326,8.687-2.4,10.448c-4.217,2.727-6.498,1.181-10.324-1.731C76.107,82.286,73.381,75.465,78.566,63.8
			c0.369-0.83,0.585-2.915,2.035-1.747c1.074,0.866,1.33,2.561,2.553,0.313c0.664-1.223,1.268-2.463-0.572-3.281
			c-2.807-1.247-1.371-2.754-0.145-4.568c0.77,1.39,0.383,4.026,2.944,2.954c2.144-0.896,1.985-3.416,1.804-4.792
			c-0.322-2.424-1.834-1.655-3.557-0.479c-1.707,1.165-1.807-0.774-1.623-1.81c0.322-1.804,1.318-3.418,0.996-5.43
			c-0.174-1.096-0.096-1.958,1.373-3.262c4.26-3.775,8.959-3.153,13.764-3.617c1.357-0.131,3.854-0.46,4.314-2.32
			c0.286-1.159,0.004-3.311-1.752-3.671c-4.298-0.882-6.615-4.587-10.596-6.199c2.184-1.597,3.818-2.792,6.082-4.446
			c-3.11-0.405-5.361-3.133-7.375,0.968c-1.16,2.361-2.738,0.235-3.027-0.938c-1.156-4.699-4.984-5.5-8.752-6.515
			c2.775-3.365,6.412-2.091,9.129-0.737c11.203,5.583,20.537,4,27.725-5.286c0.643,3.409-1.342,6.057-2.791,8.759
			c-0.654,1.22-1.846,2.872-0.714,3.389c3.603,1.648,1.313,3.637,0.806,5.602c-0.291,1.123-0.537,2.296,0.48,3.248
			c0.982,0.92,1.65,0.192,2.564-0.299c2.457-1.321,4.668-1.032,6.525,1.342c0.885,1.129,2.316,1.424,3.551,0.474
			c1.07-0.825,1.07-2.439,0.475-3.196c-2.857-3.636-1.125-7.938-1.727-11.842c-1.342-8.68-0.824-8.759-8.824-8.412
			c1.506-3.319,5.287-4.201,7.734-4.39c9.225-0.709,18.906-2.739,27.176,3.77c1.527,1.202,3.699,1.562,4.633,3.531
			c-3.022,0.434-3.07,2.699-2.764,4.886c0.473,3.374,3.5,1.809,6.309,3.723c-1.551-2.961-2.896-4.531-2.318-6.589
			c5.266,0.703,12.869,6.892,13.604,11.072c-2.702-0.942-6.787-0.908-8.066-1.929c-4.979-3.974-2.572,1.084-3.285,2.171
			c-3.305-0.316-5.436-2.619-7.791-5.109c-0.682,3.096-1.258,4.808-4.381,2.151c-1.824-1.551-3.431-2.897-4.244-5.159
			c-0.74-2.057-0.777-4.877-4.266-4.289c-0.744,0.125-1.277-0.454-1.27-1.194c0.01-1.039,0.986-2.583-1.125-2.434
			c-1.502,0.106-1.125,1.844-1.775,2.732c-1.56,2.131,1.555,3.463,1.045,5.313c-0.785,0.67-1.338,0.202-1.936-0.036
			c-1.424-0.565-3.35-2.296-4.066,0.25c-0.585,2.082,2.135,1.906,3.209,2.09c2.585,0.441,3.62,1.204,2.396,3.831
			c-0.693,1.491-1.195,3.072-1.759,4.622c-0.47,1.294-0.715,3.502,0.538,3.436c3.357-0.178,6.99,3.711,10.064-0.442
			c0.82-1.106,1.863-0.779,2.67-0.443c3.898,1.618,5.271-0.842,6.232-3.8c0.482-1.491,1.162-1.892,2.525-1.177
			c1.158,0.608,2.819,1.119,2.006,2.811c-0.787,1.635-0.635,4.714-4.429,2.889c1.227,2.75,2.38,3.569,4.929,3.224
			c4.488-0.607,2.04-4.207,2.879-6.493c1.839,0.706,2.287,1.878,2.225,3.283c-0.094,2.104,1.189,2.992,2.939,3.405
			c1.98,0.468,1.682-1.694,2.617-2.385C168.697,29.688,167.074,26.704,168.896,25z M176.913,47.938
			c2.61-2.662,0.981-5.487,0.028-8.076c-0.428-1.162-1.854-3.211-3.26-2.273c-1.248,0.832-1.926,2.848-1.215,4.898
			c0.842,2.426,3.33,3.344,4.441,5.446c-0.114,0.054-0.246,0.087-0.337,0.168c-0.056,0.049-0.046,0.17-0.065,0.259
			C176.641,48.219,176.777,48.078,176.913,47.938z M150.9,48.949c-0.086-1.236,0.184-3.432-1.25-3.126
			c-2.043,0.436-3.307,2.495-4.119,4.892c2.084-0.693,3.74-1.243,5.398-1.794c0.225,2.232-1.969,1.854-2.98,2.749
			c-0.843,0.747-0.986,1.681-0.83,2.714c0.172,1.142,1.07,1.403,1.805,0.919c3.41-2.249,8.416-1.428,10.795-5.302
			c0.641-1.041,3.816-1.782,1.623-3.588c-1.727-1.423-2.811,0.473-3.709,1.995c-0.461,0.78-1.33,3.079-2.098,1.618
			C154.104,47.294,152.289,49.694,150.9,48.949z M172.927,78.912c0.04,0.123,0.06,0.26,0.131,0.362
			c0.042,0.061,0.167,0.064,0.255,0.093c-0.141-0.141-0.279-0.281-0.418-0.422c1.9-1.083,3.092-2.225,2.117-4.838
			c-0.576-1.544-1.507-3.202-0.701-5.251c1.381-3.516-0.543-8.767-3.715-11.293c0.152,2.07-0.229,2.436-2.494,2.433
			c-1.118-0.001-1.898,0.429-2.156,1.622c-1.493,6.939-8.691,3.852-12.137,7.436c0.445-1.918,1.34-3.301,1.922-4.805
			c0.496-1.284,0.557-2.907-1.242-3.162c-2.24-0.316-5.154-1.298-6.582,0.793c-1.849,2.706-2.709,6.176-1.852,9.506
			c0.838,3.256,3.598-0.937,4.982,1.078c-0.931,5.467-6.963,8.131-8.965,14.235c3.539-1.041,6.045-1.757,8.537-2.519
			c2.082-0.636,5.396,0.008,5.66-2.727c0.18-1.889,0.133-4.357-1.24-6.202c1.654-0.804,4.346,0.543,4.537-1.575
			c0.463-5.154,4.045-6.165,8.061-7.149c0.244,1.698,1.701,3.788,1.482,4.505c-1.51,4.941-2.313-1.61-4.066-0.196
			c-0.458,2.239,1.279,5.335,2.613,4.526c5.229-3.172,3.598,0.851,3.945,3.085C171.635,78.666,172.467,78.761,172.927,78.912z
			 M107.264,42.364c0.883,1.492-1.023,2.615-0.73,3.594c1.188,3.975,0.167,7.703-0.035,11.533c-0.225,4.27,3.136,9.713,7.754,13.042
			c1.313-4.345,1.313-4.345-0.314-7.893c-2.028-4.418-1.334-5.654,3.334-5.939c2.393-0.146,8.184-5.615,8.535-8.073
			c0.174-1.215,0.013-2.985-1.088-2.995c-6.09-0.056-4.551-4.441-4.957-7.936c-0.209-1.802-0.658-4.254-2.662-4.667
			c-5.648-1.162-7.811,0.589-8.932,6.879c-2.279-3.364-3.811-3.5-4.381,0.738c-0.264,1.961-1.219,3.841-0.922,5.918
			C105.719,46.254,104.063,42.028,107.264,42.364z M162.877,91.208c-7.291,1.287-14.268,2.024-19.217,7.625
			c-1.289,1.461-3.494,2.833-2.486,5.007c1.164,2.511,2.73-0.188,4.133-0.21c0.925-0.015,1.875,0.522,2.785,0.883
			c1.453,0.575,3.795,0.993,4.275,0.181c3.053-5.155,9.391-1.467,13.43-5.579c2.516-2.563,3.66-4.084,2.959-7.251
			c-2.033-9.195-2.033-9.193-9.059-8.028c-0.326,0.055-0.668,0.019-0.992,0.079c-1.752,0.331-2.537,1.64-2.643,3.185
			c-0.135,1.965,1.508,1.806,2.814,1.887C160.256,89.075,161.474,89.479,162.877,91.208z M120.98,57.045
			c0.477,1.771,1.641,2.897,0.741,5.267c-1.185,3.115-1.013,7.341-0.696,10.511c0.33,3.31,2.584,7.566,5.76,10.441
			c4.611-11.244,5.45-18.122-3.393-20.006C125.902,58.875,125.902,58.875,120.98,57.045z M145.479,34.872
			c-2.426,3.835-3.686,4.452-5.502,2.667c-3.621-3.559-6.531-3.489-10.314-0.004c-0.889,0.818-1.48,1.266-0.398,2.23
			c1.035,0.922,2.756,1.964,3.285,0.356c1.727-5.24,2.564-2.43,4.578-0.119c1.213,1.389,3.484,4.364,4.996,3.213
			C144.466,41.433,148.084,39.062,145.479,34.872z M97.264,48.695c-3.385-2.332-2.979-3.532,0.803-3.706
			c1.104-0.051,3.428,0.312,2.138-1.838c-1.192-1.988-4.257-2.564-6.013-2.284c-2.125,0.339-1.174,3.333-1.275,5.222
			C92.757,49.029,94.563,49.234,97.264,48.695z M93.037,54.818c0.793-2.093,2.443,1.947,2.736-0.786
			c0.207-1.93-1.016-3.036-2.977-3.007c-1.055,0.016-2.67-0.269-2.684,1.291C90.096,54.107,91.568,54.568,93.037,54.818z
			 M175.166,87.162c-0.516,1.775-3.635,2.163-2.119,4.433c0.419,0.627,2.453,1.697,3.581,0.66
			C179.113,89.971,174.66,89.356,175.166,87.162z M161.658,19.975c-0.064-0.128-0.129-0.258-0.195-0.386
			c-0.088,0.111-0.236,0.216-0.248,0.334c-0.01,0.121,0.113,0.253,0.18,0.38C161.482,20.194,161.57,20.084,161.658,19.975z"/>
		<path fill-rule="evenodd" clip-rule="evenodd" fill="#99AD6D" d="M1.005,50.916c1.093-5.563,2.765-10.791,8.062-13.918
			c1.826,0.998,4.119,1.561,5.725,0.713c3.238-1.707,5.373-0.542,7.504,2.3c0.153-4.832,0.153-4.832,5.439-5.244
			c0.82-1.907-2.391-1.438-1.797-2.755c0.735-1.627,2.576-1.017,4.01-1.094c3.184,4.8-1.818,8.613-1.564,13.328
			c1.353-0.423,2.393-0.804,3.664-1.734c3.363-2.463,2.771-7.223,6.152-9.422c0.93-0.604,2.955-0.321,1.363-2.456
			c-1.176-1.575-2.441-1.754-3.725-0.586c-1.85,1.681-3.799,1.615-5.928,0.908c-1.943-2.935-3.994-5.729-7.953-5.99l-0.043-0.049
			c1.87-2.681,4.266-4.65,7.623-4.9c1.754-0.131,2.324-0.944,2.309-2.503c7.806-1.489,15.463-3.858,23.584-3.395
			c2.898,0.166,5.829,0.037,8.764-0.874c4.172-1.293,7.676,2.536,11.848,2.159c-1.105,2.401,0.824,3.2,2.297,4.067
			c1.216,0.715,3.299,0.731,2.314,2.92c-0.994,2.212-2.068,0.718-3.453,0.068c-2.918-1.371-5.248,0.632-4.609,3.759
			c0.215,1.049,2.169,2.012-0.387,2.83c-1.467,0.469-1.123,1.567,0.242,1.808c1.855,0.328,2.732,1.183,2.213,3.033
			c-0.158,0.566-0.766,1.403-1.199,1.424c-1.732,0.082-2.573-1.354-3.234-2.61c-2.803-5.326-2.992-5.381-6.658-0.622
			c-0.393,0.51-0.506,1.226-0.838,1.794c-0.762,1.299-2.066,1.321-2.992,0.586c-0.871-0.69-2.424-2.241,0.59-2.207
			c0.001-0.434,0.101-1.221-0.014-1.253c-3.171-0.896-0.309-3.997-1.924-5.509c-2.641,4.114-8.186-2.32-10.839,3.16
			c-0.346,0.714-2.518,1.633-2.306,3.475c0.607,5.262,2.039,10.54,1.805,15.751c-0.188,4.15,1.869,6.043,4.436,8.128
			c1.08,0.876,2.188,2.781,3.695,1.355c1.26-1.192-0.873-2.189-1.14-3.416c-0.245-1.131-0.78-2.201-1.017-3.333
			c-0.521-2.502,1.422-2.34,2.988-2.904c1.883-0.677,3.245-0.239,3.238,1.584c-0.027,7.323,8.633,12.019,5.958,20.072
			c-0.04,0.122,0.112,0.305,0.167,0.462c4.086,11.861,13.066,19.67,22.891,26.405c2.764,1.895,2.107,2.977,1.425,4.958
			c-3.741,2.289-7.692,4.307-11.147,6.966c-2.16,1.662-2.98,1.534-4.592-0.549c-3.338-4.315-7.525-7.831-11.586-11.484
			c-4.288-3.859-8.971-5.565-14.674-5.463c-3.275,0.06-5.51,0.785-6.01,4.33c-1.912,0.283-3.188-0.769-4.129-2.191
			c-1.09-1.644-2.189-2.105-4.123-1.195c-1.4,0.658-2.938,1.093-3.117,2.754c-0.211,1.958,1.648,2.151,2.959,2.662
			c0.629,0.245,1.502,0.431,1.304,1.164c-1.142,4.242,1.524,1.905,2.87,1.67c1.449-0.252,2.871-0.652,4.305-0.988
			c0.949,7.192-3.426,11.732-8.393,15.53c-4.521,3.457-9.422,1.449-14.276-0.197c-4.593-1.558-4.296-5.958-6.208-9.067
			c1.83-0.576,3.947,0.636,5.575-0.716c0.335-1.09-0.364-1.306-0.948-1.576c-1.695-0.781-2.047-2.036-0.154-2.551
			c1.838-0.5,2.836,1.305,3.664,2.778c0.244,0.435,0.344,1.003,0.687,1.322c2.894,2.692-1.378,6.188,1.014,9.117
			c3.734-1.95,0.44-7.389,5.013-8.888c-3.486-0.6-4.951-3.158-6.801-5.233c-0.568-0.641-1.068-1.788-0.023-2.007
			c5.089-1.068,4.691-6.251,7.427-9.097c-3.173-0.204-6.589-1.226-6.192,3.918c0.166,2.161-1.08,2.229-2.742,0.962
			c-1.943-1.48-3.416-3.737-6.033-4.168c-1.524-0.251-2.763-0.802-2.324-2.465c0.43-1.635,0.258-4.359,2.445-4.367
			c3.492-0.011,5.322-4.135,9.779-2.317c-1.605-2.285-3.492-2.858-4.452-2.505c-2.529,0.928-5.069-1.595-7.632,0.599
			c-1.428,1.223-2.152-1.153-2.623-2.055c-1.072-2.063-0.264-4.434,0.217-6.486c0.234-1.004,1.955,0.122,2.949,0.703
			c1.561,0.912,3.137,1.837,4.809,2.502c1.174,0.467,2.947,0.973,3.58-0.287c0.451-0.897,0.021-3.097-0.736-3.581
			c-2.361-1.503-2.63-3.709-2.76-6.089c-4.303,1.276-4.303,1.276-6.113-0.544c-2.426-2.441-5.299-1.919-5.252,1.424
			c0.045,3.396-2.334,1.826-3.353,2.759c2.935,3.579,3.446,7.94,4.017,12.243c0.156,1.182,0.475,3.004-1.481,3.102
			c-1.712,0.084-1.2-1.577-1.501-2.612c-0.527-1.812-0.279-4.058-2.545-4.993c0.368-3.377-0.947-6.742-0.078-10.125
			c1.193-0.034,2.047-0.234,2.73-1.578c0.93-1.821,2.504-4.788,3.711-4.745c6.865,0.24,3.09-2.912,1.563-5.772
			c8.52,2.665,7.893-3.662,9.045-8.558c-1.002-0.069-2.103,0.146-2.904-0.247c-5.445-2.671-8.198-1.422-8.082,5.007
			C6.369,48.158,5.102,54.231,1.005,50.916z M24.898,77.893c-0.132,0.157-0.264,0.315-0.395,0.472
			c0.156-0.133,0.312-0.266,0.467-0.4c0.145-0.167,0.289-0.334,0.434-0.501C25.235,77.607,25.066,77.75,24.898,77.893z
			 M54.936,19.929c-0.011,1.318-1,2.854,1.16,3.591c2.307,0.787,4.076,0.284,5.77-1.763c-2.461-0.62-4.07-3.396-6.948-1.809
			c-0.54-1.229,2.013-2.71-0.339-3.806c-3.016-1.407-9.207,0.852-9.176,4.073c0.035,3.426-2.22,2.429-3.578,3.279
			c-1.718,1.073-3.473-0.346-5.75,0.115c2.371,4.035,7.912,2.681,8.641,2.196C48.004,23.61,52.719,23.783,54.936,19.929z
			 M56.746,80.132c0.244,0.104,0.486,0.207,0.73,0.31c-0.104-0.244-0.207-0.488-0.311-0.732c-0.287-0.933-0.277-2.32-0.906-2.729
			c-6.718-4.376-12.646-10.098-20.641-12.336c-2.568-0.719-5.406-1.839-7.719-0.401c-1.957,1.217,0.666,3.638-0.111,5.522
			c-0.061,0.148-0.018,0.337-0.07,0.491c-1.67,4.863,1.143,5.659,5.072,5.926C40.891,76.734,48.885,78.062,56.746,80.132z
			 M34.701,109.208c-4.987-3.026-5.509-2.56-6.787,5.124C32.984,116.256,29.029,106.92,34.701,109.208z M34.834,52.077
			c0.678-2.161,3.888-1.137,3.509-3.904c-0.132-0.963-1.407-1.447-2.427-1.057C33.76,47.941,33.533,49.507,34.834,52.077z
			 M36.131,104.703c-2.361-1.068-3.421-3.386-6.014-2.634c-0.348,0.102-0.869,0.798-0.785,1.03c0.975,2.695,3.752,1.375,5.516,2.379
			C34.916,105.517,35.117,105.323,36.131,104.703z M21.333,63.726c0.763-2.166,0.909-4.28,3.698-5.676
			C19.986,58.804,19.646,59.408,21.333,63.726z M25.256,80.546c-0.024-0.12-0.01-0.294-0.083-0.347
			c-0.105-0.075-0.274-0.061-0.415-0.085c0.039,0.198,0.076,0.395,0.115,0.592C25.001,80.652,25.129,80.599,25.256,80.546z"/>
		<path fill-rule="evenodd" clip-rule="evenodd" fill="#71834F" d="M89.69,101.188c0.683-1.981,1.339-3.063-1.425-4.958
			c-9.824-6.734-18.805-14.544-22.891-26.405c-0.055-0.157-0.207-0.34-0.167-0.462c2.675-8.053-5.985-12.749-5.958-20.072
			c0.007-1.823-1.355-2.261-3.238-1.584c-1.566,0.564-3.51,0.401-2.988,2.904c0.236,1.132,0.771,2.202,1.017,3.333
			c0.267,1.226,2.399,2.223,1.14,3.416c-1.507,1.426-2.615-0.479-3.695-1.355c-2.566-2.085-4.624-3.979-4.436-8.128
			c0.234-5.211-1.197-10.489-1.805-15.751c-0.212-1.842,1.96-2.761,2.306-3.475c2.653-5.479,8.198,0.954,10.839-3.16
			c1.615,1.512-1.247,4.613,1.924,5.509c0.114,0.032,0.015,0.819,0.014,1.253c-3.014-0.034-1.461,1.517-0.59,2.207
			c0.926,0.735,2.23,0.713,2.992-0.586c0.332-0.568,0.445-1.284,0.838-1.794c3.666-4.759,3.855-4.705,6.658,0.622
			c0.661,1.255,1.502,2.692,3.234,2.61c0.434-0.021,1.041-0.858,1.199-1.424c0.52-1.85-0.357-2.705-2.213-3.033
			c-1.365-0.241-1.709-1.339-0.242-1.808c2.556-0.817,0.602-1.781,0.387-2.83c-0.639-3.127,1.691-5.13,4.609-3.759
			c1.385,0.65,2.459,2.145,3.453-0.068c0.984-2.188-1.099-2.205-2.314-2.92c-1.473-0.867-3.402-1.666-2.297-4.067
			c0.331-0.147,0.662-0.294,0.992-0.441c3.768,1.015,7.596,1.815,8.752,6.514c0.289,1.173,1.867,3.299,3.027,0.938
			c2.014-4.101,4.265-1.373,7.375-0.968c-2.264,1.654-3.898,2.849-6.082,4.446c3.98,1.612,6.298,5.317,10.596,6.199
			c1.756,0.36,2.038,2.512,1.752,3.671c-0.461,1.86-2.957,2.188-4.314,2.32c-4.805,0.463-9.504-0.158-13.764,3.617
			c-1.469,1.303-1.547,2.166-1.373,3.262c0.322,2.012-0.674,3.626-0.996,5.43c-0.184,1.036-0.084,2.975,1.623,1.81
			c1.723-1.176,3.234-1.945,3.557,0.479c0.182,1.376,0.34,3.896-1.804,4.792c-2.562,1.072-2.175-1.563-2.944-2.954
			c-1.227,1.814-2.662,3.321,0.145,4.568c1.84,0.817,1.236,2.058,0.572,3.281c-1.223,2.248-1.479,0.553-2.553-0.313
			c-1.45-1.168-1.666,0.917-2.035,1.747c-5.186,11.665-2.459,18.485,8.342,26.707c3.826,2.913,6.107,4.458,10.324,1.731
			c2.727-1.762,4.484-7.827,2.4-10.448c-1.012-1.272-0.99-2.437-0.189-3.627c0.942-1.403,1.967-2.384,4.078-2.052
			c4.234,0.666,5.271,3.988,6.664,7.129c0.516,5.949-0.166,11.813-1.252,17.647c-0.594,0.007-1.186,0.015-1.779,0.021
			c-3.541-4.441-6.621-4.796-13.363-1.14C92.439,100.501,91.096,100.833,89.69,101.188z M69.137,61.428
			c-0.627-4.408-0.254-8.658-0.301-12.895c-0.02-1.678-0.059-4.934-2.021-3.782c-1.904,1.119-6.826,1.18-5.445,4.978
			C62.932,54.022,65.109,58.342,69.137,61.428z M58.54,43.224c0.97-3.366,0.048-5.395-3.165-6.116
			c-0.404-0.09-1.034-0.237-1.209-0.042c-0.28,0.312-0.267,0.888-0.377,1.352C56.549,38.754,55.785,42.464,58.54,43.224z"/>
		<path fill-rule="evenodd" clip-rule="evenodd" fill="#71834F" d="M0.381,74.022c2.266,0.935,2.018,3.181,2.545,4.993
			c0.301,1.036-0.211,2.697,1.501,2.612c1.956-0.097,1.638-1.919,1.481-3.102c-0.57-4.303-1.082-8.665-4.017-12.243
			c1.019-0.933,3.397,0.637,3.353-2.759c-0.047-3.343,2.826-3.865,5.252-1.424c1.811,1.82,1.811,1.82,6.113,0.544
			c0.13,2.38,0.398,4.585,2.76,6.089c0.758,0.484,1.188,2.684,0.736,3.581c-0.633,1.26-2.406,0.754-3.58,0.287
			c-1.672-0.665-3.248-1.59-4.809-2.502c-0.994-0.581-2.715-1.707-2.949-0.703c-0.48,2.052-1.289,4.423-0.217,6.486
			c0.471,0.902,1.195,3.278,2.623,2.055c2.563-2.193,5.103,0.329,7.632-0.599c0.96-0.353,2.847,0.221,4.452,2.505
			c-4.457-1.818-6.287,2.306-9.779,2.317c-2.188,0.007-2.016,2.731-2.445,4.367c-0.438,1.663,0.8,2.214,2.324,2.465
			c2.617,0.431,4.09,2.688,6.033,4.168c1.662,1.267,2.908,1.198,2.742-0.962c-0.396-5.145,3.02-4.123,6.192-3.918
			c-2.735,2.845-2.338,8.029-7.427,9.097c-1.045,0.219-0.545,1.366,0.023,2.007c1.85,2.075,3.314,4.633,6.801,5.233
			c-4.572,1.499-1.278,6.938-5.013,8.888c-2.392-2.93,1.88-6.425-1.014-9.117c-0.343-0.318-0.442-0.887-0.687-1.322
			c-0.828-1.473-1.826-3.278-3.664-2.778c-1.893,0.515-1.541,1.77,0.154,2.551c0.584,0.27,1.283,0.486,0.948,1.576
			c-1.628,1.352-3.745,0.14-5.575,0.716c-8.162-1.432-9.393-8.909-12.771-14.55c-1.568-2.616,0.828-5.264-0.113-7.518
			C-1.371,79.81-0.29,77.001,0.381,74.022z M8.137,89.305C6.25,90.6,4.828,96.391,6.372,96.876c1.727,0.543,4.501,2.616,5.856,0.106
			c0.797-1.473,3.447-3.257,1.859-4.981c-1.504-1.633-2.857,1.511-4.631,1.512c-0.309,0-0.619-0.089-0.895-0.131
			C7.102,92.147,9.563,90.534,8.137,89.305z M10.346,102.396c-0.467-0.312-0.834-0.641-1.265-0.81
			c-0.22-0.086-0.772,0.073-0.796,0.194c-0.172,0.898,0.484,1.07,1.156,1.076C9.699,102.858,9.957,102.604,10.346,102.396z"/>
		<path fill-rule="evenodd" clip-rule="evenodd" fill="#71834F" d="M168.896,25c-1.822,1.704-0.199,4.688-2.408,6.322
			c-0.936,0.691-0.637,2.853-2.617,2.385c-1.75-0.413-3.033-1.301-2.939-3.405c0.063-1.405-0.386-2.578-2.225-3.283
			c-0.839,2.287,1.609,5.886-2.879,6.493c-2.549,0.345-3.702-0.474-4.929-3.224c3.794,1.825,3.642-1.254,4.429-2.889
			c0.813-1.692-0.848-2.202-2.006-2.811c-1.363-0.715-2.043-0.314-2.525,1.177c-0.961,2.958-2.334,5.417-6.232,3.8
			c-0.807-0.335-1.85-0.663-2.67,0.443c-3.074,4.153-6.707,0.264-10.064,0.442c-1.253,0.067-1.008-2.142-0.538-3.436
			c0.563-1.55,1.065-3.131,1.759-4.622c1.224-2.627,0.188-3.39-2.396-3.831c-1.074-0.184-3.794-0.008-3.209-2.09
			c0.717-2.546,2.643-0.815,4.066-0.25c0.598,0.238,1.15,0.706,1.936,0.036c0.51-1.85-2.604-3.182-1.045-5.313
			c0.65-0.888,0.273-2.626,1.775-2.732c2.111-0.149,1.135,1.395,1.125,2.434c-0.008,0.74,0.525,1.319,1.27,1.194
			c3.488-0.588,3.525,2.232,4.266,4.289c0.813,2.262,2.42,3.607,4.244,5.159c3.123,2.657,3.699,0.945,4.381-2.151
			c2.355,2.491,4.486,4.793,7.791,5.109c0.713-1.087-1.693-6.145,3.285-2.171c1.279,1.021,5.364,0.987,8.066,1.929
			C168.703,24.336,168.799,24.667,168.896,25z"/>
		<path fill-rule="evenodd" clip-rule="evenodd" fill="#71834F" d="M114.232,8.002c8-0.347,7.482-0.268,8.824,8.412
			c0.602,3.904-1.131,8.206,1.727,11.842c0.596,0.756,0.596,2.371-0.475,3.196c-1.234,0.951-2.666,0.656-3.551-0.474
			c-1.857-2.375-4.068-2.664-6.525-1.342c-0.914,0.491-1.582,1.219-2.564,0.299c-1.018-0.952-0.771-2.125-0.48-3.248
			c0.508-1.964,2.797-3.953-0.806-5.602c-1.132-0.517,0.06-2.169,0.714-3.389c1.449-2.702,3.434-5.35,2.791-8.759
			C114.002,8.625,114.117,8.314,114.232,8.002z M120.014,11.195c-0.837,2.708-3.551,3.446-2.184,5.96
			c0.389,0.714,1.566,0.97,2.201,0.366C121.723,15.913,121.096,14.112,120.014,11.195z"/>
		<path fill-rule="evenodd" clip-rule="evenodd" fill="#71834F" d="M1.005,50.916c4.097,3.316,5.364-2.758,5.36-2.911
			c-0.116-6.429,2.637-7.678,8.082-5.007c0.802,0.394,1.902,0.178,2.904,0.247c-1.152,4.896-0.525,11.222-9.045,8.558
			c1.527,2.86,5.303,6.012-1.563,5.772C5.537,57.533,3.963,60.5,3.033,62.32c-0.684,1.344-1.537,1.544-2.73,1.578
			c-0.133-1.011-0.266-2.023-0.398-3.035c1.43-3.072,6.598-2.929,6.613-7.527c-2.33-0.514-6.1,6.65-6.635-1.261
			C0.258,51.688,0.631,51.302,1.005,50.916z M9.555,44.154c-0.103,0.405-0.277,0.787-0.252,1.156
			c0.01,0.133,0.701,0.375,0.739,0.323c0.226-0.318,0.353-0.706,0.513-1.069C10.279,44.451,10.004,44.338,9.555,44.154z"/>
		<path fill-rule="evenodd" clip-rule="evenodd" fill="#71834F" d="M21.957,24.965c3.959,0.261,6.01,3.056,7.953,5.99l0.038-0.038
			c-1.435,0.077-3.275-0.533-4.011,1.094c-0.594,1.317,2.617,0.848,1.797,2.755c-5.286,0.413-5.286,0.413-5.439,5.244
			c-2.131-2.842-4.266-4.007-7.504-2.3c-1.605,0.847-3.898,0.285-5.725-0.713c0.412-1.017,0.823-2.034,1.234-3.051
			c0.357,0,0.566-0.172,0.629-0.519c0.393-0.146,0.787-0.292,1.18-0.438C16.066,31.143,21.847,31.532,21.957,24.965z"/>
		<path fill-rule="evenodd" clip-rule="evenodd" fill="#71834F" d="M41.75,98.863c-1.434,0.336-2.855,0.736-4.305,0.988
			c-1.346,0.235-4.012,2.572-2.87-1.67c0.198-0.733-0.675-0.919-1.304-1.164c-1.311-0.511-3.17-0.704-2.959-2.662
			c0.18-1.661,1.717-2.097,3.117-2.754c1.934-0.91,3.033-0.449,4.123,1.195c0.94,1.422,2.217,2.474,4.129,2.191
			C41.705,96.279,41.729,97.571,41.75,98.863z"/>
		<path fill-rule="evenodd" clip-rule="evenodd" fill="#99AD6D" d="M21.957,24.965c-0.11,6.567-5.891,6.178-9.848,8.024
			c1.752-3.208,2.79-7.036,7.029-8.08c0.926,0.002,1.85,0.004,2.775,0.006L21.957,24.965z"/>
		<path fill-rule="evenodd" clip-rule="evenodd" fill="#71834F" d="M21.914,24.916c-0.926-0.002-1.85-0.004-2.775-0.006
			c3.504-3.722,6.607-8.131,12.705-7.398c0.018,1.56-0.553,2.373-2.307,2.504C26.18,20.266,23.784,22.234,21.914,24.916z"/>
		<path fill-rule="evenodd" clip-rule="evenodd" fill="#99AD6D" d="M-0.117,52.075c0.535,7.912,4.305,0.748,6.635,1.261
			c-0.016,4.599-5.184,4.456-6.613,7.527C-1.57,57.937-1.641,55.008-0.117,52.075z"/>
		<path fill-rule="evenodd" clip-rule="evenodd" fill="#71834F" d="M155.002,12.932c-0.577,2.059,0.768,3.628,2.318,6.589
			c-2.809-1.914-5.836-0.349-6.309-3.723c-0.307-2.187-0.259-4.452,2.764-4.886C154.184,11.586,154.594,12.259,155.002,12.932z"/>
		<path fill-rule="evenodd" clip-rule="evenodd" fill="#99AD6D" d="M107.154,100.91c0.594-0.007,1.186-0.014,1.779-0.021
			c0.203,0.843,0.174,1.718-0.885,1.753C106.852,102.68,107.113,101.672,107.154,100.91z"/>
		<path fill-rule="evenodd" clip-rule="evenodd" fill="#99AD6D" d="M10.93,33.427c-0.063,0.347-0.271,0.519-0.629,0.519
			C10.172,33.362,10.338,33.137,10.93,33.427z"/>
		<path fill-rule="evenodd" clip-rule="evenodd" fill="#71834F" d="M107.264,42.364c-3.2-0.336-1.545,3.89-4.398,4.202
			c-0.297-2.078,0.658-3.957,0.922-5.918c0.57-4.238,2.102-4.103,4.381-0.738c1.121-6.29,3.283-8.042,8.932-6.879
			c2.004,0.412,2.453,2.865,2.662,4.667c0.406,3.495-1.133,7.88,4.957,7.936c1.101,0.01,1.262,1.78,1.088,2.995
			c-0.352,2.458-6.143,7.927-8.535,8.073c-4.668,0.286-5.362,1.521-3.334,5.939c1.627,3.548,1.627,3.548,0.314,7.893
			c-4.618-3.329-7.979-8.772-7.754-13.042c0.202-3.83,1.223-7.558,0.035-11.533C106.24,44.979,108.146,43.856,107.264,42.364z"/>
		<path fill-rule="evenodd" clip-rule="evenodd" fill="#71834F" d="M172.928,78.912c-0.461-0.151-1.293-0.246-1.326-0.464
			c-0.348-2.234,1.283-6.257-3.945-3.085c-1.334,0.81-3.071-2.287-2.613-4.526c1.754-1.414,2.557,5.138,4.066,0.196
			c0.219-0.718-1.238-2.807-1.482-4.505c-4.016,0.984-7.598,1.995-8.061,7.149c-0.191,2.119-2.883,0.771-4.537,1.575
			c1.373,1.845,1.42,4.313,1.24,6.202c-0.264,2.735-3.578,2.091-5.66,2.727c-2.492,0.761-4.998,1.478-8.537,2.519
			c2.002-6.104,8.034-8.769,8.965-14.235c-1.385-2.015-4.145,2.178-4.982-1.078c-0.857-3.33,0.003-6.801,1.852-9.506
			c1.428-2.092,4.342-1.109,6.582-0.793c1.799,0.254,1.738,1.877,1.242,3.162c-0.582,1.504-1.477,2.887-1.922,4.805
			c3.445-3.583,10.644-0.497,12.137-7.436c0.258-1.193,1.038-1.623,2.156-1.622c2.266,0.003,2.646-0.363,2.494-2.433
			c3.172,2.526,5.096,7.777,3.715,11.293c-0.806,2.049,0.125,3.707,0.701,5.251c0.975,2.613-0.217,3.755-2.117,4.838L172.928,78.912
			z"/>
		<path fill-rule="evenodd" clip-rule="evenodd" fill="#71834F" d="M162.877,91.208c-1.403-1.729-2.621-2.133-4-2.22
			c-1.307-0.082-2.949,0.078-2.814-1.887c0.105-1.545,0.891-2.854,2.643-3.185c0.324-0.061,0.666-0.024,0.992-0.079
			c7.025-1.165,7.025-1.167,9.059,8.028c0.701,3.167-0.443,4.688-2.959,7.251c-4.039,4.112-10.377,0.424-13.43,5.579
			c-0.48,0.812-2.822,0.394-4.275-0.181c-0.91-0.361-1.86-0.898-2.785-0.883c-1.402,0.022-2.969,2.721-4.133,0.21
			c-1.008-2.174,1.197-3.546,2.486-5.007C148.609,93.232,155.586,92.495,162.877,91.208z"/>
		<path fill-rule="evenodd" clip-rule="evenodd" fill="#71834F" d="M120.98,57.045c4.922,1.83,4.922,1.83,2.412,6.213
			c8.843,1.884,8.004,8.762,3.393,20.006c-3.176-2.875-5.43-7.131-5.76-10.441c-0.316-3.17-0.488-7.396,0.696-10.511
			C122.621,59.942,121.457,58.816,120.98,57.045z"/>
		<path fill-rule="evenodd" clip-rule="evenodd" fill="#71834F" d="M145.479,34.872c2.605,4.19-1.013,6.562-3.355,8.345
			c-1.512,1.151-3.783-1.824-4.996-3.213c-2.014-2.311-2.852-5.122-4.578,0.119c-0.529,1.607-2.25,0.566-3.285-0.356
			c-1.082-0.965-0.49-1.412,0.398-2.23c3.783-3.485,6.693-3.555,10.314,0.004C141.793,39.324,143.053,38.707,145.479,34.872z"/>
		<path fill-rule="evenodd" clip-rule="evenodd" fill="#71834F" d="M150.9,48.949c1.389,0.746,3.203-1.655,4.635,1.075
			c0.768,1.461,1.637-0.838,2.098-1.618c0.898-1.521,1.982-3.417,3.709-1.995c2.193,1.806-0.982,2.547-1.623,3.588
			c-2.379,3.874-7.385,3.054-10.795,5.302c-0.734,0.484-1.633,0.223-1.805-0.919c-0.156-1.033-0.013-1.967,0.83-2.714
			c1.012-0.895,3.205-0.517,2.98-2.749L150.9,48.949z"/>
		<path fill-rule="evenodd" clip-rule="evenodd" fill="#71834F" d="M176.908,47.933c-1.111-2.102-3.6-3.02-4.441-5.446
			c-0.711-2.05-0.033-4.066,1.215-4.898c1.406-0.938,2.832,1.111,3.26,2.273c0.953,2.589,2.582,5.414-0.028,8.076L176.908,47.933z"
			/>
		<path fill-rule="evenodd" clip-rule="evenodd" fill="#71834F" d="M97.264,48.695c-2.701,0.539-4.507,0.334-4.348-2.606
			c0.102-1.889-0.85-4.883,1.275-5.222c1.756-0.281,4.82,0.296,6.013,2.284c1.29,2.15-1.034,1.788-2.138,1.838
			C94.285,45.163,93.879,46.363,97.264,48.695z"/>
		<path fill-rule="evenodd" clip-rule="evenodd" fill="#71834F" d="M93.037,54.818c-1.469-0.25-2.941-0.711-2.924-2.502
			c0.014-1.56,1.629-1.275,2.684-1.291c1.961-0.029,3.184,1.078,2.977,3.007C95.48,56.765,93.83,52.725,93.037,54.818z"/>
		<path fill-rule="evenodd" clip-rule="evenodd" fill="#71834F" d="M175.166,87.162c-0.506,2.194,3.947,2.809,1.462,5.093
			c-1.128,1.037-3.162-0.033-3.581-0.66C171.531,89.325,174.65,88.937,175.166,87.162z"/>
		<path fill-rule="evenodd" clip-rule="evenodd" fill="#71834F" d="M150.93,48.92c-1.658,0.551-3.314,1.101-5.398,1.794
			c0.813-2.396,2.076-4.456,4.119-4.892c1.434-0.305,1.164,1.89,1.25,3.126L150.93,48.92z"/>
		<path fill-rule="evenodd" clip-rule="evenodd" fill="#71834F" d="M161.658,19.975c-0.088,0.109-0.176,0.219-0.264,0.328
			c-0.066-0.127-0.189-0.259-0.18-0.38c0.012-0.118,0.16-0.223,0.248-0.334C161.529,19.717,161.594,19.847,161.658,19.975z"/>
		<path fill-rule="evenodd" clip-rule="evenodd" fill="#71834F" d="M172.895,78.945c0.139,0.141,0.277,0.281,0.418,0.422
			c-0.088-0.029-0.213-0.033-0.255-0.093c-0.071-0.102-0.091-0.239-0.13-0.362L172.895,78.945z"/>
		<path fill-rule="evenodd" clip-rule="evenodd" fill="#71834F" d="M176.913,47.938c-0.136,0.141-0.272,0.282-0.407,0.422
			c0.02-0.088,0.01-0.21,0.065-0.259c0.091-0.081,0.223-0.114,0.337-0.168L176.913,47.938z"/>
		<path fill-rule="evenodd" clip-rule="evenodd" fill="#71834F" d="M56.744,80.136c-7.859-2.075-15.854-3.402-23.953-3.954
			c-3.93-0.267-6.742-1.063-5.072-5.926c0.053-0.154,0.01-0.343,0.07-0.491c0.777-1.885-1.846-4.305,0.111-5.522
			c2.313-1.438,5.15-0.318,7.719,0.401c7.994,2.239,13.923,7.96,20.641,12.336c0.629,0.409,0.619,1.796,0.906,2.729
			C57.021,79.847,56.879,79.988,56.744,80.136z"/>
		<path fill-rule="evenodd" clip-rule="evenodd" fill="#71834F" d="M54.936,19.929c-2.217,3.854-6.932,3.681-10.221,5.876
			c-0.729,0.485-6.27,1.839-8.641-2.196c2.277-0.461,4.032,0.958,5.75-0.115c1.358-0.85,3.613,0.146,3.578-3.279
			c-0.031-3.221,6.16-5.48,9.176-4.073c2.352,1.096-0.201,2.578,0.339,3.806L54.936,19.929z"/>
		<path fill-rule="evenodd" clip-rule="evenodd" fill="#71834F" d="M29.91,30.955c2.129,0.707,4.078,0.773,5.928-0.908
			c1.283-1.168,2.549-0.989,3.725,0.586c1.592,2.135-0.434,1.852-1.363,2.456c-3.381,2.199-2.789,6.958-6.152,9.422
			c-1.271,0.93-2.312,1.311-3.664,1.734c-0.254-4.714,4.748-8.527,1.564-13.328L29.91,30.955z M32.686,37.241
			c-0.164,0.245-0.326,0.491-0.488,0.736c0.248,0.05,0.499,0.142,0.746,0.13c0.097-0.004,0.288-0.308,0.258-0.352
			C33.064,37.56,32.865,37.408,32.686,37.241z"/>
		<path fill-rule="evenodd" clip-rule="evenodd" fill="#71834F" d="M34.701,109.208c-5.672-2.288-1.717,7.048-6.787,5.124
			C29.192,106.648,29.714,106.182,34.701,109.208z"/>
		<path fill-rule="evenodd" clip-rule="evenodd" fill="#71834F" d="M54.917,19.949c2.878-1.588,4.487,1.188,6.948,1.809
			c-1.693,2.047-3.463,2.549-5.77,1.763c-2.16-0.737-1.171-2.272-1.16-3.591L54.917,19.949z"/>
		<path fill-rule="evenodd" clip-rule="evenodd" fill="#71834F" d="M34.834,52.077c-1.301-2.57-1.074-4.136,1.082-4.961
			c1.02-0.39,2.295,0.094,2.427,1.057C38.722,50.94,35.512,49.917,34.834,52.077z"/>
		<path fill-rule="evenodd" clip-rule="evenodd" fill="#71834F" d="M36.131,104.703c-1.014,0.621-1.215,0.814-1.283,0.775
			c-1.764-1.004-4.541,0.316-5.516-2.379c-0.084-0.232,0.438-0.929,0.785-1.03C32.71,101.317,33.77,103.634,36.131,104.703z"/>
		<path fill-rule="evenodd" clip-rule="evenodd" fill="#71834F" d="M21.333,63.726c-1.688-4.318-1.347-4.922,3.698-5.676
			C22.242,59.446,22.096,61.56,21.333,63.726z"/>
		<path fill-rule="evenodd" clip-rule="evenodd" fill="#71834F" d="M25.256,80.546c-0.127,0.053-0.255,0.106-0.383,0.16
			c-0.039-0.197-0.076-0.394-0.115-0.592c0.141,0.025,0.31,0.011,0.415,0.085C25.246,80.251,25.231,80.426,25.256,80.546z"/>
		<path fill-rule="evenodd" clip-rule="evenodd" fill="#71834F" d="M24.971,77.966c-0.155,0.133-0.311,0.266-0.467,0.399
			c0.131-0.157,0.263-0.315,0.395-0.472L24.971,77.966z"/>
		<path fill-rule="evenodd" clip-rule="evenodd" fill="#71834F" d="M57.166,79.709c0.104,0.244,0.207,0.488,0.311,0.732
			c-0.244-0.103-0.486-0.206-0.73-0.308C56.879,79.988,57.021,79.847,57.166,79.709z"/>
		<path fill-rule="evenodd" clip-rule="evenodd" fill="#71834F" d="M24.898,77.893c0.168-0.143,0.337-0.286,0.506-0.429
			c-0.145,0.167-0.289,0.334-0.434,0.502L24.898,77.893z"/>
		<path fill-rule="evenodd" clip-rule="evenodd" fill="#99AD6D" d="M69.137,61.428c-4.027-3.086-6.205-7.406-7.768-11.699
			c-1.381-3.798,3.541-3.859,5.445-4.978c1.963-1.152,2.002,2.104,2.021,3.782C68.883,52.77,68.51,57.02,69.137,61.428z"/>
		<path fill-rule="evenodd" clip-rule="evenodd" fill="#99AD6D" d="M58.54,43.224c-2.755-0.76-1.991-4.47-4.751-4.807
			c0.11-0.464,0.097-1.04,0.377-1.352c0.175-0.195,0.805-0.048,1.209,0.042C58.588,37.829,59.51,39.858,58.54,43.224z"/>
		<path fill-rule="evenodd" clip-rule="evenodd" fill="#99AD6D" d="M8.137,89.305c1.426,1.229-1.035,2.843,0.426,4.078
			c0.275,0.042,0.586,0.131,0.895,0.131c1.773-0.001,3.127-3.146,4.631-1.512c1.588,1.725-1.063,3.509-1.859,4.981
			c-1.355,2.51-4.13,0.438-5.856-0.106C4.828,96.391,6.25,90.6,8.137,89.305z"/>
		<path fill-rule="evenodd" clip-rule="evenodd" fill="#99AD6D" d="M10.346,102.396c-0.389,0.208-0.646,0.462-0.904,0.46
			c-0.672-0.006-1.328-0.178-1.156-1.076c0.023-0.121,0.576-0.281,0.796-0.194C9.512,101.755,9.879,102.084,10.346,102.396z"/>
		<path fill-rule="evenodd" clip-rule="evenodd" fill="#99AD6D" d="M120.014,11.195c1.082,2.917,1.709,4.718,0.018,6.326
			c-0.635,0.604-1.813,0.349-2.201-0.366C116.463,14.641,119.177,13.903,120.014,11.195z"/>
		<path fill-rule="evenodd" clip-rule="evenodd" fill="#99AD6D" d="M9.555,44.154c0.449,0.184,0.725,0.296,1,0.409
			c-0.16,0.364-0.287,0.751-0.513,1.069c-0.038,0.053-0.729-0.19-0.739-0.323C9.277,44.941,9.452,44.559,9.555,44.154z"/>
		<path fill-rule="evenodd" clip-rule="evenodd" fill="#99AD6D" d="M32.688,37.241c0.178,0.167,0.377,0.319,0.514,0.516
			c0.03,0.044-0.161,0.348-0.258,0.352c-0.247,0.011-0.498-0.081-0.746-0.13C32.359,37.732,32.521,37.486,32.688,37.241z"/>
	</g>
</g>
</svg>
