<?xml version="1.0" encoding="utf-8"?>
<!-- Generator: Adobe Illustrator 16.0.0, SVG Export Plug-In . SVG Version: 6.00 Build 0)  -->
<!DOCTYPE svg PUBLIC "-//W3C//DTD SVG 1.1//EN" "http://www.w3.org/Graphics/SVG/1.1/DTD/svg11.dtd">
<svg version="1.1" xmlns="http://www.w3.org/2000/svg" xmlns:xlink="http://www.w3.org/1999/xlink" x="0px" y="0px"
	 width="130.709px" height="92.207px" viewBox="0 0 130.709 92.207" enable-background="new 0 0 130.709 92.207"
	 xml:space="preserve">
<g id="圖層_2" display="none">
</g>
<g id="圖層_1參考">
</g>
<g id="圖層_3">
</g>
<g id="圖層_4">
</g>
<g id="圖層_7">
</g>
<g id="圖層_6">
</g>
<g id="廣告圖1">
</g>
<g id="圖層_8">
	<path fill-rule="evenodd" clip-rule="evenodd" fill="#A4B8CC" d="M66.581,19.846c12.437,2.656,25.021,5.195,37.5,8.167
		c1.938,0.462,3.763,2.657,5.022,4.478c5.671,8.188,10.643,16.9,16.771,24.715c6.82,8.695,6.838,11.777-2.613,17.369
		c-4.348,2.572-8.779,5.63-13.559,6.637c-3.719,0.783-9.695,0.172-11.827-2.283c-21.28-24.52-52.111-19.496-66.118,4.535
		c-1.556,2.667-8.243,4.255-11.815,3.371c-4.997-1.234-9.593-4.891-13.844-8.18c-7.825-6.055-8.21-11.061-0.636-17.346
		c8.316-6.9,15.503-13.727,16.016-25.697c0.121-2.816,4.82-6.961,8.121-7.844C41.652,24.544,54.004,22.439,66.581,19.846z"/>
	<path fill-rule="evenodd" clip-rule="evenodd" fill="#A4B8CC" d="M119.207,26.804c-7.248-6.345-13.732-11.632-19.648-17.495
		c-1.332-1.318-1.06-6.709-0.885-6.74c6.863-1.26,13.967-3.278,20.625-2.318c2.01,0.289,3.673,8.951,3.878,13.846
		C123.333,17.82,120.93,21.65,119.207,26.804z"/>
	<path fill-rule="evenodd" clip-rule="evenodd" fill="#A4B8CC" d="M29.987,9.618c-7.168,6.403-13.673,12.214-20.227,18.067
		C2.609,17.636,1.299,8.063,6.943,3.865C16.407-3.176,22.185,5.582,29.987,9.618z"/>
	<path fill-rule="evenodd" clip-rule="evenodd" fill="#A4B8CC" d="M59.245,78.484c4.411-0.529,8.822-1.059,15.366-1.845
		c-3.12,4.892-5.011,7.857-7.344,11.515c-3.263-2.656-6-4.887-8.736-7.114C58.77,80.188,59.007,79.336,59.245,78.484z"/>
</g>
</svg>
