<?xml version="1.0" encoding="utf-8"?>
<!-- Generator: Adobe Illustrator 16.0.0, SVG Export Plug-In . SVG Version: 6.00 Build 0)  -->
<!DOCTYPE svg PUBLIC "-//W3C//DTD SVG 1.1//EN" "http://www.w3.org/Graphics/SVG/1.1/DTD/svg11.dtd">
<svg version="1.1" xmlns="http://www.w3.org/2000/svg" xmlns:xlink="http://www.w3.org/1999/xlink" x="0px" y="0px"
	 width="436.557px" height="413.051px" viewBox="0 0 436.557 413.051" enable-background="new 0 0 436.557 413.051"
	 xml:space="preserve">
<g id="圖層_2" display="none">
</g>
<g id="圖層_1參考">
</g>
<g id="圖層_3">
</g>
<g id="圖層_4">
</g>
<g id="圖層_7">
</g>
<g id="圖層_6">
</g>
<g id="廣告圖1">
</g>
<g id="圖層_8">
	<rect fill-rule="evenodd" clip-rule="evenodd" fill="#FFFFFF" width="436.557" height="412.595"/>
	<g>
		<path fill-rule="evenodd" clip-rule="evenodd" fill="#FFFFFF" d="M299.121,413.051c0.765-21.255-0.584-42.481-0.929-63.719
			c-0.155-9.623-1.396-19.226-1.54-28.881c-0.04-2.655,0.736-3.976,3.301-4.475c2.152-0.418,4.422-1.179,5.744-2.855
			c5.514-6.98,14.133-8.514,21.088-12.631c0.964,0.31,0.889,0.979,0.9,1.51c0.315,13.862,0.501,27.729,0.933,41.588
			c0.664,21.479,1.612,42.944,3.5,64.357c0.151,1.716,0.601,3.404,0.911,5.105C321.727,413.051,310.424,413.051,299.121,413.051z"/>
		<path fill-rule="evenodd" clip-rule="evenodd" fill="#050000" d="M244.34,244.321c-1.108,0.184-2.287-0.123-3.307,0.676
			c-5.771,4.518-12.809,7.137-18.271,12.091c-1.35,1.224-2.248,2.944-3.354,4.435c-3.375-0.41-4.726,2.812-7.201,4.057
			c-7.563,3.811-14.627,8.647-23.153,10.398c-2.267,0.466-2.201,2.615-1.674,4.606c2.621,9.915,5.907,19.616,9.345,29.27
			c1.018,2.856,2.036,5.676,2.496,8.727c1.337,8.847-1.234,16.177-7.834,22.222c-1.11,1.017-2.487,2.047-2.83,3.742
			c-1.575-0.137-2.594,0.843-3.769,1.695c-10.305,7.487-22.008,11.303-34.518,12.942c-10.627,0.023-21.254,0.047-31.881,0.07
			c-2.584,0.053-4.582-1.927-7.363-1.718c-7.596,0.571-14.719-2.391-21.741-4.443c-9.438-2.759-18.379-7.269-27.451-11.216
			c-7.425-3.23-15.046-6.241-20.261-12.966c-8.557-14.633-6.044-29.407-0.531-44.203c3.772-10.126,8.651-19.86,11.129-30.442
			c3.068-13.099,2.822-26.38,1.762-39.683c-0.127-1.576-0.031-3.17-0.037-4.756c0.022-5.496-0.219-11.011,0.117-16.488
			c0.986-16.106,6.69-30.063,19.153-40.857c11.854-10.266,25.53-17.743,38.905-25.693c-2.055,6.226-1.761,12.674-1.541,19.061
			c0.162,4.663,1.604,9.062,4.024,13.152c2.018,3.411,6.052,4.814,7.897,8.322c1.367,2.598,1.563,6.273,5.934,6.025
			c1.054-0.061,1.022,1.174,1.178,2.02c0.15,0.826,0.154,1.882,0.666,2.402c2.115,2.152,10.233,3.121,13.085,1.563
			c5.104-2.789,10.24-4.898,11.243-12.307c0.645-4.755,1.644-9.002-0.268-13.596c-1.613-3.877-0.233-6.793,3.078-7.336
			c12.014,0.611,23.126,4.07,32.416,11.793c16.175,13.444,33.566,24.414,54.392,29.058c0.179,2.776-0.964,5.297-1.532,7.929
			c-2.298,1.262-1.059,4.155-2.411,5.613c-4.378,4.722-9.216,8.946-11.718,15.24c-0.736,1.859-2.07,3.617-1.354,5.45
			c0.71,1.815,2.759,0.038,4.124,0.583c2.54,5.5,5.389,10.952,5.958,17.065c0.272,2.938,1.086,4.234,4.108,3.871
			C242.608,242.545,244.082,242.437,244.34,244.321z M207.923,228.554c-8.312-5.195-16.184-9.028-24.527-11.873
			c-1.991-0.679-4.252-1.23-4.236,2.094c0.022,4.763,0.167,9.528,0.396,14.285c0.076,1.59,0.74,2.612,2.823,2.13
			C190.65,233.271,198.921,231.38,207.923,228.554z"/>
		<path fill-rule="evenodd" clip-rule="evenodd" fill="#303A3E" d="M112.072,126.786c-13.375,7.95-27.052,15.428-38.905,25.693
			C60.704,163.273,55,177.23,54.014,193.337c-0.336,5.478-0.095,10.992-0.117,16.488c-0.924-0.01-1.361-0.398-1.919-1.278
			c-6.904-10.917-15.776-18.503-29.264-20.955c-14.7-2.673-21.3-13.415-19.433-28.366c0.776-6.221,2.484-12.14,5.314-17.757
			c3.362-6.667,8.607-10.339,16.141-10.543c3.185-0.087,6.371-0.169,9.557-0.142c7.233,0.062,12.43-3.188,15.795-9.517
			c0.951-1.787,1.911-3.569,2.897-5.337c5.031-9.018,10.432-11.716,20.749-10.462c4.449,0.54,8.871,1.413,13.391,1.244
			c3.365-0.126,6.61-0.688,9.573-2.411c4.314-2.508,6.458-6.881,5.388-11.732c-0.586-2.655-1.252-5.438-2.582-7.763
			c-15.823-27.662,1.63-66.834,38.753-73.198c9.373-1.607,18.983-1.649,28.509,0.269c9.934,1.999,18.281,6.93,25.521,13.641
			c3.409,3.159,6.975,4.481,11.408,5.009c6.796,0.81,13.335,2.66,18.426,7.711c5.623,5.579,6.688,11.805,3.306,18.971
			c-4.087,8.661-3.658,10.112,4.56,15.453c7.915,5.142,9.082,14.082,2.707,21.074c-4.529,4.967-10.542,6.927-16.909,7.994
			c-6.419,1.075-12.869,1.976-19.303,2.953c-0.346-2.396,0.752-4.53,1.331-6.73c2.475-9.4,2.526-9.388-5.563-14.58
			c-0.243-0.156-0.477-0.335-0.732-0.466c-0.861-0.442-1.366-1.134-1.116-2.09c0.293-1.117,1.348-0.911,2.154-0.942
			c3.646-0.139,6.521,1.955,9.668,3.645c4.1-12.913,4.307-25.563-0.095-39.034c-0.468,3.271-0.731,5.707-1.171,8.114
			c-2.073,11.334-7.654,16.087-19.128,16.342c-6.647,0.148-13.284-0.107-19.942,0.621c-8.742,0.959-14.701,7.528-15.705,15.581
			c-0.709,5.685-1.636,11.771-5.869,15.942c-5.604,5.521-11.047,11.553-18.125,15.131
			C117.318,118.677,112.821,120.721,112.072,126.786z"/>
		<path fill-rule="evenodd" clip-rule="evenodd" fill="#303A3E" d="M393.881,238.438c-1.021-4.175-2.073-8.343-3.058-12.526
			c-3.157-13.416-11.293-23.868-20.39-33.621c-10.146-10.877-21.425-20.497-33.898-28.663c-1.75-1.17-3.498-2.34-5.245-3.509
			c-1.864-2.488-4.581-4.48-4.813-7.935c-0.406-6.053-1.852-12.129,4.474-16.718c3.822-2.774,6.198-7.217,8.294-11.535
			c1.032-2.129,2.24-3.08,4.846-3.262c7.966-0.556,14.104-6.646,14.379-13.651c0.107-2.688-0.094-5.32-2.769-6.813
			c-2.61-1.457-5.403-1.439-7.795,0.306c-2.045,1.492-3.91,1.317-6.101,0.653c-2.501-0.759-4.986-1.554-7.158-2.986
			c-1.642-1.085-2.792-1.088-4.585-0.003c-3.472,2.104-7.189,1.7-10.687-0.345c-0.769-0.448-1.533-1.068-1.025-2.068
			c0.6-1.18,1.47-0.475,2.166-0.051c3.226,1.959,6.317,2.248,9.426-0.443c-2.132-2.327-4.135-4.327-6.945-5.392
			c-1.971-0.749-4.012-2.306-3.708-4.357c0.902-6.074-3.503-7.595-7.503-9.294c-4.434-1.885-8.56-4.121-12.134-7.372
			c-4.103-3.729-6.706-8.428-8.698-14.227c-3.756,14.292-10.684,25.688-22.166,33.61c-4.461,3.077-5.343,6.079-3.803,10.645
			c0.064,0.193-0.19,0.494-0.401,0.994c-4.003-1.611-7.175-0.185-9.764,3.006c-1.07-6.563-2.466-13.091-3.144-19.692
			c-1.352-13.156,0.457-25.794,8.378-36.817c7.118-9.906,16.782-15.251,29.252-14.875c5.318,0.162,10.284-1.506,15.217-3.154
			c31.396-10.494,58.098,6.916,63.386,38.729c0.928,5.59,1.459,11.211,1.372,16.855c-0.112,7.228,2.288,13.303,7.446,18.336
			c1.66,1.617,3.176,3.384,4.888,4.939c6.849,6.224,9.961,14.338,10.33,23.182c0.638,15.271,7.423,27.029,18.728,36.709
			c2.741,2.347,5.314,4.928,7.725,7.617c15.288,17.053,11.945,45.372-6.903,58.699C406.23,237.13,400.311,238.722,393.881,238.438z"
			/>
		<path fill-rule="evenodd" clip-rule="evenodd" fill="#354966" d="M41.574,328.909c5.215,6.725,12.836,9.735,20.261,12.966
			c9.072,3.947,18.013,8.457,27.451,11.216c7.022,2.053,14.146,5.015,21.741,4.443c2.781-0.209,4.779,1.771,7.361,1.718
			c0.828,0.774,1.878,0.62,2.877,0.673c7.786,0.42,15.596-0.195,23.388,0.759c1.747,0.214,4.42,1.395,5.618-1.502
			c12.51-1.64,24.213-5.455,34.518-12.942c1.175-0.853,2.193-1.832,3.769-1.695c5.966,22.494,14.705,43.84,26.485,63.926
			c0.629,1.073,2.033,2.208,1.253,3.438c-0.736,1.16-2.403,0.502-3.643,0.502c-55.741,0.021-111.48-0.029-167.222,0.108
			c-3.326,0.007-4.509-1.164-5.354-4.011c-5.459-18.449-6.559-37.191-3.954-56.192C37.216,344.349,38.707,336.466,41.574,328.909z"
			/>
		<path fill-rule="evenodd" clip-rule="evenodd" fill="#FFFFFF" d="M254.819,102.882c2.589-3.19,5.761-4.617,9.764-3.006
			c0.211-0.5,0.466-0.801,0.401-0.994c-1.54-4.565-0.658-7.567,3.803-10.645c11.482-7.923,18.41-19.318,22.166-33.61
			c1.992,5.799,4.596,10.498,8.698,14.227c3.574,3.251,7.7,5.487,12.134,7.372c4,1.699,8.405,3.22,7.503,9.294
			c-0.304,2.052,1.737,3.608,3.708,4.357c2.811,1.064,4.813,3.064,6.945,5.392c-3.108,2.691-6.2,2.402-9.426,0.443
			c-0.696-0.424-1.566-1.129-2.166,0.051c-0.508,1,0.257,1.62,1.025,2.068c3.497,2.045,7.215,2.448,10.687,0.345
			c1.793-1.085,2.943-1.082,4.585,0.003c2.172,1.433,4.657,2.228,7.158,2.986c2.19,0.664,4.056,0.839,6.101-0.653
			c2.392-1.745,5.185-1.763,7.795-0.306c2.675,1.492,2.876,4.124,2.769,6.813c-0.275,7.006-6.413,13.096-14.379,13.651
			c-2.605,0.182-3.813,1.133-4.846,3.262c-2.096,4.318-4.472,8.761-8.294,11.535c-6.325,4.589-4.88,10.665-4.474,16.718
			c0.232,3.454,2.949,5.446,4.813,7.935c-0.14,5.553-2.18,10.716-3.354,16.051c-3.174,14.391-7.847,28.299-14.084,41.66
			c-0.715,1.529-1.312,3.557-3.295,3.69c-2.079,0.14-2.65-1.947-3.505-3.395c-5.798-9.814-11.11-19.895-15.911-30.229
			c-3.799-8.181-8.168-16.185-9.391-25.334c3.229-2.994,7.422-5.372,8.07-10.221c0.507-3.791,2.531-8.245-1.411-11.201
			c-6.4-4.8-11.284-10.702-14.892-17.762c-0.646-1.265-1.115-2.546-3.017-2.613c-6.056-0.212-10.591-2.974-14.039-8.059
			c-1.112-1.641-0.38,1.084-1.147,1.125C254.525,110.21,255.029,106.53,254.819,102.882z M282.02,92.361
			c3.668-0.441,7.422-1.358,10.42-4.041c1.616-1.446,2.329-3.475,0.896-5.399c-1.644-2.204-3.475-1.135-5.207,0.153
			c-2.396,1.782-4.316,4.197-7.316,5.192c-1.243,0.412-3.27,0.64-2.94,2.529C278.248,92.965,280.3,92.215,282.02,92.361z
			 M289.146,99.478c2.549-0.049,4.627-0.482,6.336-1.955c0.645-0.557,1.311-1.257,0.535-2.162c-0.609-0.711-1.276-0.323-1.876,0.11
			c-2.357,1.71-4.806,2.197-7.67,1.148c-1.174-0.43-2.875-2.777-3.726-0.611c-0.812,2.063,1.974,2.329,3.385,2.995
			C287.115,99.469,288.364,99.371,289.146,99.478z"/>
		<path fill-rule="evenodd" clip-rule="evenodd" fill="#FFFFFF" d="M112.072,126.786c0.749-6.065,5.246-8.109,10.115-10.57
			c7.078-3.578,12.521-9.609,18.125-15.131c4.233-4.171,5.16-10.258,5.869-15.942c1.004-8.053,6.963-14.622,15.705-15.581
			c6.658-0.729,13.295-0.473,19.942-0.621c11.474-0.255,17.055-5.008,19.128-16.342c0.439-2.407,0.703-4.844,1.171-8.114
			c4.401,13.472,4.194,26.121,0.095,39.034c-3.147-1.689-6.022-3.783-9.668-3.645c-0.807,0.031-1.861-0.175-2.154,0.942
			c-0.25,0.956,0.255,1.647,1.116,2.09c0.256,0.131,0.489,0.31,0.732,0.466c8.089,5.192,8.037,5.18,5.563,14.58
			c-0.579,2.2-1.677,4.334-1.331,6.73c-1.182,4.248-3.422,8.298-2.307,12.979c0.148,0.629-0.105,1.518-0.481,2.081
			c-8.539,12.793-17.79,24.509-35.581,23.064c-1.064-0.087-2.56-0.617-3.063,0.824c-0.703,2.007,1.756,1.422,2.321,2.462
			c-3.312,0.543-4.691,3.459-3.078,7.336c1.911,4.594,0.912,8.841,0.268,13.596c-1.003,7.408-6.139,9.518-11.243,12.307
			c-2.852,1.559-10.97,0.59-13.085-1.563c-0.512-0.521-0.516-1.576-0.666-2.402c-0.155-0.846-0.124-2.08-1.178-2.02
			c-4.37,0.248-4.566-3.428-5.934-6.025c-1.846-3.508-5.88-4.911-7.897-8.322c-2.421-4.091-3.862-8.489-4.024-13.152
			C110.312,139.46,110.018,133.012,112.072,126.786z M170.6,80.569c2.131-0.147,4.428-0.274,6.717-0.482
			c1.043-0.096,2.01-0.537,2.287-1.648c0.319-1.281-0.721-1.86-1.623-2.2c-4.961-1.868-9.844-1.762-14.543,0.88
			c-0.744,0.42-1.665,0.91-1.501,1.894c0.167,0.994,1.157,1.171,2.042,1.223C166.13,80.358,168.283,80.455,170.6,80.569z
			 M171.418,90.715c-0.102-2.078-0.543-3.827-3.121-3.65c-3.03,0.207-2.72,2.814-3.07,4.709c-0.313,1.687,0.442,3.246,2.457,3.237
			C170.449,94.996,171.068,92.896,171.418,90.715z M195.869,95.574c-0.148-1.896-0.721-3.555-2.766-3.267
			c-2.543,0.359-3.467,2.438-3.527,4.766c-0.046,1.736,0.656,3.316,2.748,3.078C195.015,99.846,195.627,97.717,195.869,95.574z"/>
		<path fill-rule="evenodd" clip-rule="evenodd" fill="#303A3E" d="M255.314,113.833c0.768-0.041,0.035-2.766,1.147-1.125
			c3.448,5.085,7.983,7.847,14.039,8.059c1.901,0.067,2.37,1.349,3.017,2.613c3.607,7.06,8.491,12.962,14.892,17.762
			c3.942,2.956,1.918,7.41,1.411,11.201c-0.648,4.849-4.841,7.227-8.07,10.221c-1.559,0.422-2.789,1.312-3.734,2.613
			c-6.61,3.576-12.136,8.607-17.747,13.473c-6.03,5.228-11.763,10.801-17.624,16.223c0.568-2.632,1.711-5.152,1.532-7.929
			c3.946-9.559,3.642-19.394,1.645-29.251c-1.733-8.558-0.228-16.561,3.184-24.42c2.399-5.527,5.165-10.945,6.011-17.024
			c-0.001,0.003,0.217-0.106,0.217-0.106l-0.199-0.127C255.128,115.286,255.222,114.56,255.314,113.833z"/>
		<polygon fill-rule="evenodd" clip-rule="evenodd" fill="#EDA47F" points="255.033,116.015 255.232,116.142 255.016,116.248 
			254.834,116.121 		"/>
		<path fill-rule="evenodd" clip-rule="evenodd" fill="#FFFFFF" d="M278.017,165.177c0.944-1.302,2.175-2.191,3.733-2.613
			c1.223,9.149,5.592,17.153,9.391,25.334c4.801,10.334,10.113,20.414,15.911,30.229c0.854,1.447,1.426,3.534,3.505,3.395
			c1.983-0.134,2.58-2.161,3.295-3.69c6.237-13.361,10.91-27.27,14.084-41.66c1.175-5.335,3.215-10.498,3.354-16.051
			c1.747,1.169,3.495,2.339,5.245,3.509c-1.746,12.092-4.017,24.136-5.103,36.285c-1.255,14.041-2.413,28.124-2.217,42.268
			c0.069,5.023-0.524,10.055-0.689,15.087c-0.055,1.667-0.521,3.497,0.866,4.946c3.551,8.215,5.766,16.708,5.293,25.753
			c-0.914,0.865-1.829,1.729-2.807,2.654c-1.52-7.837-3.298-15.347-4.26-23.038c-0.558-4.489-4.877-7.14-10.33-7.686
			c-7.329-0.734-14.125,0.89-20.413,4.558c-3.298,1.921-4.466,1.747-4.784-2.577c-0.771-10.496-2.136-20.95-3.303-31.416
			c-0.074-0.674-0.487-1.311-0.745-1.964c0.04-0.857-0.272-2.07,0.178-2.522c4.729-4.74,2.601-8.207-1.913-11.318
			c-0.724-12.264-3.13-24.305-4.979-36.411C280.657,173.841,281.05,169.032,278.017,165.177z"/>
		<path fill-rule="evenodd" clip-rule="evenodd" fill="#FFFFFF" d="M286.309,214.657c4.514,3.111,6.642,6.578,1.913,11.318
			c-0.45,0.452-0.138,1.665-0.178,2.522c-5.525,5.735-13.313,7.119-20.099,10.434c-2.638,1.29-5.317,2.495-7.979,3.738
			c-5.227,0.156-10.187,2.756-15.547,1.698l-0.08-0.046c-0.258-1.886-1.731-1.777-2.987-1.627c-3.022,0.363-3.836-0.934-4.108-3.871
			c-0.569-6.113-3.418-11.565-5.958-17.065c1.712-1.869,3.544-3.493,4.717-5.969c1.178-2.491,3.392-4.937,6.014-5.938
			c6.126-2.344,10.882-5.998,13.563-12.151c0.918,0.71,1.442,1.214,2.054,1.571c2.8,1.636,4.619,3.014,2.627,7.049
			c-1.76,3.562-0.125,4.855,4.136,5.001c6.595,0.225,13.519-1.415,19.38,3.34C284.283,215.075,285.448,214.679,286.309,214.657z"/>
		<path fill-rule="evenodd" clip-rule="evenodd" fill="#FFFFFF" d="M367.833,252.83c0.007-0.068,0.034-0.114,0.046-0.177
			c-0.046-0.103-0.085-0.208-0.132-0.308C367.78,252.505,367.811,252.665,367.833,252.83z"/>
		<path fill-rule="evenodd" clip-rule="evenodd" fill="#A4B8CC" d="M402.022,354.937c-0.698-22.372-1.515-44.731-2.97-67.064
			c-0.553-8.482-1.471-16.943-2.359-25.398c-0.844-8.021-1.869-16.024-2.813-24.035c-1.021-4.175-2.073-8.343-3.058-12.526
			c-3.157-13.416-11.293-23.868-20.39-33.621c-10.146-10.877-21.425-20.497-33.898-28.662c-1.746,12.091-4.017,24.135-5.103,36.284
			c-1.255,14.041-2.413,28.124-2.217,42.268c0.069,5.023-0.524,10.055-0.689,15.087c-0.055,1.667-0.521,3.497,0.865,4.95
			c0.955-1.369,1.696-2.785,2.269-4.239v31.534c-1.471-7.437-3.125-14.603-4.041-21.93c-0.558-4.489-4.877-7.14-10.33-7.686
			c-7.329-0.734-14.125,0.89-20.413,4.558c-3.298,1.921-4.466,1.747-4.784-2.577c-0.771-10.496-2.136-20.95-3.303-31.416
			c-0.074-0.674-0.487-1.311-0.743-1.965c-5.527,5.736-13.315,7.12-20.101,10.435c-2.638,1.29-5.317,2.495-7.979,3.738
			c-5.227,0.156-10.187,2.756-15.547,1.698l-0.08-0.046c-1.108,0.183-2.287-0.124-3.307,0.675
			c-5.771,4.518-12.809,7.137-18.271,12.091c-1.35,1.224-2.248,2.944-3.354,4.435c-1.444,14.347-3.427,28.706-2,43.143
			c1.051,10.619,5.075,19.621,16.454,23.064c2.03,0.614,2.737,1.773,2.709,3.795c-0.125,9.264-0.004,18.533-0.295,27.791
			c-0.563,17.911-1.875,35.799-1.492,53.735c21.445,0,42.891,0,64.336,0c0.765-21.255-0.584-42.481-0.929-63.719
			c-0.155-9.623-1.396-19.226-1.54-28.881c-0.04-2.655,0.736-3.976,3.301-4.475c2.152-0.418,4.422-1.179,5.744-2.855
			c5.514-6.98,14.133-8.514,21.088-12.631c0.964,0.31,0.889,0.979,0.9,1.51c0.315,13.862,0.501,27.729,0.933,41.588
			c0.664,21.479,1.612,42.944,3.5,64.357c0.151,1.716,0.601,3.404,0.911,5.105c23.184,0,46.371,0,69.555,0
			C402.406,393.681,402.627,374.316,402.022,354.937z"/>
		<path fill-rule="evenodd" clip-rule="evenodd" fill="#A4B8CC" d="M286.309,214.657c-0.86,0.021-2.025,0.418-2.533,0.005
			c-5.861-4.755-12.785-3.115-19.38-3.34c-4.261-0.146-5.896-1.439-4.136-5.001c1.992-4.035,0.173-5.413-2.627-7.049
			c-0.611-0.357-1.136-0.861-2.054-1.571c-2.681,6.153-7.437,9.808-13.563,12.151c-2.622,1.001-4.836,3.446-6.014,5.938
			c-1.173,2.476-3.005,4.1-4.717,5.969c-1.365-0.545-3.414,1.232-4.124-0.583c-0.717-1.833,0.617-3.591,1.354-5.45
			c2.502-6.294,7.34-10.519,11.718-15.24c1.353-1.458,0.113-4.352,2.411-5.613c5.861-5.422,11.594-10.995,17.624-16.223
			c5.611-4.865,11.137-9.896,17.747-13.473c3.034,3.855,2.642,8.664,3.314,13.069C283.179,190.353,285.585,202.394,286.309,214.657z
			"/>
		<path fill-rule="evenodd" clip-rule="evenodd" fill="#FFFFFF" d="M207.923,228.554c-9.002,2.826-17.272,4.718-25.544,6.636
			c-2.083,0.482-2.747-0.54-2.823-2.13c-0.229-4.757-0.374-9.522-0.396-14.285c-0.016-3.324,2.245-2.772,4.236-2.094
			C191.739,219.525,199.611,223.358,207.923,228.554z"/>
		<path fill-rule="evenodd" clip-rule="evenodd" fill="#B7C89D" d="M150.271,359.182c-1.198,2.896-3.871,1.716-5.618,1.502
			c-7.792-0.954-15.602-0.339-23.388-0.759c-0.999-0.053-2.049,0.102-2.877-0.673C129.018,359.229,139.645,359.205,150.271,359.182z
			"/>
		<path fill-rule="evenodd" clip-rule="evenodd" fill="#4B291F" d="M282.02,92.361c-1.72-0.146-3.771,0.604-4.147-1.565
			c-0.329-1.89,1.697-2.117,2.94-2.529c3-0.995,4.92-3.41,7.316-5.192c1.732-1.288,3.563-2.357,5.207-0.153
			c1.433,1.925,0.72,3.953-0.896,5.399C289.441,91.003,285.688,91.92,282.02,92.361z"/>
		<path fill-rule="evenodd" clip-rule="evenodd" fill="#4B291F" d="M289.146,99.478c-0.782-0.106-2.031-0.009-3.016-0.475
			c-1.411-0.666-4.196-0.933-3.385-2.995c0.851-2.166,2.552,0.182,3.726,0.611c2.864,1.049,5.313,0.562,7.67-1.148
			c0.6-0.434,1.267-0.821,1.876-0.11c0.775,0.905,0.109,1.605-0.535,2.162C293.773,98.995,291.695,99.429,289.146,99.478z"/>
		<path fill-rule="evenodd" clip-rule="evenodd" fill="#4B291F" d="M170.6,80.569c-2.316-0.114-4.47-0.211-6.621-0.335
			c-0.885-0.052-1.875-0.229-2.042-1.223c-0.164-0.983,0.757-1.474,1.501-1.894c4.699-2.642,9.582-2.748,14.543-0.88
			c0.902,0.34,1.942,0.919,1.623,2.2c-0.277,1.111-1.244,1.553-2.287,1.648C175.027,80.295,172.73,80.422,170.6,80.569z"/>
		<path fill-rule="evenodd" clip-rule="evenodd" fill="#4B291F" d="M171.418,90.715c-0.35,2.181-0.969,4.281-3.734,4.296
			c-2.015,0.009-2.77-1.551-2.457-3.237c0.351-1.895,0.04-4.502,3.07-4.709C170.875,86.888,171.316,88.637,171.418,90.715z"/>
		<path fill-rule="evenodd" clip-rule="evenodd" fill="#4B291F" d="M195.869,95.574c-0.242,2.143-0.854,4.271-3.545,4.577
			c-2.092,0.238-2.794-1.342-2.748-3.078c0.061-2.328,0.984-4.406,3.527-4.766C195.148,92.02,195.721,93.679,195.869,95.574z"/>
		<path fill-rule="evenodd" clip-rule="evenodd" fill="#FFFFFF" d="M361.589,270.768c5.545-0.959,11.048-2.212,16.504-3.599
			c1.446-0.367,2.905-1.551,2.771-3.43c-0.154-2.188-2.07-1.485-3.354-1.787c-2.365,0.021-4.73,0.043-7.097,0.063
			c-2.495,0.461-5.063,0.573-7.442,0.598c-2.23,1.259-8.09,1.999-9.152,0.847c-1.211-1.314-1.134-2.587,0.971-3.023
			c3.092-2.547,6.909-3.67,10.459-5.318c0.001-0.069,0.026-0.117,0.031-0.181c-0.022-0.164-0.053-0.325-0.085-0.483
			c-0.138-0.296-0.286-0.583-0.44-0.861c-0.881-0.911-2.047-1.625-3.422-2.142c-6.194,0.606-11.004,4.624-16.455,7.042
			c-0.615,0.272-1.416,0.12-2.131,0.166c-2.833,0.457-4.054-0.692-3.698-3.586c0.159-1.288-0.218-2.711,0.189-3.888
			c1.534-4.453-2.457-6.366-4.149-9.292c-0.531-0.919-1.791-0.467-2.688,0.211c-1.56,1.179-1.862,2.733-1.738,4.586
			c0.419,6.232-0.094,12.289-3.821,17.63c3.551,8.216,5.765,16.71,5.291,25.755c4.204,1.538,8.119,1.919,12.657,0.113
			c4.55-1.81,9.372-2.406,14.438,0.951c3.215,2.132,7.901,3.105,12.355,2.312c1.881-0.335,2.909-1.286,1.834-2.833
			c-1.262-1.816-2.679-4.099-5.28-4.016c-2.441,0.08-4.393-0.961-6.478-1.816c-0.978-0.281-2.652,0.555-2.751-1.055
			c-0.06-1.023,1.279-2.291,2.254-2.225c4.206,0.287,8.015-1.699,12.064-1.906c6.174-0.315,6.847-0.238,6.178-4.904
			c-0.353-0.568-0.871-1.048-1.627-1.438c-6.857,2.193-13.851,0.499-21.32,1.098C358.021,271.549,359.596,271.111,361.589,270.768z"
			/>
	</g>
</g>
</svg>
