<?xml version="1.0" encoding="utf-8"?>
<!-- Generator: Adobe Illustrator 16.0.0, SVG Export Plug-In . SVG Version: 6.00 Build 0)  -->
<!DOCTYPE svg PUBLIC "-//W3C//DTD SVG 1.1//EN" "http://www.w3.org/Graphics/SVG/1.1/DTD/svg11.dtd">
<svg version="1.1" xmlns="http://www.w3.org/2000/svg" xmlns:xlink="http://www.w3.org/1999/xlink" x="0px" y="0px"
	 width="593.197px" height="563.707px" viewBox="0 0 593.197 563.707" enable-background="new 0 0 593.197 563.707"
	 xml:space="preserve">
<g id="圖層_2" display="none">
</g>
<g id="圖層_1參考">
</g>
<g id="圖層_3">
</g>
<g id="圖層_4">
	<path fill-rule="evenodd" clip-rule="evenodd" fill="#43749D" d="M54.735,35.326c1.169-1.802,2.339-3.604,3.507-5.404
		C55.93,30.98,54.701,32.742,54.735,35.326z"/>
</g>
<g id="圖層_7">
</g>
<g id="圖層_6">
</g>
<g id="廣告圖1">
</g>
<g id="圖層_8">
	<linearGradient id="SVGID_2_" gradientUnits="userSpaceOnUse" x1="303.4033" y1="-85.5869" x2="289.4034" y2="670.4156">
		<stop  offset="2.000000e-008" style="stop-color:#74CAE6"/>
		<stop  offset="0.1269" style="stop-color:#81CDE7"/>
		<stop  offset="0.3373" style="stop-color:#A1D8EA"/>
		<stop  offset="0.4194" style="stop-color:#AEDDEB"/>
		<stop  offset="0.51" style="stop-color:#B8E1ED"/>
		<stop  offset="0.6606" style="stop-color:#D0EBF3"/>
		<stop  offset="0.8516" style="stop-color:#F4FAFD"/>
		<stop  offset="0.9086" style="stop-color:#FFFFFF"/>
		<stop  offset="0.9944" style="stop-color:#FFFFFF;stop-opacity:0"/>
	</linearGradient>
	<rect fill-rule="evenodd" clip-rule="evenodd" fill="url(#SVGID_2_)" width="593.197" height="563.707"/>
	<g>
		<path fill="#21374F" stroke="#21374F" stroke-width="2" stroke-miterlimit="10" d="M194.697,254.067
			c-4.422,4.824-11.758,9.949-17.939,13.064v24.319c0,1.658-0.502,2.211-1.908,2.513c-1.408,0.302-4.473,0.302-9.9,0.302
			c-0.1-0.452-0.4-1.005-0.652-1.508c4.873,0.15,8.492,0.101,9.646,0c1.057-0.05,1.357-0.352,1.357-1.256v-25.124
			c5.678-2.663,12.461-7.386,16.531-11.507h-35.977v-1.457h37.334l0.352-0.101L194.697,254.067z"/>
		<path fill="#21374F" stroke="#21374F" stroke-width="2" stroke-miterlimit="10" d="M223.994,291.804
			c0,1.306-0.402,1.909-1.459,2.16c-1.004,0.251-3.014,0.251-6.934,0.251c-0.1-0.352-0.402-0.954-0.602-1.356
			c3.164,0.05,5.727,0.05,6.48,0s1.006-0.251,1.006-1.005V281h-14.17c-0.402,4.623-1.406,9.598-3.77,13.366
			c-0.25-0.252-0.904-0.604-1.256-0.754c3.418-5.427,3.818-12.914,3.818-18.592v-11.858c-0.752,1.156-1.557,2.262-2.41,3.267
			c-0.252-0.252-1.006-0.754-1.408-0.955c3.719-4.02,6.633-10.1,8.342-16.481l1.557,0.353c-0.4,1.356-0.803,2.663-1.307,3.969h7.387
			l0.303-0.1l1.004,0.703c-0.904,2.663-2.361,5.527-3.668,7.688h7.086V291.804z M211.33,254.771
			c-0.953,2.462-2.059,4.773-3.266,6.833h7.236c1.156-1.859,2.412-4.572,3.215-6.833H211.33z M208.568,275.021
			c0,1.407-0.051,2.914-0.152,4.472h6.432v-7.587h-6.279V275.021z M208.568,270.448h6.279v-7.387h-6.279V270.448z M216.305,270.448
			h6.182v-7.387h-6.182V270.448z M222.486,279.492v-7.587h-6.182v7.587H222.486z M235.852,253.013
			c-1.205,6.13-3.92,11.506-10.15,14.32c-0.25-0.302-0.754-0.754-1.055-1.005c5.979-2.613,8.592-7.788,9.648-13.315h-8.09v-1.457
			h21.354c0,0,0,0.652-0.049,0.904c-0.453,8.692-0.955,11.707-2.01,12.763c-0.553,0.603-1.156,0.854-2.412,0.854
			c-0.955,0.05-3.217,0-5.377-0.151c-0.051-0.452-0.201-1.055-0.453-1.407c2.463,0.151,4.824,0.151,5.527,0.151
			c0.805,0.05,1.256,0,1.559-0.352c0.703-0.805,1.205-3.668,1.709-11.306H235.852z M249.016,283.412h-10.701v10.602h-1.457v-10.602
			h-11.859v-1.508h11.859v-7.688h-6.984c-0.955,2.261-2.01,4.271-3.217,5.879c-0.301-0.201-1.055-0.604-1.508-0.804
			c2.412-3.015,4.172-7.336,5.176-11.809l1.607,0.302c-0.4,1.708-0.904,3.366-1.506,4.924h6.432v-5.728h1.457v5.728h9.898v1.508
			h-9.898v7.688h10.701V283.412z"/>
		<path fill="#21374F" stroke="#21374F" stroke-width="2" stroke-miterlimit="10" d="M278.162,249.646
			c-0.252,0.252-0.504,0.604-0.754,0.905c4.924,5.175,14.17,9.898,21.908,11.958c-0.352,0.302-0.754,0.854-1.006,1.307
			c-7.486-2.211-16.682-6.934-21.857-12.16c-5.227,5.679-13.516,9.748-21.455,12.462c-0.201-0.302-0.805-0.955-1.105-1.256
			c8.994-2.714,18.039-7.387,22.861-13.769L278.162,249.646z M260.123,263.414h32.66v11.657h-32.66V263.414z M261.58,273.613h14.119
			v-8.742H261.58V273.613z M263.338,278.287h27.033v15.777h-1.457v-1.859h-24.119v2.01h-1.457V278.287z M264.795,279.744v4.723
			h24.119v-4.723H264.795z M288.914,290.748v-4.824h-24.119v4.824H288.914z M267.207,266.026c1.658,1.859,3.367,4.321,4.02,6.08
			l-1.406,0.754c-0.604-1.709-2.262-4.271-3.869-6.131L267.207,266.026z M285.348,258.54v1.457h-17.336v-1.457H285.348z
			 M291.326,264.871h-14.17v8.742h14.17V264.871z M281.879,272.257c1.156-1.759,2.814-4.572,3.619-6.381l1.457,0.804
			c-1.207,2.16-2.713,4.623-3.92,6.23L281.879,272.257z"/>
		<path fill="#21374F" stroke="#21374F" stroke-width="2" stroke-miterlimit="10" d="M320.723,287.984
			c-4.02,2.563-10.502,4.975-15.777,6.382c-0.201-0.353-0.703-0.905-1.006-1.206c5.277-1.407,11.959-3.819,15.125-6.03
			L320.723,287.984z M344.188,265.323v20.953h-34.52v-20.953H344.188z M311.125,271.755h31.557v-4.925h-31.557V271.755z
			 M311.125,278.236h31.557v-5.024h-31.557V278.236z M311.125,284.769h31.557v-5.075h-31.557V284.769z M342.027,251.304v10.1h-30.35
			v-10.1H342.027z M313.135,259.896h27.385v-7.136h-27.385V259.896z M333.787,287.23c5.125,1.658,11.857,4.271,15.525,5.979
			l-1.205,1.156c-3.568-1.709-10.301-4.422-15.525-6.03L333.787,287.23z"/>
		<path fill="#21374F" stroke="#21374F" stroke-width="2" stroke-miterlimit="10" d="M371.426,291.854
			c0,1.356-0.453,1.909-1.408,2.211c-1.004,0.251-2.863,0.302-6.432,0.251c-0.1-0.352-0.301-0.954-0.553-1.407
			c2.865,0.051,5.227,0.051,5.879,0c0.754-0.05,1.057-0.251,1.057-1.055V276.98h-10.703c-0.402,5.979-1.408,12.411-3.92,17.386
			c-0.301-0.302-0.904-0.704-1.256-0.805c3.668-7.285,3.969-17.284,3.969-24.771v-17.787h13.367V291.854z M369.969,275.523v-10.954
			h-10.453v4.221c0,2.11-0.049,4.371-0.15,6.733H369.969z M359.516,252.46v10.652h10.453V252.46H359.516z M398.307,268.237
			c-1.506,6.834-4.32,12.562-7.787,16.983c2.713,3.467,5.828,6.281,9.346,8.04c-0.402,0.301-0.855,0.753-1.156,1.155
			c-3.367-1.859-6.482-4.673-9.145-8.09c-2.713,3.216-5.729,5.678-8.793,7.437c-0.201-0.302-0.604-0.804-0.955-1.105
			c3.115-1.607,6.131-4.17,8.895-7.486c-3.217-4.473-5.779-9.899-7.537-15.778h-2.262v24.923h-1.457v-43.062h19.496v9.697
			c0,1.156-0.252,1.658-1.307,1.96c-1.156,0.302-3.367,0.302-7.135,0.302c-0.102-0.503-0.402-0.955-0.654-1.407
			c3.568,0.05,5.93,0.05,6.684,0c0.803-0.05,0.955-0.251,0.955-0.854v-8.24h-16.582v15.225h18.24l0.301-0.101L398.307,268.237z
			 M382.631,269.393c1.607,5.427,3.969,10.452,6.984,14.622c3.064-3.919,5.576-8.894,6.984-14.622H382.631z"/>
		<path fill="#21374F" stroke="#21374F" stroke-width="2" stroke-miterlimit="10" d="M424.941,267.031
			c-1.357,3.869-3.064,8.392-4.824,11.155l-1.256-0.704c1.508-2.311,3.016-6.029,4.07-9.295h-7.236v23.816
			c0,1.156-0.301,1.608-1.205,1.91c-0.855,0.2-2.514,0.2-5.527,0.2c-0.102-0.301-0.303-0.904-0.553-1.306
			c2.461,0.05,4.422,0.05,5.023,0c0.553-0.051,0.754-0.201,0.754-0.754v-21.857c-2.059,5.979-5.426,12.411-8.49,15.827
			c-0.252-0.352-0.754-0.954-1.105-1.205c3.365-3.468,6.984-10.352,8.893-16.632h-8.742v-1.458h18.842l0.303-0.101L424.941,267.031z
			 M408.461,257.032c1.857,0.904,3.818,2.01,5.678,3.165c2.713-1.809,5.678-4.572,7.586-6.983h-16.58v-1.458h17.787l0.301-0.101
			l1.055,0.704c-2.211,3.165-5.777,6.532-8.943,8.643c1.959,1.356,3.668,2.764,4.773,4.02l-0.955,1.206
			c-2.412-2.613-7.285-6.08-11.656-8.19L408.461,257.032z M448.004,277.231c0,0-0.049,0.653-0.1,1.005
			c-1.055,10.15-2.061,13.868-3.518,15.325c-0.703,0.604-1.406,0.805-2.662,0.854c-1.057,0-3.316,0-5.578-0.201
			c-0.051-0.401-0.201-1.055-0.402-1.507c2.512,0.251,4.875,0.301,5.678,0.301c0.904,0,1.357-0.05,1.76-0.452
			c1.205-1.105,2.16-4.773,3.115-13.817h-11.156c-1.758,6.884-5.326,12.461-13.516,15.526c-0.201-0.302-0.654-0.904-1.006-1.156
			c7.738-2.864,11.205-8.14,12.914-14.37h-9.646v-1.508h10.049c0.352-1.759,0.652-3.618,0.854-5.477h1.559
			c-0.201,1.909-0.504,3.718-0.855,5.477H448.004z M444.738,255.977c-1.557,3.92-4.02,7.085-7.035,9.698
			c3.619,2.764,7.99,4.823,12.613,5.979c-0.352,0.302-0.805,0.854-1.057,1.307c-4.621-1.307-8.994-3.518-12.662-6.382
			c-3.365,2.613-7.385,4.572-11.758,6.08c-0.15-0.302-0.602-0.955-0.953-1.307c4.371-1.307,8.34-3.216,11.605-5.678
			c-2.764-2.361-5.074-5.176-6.732-8.24c-1.557,2.01-3.316,3.769-5.074,5.226c-0.201-0.302-0.855-0.805-1.307-1.056
			c4.02-3.015,7.586-7.587,9.646-12.612l1.508,0.402c-0.754,1.759-1.658,3.518-2.713,5.125h18.691v1.457H444.738z M429.664,256.229
			c1.658,3.216,4.02,6.13,6.934,8.542c2.814-2.362,5.025-5.276,6.482-8.794h-13.215L429.664,256.229z"/>
	</g>
</g>
</svg>
