<?xml version="1.0" encoding="utf-8"?>
<!-- Generator: Adobe Illustrator 16.0.0, SVG Export Plug-In . SVG Version: 6.00 Build 0)  -->
<!DOCTYPE svg PUBLIC "-//W3C//DTD SVG 1.1//EN" "http://www.w3.org/Graphics/SVG/1.1/DTD/svg11.dtd">
<svg version="1.1" xmlns="http://www.w3.org/2000/svg" xmlns:xlink="http://www.w3.org/1999/xlink" x="0px" y="0px"
	 width="593.197px" height="563.707px" viewBox="0 0 593.197 563.707" enable-background="new 0 0 593.197 563.707"
	 xml:space="preserve">
<g id="圖層_2" display="none">
</g>
<g id="圖層_1參考">
</g>
<g id="圖層_3">
</g>
<g id="圖層_4">
</g>
<g id="圖層_7">
</g>
<g id="圖層_6">
</g>
<g id="廣告圖1">
</g>
<g id="圖層_8">
	<linearGradient id="SVGID_2_" gradientUnits="userSpaceOnUse" x1="303.4023" y1="-85.5859" x2="289.4023" y2="670.4141">
		<stop  offset="2.050913e-008" style="stop-color:#74CAE6"/>
		<stop  offset="0.1269" style="stop-color:#81CDE7"/>
		<stop  offset="0.3373" style="stop-color:#A1D8EA"/>
		<stop  offset="0.4194" style="stop-color:#AEDDEB"/>
		<stop  offset="0.51" style="stop-color:#B8E1ED"/>
		<stop  offset="0.6606" style="stop-color:#D0EBF3;stop-opacity:1"/>
		<stop  offset="0.8516" style="stop-color:#F4FAFD;stop-opacity:1"/>
		<stop  offset="0.9086" style="stop-color:#FFFFFF;stop-opacity:1"/>
		<stop  offset="0.9944" style="stop-color:#FFFFFF;stop-opacity:0"/>
	</linearGradient>
	<rect fill-rule="evenodd" clip-rule="evenodd" fill="url(#SVGID_2_)" width="593.197" height="563.707"/>
	<g>
		<path fill="#21374F" stroke="#21374F" stroke-width="2" stroke-miterlimit="10" d="M149.121,291.552
			c0,1.307-0.352,1.859-1.408,2.161c-1.105,0.301-3.266,0.301-6.883,0.301c-0.15-0.401-0.402-1.005-0.654-1.507
			c3.217,0.101,5.779,0.101,6.482,0.05c0.805-0.05,1.006-0.251,1.006-1.005v-9.044h-14.17c-0.402,4.221-1.457,8.592-3.971,12.059
			c-0.25-0.301-0.803-0.804-1.154-1.005c3.518-4.874,3.969-11.557,3.969-16.682v-12.411h16.783V291.552z M172.838,257.484v1.457
			h-44.066v-1.457h29.143c1.859-2.513,4.121-6.181,5.426-8.743l1.459,0.604c-1.508,2.612-3.418,5.728-5.127,8.14H172.838z
			 M147.664,281.051v-6.885h-13.869v2.714c0,1.256-0.051,2.713-0.15,4.171H147.664z M133.795,265.926v6.783h13.869v-6.783H133.795z
			 M142.689,257.183c-0.955-2.06-3.166-5.326-5.275-7.688l1.256-0.553c2.059,2.361,4.32,5.577,5.375,7.587L142.689,257.183z
			 M157.16,264.921h1.457v20.602h-1.457V264.921z M167.41,263.213h1.457v28.289c0,1.507-0.451,2.01-1.557,2.312
			c-1.156,0.301-3.518,0.301-7.588,0.301c-0.051-0.452-0.352-1.055-0.604-1.507c3.568,0.05,6.383,0.05,7.186,0
			c0.855-0.051,1.105-0.252,1.105-1.056V263.213z"/>
		<path fill="#21374F" stroke="#21374F" stroke-width="2" stroke-miterlimit="10" d="M191.633,260.901
			c-1.207,2.211-2.664,4.422-4.221,6.432v26.982h-1.457v-25.073c-2.16,2.563-4.473,4.874-6.783,6.783
			c-0.252-0.301-0.855-0.854-1.256-1.155c4.672-3.518,9.395-8.894,12.311-14.421L191.633,260.901z M190.979,249.696
			c-2.611,4.02-7.135,8.491-11.355,11.406c-0.201-0.353-0.703-0.854-1.004-1.105c4.07-2.714,8.592-7.035,10.854-10.804
			L190.979,249.696z M223.791,291.15v1.457h-32.209v-1.457h15.176v-15.678h-11.91v-1.457h11.91v-13.718H192.99v-1.457h29.494v1.457
			h-14.221v13.718h12.563v1.457h-12.563v15.678H223.791z M208.365,258.087c-0.854-2.311-2.865-5.929-4.773-8.642l1.355-0.604
			c1.91,2.663,3.971,6.281,4.824,8.492L208.365,258.087z"/>
		<path fill="#21374F" stroke="#21374F" stroke-width="2" stroke-miterlimit="10" d="M241.881,285.623h-9.898v4.673h-1.457v-37.887
			h11.355V285.623z M231.982,253.866v8.944h8.342v-8.944H231.982z M231.982,273.362h8.342v-9.095h-8.342V273.362z M240.324,284.166
			v-9.347h-8.342v9.347H240.324z M260.021,290.898h12.209v1.457H245.35v-1.457h13.215v-8.09h-11.91v-1.457h11.91v-19.043h-14.02
			v-1.458h14.02v-7.788c-3.518,0.302-7.186,0.604-10.502,0.804c-0.051-0.352-0.303-0.854-0.502-1.205
			c7.336-0.503,16.631-1.458,21.305-2.714l1.154,1.206c-2.563,0.653-6.129,1.256-9.998,1.708v7.989h12.912v1.458h-12.912v19.043
			h11.055v1.457h-11.055V290.898z M252.031,265.071v5.227h4.172v1.457h-4.172v5.979h-1.457v-5.979h-5.477v-1.457h5.477v-5.227
			H252.031z M273.537,270.298v1.457h-4.924v5.828h-1.457v-5.828h-4.975v-1.457h4.975v-5.377h1.457v5.377H273.537z"/>
		<path fill="#21374F" stroke="#21374F" stroke-width="2" stroke-miterlimit="10" d="M292.783,285.623h-10.5v4.673h-1.459v-37.887
			h11.959V285.623z M282.283,253.866v8.944h9.043v-8.944H282.283z M282.283,273.362h9.043v-9.095h-9.043V273.362z M291.326,284.166
			v-9.347h-9.043v9.347H291.326z M311.727,274.468c1.457,11.406,4.975,18.039,9.396,17.988c1.357,0,1.809-2.261,2.061-7.788
			c0.402,0.352,0.904,0.604,1.357,0.704c-0.303,6.481-1.057,8.592-3.518,8.592c-5.527,0-9.146-7.688-10.754-19.496h-11.004v17.285
			l11.355-2.864c-0.049,0.452,0.051,1.105,0.102,1.457c-12.109,3.216-13.367,3.618-14.17,4.171
			c-0.102-0.402-0.502-1.056-0.854-1.457c0.752-0.302,2.109-1.156,2.109-3.065v-38.841h23.617v12.261h-10.502
			c0.1,3.467,0.301,6.683,0.602,9.597h12.764v1.457H311.727z M299.266,252.61v9.346h20.701v-9.346H299.266z M310.119,273.011
			c-0.352-2.965-0.604-6.181-0.703-9.597h-10.15v9.597H310.119z"/>
		<path fill="#21374F" stroke="#21374F" stroke-width="2" stroke-miterlimit="10" d="M339.717,262.057
			c-1.607,7.186-4.723,15.979-9.646,21.606c-0.301-0.251-0.854-0.653-1.256-0.854c4.873-5.526,7.889-14.068,9.346-21.003
			L339.717,262.057z M352.832,249.746v41.604c0,1.859-0.652,2.463-1.959,2.714c-1.357,0.302-4.121,0.302-8.693,0.302
			c-0.15-0.402-0.402-1.105-0.703-1.608c4.07,0.101,7.537,0.051,8.541,0c0.955-0.05,1.307-0.352,1.307-1.356v-41.655H352.832z
			 M364.842,261.604c4.672,7.035,9.043,16.28,10.35,22.109l-1.457,0.652c-1.307-5.828-5.627-15.174-10.25-22.209L364.842,261.604z"
			/>
		<path fill="#21374F" stroke="#21374F" stroke-width="2" stroke-miterlimit="10" d="M392.529,267.434c0,0.754,0,1.507-0.049,2.312
			h10.652v1.457H392.43c-0.15,1.558-0.301,3.165-0.652,4.773c2.109,2.06,8.943,9.597,10.551,11.456l-1.055,1.256
			c-1.709-2.211-7.186-8.341-9.748-11.104c-1.457,5.879-4.572,11.909-11.307,16.632c-0.199-0.352-0.602-0.904-0.953-1.155
			c8.844-6.181,11.154-14.472,11.707-21.857h-11.355v-1.457h11.406c0.049-0.805,0.049-1.558,0.049-2.312v-9.799h-5.727
			c-1.307,3.518-2.865,6.633-4.674,9.095c-0.252-0.251-0.904-0.603-1.307-0.854c3.217-4.171,5.527-10.352,6.885-16.884l1.506,0.302
			c-0.502,2.361-1.154,4.673-1.908,6.884h15.576v1.457h-8.895V267.434z M421.975,253.465v38.991h-1.457v-3.919h-14.02v4.321h-1.457
			v-39.394H421.975z M420.518,287.08v-32.158h-14.02v32.158H420.518z"/>
		<path fill="#21374F" stroke="#21374F" stroke-width="2" stroke-miterlimit="10" d="M430.117,257.735h13.516v1.457h-13.516V257.735
			z M442.176,291.251h-8.844v2.612h-1.457v-16.632h10.301V291.251z M431.926,264.017h10.25v1.457h-10.25V264.017z M431.926,270.649
			h10.25v1.457h-10.25V270.649z M433.332,278.688v11.104h7.387v-11.104H433.332z M438.105,255.977
			c-0.854-1.658-2.611-4.321-4.119-6.28l1.105-0.553c1.557,1.959,3.316,4.572,4.17,6.13L438.105,255.977z M473.229,270.649
			c-1.607,4.673-3.918,8.994-6.633,12.813c1.105,5.578,2.664,8.944,4.773,9.045c0.904,0,1.609-2.663,2.01-7.085
			c0.354,0.302,0.855,0.502,1.258,0.603c-0.654,6.231-1.709,8.241-3.217,8.19c-2.814-0.101-4.723-3.467-5.979-9.095
			c-2.514,3.316-5.377,6.181-8.291,8.492c-0.303-0.251-0.754-0.553-1.105-0.804c3.266-2.513,6.33-5.729,8.994-9.497
			c-0.904-4.673-1.406-10.552-1.76-17.135h-19.295v-1.457h5.377c-0.25-2.01-0.854-4.924-1.508-7.186l1.408-0.2
			c0.803,2.312,1.457,5.427,1.658,7.386h4.371c0.703-2.06,1.607-5.326,2.061-7.386l1.557,0.452c-0.604,2.261-1.406,4.975-2.16,6.934
			h6.482c-0.252-4.924-0.402-10.2-0.504-15.677h1.457c0.051,5.577,0.201,10.854,0.453,15.677h9.547v1.457h-9.496
			c0.352,5.979,0.854,11.205,1.557,15.376c2.262-3.467,4.221-7.387,5.527-11.456L473.229,270.649z M461.02,256.479h-15.777v-1.457
			h8.039c-0.502-1.508-1.457-3.417-2.412-4.874l1.406-0.452c1.006,1.607,2.162,3.769,2.715,5.326h6.029V256.479z M448.156,286.879
			v3.467h-1.457v-20.4h12.561v18.441h-1.457v-1.508H448.156z M448.156,271.403v6.18h9.646v-6.18H448.156z M457.803,285.422v-6.382
			h-9.646v6.382H457.803z M471.471,261.002c-0.654-2.211-2.412-5.729-4.17-8.341l1.457-0.553c1.758,2.612,3.516,6.029,4.17,8.29
			L471.471,261.002z"/>
	</g>
</g>
</svg>
