<?xml version="1.0" encoding="utf-8"?>
<!-- Generator: Adobe Illustrator 16.0.0, SVG Export Plug-In . SVG Version: 6.00 Build 0)  -->
<!DOCTYPE svg PUBLIC "-//W3C//DTD SVG 1.1//EN" "http://www.w3.org/Graphics/SVG/1.1/DTD/svg11.dtd">
<svg version="1.1" xmlns="http://www.w3.org/2000/svg" xmlns:xlink="http://www.w3.org/1999/xlink" x="0px" y="0px"
	 width="436.557px" height="413.051px" viewBox="0 0 436.557 413.051" enable-background="new 0 0 436.557 413.051"
	 xml:space="preserve">
<g id="圖層_2" display="none">
</g>
<g id="圖層_1參考">
</g>
<g id="圖層_3">
</g>
<g id="圖層_4">
</g>
<g id="圖層_7">
</g>
<g id="圖層_6">
</g>
<g id="廣告圖1">
</g>
<g id="圖層_8">
	<g>
		<path fill-rule="evenodd" clip-rule="evenodd" fill="#FFFFFF" d="M304.158,413.52c0.785-21.829-0.601-43.63-0.954-65.441
			c-0.16-9.884-1.434-19.746-1.582-29.662c-0.041-2.728,0.756-4.083,3.391-4.596c2.21-0.43,4.541-1.211,5.899-2.933
			c5.662-7.169,14.516-8.744,21.658-12.973c0.99,0.318,0.912,1.006,0.924,1.551c0.324,14.237,0.515,28.479,0.957,42.713
			c0.684,22.059,1.658,44.105,3.596,66.098c0.155,1.762,0.617,3.496,0.936,5.243C327.375,413.52,315.767,413.52,304.158,413.52z"/>
		<path fill-rule="evenodd" clip-rule="evenodd" fill="#050000" d="M247.896,240.228c-1.139,0.188-2.35-0.126-3.396,0.693
			c-5.927,4.641-13.153,7.33-18.765,12.418c-1.386,1.257-2.309,3.024-3.443,4.555c-3.467-0.421-4.854,2.888-7.396,4.167
			c-7.768,3.913-15.022,8.881-23.779,10.679c-2.328,0.479-2.261,2.687-1.72,4.731c2.692,10.184,6.067,20.146,9.598,30.061
			c1.045,2.934,2.091,5.83,2.563,8.963c1.373,9.086-1.268,16.614-8.045,22.822c-1.142,1.045-2.556,2.103-2.907,3.844
			c-1.618-0.141-2.663,0.865-3.87,1.741c-10.584,7.689-22.604,11.608-35.451,13.292c-10.915,0.024-21.829,0.049-32.743,0.072
			c-2.654,0.055-4.706-1.979-7.563-1.764c-7.801,0.587-15.116-2.455-22.329-4.563c-9.693-2.834-18.876-7.466-28.193-11.52
			c-7.626-3.317-15.453-6.41-20.809-13.316c-8.788-15.028-6.207-30.202-0.546-45.398c3.876-10.399,8.886-20.397,11.43-31.266
			c3.151-13.453,2.898-27.093,1.81-40.756c-0.129-1.618-0.031-3.255-0.038-4.884c0.023-5.646-0.224-11.309,0.121-16.935
			c1.013-16.542,6.872-30.876,19.671-41.962c12.174-10.544,26.221-18.224,39.957-26.389c-2.109,6.395-1.809,13.017-1.582,19.576
			c0.166,4.789,1.646,9.307,4.133,13.508c2.072,3.504,6.215,4.944,8.111,8.548c1.404,2.668,1.605,6.442,6.094,6.188
			c1.082-0.062,1.051,1.206,1.21,2.075c0.154,0.848,0.159,1.933,0.684,2.467c2.173,2.21,10.511,3.205,13.438,1.604
			c5.242-2.864,10.518-5.03,11.548-12.64c0.661-4.883,1.688-9.245-0.275-13.963c-1.656-3.981-0.239-6.977,3.161-7.534
			c12.339,0.628,23.752,4.181,33.293,12.111c16.612,13.809,34.474,25.075,55.863,29.844c0.183,2.852-0.99,5.44-1.574,8.143
			c-2.359,1.297-1.088,4.269-2.477,5.766c-4.496,4.85-9.465,9.188-12.033,15.652c-0.758,1.909-2.128,3.715-1.392,5.598
			c0.729,1.864,2.833,0.039,4.235,0.599c2.609,5.648,5.534,11.248,6.119,17.527c0.28,3.017,1.115,4.349,4.221,3.976
			C246.117,238.403,247.63,238.292,247.896,240.228z M210.493,224.033c-8.536-5.336-16.621-9.272-25.19-12.193
			c-2.045-0.697-4.367-1.265-4.352,2.149c0.023,4.892,0.173,9.786,0.408,14.672c0.078,1.633,0.76,2.683,2.899,2.188
			C192.754,228.879,201.248,226.937,210.493,224.033z"/>
		<path fill-rule="evenodd" clip-rule="evenodd" fill="#303A3E" d="M112.051,119.514c-13.736,8.165-27.783,15.845-39.957,26.389
			c-12.799,11.086-18.658,25.42-19.671,41.962c-0.345,5.626-0.098,11.289-0.121,16.935c-0.948-0.011-1.397-0.409-1.971-1.313
			c-7.091-11.212-16.202-19.003-30.054-21.521C5.179,179.219-1.6,168.186,0.317,152.83c0.798-6.389,2.552-12.468,5.46-18.236
			c3.452-6.848,8.839-10.618,16.576-10.828c3.271-0.09,6.543-0.174,9.814-0.146c7.43,0.063,12.766-3.273,16.223-9.774
			c0.977-1.835,1.963-3.665,2.976-5.48c5.167-9.262,10.714-12.033,21.311-10.745c4.569,0.555,9.11,1.451,13.752,1.277
			c3.456-0.129,6.789-0.706,9.833-2.476c4.432-2.576,6.632-7.067,5.533-12.05c-0.602-2.728-1.286-5.585-2.652-7.973
			c-16.25-28.41,1.674-68.642,39.801-75.178c9.627-1.65,19.498-1.694,29.28,0.275c10.201,2.054,18.775,7.117,26.21,14.01
			c3.502,3.245,7.163,4.603,11.717,5.145c6.979,0.831,13.696,2.731,18.924,7.919c5.775,5.73,6.869,12.124,3.396,19.484
			c-4.197,8.895-3.758,10.386,4.683,15.87c8.129,5.281,9.328,14.464,2.78,21.645c-4.651,5.102-10.827,7.114-17.366,8.21
			c-6.593,1.104-13.217,2.029-19.824,3.033c-0.355-2.461,0.771-4.652,1.366-6.912c2.542-9.655,2.595-9.642-5.713-14.975
			c-0.25-0.16-0.489-0.344-0.752-0.479c-0.884-0.454-1.403-1.164-1.146-2.146c0.301-1.147,1.384-0.936,2.214-0.968
			c3.743-0.143,6.695,2.008,9.93,3.743c4.209-13.262,4.421-26.254-0.099-40.09c-0.479,3.359-0.751,5.861-1.203,8.334
			c-2.128,11.641-7.86,16.521-19.644,16.784c-6.828,0.152-13.645-0.111-20.482,0.638c-8.979,0.984-15.099,7.731-16.13,16.002
			c-0.729,5.839-1.681,12.09-6.028,16.374c-5.755,5.67-11.346,11.864-18.615,15.539C117.439,111.186,112.82,113.284,112.051,119.514
			z"/>
		<path fill-rule="evenodd" clip-rule="evenodd" fill="#303A3E" d="M401.48,234.186c-1.049-4.288-2.13-8.568-3.141-12.865
			c-3.242-13.778-11.599-24.514-20.941-34.53c-10.42-11.171-22.004-21.051-34.815-29.438c-1.797-1.201-3.592-2.402-5.387-3.604
			c-1.914-2.556-4.704-4.602-4.943-8.149c-0.417-6.216-1.901-12.456,4.595-17.169c3.926-2.85,6.366-7.412,8.518-11.848
			c1.061-2.187,2.301-3.163,4.979-3.35c8.18-0.57,14.484-6.825,14.768-14.021c0.109-2.762-0.098-5.465-2.845-6.997
			c-2.681-1.496-5.55-1.479-8.005,0.314c-2.1,1.532-4.016,1.353-6.266,0.671c-2.568-0.779-5.121-1.596-7.352-3.067
			c-1.686-1.114-2.867-1.117-4.71-0.003c-3.565,2.16-7.384,1.746-10.975-0.354c-0.79-0.461-1.575-1.098-1.054-2.125
			c0.615-1.211,1.51-0.487,2.225-0.052c3.313,2.012,6.488,2.309,9.681-0.456c-2.189-2.39-4.246-4.443-7.133-5.537
			c-2.024-0.769-4.121-2.368-3.809-4.475c0.927-6.239-3.598-7.801-7.706-9.546c-4.554-1.936-8.791-4.232-12.463-7.571
			c-4.212-3.829-6.887-8.655-8.932-14.611c-3.857,14.679-10.973,26.382-22.767,34.52c-4.581,3.16-5.486,6.243-3.905,10.933
			c0.066,0.198-0.195,0.507-0.412,1.021c-4.111-1.655-7.368-0.189-10.027,3.087c-1.1-6.739-2.531-13.444-3.229-20.225
			c-1.389-13.512,0.469-26.491,8.604-37.813c7.312-10.175,17.236-15.664,30.042-15.277c5.463,0.166,10.563-1.547,15.629-3.24
			c32.244-10.777,59.67,7.104,65.1,39.776c0.953,5.741,1.499,11.514,1.409,17.311c-0.115,7.424,2.35,13.663,7.648,18.832
			c1.704,1.661,3.262,3.476,5.02,5.073c7.034,6.392,10.23,14.726,10.609,23.809c0.655,15.685,7.624,27.76,19.234,37.701
			c2.814,2.41,5.457,5.062,7.933,7.823c15.703,17.514,12.27,46.6-7.09,60.287C414.164,232.842,408.084,234.477,401.48,234.186z"/>
		<path fill-rule="evenodd" clip-rule="evenodd" fill="#354966" d="M39.646,327.103c5.355,6.906,13.183,9.999,20.809,13.316
			c9.317,4.054,18.5,8.686,28.193,11.52c7.213,2.108,14.528,5.15,22.329,4.563c2.856-0.215,4.908,1.818,7.561,1.764
			c0.851,0.796,1.929,0.637,2.955,0.691c7.996,0.432,16.019-0.201,24.02,0.779c1.796,0.22,4.54,1.433,5.771-1.543
			c12.848-1.684,24.867-5.603,35.451-13.292c1.207-0.876,2.252-1.882,3.87-1.741c6.127,23.103,15.103,45.025,27.201,65.654
			c0.646,1.103,2.089,2.268,1.287,3.53c-0.756,1.191-2.469,0.516-3.741,0.516c-57.248,0.022-114.495-0.03-171.742,0.111
			c-3.417,0.008-4.632-1.195-5.498-4.119c-5.607-18.948-6.736-38.197-4.063-57.712C35.17,342.96,36.702,334.863,39.646,327.103z"/>
		<path fill-rule="evenodd" clip-rule="evenodd" fill="#FFFFFF" d="M258.658,94.963c2.659-3.276,5.916-4.742,10.027-3.087
			c0.217-0.514,0.479-0.822,0.412-1.021c-1.581-4.689-0.676-7.772,3.905-10.933c11.794-8.138,18.909-19.841,22.767-34.52
			c2.045,5.956,4.72,10.782,8.932,14.611c3.672,3.339,7.909,5.636,12.463,7.571c4.108,1.745,8.633,3.307,7.706,9.546
			c-0.313,2.106,1.784,3.706,3.809,4.475c2.887,1.094,4.943,3.147,7.133,5.537c-3.192,2.765-6.368,2.468-9.681,0.456
			c-0.715-0.436-1.609-1.159-2.225,0.052c-0.521,1.027,0.264,1.664,1.054,2.125c3.591,2.1,7.409,2.514,10.975,0.354
			c1.843-1.114,3.024-1.111,4.71,0.003c2.23,1.472,4.783,2.288,7.352,3.067c2.25,0.682,4.166,0.861,6.266-0.671
			c2.455-1.793,5.324-1.811,8.005-0.314c2.747,1.532,2.954,4.235,2.845,6.997c-0.283,7.195-6.588,13.45-14.768,14.021
			c-2.678,0.187-3.918,1.163-4.979,3.35c-2.151,4.436-4.592,8.998-8.518,11.848c-6.496,4.713-5.012,10.953-4.595,17.169
			c0.239,3.548,3.029,5.594,4.943,8.149c-0.143,5.703-2.237,11.006-3.445,16.485c-3.259,14.779-8.059,29.063-14.466,42.786
			c-0.733,1.571-1.346,3.653-3.383,3.791c-2.135,0.143-2.722-2.001-3.6-3.486c-5.955-10.08-11.411-20.433-16.341-31.046
			c-3.902-8.402-8.389-16.623-9.645-26.02c3.316-3.075,7.622-5.518,8.288-10.497c0.521-3.894,2.6-8.468-1.449-11.504
			c-6.573-4.93-11.59-10.992-15.294-18.242c-0.664-1.299-1.146-2.615-3.099-2.684c-6.219-0.218-10.877-3.055-14.419-8.277
			c-1.142-1.685-0.39,1.113-1.179,1.155C258.357,102.489,258.874,98.71,258.658,94.963z M286.594,84.158
			c3.767-0.453,7.623-1.396,10.702-4.15c1.659-1.485,2.392-3.568,0.92-5.545c-1.687-2.264-3.568-1.166-5.348,0.157
			c-2.461,1.83-4.433,4.311-7.515,5.333c-1.275,0.423-3.357,0.656-3.02,2.598C282.72,84.778,284.827,84.008,286.594,84.158z
			 M293.913,91.467c2.618-0.05,4.752-0.495,6.508-2.008c0.662-0.571,1.346-1.291,0.55-2.221c-0.625-0.73-1.312-0.332-1.926,0.113
			c-2.423,1.757-4.936,2.257-7.879,1.18c-1.205-0.441-2.952-2.853-3.826-0.628c-0.833,2.118,2.027,2.393,3.477,3.076
			C291.828,91.458,293.111,91.357,293.913,91.467z"/>
		<path fill-rule="evenodd" clip-rule="evenodd" fill="#FFFFFF" d="M112.051,119.514c0.77-6.229,5.389-8.328,10.389-10.856
			c7.27-3.675,12.86-9.869,18.615-15.539c4.348-4.284,5.3-10.535,6.028-16.374c1.031-8.271,7.151-15.018,16.13-16.002
			c6.838-0.749,13.654-0.485,20.482-0.638c11.783-0.263,17.516-5.144,19.644-16.784c0.452-2.473,0.724-4.975,1.203-8.334
			c4.52,13.836,4.308,26.828,0.099,40.09c-3.234-1.735-6.187-3.886-9.93-3.743c-0.83,0.032-1.913-0.18-2.214,0.968
			c-0.257,0.982,0.263,1.692,1.146,2.146c0.263,0.135,0.502,0.318,0.752,0.479c8.308,5.333,8.255,5.319,5.713,14.975
			c-0.595,2.26-1.722,4.451-1.366,6.912c-1.213,4.363-3.514,8.522-2.37,13.33c0.153,0.646-0.107,1.559-0.493,2.137
			c-8.77,13.139-18.272,25.172-36.544,23.688c-1.093-0.089-2.629-0.634-3.146,0.847c-0.722,2.061,1.804,1.46,2.384,2.528
			c-3.4,0.558-4.817,3.553-3.161,7.534c1.964,4.718,0.937,9.08,0.275,13.963c-1.03,7.609-6.306,9.775-11.548,12.64
			c-2.928,1.601-11.266,0.605-13.438-1.604c-0.524-0.534-0.529-1.619-0.684-2.467c-0.159-0.869-0.128-2.137-1.21-2.075
			c-4.488,0.255-4.689-3.52-6.094-6.188c-1.896-3.604-6.039-5.044-8.111-8.548c-2.486-4.201-3.967-8.719-4.133-13.508
			C110.242,132.53,109.941,125.908,112.051,119.514z M172.162,72.048c2.188-0.152,4.546-0.282,6.897-0.496
			c1.07-0.099,2.063-0.552,2.349-1.693c0.328-1.315-0.74-1.91-1.667-2.259c-5.095-1.919-10.109-1.81-14.936,0.903
			c-0.765,0.431-1.711,0.935-1.542,1.944c0.172,1.021,1.188,1.203,2.097,1.256C167.57,71.831,169.782,71.93,172.162,72.048z
			 M173.002,82.467c-0.105-2.134-0.558-3.93-3.206-3.749c-3.112,0.213-2.793,2.891-3.153,4.837
			c-0.321,1.731,0.454,3.334,2.523,3.324C172.006,86.864,172.643,84.707,173.002,82.467z M198.113,87.458
			c-0.152-1.947-0.74-3.65-2.84-3.354c-2.612,0.369-3.561,2.503-3.623,4.895c-0.047,1.782,0.674,3.405,2.822,3.161
			C197.236,91.845,197.865,89.658,198.113,87.458z"/>
		<path fill-rule="evenodd" clip-rule="evenodd" fill="#303A3E" d="M259.166,106.21c0.789-0.042,0.037-2.84,1.179-1.155
			c3.542,5.223,8.2,8.06,14.419,8.277c1.953,0.068,2.435,1.385,3.099,2.684c3.704,7.25,8.721,13.313,15.294,18.242
			c4.049,3.036,1.971,7.61,1.449,11.504c-0.666,4.979-4.972,7.422-8.288,10.497c-1.602,0.434-2.866,1.347-3.836,2.684
			c-6.788,3.673-12.464,8.841-18.227,13.837c-6.193,5.369-12.081,11.093-18.101,16.661c0.584-2.702,1.757-5.291,1.574-8.143
			c4.053-9.817,3.739-19.918,1.688-30.042c-1.78-8.789-0.234-17.008,3.27-25.08c2.464-5.677,5.305-11.241,6.173-17.485
			c-0.001,0.003,0.223-0.108,0.223-0.108l-0.203-0.131C258.975,107.703,259.071,106.957,259.166,106.21z"/>
		<polygon fill-rule="evenodd" clip-rule="evenodd" fill="#EDA47F" points="258.879,108.451 259.082,108.582 258.859,108.69 
			258.673,108.561 		"/>
		<path fill-rule="evenodd" clip-rule="evenodd" fill="#FFFFFF" d="M282.482,158.942c0.969-1.337,2.233-2.25,3.835-2.684
			c1.256,9.396,5.742,17.617,9.645,26.02c4.93,10.613,10.386,20.966,16.341,31.046c0.878,1.485,1.465,3.629,3.6,3.486
			c2.037-0.138,2.649-2.22,3.383-3.791c6.407-13.723,11.207-28.007,14.466-42.786c1.208-5.479,3.303-10.782,3.445-16.485
			c1.795,1.201,3.59,2.402,5.387,3.604c-1.793,12.419-4.124,24.789-5.239,37.267c-1.289,14.421-2.479,28.885-2.277,43.41
			c0.071,5.16-0.539,10.327-0.708,15.495c-0.057,1.713-0.536,3.592,0.89,5.08c3.646,8.438,5.921,17.16,5.436,26.449
			c-0.938,0.889-1.878,1.776-2.882,2.727c-1.562-8.049-3.388-15.762-4.374-23.661c-0.574-4.61-5.011-7.333-10.611-7.894
			c-7.526-0.754-14.506,0.914-20.965,4.681c-3.387,1.974-4.586,1.795-4.913-2.646c-0.793-10.78-2.194-21.517-3.392-32.266
			c-0.077-0.692-0.501-1.346-0.766-2.017c0.041-0.881-0.28-2.127,0.183-2.591c4.856-4.868,2.671-8.429-1.965-11.624
			c-0.743-12.596-3.215-24.962-5.113-37.396C285.195,167.841,285.598,162.902,282.482,158.942z"/>
		<path fill-rule="evenodd" clip-rule="evenodd" fill="#FFFFFF" d="M290.999,209.762c4.636,3.195,6.821,6.756,1.965,11.624
			c-0.463,0.464-0.142,1.71-0.183,2.591c-5.675,5.89-13.674,7.312-20.643,10.716c-2.709,1.324-5.461,2.563-8.193,3.839
			c-5.368,0.16-10.463,2.83-15.967,1.744l-0.083-0.047c-0.266-1.937-1.778-1.825-3.067-1.671c-3.105,0.373-3.94-0.959-4.221-3.976
			c-0.585-6.279-3.51-11.879-6.119-17.527c1.759-1.92,3.641-3.588,4.845-6.13c1.21-2.559,3.483-5.07,6.176-6.099
			c6.292-2.406,11.177-6.16,13.93-12.479c0.942,0.729,1.481,1.246,2.109,1.613c2.876,1.681,4.744,3.096,2.696,7.24
			c-1.806,3.657-0.127,4.986,4.249,5.136c6.772,0.23,13.884-1.453,19.903,3.431C288.919,210.19,290.115,209.783,290.999,209.762z"/>
		<path fill-rule="evenodd" clip-rule="evenodd" fill="#FFFFFF" d="M374.729,248.966c0.007-0.069,0.034-0.117,0.046-0.182
			c-0.046-0.104-0.087-0.213-0.135-0.315C374.674,248.632,374.704,248.797,374.729,248.966z"/>
		<path fill-rule="evenodd" clip-rule="evenodd" fill="#A4B8CC" d="M409.842,353.834c-0.717-22.978-1.557-45.941-3.05-68.878
			c-0.567-8.712-1.511-17.401-2.424-26.086c-0.866-8.238-1.919-16.457-2.888-24.685c-1.049-4.288-2.13-8.568-3.141-12.865
			c-3.242-13.778-11.599-24.514-20.941-34.53c-10.42-11.171-22.004-21.051-34.814-29.438c-1.794,12.418-4.125,24.788-5.24,37.266
			c-1.289,14.421-2.479,28.885-2.277,43.41c0.071,5.16-0.539,10.327-0.708,15.495c-0.057,1.713-0.536,3.592,0.889,5.084
			c0.981-1.406,1.742-2.86,2.329-4.354v32.387c-1.51-7.638-3.209-14.997-4.148-22.522c-0.574-4.61-5.011-7.333-10.611-7.894
			c-7.526-0.754-14.506,0.914-20.965,4.681c-3.387,1.974-4.586,1.795-4.913-2.646c-0.793-10.78-2.194-21.517-3.392-32.266
			c-0.077-0.692-0.501-1.346-0.764-2.018c-5.677,5.891-13.676,7.313-20.645,10.717c-2.709,1.324-5.461,2.563-8.193,3.839
			c-5.368,0.16-10.463,2.83-15.967,1.744l-0.083-0.047c-1.139,0.188-2.35-0.127-3.396,0.692c-5.927,4.641-13.153,7.33-18.765,12.418
			c-1.386,1.257-2.309,3.024-3.443,4.555c-1.484,14.734-3.521,29.482-2.055,44.31c1.079,10.906,5.213,20.151,16.899,23.688
			c2.085,0.631,2.811,1.821,2.782,3.897c-0.129,9.515-0.004,19.035-0.303,28.543c-0.58,18.396-1.927,36.767-1.533,55.188
			c22.025,0,44.051,0,66.076,0c0.785-21.829-0.601-43.63-0.954-65.441c-0.16-9.884-1.434-19.746-1.582-29.662
			c-0.041-2.728,0.756-4.083,3.391-4.596c2.21-0.43,4.541-1.211,5.899-2.933c5.662-7.169,14.516-8.744,21.658-12.973
			c0.99,0.318,0.912,1.006,0.924,1.551c0.324,14.237,0.515,28.479,0.957,42.713c0.684,22.059,1.658,44.105,3.596,66.098
			c0.155,1.762,0.617,3.496,0.936,5.243c23.813,0,47.625,0,71.436,0C410.236,393.626,410.463,373.737,409.842,353.834z"/>
		<path fill-rule="evenodd" clip-rule="evenodd" fill="#A4B8CC" d="M290.999,209.762c-0.884,0.021-2.08,0.429-2.603,0.005
			c-6.02-4.884-13.131-3.2-19.903-3.431c-4.376-0.149-6.055-1.479-4.249-5.136c2.048-4.145,0.18-5.56-2.696-7.24
			c-0.628-0.367-1.167-0.885-2.109-1.613c-2.753,6.319-7.638,10.073-13.93,12.479c-2.692,1.028-4.966,3.54-6.176,6.099
			c-1.204,2.542-3.086,4.21-4.845,6.13c-1.402-0.56-3.506,1.266-4.235-0.599c-0.736-1.883,0.634-3.688,1.392-5.598
			c2.568-6.464,7.537-10.803,12.033-15.652c1.389-1.497,0.117-4.469,2.477-5.766c6.02-5.568,11.907-11.292,18.101-16.661
			c5.763-4.996,11.438-10.164,18.227-13.837c3.116,3.96,2.714,8.898,3.404,13.423C287.784,184.8,290.256,197.166,290.999,209.762z"
			/>
		<path fill-rule="evenodd" clip-rule="evenodd" fill="#FFFFFF" d="M210.493,224.033c-9.245,2.903-17.739,4.846-26.234,6.815
			c-2.14,0.495-2.821-0.555-2.899-2.188c-0.235-4.886-0.385-9.78-0.408-14.672c-0.016-3.414,2.307-2.847,4.352-2.149
			C193.872,214.761,201.957,218.697,210.493,224.033z"/>
		<path fill-rule="evenodd" clip-rule="evenodd" fill="#B7C89D" d="M151.283,358.193c-1.23,2.976-3.975,1.763-5.771,1.543
			c-8.001-0.98-16.023-0.348-24.02-0.779c-1.026-0.055-2.104,0.104-2.955-0.691C129.454,358.242,140.368,358.218,151.283,358.193z"
			/>
		<path fill-rule="evenodd" clip-rule="evenodd" fill="#4B291F" d="M286.594,84.158c-1.767-0.15-3.874,0.62-4.26-1.607
			c-0.338-1.941,1.744-2.175,3.02-2.598c3.082-1.022,5.054-3.503,7.515-5.333c1.779-1.323,3.661-2.421,5.348-0.157
			c1.472,1.977,0.739,4.06-0.92,5.545C294.217,82.763,290.36,83.705,286.594,84.158z"/>
		<path fill-rule="evenodd" clip-rule="evenodd" fill="#4B291F" d="M293.913,91.467c-0.802-0.109-2.085-0.009-3.097-0.487
			c-1.449-0.684-4.31-0.958-3.477-3.076c0.874-2.225,2.621,0.187,3.826,0.628c2.943,1.077,5.456,0.577,7.879-1.18
			c0.614-0.445,1.301-0.844,1.926-0.113c0.796,0.93,0.112,1.649-0.55,2.221C298.665,90.972,296.531,91.417,293.913,91.467z"/>
		<path fill-rule="evenodd" clip-rule="evenodd" fill="#4B291F" d="M172.162,72.048c-2.38-0.118-4.592-0.217-6.802-0.345
			c-0.908-0.053-1.925-0.234-2.097-1.256c-0.169-1.01,0.777-1.514,1.542-1.944c4.826-2.713,9.841-2.822,14.936-0.903
			c0.927,0.349,1.995,0.943,1.667,2.259c-0.285,1.142-1.278,1.595-2.349,1.693C176.708,71.766,174.35,71.896,172.162,72.048z"/>
		<path fill-rule="evenodd" clip-rule="evenodd" fill="#4B291F" d="M173.002,82.467c-0.359,2.24-0.996,4.397-3.836,4.412
			c-2.069,0.01-2.845-1.593-2.523-3.324c0.36-1.946,0.041-4.624,3.153-4.837C172.444,78.537,172.896,80.333,173.002,82.467z"/>
		<path fill-rule="evenodd" clip-rule="evenodd" fill="#4B291F" d="M198.113,87.458c-0.248,2.2-0.877,4.387-3.641,4.701
			c-2.148,0.244-2.869-1.379-2.822-3.161c0.063-2.392,1.011-4.525,3.623-4.895C197.373,83.808,197.961,85.511,198.113,87.458z"/>
		<path fill-rule="evenodd" clip-rule="evenodd" fill="#FFFFFF" d="M368.314,267.389c5.695-0.984,11.347-2.271,16.95-3.696
			c1.485-0.377,2.984-1.593,2.847-3.521c-0.16-2.247-2.127-1.526-3.445-1.836c-2.429,0.022-4.857,0.044-7.287,0.065
			c-2.564,0.474-5.201,0.589-7.646,0.613c-2.29,1.293-8.309,2.054-9.399,0.87c-1.244-1.351-1.164-2.657,0.997-3.105
			c3.176-2.615,7.097-3.769,10.741-5.462c0.002-0.071,0.027-0.12,0.033-0.186c-0.023-0.169-0.055-0.334-0.088-0.497
			c-0.142-0.304-0.293-0.599-0.452-0.884c-0.904-0.937-2.103-1.669-3.515-2.2c-6.361,0.623-11.301,4.749-16.899,7.232
			c-0.632,0.28-1.455,0.124-2.188,0.171c-2.91,0.47-4.164-0.711-3.799-3.683c0.162-1.323-0.223-2.785,0.194-3.993
			c1.576-4.573-2.523-6.538-4.261-9.543c-0.546-0.944-1.84-0.479-2.762,0.217c-1.602,1.21-1.913,2.807-1.785,4.71
			c0.43,6.4-0.097,12.621-3.925,18.106c3.646,8.438,5.921,17.161,5.435,26.451c4.317,1.579,8.338,1.971,13,0.116
			c4.672-1.858,9.625-2.472,14.827,0.977c3.302,2.189,8.115,3.189,12.688,2.374c1.933-0.344,2.989-1.32,1.885-2.909
			c-1.296-1.865-2.75-4.21-5.423-4.124c-2.508,0.082-4.512-0.987-6.653-1.866c-1.004-0.288-2.725,0.57-2.824-1.083
			c-0.063-1.051,1.314-2.353,2.313-2.284c4.321,0.295,8.231-1.745,12.391-1.958c6.341-0.324,7.032-0.245,6.347-5.037
			c-0.363-0.584-0.896-1.076-1.672-1.477c-7.043,2.253-14.226,0.513-21.896,1.128C364.651,268.191,366.268,267.742,368.314,267.389z
			"/>
	</g>
</g>
</svg>
