<?xml version="1.0" encoding="utf-8"?>
<!-- Generator: Adobe Illustrator 16.0.0, SVG Export Plug-In . SVG Version: 6.00 Build 0)  -->
<!DOCTYPE svg PUBLIC "-//W3C//DTD SVG 1.1//EN" "http://www.w3.org/Graphics/SVG/1.1/DTD/svg11.dtd">
<svg version="1.1" xmlns="http://www.w3.org/2000/svg" xmlns:xlink="http://www.w3.org/1999/xlink" x="0px" y="0px"
	 width="635.91px" height="627.192px" viewBox="0 0 635.91 627.192" enable-background="new 0 0 635.91 627.192"
	 xml:space="preserve">
<g id="圖層_2" display="none">
</g>
<g id="圖層_1參考">
</g>
<g id="圖層_3">
</g>
<g id="圖層_4">
</g>
<g id="圖層_7">
</g>
<g id="圖層_6">
</g>
<g id="廣告圖1">
</g>
<g id="圖層_8">
	<g>
		<circle fill="#A4B8CC" cx="322.314" cy="313.596" r="313.596"/>
		<circle fill="#354966" cx="318.515" cy="303.504" r="16.567"/>
		
			<line fill="#354966" stroke="#354966" stroke-width="9" stroke-miterlimit="10" x1="430.5" y1="226.742" x2="319.966" y2="304.361"/>
		
			<line fill="#354966" stroke="#354966" stroke-width="9" stroke-miterlimit="10" x1="318.303" y1="304.062" x2="312.637" y2="515.101"/>
		<g>
			<path fill-rule="evenodd" clip-rule="evenodd" fill="#495D66" d="M85.984,305.192c0.435-0.402,1.086-0.724,1.27-1.219
				c0.941-2.546,2.922-2.598,5.096-2.302c-0.359,5.837-1.031,11.626-2.691,17.258c-0.33,1.117-0.594,2.48-2.184,2.316
				c-1.649-0.171-1.223-1.631-1.252-2.612C86.084,314.156,86.053,309.673,85.984,305.192z"/>
			<path fill-rule="evenodd" clip-rule="evenodd" fill="#495D66" d="M62.602,307.905c-0.228,4.094-1.111,8.068-2.17,12.012
				c-0.328,1.228-0.857,2.465-2.277,2.287c-1.322-0.166-1.082-1.569-1.13-2.533c-0.22-4.495-0.38-8.992-0.561-13.487
				c1.688,0.338,3.15,1.504,4.97,1.37c0.167,0.013,0.336,0.024,0.504,0.036C62.158,307.695,62.379,307.8,62.602,307.905z"/>
			<path fill-rule="evenodd" clip-rule="evenodd" fill="#8E9495" d="M34.875,273.396c-0.836,1.227-1.883,2.263-3.4,2.407
				c-1.175,0.112-1.191,1.006-1.57,1.697c-0.122-0.737-0.119-1.526-0.396-2.201c-1.065-2.584-0.469-4.476,2.095-5.728
				c0.506-0.249,0.891-0.75,1.334-1.132c1.49-0.309,2.115-1.617,3.01-2.61C36.303,268.452,36.249,271.017,34.875,273.396z"/>
			<path fill-rule="evenodd" clip-rule="evenodd" fill="#4A5A5D" d="M81.767,306.982c-0.319,0.091-0.64,0.181-0.96,0.272
				c-1.178-0.011-2.357-0.024-3.535-0.035c-0.18-0.073-0.361-0.147-0.541-0.219c-0.791,1.039-0.066,2.047,0.063,3.067
				c0.027,0.213,0.055,0.427,0.08,0.64c0.51,3.411,0.867,6.864,2.865,9.842c0.281,0.386,0.677,0.361,1.082,0.303
				c0.742,0.118,1.186-0.302,1.199-0.946C82.117,315.595,82.749,311.272,81.767,306.982z"/>
			<path fill-rule="evenodd" clip-rule="evenodd" fill="#F2F9F9" d="M97.104,258.662c-0.427-0.078-0.762-0.274-0.914-0.708
				C96.492,258.19,96.799,258.426,97.104,258.662z"/>
			<path fill-rule="evenodd" clip-rule="evenodd" fill="#81B9CE" d="M42.088,304.206c0.154,0.123,0.307,0.243,0.459,0.365
				C42.395,304.449,42.242,304.328,42.088,304.206z"/>
			<path fill-rule="evenodd" clip-rule="evenodd" fill="#81B9CE" d="M41.035,303.504c0.222,0.167,0.441,0.336,0.662,0.504
				C41.477,303.841,41.257,303.671,41.035,303.504z"/>
			<path fill-rule="evenodd" clip-rule="evenodd" fill="#B5B5B5" d="M34.875,273.396c1.374-2.379,1.428-4.944,1.072-7.567
				c0.43-0.901,0.857-1.8,1.289-2.707c4.297,2.452,5.585,2.322,9.279-0.876c0.318-0.275,0.881-0.819,0.934-0.773
				c1.787,1.534,4.875,0.872,6.014,2.365c1.67,2.186,3.405,3.354,5.98,3.602c0.334,1.299,0.668,2.599,1,3.899
				c-0.955,3.557-1.074,7.276-2.497,10.761c-2.415,5.908-8.177,8.954-14.39,7.374c-3.641-0.925-5.828-3.293-6.936-6.751
				c-0.725-2.264-1.018-4.616-1.15-6.991C35.426,274.927,35.73,274.004,34.875,273.396z M50.361,282.996
				c-0.627-0.458-0.898-0.203-1.193-0.07c-0.875,0.392-1.807,1.652-2.654,0.775c-0.838-0.861-0.699-2.088,0.613-2.971
				c0.799-0.536,0.416-1.215-0.521-1.301c-0.578-0.053-1.174,0.054-1.76,0.118c-0.586,0.062-1.369-0.809-1.727,0.23
				c-0.225,0.648,0.362,1.065,0.871,1.386c1.117,0.706,1.199,1.682,0.859,2.947c-0.943-0.345-1.767-0.646-3.16-1.157
				c1.023,2.095,2.35,2.692,3.895,2.655C47.541,285.561,49.417,285.145,50.361,282.996z M42.234,273.775
				c-0.153-0.956-0.387-1.921-1.592-1.938c-1.326-0.017-1.691,0.951-1.687,2.06c0.003,1.017,0.423,1.913,1.556,1.947
				C41.828,275.887,42.154,274.887,42.234,273.775z M52.299,275.912c1.197-0.289,1.613-1.147,1.525-2.277
				c-0.08-1.015-0.497-1.887-1.697-1.808c-1.342,0.085-1.578,1.111-1.546,2.207C50.613,275.103,51.164,275.773,52.299,275.912z"/>
			<path fill-rule="evenodd" clip-rule="evenodd" fill="#8E9495" d="M60.443,271.339c-0.332-1.3-0.666-2.6-1-3.899
				c1.57-0.944,2.764-0.929,3.854,0.884c0.783,1.304,2.332,1.905,3.744,2.516c1.412,0.611,2.242,1.635,1.643,3.211
				c-0.615,1.62-1.961,2.007-3.545,1.62C62.789,275.095,61.475,273.361,60.443,271.339z"/>
			<path fill-rule="evenodd" clip-rule="evenodd" fill="#4A5A5D" d="M52.234,304.034c-0.518,0.343-1.033,0.687-1.551,1.03
				c-0.85,0.173-1.701,0.347-2.553,0.521c-0.477-0.009-0.952-0.019-1.43-0.028c0.522,3.267,0.957,6.551,1.604,9.793
				c0.363,1.818,1.023,3.586,1.664,5.335c0.27,0.735,0.949,1.266,1.82,1.098c0.797-0.153,0.978-0.865,1.039-1.565
				c0.068-0.847,0.125-1.695,0.139-2.544c0.078-4.492,0.139-8.984,0.205-13.476C52.859,304.144,52.547,304.089,52.234,304.034z"/>
			<path fill-rule="evenodd" clip-rule="evenodd" fill="#F2F9F9" d="M101.802,269.725c-0.817-0.979-1.14-1.936-1.258-3.167
				c-0.284-2.98-0.845-5.896-3.44-7.896c-0.427-0.078-0.762-0.274-0.914-0.708c-0.045-0.139-0.133-0.239-0.262-0.303
				c-0.933-0.925-2.117-1.6-3.361-1.479c-2.691,0.261-4.871-0.516-6.648-2.512c-0.459-0.404-0.919-0.809-1.375-1.211H84.54
				c-0.907-0.624-1.813-1.246-2.722-1.869c-0.678-0.116-1.357-0.23-2.037-0.346c-0.326-0.048-0.652-0.098-0.98-0.146
				c-3.98-1.453-7.631-0.227-11.236,1.383c-0.616-0.885-1.109-1.816-1.154-2.925c-0.002,0.002,0.019-0.014,0.019-0.014
				c-2.812-2.293-5.825-3.364-9.348-1.622c-0.72,0.358-1.263-0.12-1.819-0.547c-5.164-3.97-9.748-3.353-13.588,1.798
				c-0.146,0.197-0.377,0.331-0.568,0.496c-0.109,1.893-1.116,2.974-2.82,3.831c-5.199,2.614-7.043,6.064-6.422,11.771
				c0.154,1.416,0.706,2.788,1.074,4.181c1.49-0.31,2.115-1.618,3.01-2.611c0.43-0.901,0.857-1.8,1.289-2.707
				c4.297,2.452,5.585,2.322,9.279-0.876c0.318-0.275,0.881-0.819,0.934-0.773c1.787,1.534,4.875,0.872,6.014,2.365
				c1.67,2.186,3.405,3.354,5.98,3.602c1.57-0.944,2.764-0.929,3.854,0.884c0.783,1.304,2.332,1.905,3.744,2.516
				c1.412,0.611,2.242,1.635,1.643,3.211c-0.615,1.62-1.961,2.007-3.545,1.62c-2.35-0.576-3.664-2.309-4.695-4.332
				c-0.955,3.557-1.074,7.276-2.497,10.761c-2.415,5.908-8.177,8.954-14.39,7.374c-3.641-0.925-5.828-3.293-6.936-6.751
				c-0.725-2.264-1.018-4.616-1.15-6.991c-0.045-0.805,0.26-1.727-0.596-2.335c-0.836,1.227-1.883,2.263-3.4,2.407
				c-1.175,0.112-1.191,1.006-1.57,1.697c-0.4,3.744,0.555,7.237,1.957,10.65c0.227,3.651,1.09,4.708,4.156,5.085l-0.037,0.12
				l0.042-0.104c0.509,1.565,0.677,3.192,0.952,4.804c0.32,1.87,0.916,3.75,3.096,4.403c0.008,0.675,0.352,1.022,1.027,1.042
				c0-0.001-0.063,0.004-0.063,0.004c0.222,0.167,0.441,0.336,0.662,0.504c0.154,0.022,0.283,0.088,0.391,0.197
				c0.154,0.123,0.307,0.243,0.459,0.365c1.479-0.066,2.826,0.422,4.155,0.985c0.477,0.01,0.952,0.02,1.429,0.029
				c0.852-0.174,1.703-0.348,2.553-0.521c0.518-0.343,1.033-0.687,1.551-1.03c0.313,0.055,0.625,0.11,0.938,0.166
				c1.896-0.666,2.406,0.973,3.292,1.985c1.688,0.338,3.15,1.504,4.97,1.37c0.167,0.013,0.336,0.024,0.504,0.036
				c0.221,0.105,0.441,0.21,0.666,0.317c3.279-0.032,6.504-0.2,8.621-3.281c1.836,0.791,3.672,1.582,5.506,2.374
				c0.18,0.072,0.361,0.146,0.541,0.219c1.178,0.011,2.357,0.024,3.535,0.035c0.32-0.091,0.641-0.181,0.96-0.272
				c1.456-0.477,2.923-0.929,4.218-1.79c0.435-0.402,1.086-0.724,1.27-1.219c0.941-2.546,2.922-2.598,5.096-2.302
				c0.229-0.111,0.453-0.231,0.688-0.33c6.337-2.645,8.527-6.445,7.73-13.292c-0.103-0.878-0.139-1.719,0.637-2.564
				C105.516,281.003,105.68,274.369,101.802,269.725z M36.029,293.237c0,0-0.004,0-0.006-0.002c0.002,0,0.002,0.001,0.002,0.001
				L36.029,293.237z"/>
			<path fill-rule="evenodd" clip-rule="evenodd" fill="#464D4F" d="M50.361,282.996c-0.944,2.149-2.82,2.565-4.777,2.613
				c-1.545,0.037-2.871-0.56-3.895-2.655c1.394,0.511,2.217,0.813,3.16,1.157c0.34-1.266,0.258-2.242-0.859-2.947
				c-0.509-0.321-1.096-0.738-0.871-1.386c0.357-1.039,1.141-0.168,1.727-0.23c0.586-0.064,1.182-0.171,1.76-0.118
				c0.938,0.086,1.32,0.765,0.521,1.301c-1.313,0.883-1.451,2.11-0.613,2.971c0.848,0.876,1.779-0.383,2.654-0.775
				C49.463,282.793,49.734,282.538,50.361,282.996z"/>
			<path fill-rule="evenodd" clip-rule="evenodd" fill="#464D4F" d="M42.23,273.777c-0.076,1.11-0.402,2.11-1.719,2.068
				c-1.133-0.035-1.553-0.931-1.556-1.947c-0.005-1.109,0.36-2.077,1.687-2.06C41.848,271.854,42.081,272.819,42.23,273.777z"/>
			<path fill-rule="evenodd" clip-rule="evenodd" fill="#464D4F" d="M52.299,275.912c-1.135-0.139-1.686-0.81-1.718-1.878
				c-0.032-1.096,0.204-2.122,1.546-2.207c1.2-0.079,1.617,0.793,1.697,1.808C53.912,274.765,53.496,275.624,52.299,275.912z"/>
		</g>
		<g>
			<path fill-rule="evenodd" clip-rule="evenodd" fill="#495D66" d="M337.29,584.229c0.437-0.401,1.088-0.724,1.271-1.22
				c0.94-2.545,2.921-2.598,5.096-2.301c-0.36,5.836-1.03,11.626-2.691,17.257c-0.329,1.118-0.593,2.481-2.185,2.316
				c-1.648-0.169-1.222-1.631-1.253-2.612C337.392,593.192,337.359,588.71,337.29,584.229z"/>
			<path fill-rule="evenodd" clip-rule="evenodd" fill="#495D66" d="M313.909,586.942c-0.228,4.093-1.112,8.067-2.17,12.01
				c-0.329,1.229-0.858,2.466-2.278,2.288c-1.322-0.166-1.082-1.569-1.129-2.533c-0.221-4.494-0.379-8.991-0.561-13.486
				c1.688,0.338,3.149,1.503,4.969,1.37c0.168,0.012,0.336,0.023,0.504,0.036C313.465,586.731,313.688,586.836,313.909,586.942z"/>
			<path fill-rule="evenodd" clip-rule="evenodd" fill="#8E9495" d="M286.182,552.432c-0.836,1.227-1.883,2.263-3.4,2.407
				c-1.174,0.112-1.189,1.008-1.568,1.697c-0.123-0.737-0.119-1.525-0.396-2.2c-1.064-2.584-0.469-4.476,2.094-5.728
				c0.508-0.25,0.891-0.75,1.334-1.133c1.491-0.308,2.114-1.617,3.011-2.61C287.609,547.488,287.557,550.053,286.182,552.432z"/>
			<path fill-rule="evenodd" clip-rule="evenodd" fill="#4A5A5D" d="M333.074,586.019c-0.32,0.091-0.641,0.181-0.961,0.272
				c-1.178-0.011-2.356-0.023-3.533-0.036c-0.182-0.073-0.363-0.146-0.543-0.218c-0.791,1.038-0.066,2.047,0.064,3.065
				c0.027,0.213,0.053,0.428,0.079,0.64c0.509,3.411,0.868,6.864,2.866,9.842c0.279,0.386,0.676,0.362,1.08,0.304
				c0.744,0.117,1.187-0.303,1.2-0.947C333.426,594.631,334.057,590.307,333.074,586.019z"/>
			<path fill-rule="evenodd" clip-rule="evenodd" fill="#F2F9F9" d="M348.412,537.699c-0.428-0.078-0.764-0.274-0.916-0.709
				C347.801,537.226,348.105,537.462,348.412,537.699z"/>
			<path fill-rule="evenodd" clip-rule="evenodd" fill="#81B9CE" d="M293.396,583.243c0.153,0.122,0.306,0.243,0.458,0.363
				C293.701,583.485,293.549,583.365,293.396,583.243z"/>
			<path fill-rule="evenodd" clip-rule="evenodd" fill="#81B9CE" d="M292.342,582.54c0.222,0.168,0.441,0.338,0.664,0.505
				C292.785,582.878,292.563,582.708,292.342,582.54z"/>
			<path fill-rule="evenodd" clip-rule="evenodd" fill="#B5B5B5" d="M286.182,552.432c1.375-2.379,1.428-4.944,1.073-7.566
				c0.429-0.901,0.856-1.8,1.29-2.707c4.295,2.452,5.584,2.321,9.277-0.875c0.318-0.275,0.881-0.819,0.934-0.773
				c1.787,1.533,4.875,0.871,6.016,2.364c1.668,2.186,3.404,3.354,5.98,3.601c0.332,1.301,0.666,2.6,1,3.9
				c-0.955,3.556-1.075,7.275-2.498,10.761c-2.416,5.908-8.177,8.953-14.39,7.373c-3.641-0.925-5.829-3.292-6.935-6.75
				c-0.725-2.264-1.02-4.617-1.152-6.991C286.732,553.963,287.039,553.041,286.182,552.432z M301.668,562.032
				c-0.627-0.458-0.898-0.202-1.193-0.069c-0.873,0.392-1.805,1.652-2.654,0.775c-0.836-0.862-0.699-2.089,0.613-2.97
				c0.799-0.537,0.416-1.216-0.521-1.302c-0.578-0.052-1.174,0.055-1.76,0.119c-0.585,0.062-1.369-0.809-1.727,0.23
				c-0.225,0.648,0.363,1.065,0.872,1.387c1.116,0.704,1.198,1.68,0.858,2.946c-0.943-0.344-1.766-0.646-3.16-1.157
				c1.023,2.096,2.349,2.692,3.896,2.655C298.848,564.598,300.725,564.181,301.668,562.032z M293.54,552.812
				c-0.151-0.956-0.386-1.922-1.589-1.938c-1.327-0.017-1.693,0.951-1.688,2.061c0.004,1.017,0.422,1.913,1.556,1.947
				C293.135,554.923,293.461,553.923,293.54,552.812z M303.605,554.949c1.197-0.288,1.613-1.148,1.525-2.278
				c-0.08-1.014-0.496-1.885-1.696-1.808c-1.341,0.086-1.579,1.111-1.546,2.208C301.92,554.139,302.471,554.81,303.605,554.949z"/>
			<path fill-rule="evenodd" clip-rule="evenodd" fill="#8E9495" d="M311.752,550.376c-0.334-1.3-0.668-2.6-1-3.9
				c1.568-0.944,2.763-0.928,3.853,0.885c0.782,1.304,2.331,1.904,3.745,2.515c1.411,0.611,2.24,1.635,1.643,3.211
				c-0.616,1.62-1.962,2.008-3.546,1.62C314.096,554.131,312.783,552.398,311.752,550.376z"/>
			<path fill-rule="evenodd" clip-rule="evenodd" fill="#4A5A5D" d="M303.542,583.071c-0.518,0.343-1.034,0.686-1.55,1.029
				c-0.852,0.173-1.702,0.347-2.553,0.521c-0.479-0.009-0.953-0.019-1.432-0.028c0.523,3.268,0.959,6.552,1.605,9.794
				c0.362,1.818,1.021,3.586,1.662,5.335c0.271,0.735,0.949,1.266,1.82,1.098c0.797-0.152,0.979-0.865,1.039-1.566
				c0.069-0.845,0.125-1.695,0.141-2.544c0.076-4.491,0.137-8.984,0.203-13.474C304.167,583.18,303.854,583.126,303.542,583.071z"/>
			<path fill-rule="evenodd" clip-rule="evenodd" fill="#F2F9F9" d="M353.109,548.761c-0.818-0.979-1.141-1.936-1.258-3.167
				c-0.284-2.98-0.844-5.897-3.439-7.896c-0.428-0.078-0.764-0.274-0.916-0.709c-0.046-0.139-0.133-0.238-0.262-0.302
				c-0.933-0.925-2.117-1.6-3.36-1.479c-2.692,0.262-4.87-0.516-6.649-2.512c-0.459-0.404-0.918-0.808-1.375-1.212h-0.002
				c-0.908-0.623-1.814-1.246-2.721-1.868c-0.68-0.115-1.358-0.23-2.039-0.346c-0.326-0.048-0.652-0.098-0.98-0.147
				c-3.98-1.452-7.631-0.225-11.235,1.384c-0.616-0.885-1.108-1.817-1.155-2.924c-0.002,0.001,0.02-0.014,0.02-0.014
				c-2.811-2.292-5.826-3.364-9.348-1.622c-0.721,0.358-1.264-0.119-1.818-0.546c-5.166-3.97-9.75-3.354-13.59,1.797
				c-0.146,0.196-0.377,0.332-0.568,0.497c-0.107,1.893-1.115,2.975-2.82,3.831c-5.197,2.614-7.043,6.064-6.421,11.772
				c0.153,1.415,0.706,2.788,1.074,4.18c1.49-0.309,2.113-1.618,3.01-2.611c0.429-0.901,0.856-1.8,1.29-2.707
				c4.295,2.452,5.584,2.321,9.277-0.875c0.318-0.275,0.881-0.819,0.934-0.773c1.787,1.533,4.875,0.871,6.016,2.364
				c1.668,2.186,3.404,3.354,5.98,3.601c1.568-0.944,2.763-0.928,3.853,0.885c0.782,1.304,2.331,1.904,3.745,2.515
				c1.411,0.611,2.24,1.635,1.643,3.211c-0.616,1.62-1.962,2.008-3.546,1.62c-2.351-0.575-3.663-2.309-4.694-4.331
				c-0.955,3.556-1.075,7.275-2.498,10.761c-2.416,5.908-8.177,8.953-14.39,7.373c-3.641-0.925-5.829-3.292-6.935-6.75
				c-0.725-2.264-1.02-4.617-1.152-6.991c-0.045-0.805,0.262-1.728-0.596-2.336c-0.836,1.227-1.883,2.263-3.4,2.407
				c-1.174,0.112-1.189,1.008-1.568,1.697c-0.402,3.744,0.555,7.238,1.957,10.651c0.225,3.651,1.088,4.707,4.154,5.084l-0.037,0.121
				l0.043-0.105c0.508,1.565,0.677,3.192,0.953,4.805c0.318,1.869,0.916,3.75,3.094,4.403c0.009,0.676,0.352,1.021,1.027,1.042
				c0.002,0-0.063,0.003-0.063,0.003c0.222,0.168,0.441,0.338,0.664,0.505c0.153,0.022,0.282,0.088,0.39,0.198
				c0.153,0.122,0.306,0.243,0.458,0.363c1.479-0.065,2.826,0.423,4.156,0.987c0.477,0.01,0.951,0.02,1.43,0.029
				c0.851-0.175,1.701-0.349,2.553-0.521c0.516-0.343,1.032-0.687,1.55-1.029c0.312,0.055,0.625,0.109,0.937,0.166
				c1.896-0.667,2.406,0.972,3.293,1.984c1.688,0.338,3.149,1.503,4.969,1.37c0.168,0.012,0.336,0.023,0.504,0.036
				c0.221,0.105,0.443,0.21,0.666,0.316c3.279-0.032,6.504-0.2,8.623-3.28c1.834,0.791,3.67,1.582,5.504,2.375
				c0.18,0.072,0.361,0.145,0.543,0.218c1.177,0.012,2.355,0.025,3.533,0.036c0.32-0.091,0.641-0.181,0.961-0.272
				c1.456-0.476,2.924-0.929,4.216-1.79c0.437-0.401,1.088-0.724,1.271-1.22c0.94-2.545,2.921-2.598,5.096-2.301
				c0.228-0.111,0.452-0.232,0.687-0.33c6.338-2.646,8.527-6.445,7.73-13.292c-0.102-0.878-0.137-1.719,0.639-2.565
				C356.822,560.04,356.986,553.406,353.109,548.761z M287.336,572.274c-0.003,0-0.003-0.001-0.005-0.002
				C287.331,572.272,287.333,572.273,287.336,572.274L287.336,572.274z"/>
			<path fill-rule="evenodd" clip-rule="evenodd" fill="#464D4F" d="M301.668,562.032c-0.943,2.149-2.82,2.566-4.775,2.613
				c-1.548,0.037-2.873-0.559-3.896-2.655c1.395,0.511,2.217,0.813,3.16,1.157c0.34-1.266,0.258-2.242-0.858-2.946
				c-0.509-0.322-1.097-0.739-0.872-1.387c0.357-1.039,1.142-0.168,1.727-0.23c0.586-0.064,1.182-0.171,1.76-0.119
				c0.938,0.086,1.32,0.765,0.521,1.302c-1.313,0.881-1.449,2.108-0.613,2.97c0.85,0.877,1.781-0.384,2.654-0.775
				C300.77,561.83,301.041,561.574,301.668,562.032z"/>
			<path fill-rule="evenodd" clip-rule="evenodd" fill="#464D4F" d="M293.539,552.814c-0.078,1.109-0.404,2.109-1.72,2.067
				c-1.134-0.034-1.552-0.93-1.556-1.947c-0.006-1.109,0.36-2.078,1.688-2.061C293.154,550.89,293.389,551.855,293.539,552.814z"/>
			<path fill-rule="evenodd" clip-rule="evenodd" fill="#464D4F" d="M303.605,554.949c-1.135-0.139-1.686-0.81-1.717-1.878
				c-0.033-1.097,0.205-2.122,1.546-2.208c1.2-0.078,1.616,0.794,1.696,1.808C305.219,553.801,304.803,554.661,303.605,554.949z"/>
		</g>
		<g>
			<path fill-rule="evenodd" clip-rule="evenodd" fill="#495D66" d="M331.232,75.497c0.436-0.402,1.088-0.723,1.271-1.22
				c0.939-2.545,2.922-2.597,5.096-2.301c-0.361,5.837-1.031,11.626-2.691,17.259c-0.33,1.116-0.594,2.48-2.184,2.315
				c-1.65-0.169-1.223-1.631-1.254-2.612C331.334,84.459,331.303,79.978,331.232,75.497z"/>
			<path fill-rule="evenodd" clip-rule="evenodd" fill="#495D66" d="M307.852,78.21c-0.228,4.093-1.112,8.067-2.17,12.01
				c-0.33,1.228-0.858,2.465-2.278,2.288c-1.321-0.167-1.082-1.57-1.13-2.533c-0.219-4.495-0.379-8.992-0.561-13.487
				c1.689,0.338,3.15,1.502,4.971,1.37c0.166,0.012,0.334,0.023,0.504,0.035C307.408,77.999,307.629,78.104,307.852,78.21z"/>
			<path fill-rule="evenodd" clip-rule="evenodd" fill="#8E9495" d="M280.125,43.7c-0.836,1.228-1.884,2.263-3.401,2.408
				c-1.175,0.112-1.19,1.007-1.569,1.697c-0.123-0.737-0.119-1.526-0.396-2.2c-1.064-2.585-0.469-4.476,2.096-5.728
				c0.506-0.249,0.891-0.749,1.332-1.132c1.492-0.31,2.115-1.617,3.012-2.611C281.552,38.756,281.498,41.321,280.125,43.7z"/>
			<path fill-rule="evenodd" clip-rule="evenodd" fill="#4A5A5D" d="M327.017,77.287c-0.319,0.091-0.64,0.181-0.96,0.273
				c-1.18-0.011-2.358-0.024-3.535-0.037c-0.182-0.073-0.362-0.146-0.543-0.219c-0.791,1.039-0.064,2.047,0.064,3.067
				c0.027,0.212,0.053,0.427,0.08,0.639c0.51,3.411,0.867,6.864,2.865,9.842c0.281,0.387,0.677,0.362,1.082,0.304
				c0.742,0.118,1.186-0.302,1.199-0.946C327.367,85.899,328,81.575,327.017,77.287z"/>
			<path fill-rule="evenodd" clip-rule="evenodd" fill="#F2F9F9" d="M342.354,28.967c-0.428-0.078-0.763-0.274-0.915-0.709
				C341.742,28.494,342.048,28.73,342.354,28.967z"/>
			<path fill-rule="evenodd" clip-rule="evenodd" fill="#81B9CE" d="M287.338,74.511c0.153,0.122,0.307,0.243,0.459,0.363
				C287.645,74.754,287.491,74.633,287.338,74.511z"/>
			<path fill-rule="evenodd" clip-rule="evenodd" fill="#81B9CE" d="M286.284,73.808c0.222,0.167,0.441,0.336,0.663,0.504
				C286.727,74.145,286.506,73.976,286.284,73.808z"/>
			<path fill-rule="evenodd" clip-rule="evenodd" fill="#B5B5B5" d="M280.125,43.7c1.373-2.378,1.427-4.943,1.072-7.566
				c0.43-0.901,0.856-1.799,1.289-2.706c4.296,2.452,5.584,2.321,9.278-0.875c0.319-0.276,0.882-0.819,0.933-0.774
				c1.788,1.534,4.876,0.873,6.016,2.365c1.668,2.187,3.404,3.354,5.98,3.601c0.333,1.3,0.667,2.6,1,3.9
				c-0.955,3.556-1.074,7.275-2.498,10.761c-2.415,5.907-8.176,8.953-14.389,7.373c-3.641-0.926-5.828-3.293-6.936-6.75
				c-0.725-2.264-1.018-4.617-1.151-6.991C280.676,45.231,280.98,44.308,280.125,43.7z M295.61,53.3
				c-0.626-0.459-0.897-0.203-1.193-0.07c-0.874,0.392-1.806,1.652-2.655,0.776c-0.836-0.862-0.699-2.088,0.615-2.971
				c0.798-0.536,0.414-1.215-0.522-1.302c-0.578-0.053-1.173,0.055-1.759,0.119c-0.586,0.062-1.369-0.809-1.727,0.23
				c-0.226,0.648,0.361,1.065,0.871,1.387c1.116,0.705,1.198,1.682,0.858,2.946c-0.943-0.344-1.767-0.646-3.161-1.157
				c1.025,2.095,2.35,2.692,3.896,2.656C292.791,55.866,294.666,55.449,295.61,53.3z M287.482,44.08
				c-0.152-0.956-0.387-1.922-1.59-1.938c-1.326-0.017-1.691,0.952-1.687,2.061c0.003,1.017,0.423,1.913,1.556,1.948
				C287.077,46.191,287.402,45.191,287.482,44.08z M297.548,46.217c1.196-0.288,1.614-1.148,1.525-2.278
				c-0.079-1.014-0.497-1.886-1.696-1.808c-1.342,0.086-1.58,1.112-1.546,2.208C295.862,45.407,296.412,46.077,297.548,46.217z"/>
			<path fill-rule="evenodd" clip-rule="evenodd" fill="#8E9495" d="M305.693,41.644c-0.333-1.3-0.667-2.6-1-3.9
				c1.568-0.943,2.763-0.929,3.854,0.885c0.783,1.304,2.332,1.905,3.744,2.515c1.412,0.611,2.241,1.636,1.643,3.211
				c-0.615,1.62-1.962,2.007-3.545,1.62C308.039,45.399,306.725,43.665,305.693,41.644z"/>
			<path fill-rule="evenodd" clip-rule="evenodd" fill="#4A5A5D" d="M297.484,74.338c-0.518,0.343-1.033,0.686-1.551,1.03
				c-0.85,0.172-1.701,0.347-2.553,0.521c-0.477-0.01-0.953-0.019-1.432-0.028c0.523,3.267,0.959,6.552,1.605,9.793
				c0.363,1.818,1.021,3.586,1.664,5.336c0.27,0.735,0.949,1.265,1.819,1.098c0.797-0.154,0.979-0.865,1.038-1.566
				c0.07-0.846,0.127-1.694,0.141-2.544c0.076-4.492,0.138-8.983,0.204-13.474C298.109,74.448,297.795,74.394,297.484,74.338z"/>
			<path fill-rule="evenodd" clip-rule="evenodd" fill="#F2F9F9" d="M347.052,40.03c-0.818-0.98-1.141-1.936-1.258-3.167
				c-0.284-2.98-0.845-5.897-3.44-7.896c-0.428-0.078-0.763-0.274-0.915-0.709c-0.046-0.139-0.133-0.239-0.261-0.302
				c-0.934-0.925-2.118-1.6-3.361-1.479c-2.692,0.262-4.871-0.516-6.649-2.512c-0.458-0.404-0.918-0.808-1.375-1.211h-0.002
				c-0.909-0.623-1.814-1.246-2.722-1.868c-0.679-0.115-1.357-0.229-2.037-0.346c-0.327-0.047-0.652-0.097-0.98-0.147
				c-3.98-1.452-7.633-0.225-11.236,1.383c-0.617-0.885-1.109-1.817-1.156-2.924c-0.002,0.001,0.02-0.014,0.02-0.014
				c-2.811-2.293-5.824-3.364-9.348-1.622c-0.721,0.357-1.263-0.12-1.818-0.547c-5.166-3.969-9.75-3.354-13.588,1.797
				c-0.147,0.196-0.379,0.332-0.568,0.497c-0.109,1.891-1.117,2.973-2.822,3.83c-5.197,2.614-7.043,6.064-6.42,11.771
				c0.153,1.415,0.705,2.788,1.074,4.181c1.49-0.311,2.113-1.618,3.01-2.612c0.43-0.901,0.856-1.799,1.289-2.706
				c4.296,2.452,5.584,2.321,9.278-0.875c0.319-0.276,0.882-0.819,0.933-0.774c1.788,1.534,4.876,0.873,6.016,2.365
				c1.668,2.187,3.404,3.354,5.98,3.601c1.568-0.943,2.763-0.929,3.854,0.885c0.783,1.304,2.332,1.905,3.744,2.515
				c1.412,0.611,2.241,1.636,1.643,3.211c-0.615,1.62-1.962,2.007-3.545,1.62c-2.35-0.575-3.664-2.31-4.695-4.331
				c-0.955,3.556-1.074,7.275-2.498,10.761c-2.415,5.907-8.176,8.953-14.389,7.373c-3.641-0.926-5.828-3.293-6.936-6.75
				c-0.725-2.264-1.018-4.617-1.151-6.991c-0.044-0.805,0.261-1.728-0.595-2.336c-0.836,1.228-1.884,2.263-3.401,2.408
				c-1.175,0.112-1.19,1.007-1.569,1.697c-0.401,3.744,0.555,7.238,1.958,10.651c0.226,3.65,1.087,4.707,4.155,5.083l-0.039,0.121
				l0.043-0.104c0.508,1.565,0.678,3.191,0.953,4.804c0.319,1.869,0.916,3.75,3.094,4.403c0.01,0.675,0.353,1.022,1.027,1.042
				l-0.062,0.004c0.222,0.167,0.441,0.336,0.663,0.504c0.154,0.021,0.283,0.088,0.391,0.198c0.153,0.122,0.307,0.243,0.459,0.363
				c1.479-0.064,2.824,0.423,4.154,0.987c0.477,0.01,0.953,0.019,1.43,0.029c0.852-0.174,1.703-0.349,2.553-0.521
				c0.518-0.344,1.033-0.687,1.551-1.03c0.311,0.055,0.625,0.109,0.937,0.166c1.897-0.666,2.406,0.972,3.292,1.984
				c1.689,0.338,3.15,1.502,4.971,1.37c0.166,0.012,0.334,0.023,0.504,0.035c0.221,0.105,0.441,0.21,0.664,0.316
				c3.279-0.031,6.505-0.199,8.623-3.279c1.834,0.791,3.67,1.581,5.504,2.374c0.181,0.073,0.361,0.146,0.543,0.219
				c1.177,0.012,2.355,0.025,3.535,0.037c0.32-0.092,0.641-0.182,0.96-0.273c1.456-0.477,2.922-0.929,4.216-1.79
				c0.436-0.402,1.088-0.723,1.271-1.22c0.939-2.545,2.922-2.597,5.096-2.301c0.228-0.11,0.451-0.231,0.687-0.33
				c6.339-2.646,8.526-6.446,7.73-13.292c-0.102-0.878-0.138-1.719,0.638-2.564C350.766,51.307,350.928,44.673,347.052,40.03z
				 M281.277,63.542c0,0-0.002-0.001-0.004-0.002c0.002,0,0.002,0.001,0.002,0.001L281.277,63.542z"/>
			<path fill-rule="evenodd" clip-rule="evenodd" fill="#464D4F" d="M295.61,53.3c-0.944,2.148-2.819,2.565-4.776,2.613
				c-1.547,0.036-2.871-0.561-3.896-2.656c1.395,0.511,2.218,0.813,3.161,1.157c0.34-1.265,0.258-2.241-0.858-2.946
				c-0.51-0.321-1.097-0.738-0.871-1.387c0.357-1.039,1.141-0.168,1.727-0.23c0.586-0.064,1.181-0.171,1.759-0.119
				c0.937,0.086,1.32,0.766,0.522,1.302c-1.314,0.883-1.451,2.109-0.615,2.971c0.85,0.876,1.781-0.384,2.655-0.776
				C294.713,53.097,294.984,52.841,295.61,53.3z"/>
			<path fill-rule="evenodd" clip-rule="evenodd" fill="#464D4F" d="M287.48,44.082c-0.078,1.109-0.403,2.11-1.719,2.068
				c-1.133-0.035-1.553-0.931-1.556-1.948c-0.005-1.109,0.36-2.078,1.687-2.061C287.096,42.158,287.33,43.124,287.48,44.082z"/>
			<path fill-rule="evenodd" clip-rule="evenodd" fill="#464D4F" d="M297.548,46.217c-1.136-0.14-1.686-0.81-1.717-1.878
				c-0.034-1.096,0.204-2.122,1.546-2.208c1.199-0.079,1.617,0.794,1.696,1.808C299.162,45.068,298.744,45.929,297.548,46.217z"/>
		</g>
		<g>
			<path fill-rule="evenodd" clip-rule="evenodd" fill="#495D66" d="M216.27,113.834c0.435-0.401,1.088-0.724,1.27-1.22
				c0.941-2.545,2.922-2.597,5.098-2.301c-0.361,5.836-1.032,11.625-2.692,17.258c-0.331,1.116-0.593,2.48-2.185,2.316
				c-1.648-0.17-1.223-1.631-1.252-2.612C216.37,122.797,216.338,118.315,216.27,113.834z"/>
			<path fill-rule="evenodd" clip-rule="evenodd" fill="#495D66" d="M192.889,116.547c-0.229,4.094-1.113,8.068-2.17,12.011
				c-0.33,1.228-0.859,2.465-2.279,2.288c-1.32-0.167-1.082-1.569-1.129-2.533c-0.221-4.495-0.379-8.992-0.561-13.487
				c1.689,0.337,3.15,1.503,4.97,1.37c0.167,0.012,0.335,0.023,0.503,0.035C192.443,116.336,192.665,116.442,192.889,116.547z"/>
			<path fill-rule="evenodd" clip-rule="evenodd" fill="#8E9495" d="M165.16,82.038c-0.836,1.228-1.883,2.263-3.4,2.408
				c-1.174,0.112-1.189,1.007-1.568,1.696c-0.123-0.736-0.119-1.526-0.396-2.2c-1.064-2.585-0.469-4.476,2.094-5.728
				c0.508-0.249,0.893-0.75,1.334-1.132c1.49-0.309,2.115-1.617,3.01-2.61C166.588,77.094,166.535,79.659,165.16,82.038z"/>
			<path fill-rule="evenodd" clip-rule="evenodd" fill="#4A5A5D" d="M212.053,115.625c-0.32,0.091-0.641,0.181-0.961,0.272
				c-1.178-0.011-2.357-0.024-3.534-0.036c-0.181-0.073-0.362-0.147-0.542-0.219c-0.791,1.039-0.066,2.048,0.064,3.067
				c0.027,0.213,0.053,0.427,0.078,0.64c0.51,3.41,0.869,6.864,2.867,9.841c0.279,0.387,0.676,0.361,1.082,0.304
				c0.742,0.117,1.185-0.302,1.198-0.947C212.404,124.237,213.035,119.914,212.053,115.625z"/>
			<path fill-rule="evenodd" clip-rule="evenodd" fill="#F2F9F9" d="M227.391,67.304c-0.428-0.078-0.764-0.273-0.916-0.708
				C226.779,66.831,227.084,67.068,227.391,67.304z"/>
			<path fill-rule="evenodd" clip-rule="evenodd" fill="#81B9CE" d="M172.373,112.848c0.154,0.123,0.307,0.243,0.459,0.365
				C172.68,113.091,172.527,112.971,172.373,112.848z"/>
			<path fill-rule="evenodd" clip-rule="evenodd" fill="#81B9CE" d="M171.32,112.146c0.223,0.167,0.441,0.337,0.664,0.504
				C171.764,112.483,171.543,112.313,171.32,112.146z"/>
			<path fill-rule="evenodd" clip-rule="evenodd" fill="#B5B5B5" d="M165.16,82.038c1.375-2.378,1.428-4.944,1.072-7.566
				c0.43-0.9,0.857-1.8,1.291-2.706c4.295,2.452,5.584,2.321,9.277-0.876c0.319-0.276,0.881-0.819,0.934-0.774
				c1.787,1.534,4.875,0.872,6.015,2.365c1.669,2.186,3.405,3.354,5.981,3.602c0.332,1.3,0.666,2.6,1,3.899
				c-0.955,3.557-1.074,7.275-2.498,10.762c-2.416,5.907-8.176,8.952-14.391,7.373c-3.639-0.925-5.828-3.292-6.934-6.751
				c-0.727-2.263-1.02-4.616-1.152-6.99C165.711,83.568,166.016,82.646,165.16,82.038z M180.646,91.637
				c-0.627-0.458-0.897-0.203-1.193-0.069c-0.873,0.391-1.807,1.651-2.654,0.775c-0.836-0.861-0.699-2.089,0.614-2.972
				c0.798-0.536,0.415-1.215-0.522-1.301c-0.578-0.053-1.173,0.055-1.76,0.118c-0.584,0.062-1.369-0.809-1.727,0.23
				c-0.225,0.649,0.363,1.065,0.871,1.387c1.117,0.705,1.199,1.681,0.859,2.946c-0.943-0.344-1.766-0.646-3.16-1.157
				c1.023,2.095,2.35,2.692,3.896,2.655C177.827,94.204,179.703,93.787,180.646,91.637z M172.52,82.418
				c-0.152-0.958-0.387-1.922-1.59-1.938c-1.328-0.018-1.691,0.951-1.688,2.06c0.004,1.018,0.423,1.914,1.555,1.947
				C172.113,84.529,172.439,83.529,172.52,82.418z M182.584,84.555c1.197-0.288,1.613-1.148,1.525-2.278
				c-0.08-1.015-0.496-1.887-1.695-1.808c-1.342,0.086-1.58,1.111-1.547,2.208C180.898,83.744,181.449,84.415,182.584,84.555z"/>
			<path fill-rule="evenodd" clip-rule="evenodd" fill="#8E9495" d="M190.73,79.981c-0.334-1.3-0.668-2.599-1-3.899
				c1.568-0.944,2.763-0.929,3.853,0.884c0.782,1.304,2.331,1.906,3.745,2.516c1.41,0.61,2.24,1.635,1.643,3.211
				c-0.616,1.619-1.963,2.007-3.545,1.619C193.074,83.736,191.762,82.003,190.73,79.981z"/>
			<path fill-rule="evenodd" clip-rule="evenodd" fill="#4A5A5D" d="M182.52,112.675c-0.516,0.343-1.033,0.688-1.551,1.03
				c-0.85,0.173-1.699,0.347-2.551,0.521c-0.479-0.009-0.953-0.019-1.432-0.028c0.522,3.267,0.959,6.552,1.605,9.794
				c0.363,1.817,1.021,3.585,1.662,5.334c0.27,0.735,0.949,1.265,1.82,1.098c0.797-0.153,0.979-0.865,1.039-1.565
				c0.068-0.847,0.127-1.695,0.141-2.544c0.076-4.491,0.137-8.984,0.203-13.475C183.146,112.786,182.832,112.731,182.52,112.675z"/>
			<path fill-rule="evenodd" clip-rule="evenodd" fill="#F2F9F9" d="M232.088,78.367c-0.818-0.98-1.141-1.936-1.258-3.167
				c-0.283-2.98-0.844-5.896-3.439-7.896c-0.428-0.078-0.764-0.273-0.916-0.708c-0.045-0.139-0.133-0.239-0.262-0.301
				c-0.932-0.926-2.117-1.601-3.359-1.479c-2.693,0.261-4.871-0.517-6.65-2.513c-0.458-0.404-0.918-0.807-1.375-1.211h-0.002
				c-0.908-0.624-1.814-1.246-2.721-1.868c-0.68-0.116-1.357-0.23-2.039-0.346c-0.326-0.048-0.651-0.098-0.979-0.146
				c-3.98-1.453-7.633-0.226-11.238,1.383c-0.615-0.885-1.107-1.816-1.154-2.924c-0.002,0.001,0.02-0.014,0.02-0.014
				c-2.812-2.293-5.826-3.364-9.348-1.623c-0.721,0.358-1.264-0.119-1.818-0.546c-5.166-3.969-9.75-3.353-13.588,1.797
				c-0.148,0.196-0.379,0.332-0.57,0.497c-0.107,1.893-1.115,2.975-2.82,3.831c-5.197,2.614-7.043,6.064-6.422,11.771
				c0.154,1.416,0.707,2.788,1.075,4.18c1.489-0.309,2.114-1.617,3.009-2.61c0.43-0.9,0.857-1.8,1.291-2.706
				c4.295,2.452,5.584,2.321,9.277-0.876c0.319-0.276,0.881-0.819,0.934-0.774c1.787,1.534,4.875,0.872,6.015,2.365
				c1.669,2.186,3.405,3.354,5.981,3.602c1.568-0.944,2.763-0.929,3.853,0.884c0.782,1.304,2.331,1.906,3.745,2.516
				c1.41,0.61,2.24,1.635,1.643,3.211c-0.616,1.619-1.963,2.007-3.545,1.619c-2.352-0.576-3.664-2.309-4.695-4.331
				c-0.955,3.557-1.074,7.275-2.498,10.762c-2.416,5.907-8.176,8.952-14.391,7.373c-3.639-0.925-5.828-3.292-6.934-6.751
				c-0.727-2.263-1.02-4.616-1.152-6.99c-0.045-0.805,0.26-1.728-0.596-2.336c-0.836,1.228-1.883,2.263-3.4,2.408
				c-1.174,0.112-1.189,1.007-1.568,1.696c-0.402,3.744,0.553,7.237,1.957,10.651c0.225,3.65,1.088,4.708,4.154,5.084l-0.037,0.121
				l0.043-0.105c0.508,1.566,0.676,3.192,0.952,4.804c0.319,1.87,0.916,3.75,3.095,4.403c0.01,0.675,0.352,1.022,1.027,1.042
				c0.002-0.001-0.063,0.004-0.063,0.004c0.223,0.167,0.441,0.337,0.664,0.504c0.154,0.022,0.283,0.088,0.389,0.197
				c0.154,0.123,0.307,0.243,0.459,0.365c1.479-0.066,2.826,0.422,4.156,0.986c0.477,0.009,0.951,0.019,1.43,0.028
				c0.852-0.174,1.701-0.348,2.551-0.521c0.518-0.343,1.035-0.687,1.551-1.03c0.313,0.056,0.626,0.11,0.938,0.166
				c1.896-0.667,2.406,0.973,3.293,1.985c1.689,0.337,3.15,1.503,4.97,1.37c0.167,0.012,0.335,0.023,0.503,0.035
				c0.221,0.105,0.442,0.211,0.666,0.317c3.279-0.032,6.504-0.2,8.623-3.28c1.834,0.792,3.67,1.582,5.504,2.374
				c0.18,0.072,0.361,0.146,0.542,0.219c1.177,0.012,2.356,0.025,3.534,0.036c0.32-0.091,0.641-0.181,0.961-0.272
				c1.455-0.477,2.922-0.929,4.217-1.79c0.435-0.401,1.088-0.724,1.27-1.22c0.941-2.545,2.922-2.597,5.098-2.301
				c0.227-0.111,0.451-0.232,0.686-0.331c6.339-2.645,8.527-6.446,7.73-13.292c-0.102-0.877-0.138-1.719,0.639-2.564
				C235.801,89.645,235.965,83.011,232.088,78.367z M166.314,101.879c-0.003,0-0.003,0-0.005-0.002
				C166.31,101.877,166.312,101.878,166.314,101.879L166.314,101.879z"/>
			<path fill-rule="evenodd" clip-rule="evenodd" fill="#464D4F" d="M180.646,91.637c-0.943,2.149-2.819,2.566-4.775,2.613
				c-1.547,0.037-2.873-0.56-3.896-2.655c1.395,0.51,2.217,0.813,3.16,1.157c0.34-1.266,0.258-2.242-0.859-2.946
				c-0.508-0.321-1.096-0.738-0.871-1.387c0.357-1.039,1.143-0.168,1.727-0.23c0.587-0.063,1.182-0.171,1.76-0.118
				c0.938,0.086,1.32,0.765,0.522,1.301c-1.313,0.883-1.45,2.11-0.614,2.972c0.848,0.876,1.781-0.384,2.654-0.775
				C179.749,91.435,180.02,91.179,180.646,91.637z"/>
			<path fill-rule="evenodd" clip-rule="evenodd" fill="#464D4F" d="M172.518,82.419c-0.078,1.11-0.404,2.109-1.721,2.067
				c-1.132-0.034-1.551-0.93-1.555-1.947c-0.004-1.109,0.359-2.077,1.688-2.06C172.133,80.496,172.367,81.46,172.518,82.419z"/>
			<path fill-rule="evenodd" clip-rule="evenodd" fill="#464D4F" d="M182.584,84.555c-1.135-0.14-1.686-0.811-1.717-1.878
				c-0.033-1.097,0.205-2.122,1.547-2.208c1.199-0.079,1.615,0.793,1.695,1.808C184.197,83.407,183.781,84.267,182.584,84.555z"/>
		</g>
		<g>
			<path fill-rule="evenodd" clip-rule="evenodd" fill="#495D66" d="M129.125,199.672c0.436-0.401,1.088-0.724,1.271-1.219
				c0.939-2.546,2.921-2.598,5.096-2.302c-0.361,5.837-1.031,11.626-2.691,17.258c-0.33,1.117-0.595,2.48-2.184,2.316
				c-1.65-0.17-1.223-1.631-1.254-2.612C129.227,208.635,129.195,204.153,129.125,199.672z"/>
			<path fill-rule="evenodd" clip-rule="evenodd" fill="#495D66" d="M105.744,202.385c-0.227,4.094-1.111,8.068-2.17,12.011
				c-0.328,1.228-0.858,2.465-2.278,2.288c-1.321-0.167-1.081-1.569-1.13-2.533c-0.219-4.494-0.379-8.991-0.561-13.487
				c1.689,0.338,3.15,1.503,4.971,1.371c0.166,0.011,0.334,0.022,0.504,0.035C105.301,202.175,105.521,202.28,105.744,202.385z"/>
			<path fill-rule="evenodd" clip-rule="evenodd" fill="#8E9495" d="M78.018,167.876c-0.836,1.227-1.883,2.263-3.4,2.407
				c-1.175,0.111-1.191,1.007-1.57,1.697c-0.123-0.737-0.119-1.526-0.396-2.201c-1.064-2.584-0.469-4.476,2.096-5.728
				c0.506-0.249,0.891-0.75,1.332-1.131c1.492-0.31,2.115-1.618,3.012-2.611C79.444,162.932,79.391,165.496,78.018,167.876z"/>
			<path fill-rule="evenodd" clip-rule="evenodd" fill="#4A5A5D" d="M124.908,201.462c-0.318,0.091-0.639,0.181-0.959,0.272
				c-1.18-0.011-2.357-0.023-3.535-0.035c-0.182-0.074-0.361-0.147-0.543-0.22c-0.791,1.04-0.064,2.048,0.064,3.068
				c0.027,0.213,0.053,0.428,0.08,0.64c0.51,3.411,0.867,6.864,2.865,9.842c0.281,0.386,0.676,0.361,1.082,0.303
				c0.742,0.119,1.186-0.301,1.199-0.946C125.26,210.075,125.893,205.751,124.908,201.462z"/>
			<path fill-rule="evenodd" clip-rule="evenodd" fill="#F2F9F9" d="M140.246,153.142c-0.428-0.078-0.764-0.274-0.915-0.708
				C139.635,152.669,139.941,152.906,140.246,153.142z"/>
			<path fill-rule="evenodd" clip-rule="evenodd" fill="#81B9CE" d="M85.23,198.686c0.153,0.123,0.307,0.244,0.459,0.364
				C85.537,198.929,85.384,198.808,85.23,198.686z"/>
			<path fill-rule="evenodd" clip-rule="evenodd" fill="#81B9CE" d="M84.176,197.984c0.223,0.167,0.443,0.336,0.664,0.504
				C84.619,198.321,84.398,198.151,84.176,197.984z"/>
			<path fill-rule="evenodd" clip-rule="evenodd" fill="#B5B5B5" d="M78.018,167.876c1.373-2.38,1.427-4.944,1.072-7.567
				c0.43-0.901,0.857-1.8,1.289-2.705c4.296,2.45,5.584,2.32,9.279-0.877c0.318-0.275,0.881-0.819,0.932-0.773
				c1.788,1.534,4.875,0.872,6.016,2.365c1.668,2.186,3.404,3.354,5.98,3.601c0.333,1.3,0.667,2.6,1,3.899
				c-0.955,3.557-1.074,7.275-2.498,10.761c-2.414,5.907-8.176,8.953-14.389,7.373c-3.641-0.925-5.828-3.292-6.936-6.751
				c-0.725-2.264-1.018-4.616-1.15-6.991C78.567,169.407,78.873,168.484,78.018,167.876z M93.503,177.476
				c-0.626-0.458-0.897-0.203-1.192-0.07c-0.875,0.392-1.807,1.652-2.656,0.776c-0.836-0.861-0.698-2.088,0.615-2.971
				c0.799-0.535,0.414-1.214-0.521-1.302c-0.578-0.053-1.174,0.055-1.76,0.119c-0.586,0.062-1.369-0.808-1.727,0.23
				c-0.225,0.648,0.361,1.065,0.871,1.387c1.116,0.705,1.198,1.681,0.859,2.946c-0.944-0.344-1.768-0.646-3.162-1.157
				c1.025,2.096,2.35,2.692,3.896,2.655C90.684,180.041,92.561,179.625,93.503,177.476z M85.376,168.256
				c-0.153-0.958-0.387-1.922-1.591-1.938c-1.326-0.017-1.691,0.951-1.688,2.06c0.004,1.017,0.424,1.913,1.557,1.947
				C84.971,170.367,85.295,169.367,85.376,168.256z M95.441,170.392c1.196-0.288,1.612-1.147,1.524-2.277
				c-0.079-1.015-0.497-1.887-1.696-1.809c-1.342,0.086-1.58,1.112-1.545,2.208C93.756,169.583,94.305,170.252,95.441,170.392z"/>
			<path fill-rule="evenodd" clip-rule="evenodd" fill="#8E9495" d="M103.586,165.819c-0.333-1.299-0.667-2.6-1-3.899
				c1.57-0.944,2.764-0.928,3.854,0.884c0.783,1.305,2.332,1.905,3.744,2.516s2.242,1.635,1.643,3.211
				c-0.615,1.62-1.962,2.007-3.545,1.62C105.932,169.575,104.617,167.841,103.586,165.819z"/>
			<path fill-rule="evenodd" clip-rule="evenodd" fill="#4A5A5D" d="M95.377,198.514c-0.518,0.343-1.033,0.688-1.551,1.029
				c-0.852,0.174-1.702,0.348-2.552,0.522c-0.478-0.01-0.954-0.019-1.431-0.028c0.521,3.267,0.957,6.551,1.604,9.793
				c0.363,1.818,1.021,3.586,1.664,5.335c0.27,0.735,0.949,1.266,1.819,1.098c0.797-0.153,0.979-0.865,1.038-1.565
				c0.07-0.847,0.127-1.695,0.141-2.545c0.078-4.491,0.138-8.983,0.203-13.474C96.002,198.624,95.688,198.569,95.377,198.514z"/>
			<path fill-rule="evenodd" clip-rule="evenodd" fill="#F2F9F9" d="M144.944,164.205c-0.818-0.979-1.14-1.937-1.259-3.167
				c-0.283-2.98-0.844-5.896-3.439-7.896c-0.428-0.078-0.764-0.274-0.915-0.708c-0.046-0.139-0.133-0.239-0.262-0.303
				c-0.933-0.925-2.116-1.6-3.36-1.479c-2.691,0.261-4.871-0.516-6.649-2.513c-0.458-0.403-0.917-0.807-1.376-1.21h-0.002
				c-0.908-0.624-1.813-1.247-2.721-1.87c-0.679-0.115-1.357-0.229-2.037-0.345c-0.326-0.049-0.652-0.098-0.98-0.147
				c-3.98-1.452-7.633-0.225-11.237,1.383c-0.616-0.884-1.108-1.816-1.153-2.924c-0.003,0.001,0.018-0.015,0.018-0.015
				c-2.811-2.293-5.824-3.364-9.348-1.623c-0.721,0.358-1.262-0.119-1.818-0.546c-5.164-3.969-9.75-3.354-13.588,1.798
				c-0.146,0.196-0.377,0.331-0.568,0.496c-0.109,1.894-1.117,2.975-2.822,3.831c-5.197,2.614-7.042,6.065-6.42,11.772
				c0.153,1.416,0.705,2.788,1.074,4.181c1.49-0.31,2.113-1.618,3.01-2.611c0.43-0.901,0.857-1.8,1.289-2.705
				c4.296,2.45,5.584,2.32,9.279-0.877c0.318-0.275,0.881-0.819,0.932-0.773c1.788,1.534,4.875,0.872,6.016,2.365
				c1.668,2.186,3.404,3.354,5.98,3.601c1.57-0.944,2.764-0.928,3.854,0.884c0.783,1.305,2.332,1.905,3.744,2.516
				s2.242,1.635,1.643,3.211c-0.615,1.62-1.962,2.007-3.545,1.62c-2.35-0.575-3.664-2.309-4.695-4.332
				c-0.955,3.557-1.074,7.275-2.498,10.761c-2.414,5.907-8.176,8.953-14.389,7.373c-3.641-0.925-5.828-3.292-6.936-6.751
				c-0.725-2.264-1.018-4.616-1.15-6.991c-0.046-0.804,0.26-1.727-0.596-2.335c-0.836,1.227-1.883,2.263-3.4,2.407
				c-1.175,0.111-1.191,1.007-1.57,1.697c-0.4,3.744,0.555,7.237,1.957,10.65c0.226,3.651,1.088,4.708,4.156,5.084l-0.039,0.12
				l0.044-0.104c0.507,1.565,0.677,3.193,0.952,4.805c0.32,1.87,0.916,3.75,3.094,4.403c0.01,0.675,0.352,1.021,1.027,1.042
				c0.002-0.001-0.063,0.004-0.063,0.004c0.223,0.167,0.443,0.336,0.664,0.504c0.154,0.021,0.283,0.087,0.391,0.197
				c0.153,0.123,0.307,0.244,0.459,0.364c1.479-0.065,2.824,0.422,4.154,0.986c0.477,0.01,0.953,0.019,1.431,0.029
				c0.85-0.174,1.7-0.348,2.552-0.522c0.518-0.342,1.033-0.686,1.551-1.029c0.312,0.055,0.625,0.11,0.936,0.166
				c1.898-0.667,2.407,0.973,3.293,1.984c1.689,0.338,3.15,1.503,4.971,1.371c0.166,0.011,0.334,0.022,0.504,0.035
				c0.221,0.105,0.441,0.211,0.666,0.316c3.277-0.031,6.503-0.199,8.621-3.28c1.834,0.791,3.67,1.582,5.504,2.373
				c0.182,0.073,0.361,0.146,0.543,0.22c1.178,0.012,2.355,0.024,3.535,0.035c0.32-0.091,0.641-0.181,0.959-0.272
				c1.457-0.477,2.923-0.929,4.217-1.79c0.436-0.401,1.088-0.724,1.271-1.219c0.939-2.546,2.921-2.598,5.096-2.302
				c0.227-0.111,0.452-0.231,0.687-0.33c6.339-2.646,8.527-6.446,7.73-13.292c-0.103-0.878-0.138-1.72,0.638-2.564
				C148.657,175.483,148.82,168.85,144.944,164.205z M79.17,187.717c0,0-0.002,0-0.005-0.002L79.17,187.717L79.17,187.717z"/>
			<path fill-rule="evenodd" clip-rule="evenodd" fill="#464D4F" d="M93.503,177.476c-0.942,2.149-2.819,2.565-4.776,2.613
				c-1.547,0.038-2.871-0.559-3.896-2.655c1.395,0.511,2.218,0.813,3.162,1.157c0.339-1.265,0.257-2.241-0.859-2.946
				c-0.51-0.322-1.096-0.739-0.871-1.387c0.357-1.039,1.141-0.168,1.727-0.23c0.586-0.063,1.182-0.171,1.76-0.119
				c0.936,0.087,1.32,0.767,0.521,1.302c-1.313,0.883-1.451,2.11-0.615,2.971c0.85,0.876,1.781-0.384,2.656-0.776
				C92.605,177.273,92.877,177.018,93.503,177.476z"/>
			<path fill-rule="evenodd" clip-rule="evenodd" fill="#464D4F" d="M85.373,168.257c-0.078,1.11-0.402,2.11-1.719,2.068
				c-1.133-0.035-1.553-0.931-1.557-1.947c-0.004-1.109,0.361-2.077,1.688-2.06C84.989,166.334,85.223,167.299,85.373,168.257z"/>
			<path fill-rule="evenodd" clip-rule="evenodd" fill="#464D4F" d="M95.441,170.392c-1.137-0.14-1.686-0.81-1.717-1.878
				c-0.035-1.096,0.203-2.122,1.545-2.208c1.199-0.078,1.617,0.794,1.696,1.809C97.054,169.245,96.638,170.104,95.441,170.392z"/>
		</g>
		<g>
			<path fill-rule="evenodd" clip-rule="evenodd" fill="#495D66" d="M106.764,435.511c0.436-0.402,1.087-0.725,1.27-1.221
				c0.941-2.544,2.922-2.597,5.097-2.3c-0.36,5.836-1.03,11.625-2.691,17.258c-0.329,1.116-0.593,2.48-2.185,2.315
				c-1.648-0.17-1.222-1.631-1.253-2.612C106.864,444.473,106.833,439.991,106.764,435.511z"/>
			<path fill-rule="evenodd" clip-rule="evenodd" fill="#495D66" d="M83.382,438.222c-0.228,4.094-1.112,8.068-2.17,12.012
				c-0.329,1.228-0.858,2.464-2.278,2.287c-1.321-0.167-1.082-1.569-1.129-2.532c-0.22-4.495-0.38-8.992-0.561-13.486
				c1.688,0.337,3.149,1.502,4.969,1.369c0.168,0.012,0.336,0.023,0.504,0.035C82.938,438.012,83.16,438.117,83.382,438.222z"/>
			<path fill-rule="evenodd" clip-rule="evenodd" fill="#8E9495" d="M55.654,403.713c-0.836,1.228-1.883,2.263-3.4,2.408
				c-1.174,0.112-1.189,1.006-1.568,1.696c-0.123-0.736-0.119-1.525-0.396-2.2c-1.064-2.585-0.469-4.476,2.094-5.728
				c0.508-0.249,0.891-0.75,1.334-1.132c1.49-0.308,2.114-1.617,3.011-2.611C57.082,398.769,57.029,401.334,55.654,403.713z"/>
			<path fill-rule="evenodd" clip-rule="evenodd" fill="#4A5A5D" d="M102.547,437.301c-0.32,0.091-0.641,0.18-0.961,0.271
				c-1.178-0.011-2.356-0.023-3.533-0.035c-0.182-0.074-0.363-0.148-0.543-0.22c-0.791,1.039-0.066,2.048,0.064,3.067
				c0.027,0.213,0.053,0.428,0.078,0.64c0.51,3.411,0.869,6.864,2.867,9.843c0.279,0.386,0.676,0.36,1.08,0.303
				c0.744,0.118,1.186-0.303,1.199-0.947C102.898,445.913,103.529,441.588,102.547,437.301z"/>
			<path fill-rule="evenodd" clip-rule="evenodd" fill="#F2F9F9" d="M117.884,388.98c-0.428-0.078-0.763-0.274-0.915-0.709
				C117.273,388.506,117.578,388.743,117.884,388.98z"/>
			<path fill-rule="evenodd" clip-rule="evenodd" fill="#81B9CE" d="M62.868,434.523c0.153,0.123,0.306,0.243,0.459,0.365
				C63.174,434.766,63.021,434.646,62.868,434.523z"/>
			<path fill-rule="evenodd" clip-rule="evenodd" fill="#81B9CE" d="M61.814,433.821c0.221,0.167,0.441,0.338,0.664,0.504
				C62.258,434.159,62.035,433.988,61.814,433.821z"/>
			<path fill-rule="evenodd" clip-rule="evenodd" fill="#B5B5B5" d="M55.654,403.713c1.375-2.378,1.428-4.944,1.073-7.567
				c0.429-0.9,0.856-1.799,1.288-2.705c4.297,2.451,5.586,2.32,9.279-0.877c0.318-0.275,0.881-0.818,0.934-0.773
				c1.787,1.534,4.875,0.873,6.016,2.365c1.668,2.186,3.404,3.354,5.98,3.602c0.332,1.3,0.666,2.599,1,3.899
				c-0.955,3.556-1.075,7.275-2.498,10.761c-2.416,5.907-8.178,8.952-14.391,7.373c-3.64-0.925-5.828-3.293-6.934-6.751
				c-0.727-2.263-1.02-4.617-1.152-6.991C56.205,405.244,56.512,404.321,55.654,403.713z M71.141,413.313
				c-0.627-0.458-0.897-0.202-1.193-0.07c-0.873,0.393-1.805,1.652-2.654,0.775c-0.837-0.86-0.699-2.088,0.613-2.971
				c0.799-0.535,0.416-1.214-0.521-1.302c-0.578-0.052-1.174,0.055-1.759,0.119c-0.587,0.062-1.37-0.809-1.728,0.23
				c-0.225,0.648,0.363,1.066,0.871,1.387c1.117,0.705,1.199,1.681,0.859,2.946c-0.943-0.344-1.766-0.646-3.16-1.157
				c1.023,2.096,2.349,2.692,3.896,2.656C68.32,415.879,70.197,415.462,71.141,413.313z M63.014,404.093
				c-0.152-0.957-0.387-1.922-1.59-1.938c-1.328-0.016-1.693,0.951-1.688,2.061c0.004,1.017,0.422,1.913,1.555,1.947
				C62.607,406.204,62.934,405.205,63.014,404.093z M73.078,406.23c1.197-0.288,1.613-1.148,1.525-2.278
				c-0.08-1.014-0.496-1.886-1.697-1.808c-1.34,0.086-1.578,1.112-1.545,2.207C71.393,405.419,71.943,406.09,73.078,406.23z"/>
			<path fill-rule="evenodd" clip-rule="evenodd" fill="#8E9495" d="M81.225,401.657c-0.334-1.3-0.668-2.6-1-3.899
				c1.568-0.944,2.762-0.929,3.852,0.884c0.783,1.304,2.332,1.905,3.746,2.516c1.411,0.61,2.24,1.635,1.643,3.211
				c-0.616,1.62-1.963,2.007-3.547,1.62C83.568,405.413,82.256,403.679,81.225,401.657z"/>
			<path fill-rule="evenodd" clip-rule="evenodd" fill="#4A5A5D" d="M73.015,434.351c-0.518,0.343-1.034,0.687-1.552,1.031
				c-0.85,0.173-1.7,0.347-2.551,0.521c-0.479-0.01-0.953-0.018-1.432-0.028c0.523,3.267,0.958,6.552,1.605,9.793
				c0.361,1.818,1.021,3.586,1.662,5.336c0.271,0.733,0.949,1.264,1.82,1.096c0.797-0.152,0.979-0.864,1.039-1.565
				c0.069-0.845,0.125-1.694,0.141-2.543c0.076-4.492,0.137-8.983,0.203-13.475C73.639,434.461,73.326,434.407,73.015,434.351z"/>
			<path fill-rule="evenodd" clip-rule="evenodd" fill="#F2F9F9" d="M122.581,400.042c-0.817-0.979-1.14-1.936-1.257-3.167
				c-0.284-2.98-0.844-5.897-3.44-7.896c-0.428-0.078-0.763-0.274-0.915-0.709c-0.046-0.139-0.133-0.239-0.262-0.302
				c-0.932-0.925-2.117-1.6-3.36-1.478c-2.692,0.26-4.87-0.517-6.649-2.514c-0.459-0.403-0.918-0.806-1.375-1.21h-0.002
				c-0.908-0.624-1.814-1.246-2.721-1.868c-0.68-0.115-1.358-0.229-2.039-0.346c-0.326-0.048-0.652-0.098-0.98-0.146
				c-3.98-1.452-7.631-0.226-11.235,1.383c-0.616-0.885-1.108-1.817-1.155-2.925c-0.002,0.001,0.02-0.014,0.02-0.014
				c-2.812-2.292-5.826-3.364-9.348-1.622c-0.721,0.358-1.264-0.119-1.818-0.546c-5.166-3.97-9.75-3.354-13.59,1.797
				c-0.146,0.197-0.377,0.331-0.568,0.496c-0.107,1.893-1.115,2.974-2.82,3.831c-5.197,2.614-7.043,6.065-6.421,11.772
				c0.153,1.416,0.706,2.788,1.074,4.18c1.489-0.309,2.113-1.617,3.01-2.611c0.429-0.9,0.856-1.799,1.288-2.705
				c4.297,2.451,5.586,2.32,9.279-0.877c0.318-0.275,0.881-0.818,0.934-0.773c1.787,1.534,4.875,0.873,6.016,2.365
				c1.668,2.186,3.404,3.354,5.98,3.602c1.568-0.944,2.762-0.929,3.852,0.884c0.783,1.304,2.332,1.905,3.746,2.516
				c1.411,0.61,2.24,1.635,1.643,3.211c-0.616,1.62-1.963,2.007-3.547,1.62c-2.35-0.575-3.662-2.309-4.693-4.332
				c-0.955,3.556-1.075,7.275-2.498,10.761c-2.416,5.907-8.178,8.952-14.391,7.373c-3.64-0.925-5.828-3.293-6.934-6.751
				c-0.727-2.263-1.02-4.617-1.152-6.991c-0.045-0.805,0.262-1.727-0.596-2.335c-0.836,1.228-1.883,2.263-3.4,2.408
				c-1.174,0.112-1.189,1.006-1.568,1.696c-0.402,3.744,0.555,7.238,1.957,10.651c0.225,3.651,1.088,4.708,4.154,5.084l-0.037,0.12
				l0.043-0.104c0.508,1.565,0.676,3.191,0.951,4.803c0.32,1.87,0.918,3.751,3.096,4.403c0.01,0.675,0.352,1.021,1.027,1.042
				l-0.063,0.004c0.221,0.167,0.441,0.338,0.664,0.504c0.153,0.022,0.283,0.088,0.39,0.198c0.153,0.123,0.306,0.243,0.459,0.365
				c1.478-0.066,2.825,0.422,4.155,0.987c0.477,0.01,0.951,0.018,1.43,0.028c0.851-0.174,1.701-0.348,2.551-0.521
				c0.518-0.344,1.034-0.688,1.552-1.031c0.312,0.056,0.624,0.11,0.937,0.167c1.898-0.667,2.406,0.973,3.293,1.985
				c1.688,0.337,3.149,1.502,4.969,1.369c0.168,0.012,0.336,0.023,0.504,0.035c0.222,0.105,0.443,0.21,0.666,0.316
				c3.279-0.031,6.504-0.199,8.623-3.28c1.834,0.792,3.67,1.582,5.504,2.374c0.18,0.072,0.361,0.146,0.543,0.22
				c1.177,0.011,2.355,0.023,3.533,0.035c0.32-0.091,0.641-0.18,0.961-0.271c1.456-0.478,2.922-0.93,4.217-1.79
				c0.436-0.402,1.087-0.725,1.27-1.221c0.941-2.544,2.922-2.597,5.097-2.3c0.228-0.111,0.451-0.232,0.687-0.33
				c6.338-2.646,8.527-6.445,7.73-13.292c-0.102-0.878-0.137-1.719,0.639-2.564C126.295,411.321,126.459,404.687,122.581,400.042z
				 M56.809,423.555c0,0-0.004,0-0.004-0.003L56.809,423.555L56.809,423.555z"/>
			<path fill-rule="evenodd" clip-rule="evenodd" fill="#464D4F" d="M71.141,413.313c-0.943,2.15-2.82,2.566-4.775,2.614
				c-1.548,0.036-2.873-0.56-3.896-2.656c1.395,0.511,2.217,0.813,3.16,1.157c0.34-1.266,0.258-2.242-0.859-2.946
				c-0.508-0.321-1.096-0.739-0.871-1.387c0.357-1.039,1.141-0.168,1.728-0.23c0.585-0.064,1.181-0.171,1.759-0.119
				c0.938,0.087,1.32,0.767,0.521,1.302c-1.313,0.883-1.45,2.11-0.613,2.971c0.85,0.876,1.781-0.383,2.654-0.775
				C70.243,413.11,70.514,412.855,71.141,413.313z"/>
			<path fill-rule="evenodd" clip-rule="evenodd" fill="#464D4F" d="M63.012,404.095c-0.078,1.11-0.404,2.109-1.721,2.068
				c-1.133-0.034-1.551-0.93-1.555-1.947c-0.006-1.109,0.359-2.077,1.688-2.061C62.627,402.171,62.861,403.136,63.012,404.095z"/>
			<path fill-rule="evenodd" clip-rule="evenodd" fill="#464D4F" d="M73.078,406.23c-1.135-0.14-1.686-0.811-1.717-1.879
				c-0.033-1.095,0.205-2.121,1.545-2.207c1.201-0.078,1.617,0.794,1.697,1.808C74.691,405.082,74.275,405.942,73.078,406.23z"/>
		</g>
		<g>
			<path fill-rule="evenodd" clip-rule="evenodd" fill="#495D66" d="M188.542,531.41c0.435-0.401,1.087-0.724,1.271-1.22
				c0.941-2.545,2.922-2.597,5.097-2.301c-0.36,5.836-1.032,11.626-2.692,17.258c-0.33,1.116-0.594,2.48-2.184,2.316
				c-1.649-0.17-1.223-1.631-1.254-2.612C188.643,540.373,188.611,535.89,188.542,531.41z"/>
			<path fill-rule="evenodd" clip-rule="evenodd" fill="#495D66" d="M165.16,534.122c-0.227,4.095-1.111,8.068-2.17,12.012
				c-0.328,1.228-0.857,2.465-2.277,2.287c-1.322-0.166-1.082-1.569-1.129-2.532c-0.221-4.495-0.381-8.992-0.561-13.486
				c1.688,0.337,3.148,1.503,4.969,1.37c0.167,0.011,0.336,0.022,0.504,0.034C164.717,533.912,164.938,534.018,165.16,534.122z"/>
			<path fill-rule="evenodd" clip-rule="evenodd" fill="#8E9495" d="M137.434,499.613c-0.836,1.228-1.883,2.263-3.4,2.408
				c-1.174,0.112-1.189,1.006-1.569,1.697c-0.123-0.737-0.12-1.526-0.396-2.201c-1.066-2.584-0.469-4.474,2.094-5.728
				c0.507-0.249,0.891-0.749,1.334-1.132c1.49-0.309,2.114-1.617,3.01-2.611C138.861,494.668,138.809,497.234,137.434,499.613z"/>
			<path fill-rule="evenodd" clip-rule="evenodd" fill="#4A5A5D" d="M184.325,533.2c-0.319,0.091-0.64,0.181-0.96,0.272
				c-1.178-0.012-2.357-0.024-3.535-0.037c-0.181-0.073-0.361-0.147-0.541-0.219c-0.791,1.039-0.066,2.047,0.063,3.067
				c0.027,0.213,0.053,0.428,0.079,0.641c0.51,3.41,0.867,6.864,2.865,9.841c0.281,0.387,0.678,0.361,1.082,0.304
				c0.742,0.117,1.186-0.302,1.199-0.947C184.676,541.812,185.309,537.488,184.325,533.2z"/>
			<path fill-rule="evenodd" clip-rule="evenodd" fill="#F2F9F9" d="M199.662,484.879c-0.427-0.078-0.762-0.274-0.914-0.709
				C199.052,484.406,199.357,484.643,199.662,484.879z"/>
			<path fill-rule="evenodd" clip-rule="evenodd" fill="#81B9CE" d="M144.646,530.423c0.153,0.123,0.307,0.243,0.459,0.363
				C144.953,530.666,144.8,530.546,144.646,530.423z"/>
			<path fill-rule="evenodd" clip-rule="evenodd" fill="#81B9CE" d="M143.594,529.721c0.221,0.167,0.441,0.337,0.663,0.504
				C144.035,530.058,143.814,529.888,143.594,529.721z"/>
			<path fill-rule="evenodd" clip-rule="evenodd" fill="#B5B5B5" d="M137.434,499.613c1.375-2.378,1.428-4.944,1.072-7.567
				c0.43-0.9,0.857-1.8,1.289-2.706c4.297,2.452,5.585,2.321,9.279-0.876c0.318-0.276,0.881-0.819,0.934-0.773
				c1.787,1.533,4.875,0.872,6.014,2.364c1.67,2.186,3.405,3.354,5.98,3.602c0.334,1.3,0.668,2.6,1.001,3.899
				c-0.956,3.557-1.075,7.275-2.497,10.762c-2.416,5.906-8.178,8.952-14.391,7.372c-3.641-0.924-5.828-3.292-6.935-6.75
				c-0.726-2.264-1.019-4.617-1.151-6.991C137.984,501.144,138.29,500.221,137.434,499.613z M152.92,509.212
				c-0.627-0.458-0.898-0.202-1.193-0.07c-0.874,0.392-1.806,1.652-2.655,0.776c-0.836-0.861-0.698-2.089,0.614-2.971
				c0.799-0.536,0.416-1.215-0.521-1.301c-0.578-0.053-1.174,0.054-1.76,0.118c-0.585,0.063-1.369-0.809-1.727,0.23
				c-0.225,0.648,0.362,1.066,0.871,1.387c1.116,0.705,1.199,1.681,0.859,2.946c-0.943-0.344-1.766-0.646-3.16-1.157
				c1.023,2.096,2.348,2.692,3.895,2.655C150.1,511.778,151.977,511.362,152.92,509.212z M144.793,499.993
				c-0.154-0.958-0.387-1.922-1.59-1.938c-1.329-0.017-1.693,0.951-1.688,2.061c0.002,1.017,0.422,1.913,1.555,1.947
				C144.387,502.104,144.713,501.104,144.793,499.993z M154.857,502.13c1.197-0.289,1.613-1.148,1.525-2.279
				c-0.08-1.013-0.497-1.885-1.697-1.807c-1.342,0.086-1.578,1.111-1.545,2.208C153.172,501.319,153.723,501.99,154.857,502.13z"/>
			<path fill-rule="evenodd" clip-rule="evenodd" fill="#8E9495" d="M163.003,497.556c-0.333-1.3-0.667-2.6-1.001-3.899
				c1.57-0.944,2.764-0.929,3.854,0.885c0.783,1.303,2.332,1.904,3.746,2.515c1.41,0.611,2.24,1.635,1.642,3.21
				c-0.616,1.62-1.962,2.007-3.546,1.62C165.348,501.312,164.035,499.579,163.003,497.556z"/>
			<path fill-rule="evenodd" clip-rule="evenodd" fill="#4A5A5D" d="M154.793,530.25c-0.518,0.343-1.033,0.687-1.551,1.03
				c-0.85,0.173-1.701,0.348-2.551,0.522c-0.479-0.01-0.954-0.02-1.432-0.029c0.523,3.267,0.957,6.552,1.604,9.793
				c0.363,1.818,1.023,3.586,1.664,5.336c0.27,0.734,0.949,1.265,1.819,1.098c0.798-0.153,0.979-0.865,1.039-1.566
				c0.069-0.845,0.126-1.694,0.141-2.542c0.077-4.492,0.138-8.984,0.204-13.476C155.418,530.361,155.105,530.306,154.793,530.25z"/>
			<path fill-rule="evenodd" clip-rule="evenodd" fill="#F2F9F9" d="M204.361,495.942c-0.818-0.98-1.141-1.936-1.259-3.167
				c-0.284-2.979-0.843-5.896-3.44-7.896c-0.427-0.078-0.762-0.274-0.914-0.709c-0.047-0.139-0.133-0.238-0.262-0.301
				c-0.933-0.926-2.117-1.601-3.361-1.479c-2.691,0.261-4.871-0.516-6.648-2.512c-0.459-0.404-0.918-0.808-1.375-1.212H187.1
				c-0.91-0.624-1.814-1.246-2.723-1.869c-0.678-0.115-1.357-0.229-2.037-0.346c-0.326-0.049-0.652-0.098-0.98-0.146
				c-3.98-1.453-7.633-0.226-11.236,1.383c-0.617-0.885-1.108-1.816-1.154-2.925c-0.002,0.002,0.02-0.013,0.02-0.013
				c-2.813-2.294-5.826-3.365-9.349-1.623c-0.722,0.358-1.263-0.119-1.819-0.547c-5.164-3.97-9.748-3.353-13.588,1.798
				c-0.146,0.197-0.377,0.331-0.568,0.496c-0.108,1.893-1.115,2.974-2.82,3.831c-5.199,2.614-7.043,6.064-6.422,11.77
				c0.154,1.417,0.707,2.79,1.074,4.182c1.49-0.309,2.114-1.618,3.01-2.611c0.43-0.9,0.857-1.8,1.289-2.706
				c4.297,2.452,5.585,2.321,9.279-0.876c0.318-0.276,0.881-0.819,0.934-0.773c1.787,1.533,4.875,0.872,6.014,2.364
				c1.67,2.186,3.405,3.354,5.98,3.602c1.57-0.944,2.764-0.929,3.854,0.885c0.783,1.303,2.332,1.904,3.746,2.515
				c1.41,0.611,2.24,1.635,1.642,3.21c-0.616,1.62-1.962,2.007-3.546,1.62c-2.35-0.575-3.662-2.309-4.694-4.331
				c-0.956,3.557-1.075,7.275-2.497,10.762c-2.416,5.906-8.178,8.952-14.391,7.372c-3.641-0.924-5.828-3.292-6.935-6.75
				c-0.726-2.264-1.019-4.617-1.151-6.991c-0.045-0.805,0.261-1.728-0.596-2.336c-0.836,1.228-1.883,2.263-3.4,2.408
				c-1.174,0.112-1.189,1.006-1.569,1.697c-0.402,3.744,0.554,7.237,1.957,10.65c0.226,3.651,1.087,4.708,4.155,5.084l-0.038,0.12
				l0.043-0.104c0.509,1.566,0.677,3.192,0.952,4.805c0.32,1.87,0.916,3.75,3.095,4.402c0.009,0.675,0.353,1.022,1.028,1.042
				l-0.063,0.004c0.221,0.167,0.441,0.337,0.663,0.504c0.154,0.021,0.282,0.088,0.39,0.198c0.153,0.123,0.307,0.243,0.459,0.363
				c1.479-0.065,2.826,0.423,4.155,0.987c0.477,0.009,0.952,0.019,1.431,0.029c0.85-0.174,1.701-0.349,2.551-0.522
				c0.518-0.344,1.033-0.688,1.551-1.03c0.313,0.056,0.625,0.11,0.938,0.166c1.896-0.666,2.406,0.973,3.293,1.985
				c1.688,0.337,3.148,1.503,4.969,1.37c0.167,0.011,0.336,0.022,0.504,0.034c0.221,0.105,0.441,0.211,0.666,0.316
				c3.279-0.031,6.504-0.199,8.622-3.279c1.835,0.792,3.671,1.581,5.505,2.374c0.18,0.072,0.36,0.146,0.541,0.219
				c1.178,0.012,2.357,0.025,3.535,0.037c0.32-0.092,0.641-0.182,0.96-0.272c1.456-0.478,2.923-0.93,4.217-1.79
				c0.435-0.401,1.087-0.724,1.271-1.22c0.941-2.545,2.922-2.597,5.097-2.301c0.228-0.111,0.452-0.232,0.685-0.331
				c6.34-2.646,8.527-6.446,7.732-13.292c-0.102-0.878-0.138-1.719,0.637-2.564C208.074,507.22,208.238,500.586,204.361,495.942z
				 M138.588,519.455c-0.004,0-0.004-0.001-0.006-0.003C138.582,519.452,138.584,519.454,138.588,519.455L138.588,519.455z"/>
			<path fill-rule="evenodd" clip-rule="evenodd" fill="#464D4F" d="M152.92,509.212c-0.943,2.149-2.82,2.566-4.777,2.613
				c-1.547,0.037-2.871-0.56-3.895-2.655c1.395,0.511,2.217,0.813,3.16,1.157c0.34-1.266,0.257-2.241-0.859-2.946
				c-0.509-0.321-1.096-0.739-0.871-1.387c0.357-1.039,1.142-0.168,1.727-0.23c0.586-0.064,1.182-0.171,1.76-0.118
				c0.938,0.086,1.32,0.766,0.521,1.301c-1.313,0.882-1.45,2.11-0.614,2.971c0.85,0.876,1.781-0.384,2.655-0.776
				C152.021,509.011,152.293,508.754,152.92,509.212z"/>
			<path fill-rule="evenodd" clip-rule="evenodd" fill="#464D4F" d="M144.79,499.995c-0.077,1.109-0.403,2.109-1.72,2.067
				c-1.133-0.034-1.553-0.93-1.555-1.947c-0.006-1.11,0.358-2.077,1.688-2.061C144.406,498.071,144.639,499.036,144.79,499.995z"/>
			<path fill-rule="evenodd" clip-rule="evenodd" fill="#464D4F" d="M154.857,502.13c-1.135-0.14-1.686-0.811-1.717-1.879
				c-0.033-1.096,0.203-2.121,1.545-2.208c1.2-0.078,1.617,0.794,1.697,1.807C156.471,500.982,156.055,501.841,154.857,502.13z"/>
		</g>
		<g>
			<path fill-rule="evenodd" clip-rule="evenodd" fill="#495D66" d="M544.783,316.165c-0.435-0.401-1.086-0.724-1.27-1.219
				c-0.941-2.545-2.922-2.598-5.097-2.302c0.36,5.837,1.031,11.626,2.692,17.258c0.329,1.117,0.594,2.481,2.184,2.317
				c1.648-0.17,1.223-1.632,1.254-2.613C544.684,325.128,544.715,320.646,544.783,316.165z"/>
			<path fill-rule="evenodd" clip-rule="evenodd" fill="#495D66" d="M568.166,318.878c0.227,4.093,1.111,8.067,2.17,12.011
				c0.328,1.228,0.857,2.465,2.277,2.287c1.321-0.167,1.082-1.57,1.129-2.534c0.221-4.494,0.381-8.992,0.561-13.486
				c-1.688,0.337-3.148,1.503-4.969,1.37c-0.168,0.012-0.336,0.024-0.504,0.036C568.609,318.667,568.389,318.772,568.166,318.878z"
				/>
			<path fill-rule="evenodd" clip-rule="evenodd" fill="#8E9495" d="M595.893,284.368c0.836,1.227,1.883,2.263,3.4,2.408
				c1.174,0.112,1.189,1.007,1.569,1.696c0.123-0.736,0.12-1.525,0.396-2.2c1.065-2.585,0.469-4.476-2.094-5.728
				c-0.507-0.249-0.891-0.75-1.334-1.133c-1.49-0.308-2.115-1.616-3.011-2.61C594.465,279.425,594.518,281.989,595.893,284.368z"/>
			<path fill-rule="evenodd" clip-rule="evenodd" fill="#4A5A5D" d="M549,317.956c0.32,0.09,0.641,0.18,0.961,0.271
				c1.178-0.01,2.357-0.023,3.534-0.036c0.181-0.073,0.362-0.146,0.542-0.219c0.792,1.039,0.066,2.047-0.063,3.066
				c-0.027,0.213-0.054,0.428-0.079,0.641c-0.51,3.41-0.868,6.864-2.867,9.841c-0.279,0.387-0.676,0.361-1.08,0.305
				c-0.743,0.117-1.186-0.303-1.199-0.947C548.649,326.567,548.018,322.243,549,317.956z"/>
			<path fill-rule="evenodd" clip-rule="evenodd" fill="#F2F9F9" d="M533.664,269.635c0.426-0.078,0.762-0.274,0.914-0.709
				C534.274,269.162,533.969,269.398,533.664,269.635z"/>
			<path fill-rule="evenodd" clip-rule="evenodd" fill="#81B9CE" d="M588.68,315.179c-0.154,0.122-0.307,0.243-0.459,0.364
				C588.373,315.422,588.525,315.301,588.68,315.179z"/>
			<path fill-rule="evenodd" clip-rule="evenodd" fill="#81B9CE" d="M589.732,314.476c-0.221,0.168-0.441,0.337-0.663,0.505
				C589.29,314.813,589.512,314.644,589.732,314.476z"/>
			<path fill-rule="evenodd" clip-rule="evenodd" fill="#B5B5B5" d="M595.297,286.704c-0.133,2.374-0.426,4.727-1.151,6.99
				c-1.106,3.458-3.296,5.826-6.935,6.751c-6.213,1.581-11.975-1.465-14.391-7.373c-1.422-3.486-1.541-7.204-2.497-10.761
				c0.334-1.3,0.667-2.599,0.999-3.898c2.576-0.249,4.313-1.416,5.981-3.603c1.14-1.493,4.228-0.831,6.015-2.364
				c0.053-0.046,0.615,0.498,0.934,0.773c3.693,3.197,4.982,3.327,9.278,0.876c0.433,0.905,0.86,1.805,1.289,2.706
				c-0.354,2.624-0.302,5.188,1.073,7.567C595.036,284.977,595.342,285.899,595.297,286.704z M585.182,296.581
				c1.549,0.038,2.873-0.559,3.896-2.654c-1.395,0.51-2.217,0.812-3.16,1.157c-0.34-1.266-0.258-2.243,0.859-2.947
				c0.508-0.322,1.096-0.739,0.871-1.387c-0.357-1.04-1.142-0.168-1.727-0.23c-0.586-0.064-1.182-0.171-1.76-0.119
				c-0.938,0.087-1.32,0.766-0.521,1.302c1.313,0.882,1.45,2.11,0.613,2.971c-0.849,0.876-1.781-0.383-2.654-0.776
				c-0.295-0.132-0.566-0.388-1.193,0.07C581.35,296.117,583.227,296.533,585.182,296.581z M590.256,286.818
				c1.133-0.035,1.552-0.93,1.555-1.948c0.006-1.108-0.359-2.076-1.688-2.06c-1.203,0.016-1.438,0.982-1.59,1.938
				C588.613,285.86,588.939,286.859,590.256,286.818z M580.186,285.006c0.033-1.096-0.204-2.122-1.545-2.207
				c-1.201-0.079-1.617,0.793-1.697,1.807c-0.088,1.13,0.329,1.991,1.525,2.278C579.604,286.746,580.154,286.075,580.186,285.006z"
				/>
			<path fill-rule="evenodd" clip-rule="evenodd" fill="#8E9495" d="M570.323,282.312c0.334-1.3,0.667-2.599,0.999-3.898
				c-1.568-0.944-2.762-0.93-3.852,0.883c-0.783,1.304-2.332,1.905-3.745,2.515c-1.411,0.611-2.241,1.636-1.643,3.212
				c0.616,1.619,1.962,2.007,3.546,1.619C567.979,286.067,569.292,284.334,570.323,282.312z"/>
			<path fill-rule="evenodd" clip-rule="evenodd" fill="#4A5A5D" d="M578.531,315.006c0.52,0.343,1.035,0.687,1.552,1.03
				c0.851,0.173,1.702,0.347,2.552,0.521c0.479-0.009,0.953-0.019,1.432-0.028c-0.523,3.267-0.957,6.551-1.604,9.794
				c-0.362,1.818-1.022,3.586-1.663,5.336c-0.27,0.734-0.949,1.265-1.82,1.097c-0.797-0.152-0.979-0.865-1.038-1.566
				c-0.069-0.846-0.126-1.694-0.141-2.544c-0.077-4.491-0.138-8.983-0.204-13.475C577.908,315.116,578.221,315.061,578.531,315.006z
				"/>
			<path fill-rule="evenodd" clip-rule="evenodd" fill="#F2F9F9" d="M529.362,296.458c0.775,0.845,0.739,1.686,0.638,2.564
				c-0.797,6.846,1.393,10.646,7.731,13.292c0.233,0.099,0.458,0.219,0.686,0.33c2.175-0.296,4.155-0.243,5.097,2.302
				c0.184,0.496,0.835,0.818,1.27,1.219c1.294,0.862,2.762,1.313,4.217,1.791c0.32,0.09,0.641,0.18,0.961,0.271
				c1.178-0.01,2.357-0.023,3.534-0.036c0.181-0.073,0.362-0.146,0.542-0.219c1.834-0.792,3.67-1.583,5.505-2.374
				c2.118,3.081,5.344,3.249,8.622,3.28c0.225-0.106,0.445-0.211,0.666-0.316c0.168-0.011,0.336-0.024,0.504-0.036
				c1.82,0.134,3.281-1.032,4.969-1.37c0.887-1.012,1.396-2.651,3.293-1.985c0.313-0.055,0.625-0.111,0.936-0.166
				c0.52,0.343,1.035,0.687,1.552,1.03c0.851,0.173,1.702,0.347,2.552,0.521c0.479-0.009,0.953-0.019,1.431-0.028
				c1.329-0.564,2.677-1.052,4.155-0.986c0.152-0.121,0.305-0.242,0.459-0.364c0.106-0.109,0.235-0.176,0.39-0.198
				c0.222-0.167,0.442-0.337,0.663-0.505c0,0-0.064-0.004-0.063-0.002c0.676-0.021,1.02-0.368,1.027-1.043
				c2.179-0.653,2.775-2.534,3.095-4.403c0.276-1.612,0.444-3.239,0.952-4.804l0.043,0.104l-0.037-0.119
				c3.066-0.377,3.931-1.434,4.154-5.085c1.404-3.413,2.359-6.906,1.958-10.65c-0.38-0.689-0.396-1.584-1.569-1.696
				c-1.518-0.145-2.564-1.181-3.4-2.408c-0.856,0.608-0.551,1.531-0.596,2.336c-0.133,2.374-0.426,4.727-1.151,6.99
				c-1.106,3.458-3.296,5.826-6.935,6.751c-6.213,1.581-11.975-1.465-14.391-7.373c-1.422-3.486-1.541-7.204-2.497-10.761
				c-1.031,2.022-2.345,3.756-4.694,4.331c-1.584,0.388-2.93,0-3.546-1.619c-0.599-1.576,0.231-2.601,1.643-3.212
				c1.413-0.61,2.962-1.211,3.745-2.515c1.09-1.813,2.283-1.828,3.852-0.883c2.576-0.249,4.313-1.416,5.981-3.603
				c1.14-1.493,4.228-0.831,6.015-2.364c0.053-0.046,0.615,0.498,0.934,0.773c3.693,3.197,4.982,3.327,9.278,0.876
				c0.433,0.905,0.86,1.805,1.289,2.706c0.896,0.994,1.521,2.303,3.011,2.612c0.367-1.394,0.92-2.766,1.074-4.182
				c0.621-5.706-1.224-9.157-6.422-11.771c-1.705-0.856-2.712-1.938-2.82-3.83c-0.191-0.166-0.422-0.3-0.568-0.497
				c-3.839-5.151-8.424-5.766-13.589-1.797c-0.556,0.427-1.099,0.905-1.818,0.546c-3.522-1.741-6.536-0.67-9.349,1.623
				c0,0,0.021,0.015,0.02,0.014c-0.046,1.108-0.538,2.04-1.154,2.925c-3.605-1.609-7.256-2.835-11.236-1.384
				c-0.328,0.05-0.654,0.1-0.98,0.147c-0.68,0.116-1.359,0.231-2.038,0.346c-0.907,0.623-1.813,1.245-2.722,1.869h-0.002
				c-0.457,0.403-0.916,0.807-1.375,1.21c-1.779,1.997-3.957,2.774-6.648,2.512c-1.244-0.121-2.43,0.554-3.361,1.479
				c-0.129,0.063-0.216,0.164-0.262,0.302c-0.152,0.435-0.488,0.631-0.914,0.709c-2.598,1.999-3.156,4.916-3.441,7.896
				c-0.117,1.231-0.439,2.187-1.258,3.167C525.088,285.341,525.252,291.976,529.362,296.458z M594.738,304.21l0.006-0.002
				c-0.002,0.002-0.002,0.002-0.002,0.002H594.738z"/>
			<path fill-rule="evenodd" clip-rule="evenodd" fill="#464D4F" d="M580.406,293.968c0.943,2.149,2.82,2.565,4.775,2.613
				c1.549,0.038,2.873-0.559,3.896-2.654c-1.395,0.51-2.217,0.812-3.16,1.157c-0.34-1.266-0.258-2.243,0.859-2.947
				c0.508-0.322,1.096-0.739,0.871-1.387c-0.357-1.04-1.142-0.168-1.727-0.23c-0.586-0.064-1.182-0.171-1.76-0.119
				c-0.938,0.087-1.32,0.766-0.521,1.302c1.313,0.882,1.45,2.11,0.613,2.971c-0.849,0.876-1.781-0.383-2.654-0.776
				C581.305,293.766,581.033,293.51,580.406,293.968z"/>
			<path fill-rule="evenodd" clip-rule="evenodd" fill="#464D4F" d="M588.536,284.75c0.077,1.11,0.403,2.109,1.72,2.068
				c1.133-0.035,1.552-0.93,1.555-1.948c0.006-1.108-0.359-2.076-1.688-2.06C588.92,282.826,588.686,283.792,588.536,284.75z"/>
			<path fill-rule="evenodd" clip-rule="evenodd" fill="#464D4F" d="M578.469,286.885c1.135-0.139,1.686-0.81,1.717-1.878
				c0.033-1.096-0.204-2.122-1.545-2.207c-1.201-0.079-1.617,0.793-1.697,1.807C576.855,285.736,577.272,286.597,578.469,286.885z"
				/>
		</g>
		<g>
			<path fill-rule="evenodd" clip-rule="evenodd" fill="#495D66" d="M420.882,110.098c-0.435-0.401-1.087-0.724-1.271-1.22
				c-0.941-2.545-2.921-2.598-5.096-2.302c0.359,5.837,1.031,11.626,2.69,17.258c0.331,1.117,0.594,2.48,2.185,2.316
				c1.649-0.171,1.223-1.631,1.254-2.612C420.781,119.06,420.813,114.578,420.882,110.098z"/>
			<path fill-rule="evenodd" clip-rule="evenodd" fill="#495D66" d="M444.264,112.81c0.227,4.095,1.111,8.068,2.17,12.012
				c0.328,1.228,0.857,2.465,2.277,2.287c1.322-0.166,1.082-1.57,1.129-2.533c0.221-4.495,0.38-8.993,0.561-13.486
				c-1.688,0.338-3.148,1.504-4.969,1.37c-0.167,0.013-0.335,0.024-0.504,0.036C444.706,112.6,444.486,112.705,444.264,112.81z"/>
			<path fill-rule="evenodd" clip-rule="evenodd" fill="#8E9495" d="M471.99,78.301c0.836,1.227,1.883,2.263,3.401,2.408
				c1.175,0.112,1.189,1.007,1.569,1.696c0.123-0.737,0.118-1.526,0.396-2.201c1.065-2.585,0.468-4.476-2.095-5.728
				c-0.507-0.249-0.891-0.75-1.334-1.132c-1.49-0.308-2.113-1.616-3.01-2.61C470.563,73.356,470.615,75.922,471.99,78.301z"/>
			<path fill-rule="evenodd" clip-rule="evenodd" fill="#4A5A5D" d="M425.099,111.888c0.319,0.09,0.64,0.181,0.96,0.271
				c1.178-0.011,2.357-0.024,3.535-0.036c0.18-0.073,0.361-0.147,0.541-0.219c0.791,1.039,0.066,2.047-0.063,3.067
				c-0.026,0.212-0.054,0.428-0.079,0.641c-0.51,3.41-0.868,6.863-2.865,9.841c-0.281,0.387-0.677,0.361-1.082,0.304
				c-0.742,0.117-1.186-0.302-1.199-0.948C424.747,120.5,424.115,116.176,425.099,111.888z"/>
			<path fill-rule="evenodd" clip-rule="evenodd" fill="#F2F9F9" d="M409.762,63.567c0.428-0.078,0.762-0.275,0.914-0.709
				C410.373,63.095,410.066,63.331,409.762,63.567z"/>
			<path fill-rule="evenodd" clip-rule="evenodd" fill="#81B9CE" d="M464.777,109.111c-0.153,0.122-0.307,0.243-0.459,0.365
				C464.471,109.354,464.624,109.233,464.777,109.111z"/>
			<path fill-rule="evenodd" clip-rule="evenodd" fill="#81B9CE" d="M465.831,108.408c-0.222,0.168-0.442,0.338-0.664,0.505
				C465.389,108.746,465.609,108.576,465.831,108.408z"/>
			<path fill-rule="evenodd" clip-rule="evenodd" fill="#B5B5B5" d="M471.395,80.637c-0.133,2.373-0.426,4.726-1.15,6.99
				c-1.107,3.458-3.295,5.826-6.936,6.751c-6.213,1.58-11.975-1.466-14.39-7.373c-1.423-3.485-1.542-7.204-2.498-10.761
				c0.333-1.299,0.667-2.6,1-3.898c2.576-0.248,4.313-1.416,5.981-3.602c1.139-1.493,4.227-0.83,6.014-2.365
				c0.053-0.046,0.615,0.498,0.934,0.774c3.695,3.197,4.982,3.328,9.279,0.876c0.432,0.906,0.859,1.806,1.289,2.706
				c-0.354,2.623-0.303,5.188,1.072,7.567C471.135,78.909,471.439,79.831,471.395,80.637z M461.281,90.514
				c1.547,0.037,2.871-0.56,3.896-2.655c-1.394,0.51-2.218,0.812-3.161,1.157c-0.34-1.266-0.257-2.241,0.859-2.946
				c0.509-0.322,1.096-0.739,0.871-1.387c-0.357-1.04-1.142-0.168-1.727-0.23c-0.586-0.063-1.182-0.171-1.76-0.118
				c-0.938,0.086-1.32,0.766-0.521,1.301c1.313,0.882,1.45,2.11,0.614,2.971c-0.849,0.876-1.781-0.384-2.655-0.776
				c-0.295-0.133-0.566-0.388-1.193,0.07C457.448,90.05,459.324,90.466,461.281,90.514z M466.354,80.75
				c1.133-0.034,1.553-0.929,1.556-1.947c0.005-1.11-0.36-2.078-1.687-2.061c-1.205,0.015-1.438,0.981-1.592,1.938
				C464.711,79.792,465.037,80.792,466.354,80.75z M456.283,78.939c0.033-1.096-0.203-2.121-1.545-2.208
				c-1.2-0.079-1.617,0.793-1.697,1.807c-0.088,1.131,0.328,1.99,1.525,2.278C455.702,80.678,456.252,80.007,456.283,78.939z"/>
			<path fill-rule="evenodd" clip-rule="evenodd" fill="#8E9495" d="M446.421,76.244c0.333-1.299,0.667-2.6,1-3.898
				c-1.569-0.944-2.763-0.93-3.853,0.883c-0.783,1.305-2.332,1.905-3.744,2.517c-1.412,0.61-2.242,1.634-1.643,3.21
				c0.615,1.62,1.961,2.007,3.544,1.62C444.076,80,445.39,78.266,446.421,76.244z"/>
			<path fill-rule="evenodd" clip-rule="evenodd" fill="#4A5A5D" d="M454.631,108.939c0.518,0.342,1.033,0.686,1.551,1.029
				c0.85,0.173,1.701,0.348,2.551,0.521c0.479-0.009,0.955-0.019,1.432-0.028c-0.521,3.267-0.957,6.551-1.604,9.793
				c-0.362,1.818-1.021,3.586-1.663,5.335c-0.27,0.735-0.949,1.266-1.818,1.098c-0.799-0.153-0.979-0.865-1.04-1.566
				c-0.069-0.846-0.126-1.694-0.141-2.543c-0.077-4.492-0.138-8.984-0.204-13.475C454.006,109.049,454.318,108.994,454.631,108.939z
				"/>
			<path fill-rule="evenodd" clip-rule="evenodd" fill="#F2F9F9" d="M405.461,90.39c0.774,0.845,0.739,1.686,0.637,2.564
				c-0.795,6.847,1.393,10.647,7.732,13.292c0.232,0.098,0.459,0.219,0.686,0.33c2.175-0.296,4.154-0.244,5.096,2.302
				c0.184,0.496,0.836,0.818,1.271,1.22c1.294,0.86,2.761,1.313,4.217,1.79c0.319,0.09,0.64,0.181,0.96,0.271
				c1.178-0.011,2.357-0.024,3.535-0.036c0.18-0.073,0.361-0.147,0.541-0.219c1.835-0.792,3.671-1.582,5.505-2.374
				c2.118,3.081,5.344,3.248,8.622,3.279c0.225-0.105,0.444-0.211,0.666-0.316c0.169-0.012,0.337-0.023,0.504-0.036
				c1.82,0.134,3.281-1.032,4.969-1.37c0.887-1.012,1.396-2.65,3.293-1.984c0.313-0.056,0.625-0.111,0.938-0.166
				c0.518,0.342,1.033,0.686,1.551,1.029c0.85,0.173,1.701,0.348,2.551,0.521c0.479-0.009,0.955-0.019,1.432-0.029
				c1.329-0.564,2.676-1.052,4.154-0.985c0.152-0.122,0.306-0.243,0.459-0.365c0.107-0.109,0.236-0.176,0.39-0.197
				c0.222-0.167,0.442-0.337,0.664-0.505c0,0-0.063-0.004-0.063-0.003c0.675-0.021,1.018-0.367,1.028-1.042
				c2.178-0.653,2.773-2.533,3.094-4.404c0.275-1.611,0.443-3.239,0.951-4.804l0.044,0.104l-0.037-0.12
				c3.066-0.376,3.929-1.434,4.154-5.084c1.403-3.413,2.359-6.907,1.958-10.65c-0.38-0.689-0.395-1.584-1.569-1.696
				c-1.519-0.145-2.565-1.181-3.401-2.408c-0.855,0.608-0.551,1.53-0.596,2.336c-0.133,2.373-0.426,4.726-1.15,6.99
				c-1.107,3.458-3.295,5.826-6.936,6.751c-6.213,1.58-11.975-1.466-14.39-7.373c-1.423-3.485-1.542-7.204-2.498-10.761
				c-1.031,2.022-2.345,3.756-4.695,4.332c-1.583,0.387-2.929,0-3.544-1.62c-0.6-1.576,0.23-2.6,1.643-3.21
				c1.412-0.612,2.961-1.212,3.744-2.517c1.09-1.813,2.283-1.828,3.853-0.883c2.576-0.248,4.313-1.416,5.981-3.602
				c1.139-1.493,4.227-0.83,6.014-2.365c0.053-0.046,0.615,0.498,0.934,0.774c3.695,3.197,4.982,3.328,9.279,0.876
				c0.432,0.906,0.859,1.806,1.289,2.706c0.896,0.994,1.52,2.302,3.01,2.611c0.368-1.394,0.92-2.765,1.074-4.182
				c0.621-5.706-1.224-9.157-6.421-11.771c-1.705-0.857-2.713-1.938-2.821-3.831c-0.191-0.165-0.422-0.3-0.568-0.496
				c-3.839-5.152-8.424-5.768-13.59-1.798c-0.555,0.427-1.096,0.905-1.817,0.546c-3.522-1.742-6.536-0.67-9.348,1.623
				c0,0,0.021,0.015,0.02,0.014c-0.046,1.108-0.538,2.04-1.155,2.924c-3.604-1.608-7.256-2.835-11.236-1.383
				c-0.328,0.049-0.654,0.098-0.98,0.146c-0.68,0.116-1.359,0.23-2.038,0.346c-0.907,0.623-1.813,1.244-2.72,1.868h-0.003
				c-0.458,0.403-0.917,0.808-1.376,1.211c-1.777,1.997-3.957,2.774-6.648,2.512c-1.244-0.121-2.428,0.554-3.361,1.479
				c-0.128,0.063-0.215,0.163-0.262,0.302c-0.152,0.434-0.486,0.631-0.914,0.709c-2.597,1.999-3.156,4.916-3.439,7.896
				c-0.119,1.231-0.441,2.188-1.26,3.167C401.187,79.274,401.35,85.908,405.461,90.39z M470.836,98.142l0.006-0.001
				c-0.002,0.001-0.002,0.002-0.002,0.002L470.836,98.142z"/>
			<path fill-rule="evenodd" clip-rule="evenodd" fill="#464D4F" d="M456.504,87.9c0.944,2.149,2.82,2.565,4.777,2.614
				c1.547,0.037,2.871-0.56,3.896-2.655c-1.394,0.51-2.218,0.812-3.161,1.157c-0.34-1.266-0.257-2.241,0.859-2.946
				c0.509-0.322,1.096-0.739,0.871-1.387c-0.357-1.04-1.142-0.168-1.727-0.23c-0.586-0.063-1.182-0.171-1.76-0.118
				c-0.938,0.086-1.32,0.766-0.521,1.301c1.313,0.882,1.45,2.11,0.614,2.971c-0.849,0.876-1.781-0.384-2.655-0.776
				C457.402,87.698,457.131,87.442,456.504,87.9z"/>
			<path fill-rule="evenodd" clip-rule="evenodd" fill="#464D4F" d="M464.635,78.682c0.076,1.11,0.402,2.11,1.719,2.068
				c1.133-0.034,1.553-0.929,1.556-1.947c0.005-1.11-0.36-2.078-1.687-2.061C465.018,76.758,464.785,77.724,464.635,78.682z"/>
			<path fill-rule="evenodd" clip-rule="evenodd" fill="#464D4F" d="M454.566,80.817c1.136-0.139,1.686-0.81,1.717-1.878
				c0.033-1.096-0.203-2.121-1.545-2.208c-1.2-0.079-1.617,0.793-1.697,1.807C452.953,79.67,453.369,80.529,454.566,80.817z"/>
		</g>
		<g>
			<path fill-rule="evenodd" clip-rule="evenodd" fill="#495D66" d="M511.471,194.171c-0.435-0.402-1.088-0.724-1.27-1.219
				c-0.941-2.546-2.922-2.598-5.097-2.301c0.36,5.836,1.031,11.626,2.692,17.258c0.329,1.118,0.593,2.48,2.184,2.317
				c1.648-0.171,1.223-1.632,1.252-2.613C511.371,203.134,511.402,198.652,511.471,194.171z"/>
			<path fill-rule="evenodd" clip-rule="evenodd" fill="#495D66" d="M534.852,196.883c0.229,4.094,1.113,8.068,2.171,12.011
				c0.329,1.228,0.858,2.465,2.278,2.288c1.32-0.167,1.082-1.569,1.129-2.532c0.221-4.495,0.379-8.993,0.561-13.486
				c-1.689,0.337-3.15,1.502-4.969,1.37c-0.168,0.011-0.336,0.022-0.504,0.035C535.296,196.673,535.075,196.779,534.852,196.883z"/>
			<path fill-rule="evenodd" clip-rule="evenodd" fill="#8E9495" d="M562.58,162.374c0.835,1.227,1.883,2.264,3.4,2.408
				c1.174,0.112,1.189,1.007,1.569,1.696c0.122-0.736,0.118-1.526,0.396-2.2c1.064-2.584,0.469-4.475-2.094-5.727
				c-0.508-0.25-0.892-0.75-1.334-1.133c-1.49-0.308-2.115-1.617-3.01-2.61C561.152,157.43,561.205,159.996,562.58,162.374z"/>
			<path fill-rule="evenodd" clip-rule="evenodd" fill="#4A5A5D" d="M515.688,195.961c0.32,0.091,0.64,0.181,0.961,0.272
				c1.178-0.011,2.357-0.023,3.534-0.036c0.181-0.074,0.362-0.146,0.542-0.219c0.791,1.04,0.066,2.048-0.064,3.068
				c-0.027,0.213-0.053,0.427-0.078,0.639c-0.51,3.411-0.869,6.865-2.866,9.842c-0.28,0.387-0.677,0.361-1.081,0.304
				c-0.744,0.118-1.186-0.302-1.199-0.947C515.336,204.573,514.705,200.25,515.688,195.961z"/>
			<path fill-rule="evenodd" clip-rule="evenodd" fill="#F2F9F9" d="M500.352,147.641c0.426-0.078,0.762-0.274,0.914-0.709
				C500.963,147.168,500.656,147.405,500.352,147.641z"/>
			<path fill-rule="evenodd" clip-rule="evenodd" fill="#81B9CE" d="M555.367,193.185c-0.154,0.122-0.307,0.243-0.461,0.364
				C555.061,193.427,555.213,193.307,555.367,193.185z"/>
			<path fill-rule="evenodd" clip-rule="evenodd" fill="#81B9CE" d="M556.42,192.482c-0.223,0.167-0.441,0.337-0.664,0.504
				C555.977,192.819,556.197,192.65,556.42,192.482z"/>
			<path fill-rule="evenodd" clip-rule="evenodd" fill="#B5B5B5" d="M561.984,164.71c-0.133,2.374-0.427,4.726-1.152,6.991
				c-1.106,3.458-3.295,5.826-6.935,6.75c-6.213,1.581-11.974-1.465-14.39-7.373c-1.424-3.486-1.541-7.205-2.498-10.761
				c0.334-1.3,0.668-2.599,1-3.899c2.576-0.248,4.313-1.416,5.98-3.602c1.141-1.492,4.229-0.831,6.016-2.364
				c0.053-0.045,0.614,0.499,0.934,0.773c3.694,3.197,4.982,3.327,9.278,0.876c0.433,0.906,0.86,1.805,1.29,2.706
				c-0.355,2.623-0.303,5.188,1.072,7.566C561.724,162.982,562.029,163.905,561.984,164.71z M551.869,174.587
				c1.547,0.037,2.873-0.56,3.896-2.655c-1.395,0.511-2.217,0.813-3.16,1.157c-0.34-1.266-0.258-2.242,0.859-2.947
				c0.508-0.321,1.096-0.738,0.871-1.386c-0.357-1.04-1.143-0.168-1.727-0.23c-0.586-0.063-1.182-0.172-1.76-0.119
				c-0.938,0.087-1.32,0.766-0.523,1.302c1.314,0.882,1.451,2.11,0.615,2.971c-0.85,0.876-1.781-0.384-2.654-0.776
				c-0.297-0.132-0.567-0.389-1.193,0.069C548.037,174.123,549.913,174.54,551.869,174.587z M556.942,164.823
				c1.133-0.034,1.553-0.93,1.556-1.947c0.006-1.108-0.359-2.077-1.688-2.06c-1.203,0.015-1.438,0.981-1.59,1.938
				C555.301,163.866,555.627,164.866,556.942,164.823z M546.873,163.012c0.033-1.097-0.205-2.121-1.545-2.207
				c-1.201-0.079-1.617,0.793-1.697,1.808c-0.088,1.13,0.328,1.99,1.525,2.278C546.291,164.751,546.842,164.081,546.873,163.012z"/>
			<path fill-rule="evenodd" clip-rule="evenodd" fill="#8E9495" d="M537.01,160.318c0.334-1.3,0.668-2.599,1-3.899
				c-1.568-0.944-2.762-0.93-3.853,0.884c-0.782,1.303-2.331,1.905-3.744,2.516c-1.413,0.611-2.241,1.635-1.644,3.211
				c0.617,1.619,1.963,2.008,3.546,1.619C534.665,164.073,535.979,162.34,537.01,160.318z"/>
			<path fill-rule="evenodd" clip-rule="evenodd" fill="#4A5A5D" d="M545.221,193.012c0.517,0.343,1.032,0.687,1.55,1.03
				c0.851,0.173,1.701,0.347,2.552,0.521c0.479-0.009,0.954-0.018,1.432-0.027c-0.523,3.267-0.958,6.551-1.604,9.794
				c-0.364,1.818-1.022,3.585-1.663,5.335c-0.271,0.735-0.95,1.266-1.82,1.098c-0.797-0.153-0.979-0.865-1.039-1.566
				c-0.069-0.846-0.127-1.694-0.141-2.544c-0.076-4.491-0.137-8.984-0.203-13.475C544.596,193.122,544.908,193.067,545.221,193.012z
				"/>
			<path fill-rule="evenodd" clip-rule="evenodd" fill="#F2F9F9" d="M496.05,174.463c0.774,0.846,0.739,1.687,0.638,2.565
				c-0.797,6.846,1.393,10.646,7.73,13.292c0.234,0.097,0.459,0.219,0.687,0.33c2.175-0.296,4.155-0.245,5.097,2.301
				c0.182,0.496,0.835,0.817,1.27,1.219c1.295,0.861,2.762,1.313,4.217,1.79c0.32,0.091,0.64,0.181,0.961,0.272
				c1.178-0.011,2.357-0.023,3.534-0.036c0.181-0.074,0.362-0.146,0.542-0.219c1.834-0.792,3.67-1.582,5.504-2.373
				c2.119,3.08,5.344,3.248,8.623,3.279c0.224-0.105,0.444-0.211,0.666-0.316c0.168-0.013,0.336-0.024,0.504-0.035
				c1.818,0.132,3.279-1.033,4.969-1.37c0.887-1.013,1.396-2.652,3.293-1.986c0.313-0.056,0.625-0.11,0.938-0.166
				c0.517,0.343,1.032,0.687,1.55,1.03c0.851,0.173,1.701,0.347,2.552,0.521c0.479-0.009,0.954-0.018,1.43-0.028
				c1.33-0.564,2.678-1.052,4.154-0.987c0.154-0.121,0.307-0.242,0.461-0.364c0.106-0.11,0.234-0.176,0.389-0.198
				c0.223-0.167,0.441-0.336,0.664-0.504c0,0-0.063-0.006-0.063-0.004c0.676-0.02,1.018-0.367,1.027-1.042
				c2.178-0.652,2.775-2.533,3.095-4.402c0.276-1.612,0.444-3.239,0.952-4.804l0.043,0.104l-0.037-0.119
				c3.066-0.378,3.93-1.434,4.154-5.085c1.403-3.414,2.359-6.907,1.958-10.651c-0.38-0.689-0.396-1.584-1.569-1.696
				c-1.518-0.145-2.565-1.181-3.4-2.408c-0.856,0.609-0.551,1.531-0.596,2.337c-0.133,2.374-0.427,4.726-1.152,6.991
				c-1.106,3.458-3.295,5.826-6.935,6.75c-6.213,1.581-11.974-1.465-14.39-7.373c-1.424-3.486-1.541-7.205-2.498-10.761
				c-1.031,2.022-2.345,3.755-4.694,4.331c-1.583,0.389-2.929,0-3.546-1.619c-0.598-1.576,0.23-2.6,1.644-3.211
				c1.413-0.61,2.962-1.212,3.744-2.516c1.091-1.814,2.284-1.828,3.853-0.884c2.576-0.248,4.313-1.416,5.98-3.602
				c1.141-1.492,4.229-0.831,6.016-2.364c0.053-0.045,0.614,0.499,0.934,0.773c3.694,3.197,4.982,3.327,9.278,0.876
				c0.433,0.906,0.86,1.805,1.29,2.706c0.895,0.994,1.52,2.302,3.01,2.611c0.367-1.392,0.92-2.765,1.073-4.18
				c0.622-5.708-1.224-9.158-6.421-11.772c-1.705-0.856-2.713-1.938-2.82-3.831c-0.191-0.165-0.422-0.3-0.57-0.497
				c-3.838-5.151-8.422-5.767-13.588-1.798c-0.555,0.428-1.098,0.905-1.818,0.547c-3.522-1.742-6.535-0.672-9.348,1.622
				c0,0,0.021,0.015,0.02,0.014c-0.047,1.108-0.539,2.039-1.155,2.924c-3.604-1.608-7.256-2.835-11.237-1.383
				c-0.326,0.049-0.652,0.098-0.979,0.147c-0.68,0.116-1.359,0.229-2.038,0.345c-0.907,0.623-1.813,1.245-2.722,1.869h-0.002
				c-0.457,0.403-0.916,0.808-1.375,1.211c-1.779,1.996-3.957,2.773-6.649,2.512c-1.243-0.12-2.429,0.553-3.36,1.479
				c-0.129,0.063-0.217,0.163-0.262,0.302c-0.152,0.435-0.488,0.631-0.914,0.709c-2.598,1.999-3.158,4.916-3.441,7.896
				c-0.117,1.23-0.439,2.187-1.258,3.167C491.775,163.348,491.939,169.982,496.05,174.463z M561.426,182.215l0.004-0.001
				c0,0.001,0,0.002,0,0.002L561.426,182.215z"/>
			<path fill-rule="evenodd" clip-rule="evenodd" fill="#464D4F" d="M547.094,171.974c0.943,2.149,2.819,2.566,4.775,2.613
				c1.547,0.037,2.873-0.56,3.896-2.655c-1.395,0.511-2.217,0.813-3.16,1.157c-0.34-1.266-0.258-2.242,0.859-2.947
				c0.508-0.321,1.096-0.738,0.871-1.386c-0.357-1.04-1.143-0.168-1.727-0.23c-0.586-0.063-1.182-0.172-1.76-0.119
				c-0.938,0.087-1.32,0.766-0.523,1.302c1.314,0.882,1.451,2.11,0.615,2.971c-0.85,0.876-1.781-0.384-2.654-0.776
				C547.99,171.772,547.72,171.516,547.094,171.974z"/>
			<path fill-rule="evenodd" clip-rule="evenodd" fill="#464D4F" d="M555.223,162.756c0.078,1.109,0.404,2.109,1.72,2.067
				c1.133-0.034,1.553-0.93,1.556-1.947c0.006-1.108-0.359-2.077-1.688-2.06C555.607,160.832,555.373,161.797,555.223,162.756z"/>
			<path fill-rule="evenodd" clip-rule="evenodd" fill="#464D4F" d="M545.156,164.891c1.135-0.139,1.686-0.81,1.717-1.878
				c0.033-1.097-0.205-2.121-1.545-2.207c-1.201-0.079-1.617,0.793-1.697,1.808C543.543,163.743,543.959,164.603,545.156,164.891z"
				/>
		</g>
		<g>
			<path fill-rule="evenodd" clip-rule="evenodd" fill="#495D66" d="M524.004,446.482c-0.436-0.401-1.088-0.723-1.271-1.219
				c-0.94-2.545-2.921-2.598-5.097-2.301c0.361,5.836,1.032,11.625,2.692,17.257c0.329,1.117,0.593,2.481,2.184,2.316
				c1.649-0.171,1.222-1.631,1.253-2.612C523.904,455.446,523.935,450.963,524.004,446.482z"/>
			<path fill-rule="evenodd" clip-rule="evenodd" fill="#495D66" d="M547.385,449.195c0.229,4.094,1.113,8.068,2.17,12.012
				c0.33,1.228,0.859,2.464,2.279,2.287c1.321-0.167,1.082-1.569,1.129-2.533c0.22-4.495,0.379-8.991,0.561-13.486
				c-1.688,0.337-3.15,1.502-4.97,1.37c-0.167,0.012-0.335,0.023-0.503,0.035C547.828,448.984,547.607,449.09,547.385,449.195z"/>
			<path fill-rule="evenodd" clip-rule="evenodd" fill="#8E9495" d="M575.113,414.686c0.836,1.228,1.883,2.263,3.4,2.408
				c1.174,0.112,1.189,1.007,1.568,1.696c0.123-0.736,0.119-1.525,0.396-2.2c1.064-2.585,0.469-4.476-2.095-5.728
				c-0.507-0.249-0.891-0.75-1.333-1.132c-1.492-0.31-2.115-1.617-3.011-2.611C573.686,409.742,573.738,412.306,575.113,414.686z"/>
			<path fill-rule="evenodd" clip-rule="evenodd" fill="#4A5A5D" d="M528.221,448.272c0.32,0.091,0.64,0.181,0.961,0.272
				c1.178-0.011,2.356-0.024,3.533-0.035c0.182-0.074,0.363-0.147,0.543-0.22c0.791,1.04,0.066,2.048-0.064,3.067
				c-0.027,0.213-0.053,0.427-0.078,0.64c-0.51,3.41-0.869,6.864-2.867,9.841c-0.279,0.387-0.676,0.361-1.08,0.304
				c-0.744,0.118-1.186-0.302-1.2-0.947C527.869,456.885,527.238,452.561,528.221,448.272z"/>
			<path fill-rule="evenodd" clip-rule="evenodd" fill="#F2F9F9" d="M512.883,399.952c0.428-0.078,0.764-0.274,0.916-0.708
				C513.495,399.479,513.189,399.715,512.883,399.952z"/>
			<path fill-rule="evenodd" clip-rule="evenodd" fill="#81B9CE" d="M567.899,445.496c-0.153,0.123-0.306,0.243-0.458,0.365
				C567.594,445.739,567.746,445.618,567.899,445.496z"/>
			<path fill-rule="evenodd" clip-rule="evenodd" fill="#81B9CE" d="M568.953,444.794c-0.222,0.167-0.441,0.337-0.664,0.504
				C568.51,445.131,568.731,444.96,568.953,444.794z"/>
			<path fill-rule="evenodd" clip-rule="evenodd" fill="#B5B5B5" d="M574.518,417.021c-0.133,2.374-0.428,4.728-1.152,6.991
				c-1.106,3.459-3.293,5.827-6.935,6.751c-6.213,1.58-11.974-1.466-14.39-7.373c-1.423-3.485-1.543-7.206-2.498-10.76
				c0.334-1.3,0.668-2.6,1-3.9c2.576-0.248,4.313-1.416,5.98-3.602c1.141-1.493,4.229-0.831,6.015-2.365
				c0.053-0.046,0.615,0.498,0.935,0.773c3.693,3.197,4.982,3.328,9.278,0.876c0.433,0.905,0.86,1.805,1.289,2.705
				c-0.354,2.623-0.302,5.188,1.073,7.567C574.256,415.294,574.563,416.217,574.518,417.021z M564.402,426.898
				c1.547,0.037,2.873-0.56,3.896-2.655c-1.395,0.51-2.217,0.813-3.16,1.157c-0.34-1.266-0.258-2.242,0.858-2.947
				c0.509-0.321,1.097-0.739,0.872-1.387c-0.359-1.038-1.143-0.167-1.728-0.229c-0.585-0.065-1.181-0.172-1.759-0.119
				c-0.938,0.086-1.32,0.766-0.522,1.301c1.313,0.883,1.45,2.111,0.614,2.971c-0.85,0.877-1.781-0.382-2.654-0.775
				c-0.295-0.133-0.567-0.388-1.193,0.07C560.57,426.435,562.447,426.851,564.402,426.898z M569.477,417.135
				c1.132-0.034,1.552-0.93,1.555-1.947c0.005-1.109-0.36-2.077-1.688-2.061c-1.203,0.016-1.438,0.981-1.59,1.939
				C567.834,416.177,568.16,417.177,569.477,417.135z M559.406,415.324c0.033-1.096-0.205-2.122-1.546-2.207
				c-1.2-0.08-1.616,0.793-1.696,1.807c-0.088,1.13,0.328,1.989,1.525,2.278C558.824,417.063,559.375,416.392,559.406,415.324z"/>
			<path fill-rule="evenodd" clip-rule="evenodd" fill="#8E9495" d="M549.543,412.63c0.334-1.3,0.668-2.6,1-3.9
				c-1.568-0.944-2.762-0.929-3.853,0.884c-0.782,1.304-2.331,1.905-3.745,2.516c-1.412,0.61-2.24,1.634-1.643,3.21
				c0.616,1.62,1.962,2.007,3.545,1.62C547.198,416.384,548.512,414.651,549.543,412.63z"/>
			<path fill-rule="evenodd" clip-rule="evenodd" fill="#4A5A5D" d="M557.752,445.324c0.518,0.343,1.035,0.687,1.552,1.029
				c0.851,0.174,1.7,0.349,2.552,0.522c0.479-0.009,0.954-0.019,1.432-0.028c-0.523,3.267-0.959,6.551-1.605,9.793
				c-0.363,1.818-1.021,3.585-1.662,5.335c-0.27,0.735-0.949,1.266-1.82,1.098c-0.797-0.153-0.979-0.864-1.039-1.565
				c-0.069-0.846-0.127-1.694-0.141-2.544c-0.076-4.492-0.137-8.984-0.203-13.475C557.128,445.434,557.44,445.379,557.752,445.324z"
				/>
			<path fill-rule="evenodd" clip-rule="evenodd" fill="#F2F9F9" d="M508.582,426.775c0.775,0.845,0.74,1.687,0.639,2.564
				c-0.797,6.846,1.393,10.646,7.73,13.292c0.234,0.099,0.459,0.219,0.686,0.331c2.176-0.297,4.156-0.245,5.097,2.301
				c0.183,0.496,0.835,0.818,1.271,1.219c1.295,0.861,2.761,1.313,4.217,1.791c0.32,0.091,0.64,0.181,0.961,0.272
				c1.178-0.011,2.356-0.024,3.533-0.035c0.182-0.074,0.363-0.147,0.543-0.22c1.834-0.792,3.67-1.582,5.504-2.374
				c2.119,3.082,5.344,3.249,8.623,3.281c0.223-0.106,0.443-0.212,0.666-0.317c0.168-0.012,0.336-0.023,0.503-0.035
				c1.819,0.132,3.281-1.033,4.97-1.37c0.887-1.012,1.396-2.651,3.293-1.985c0.312-0.056,0.624-0.11,0.936-0.166
				c0.518,0.343,1.035,0.687,1.552,1.029c0.851,0.174,1.7,0.349,2.552,0.522c0.479-0.009,0.954-0.019,1.43-0.028
				c1.33-0.563,2.677-1.052,4.156-0.986c0.152-0.122,0.305-0.242,0.458-0.365c0.106-0.109,0.235-0.175,0.39-0.198
				c0.223-0.167,0.442-0.337,0.664-0.504c0,0-0.064-0.005-0.063-0.004c0.676-0.021,1.018-0.367,1.027-1.042
				c2.18-0.653,2.775-2.534,3.095-4.403c0.276-1.612,0.444-3.238,0.952-4.804l0.043,0.104l-0.037-0.12
				c3.066-0.377,3.93-1.434,4.154-5.084c1.404-3.414,2.359-6.907,1.957-10.651c-0.379-0.689-0.395-1.584-1.568-1.696
				c-1.518-0.145-2.564-1.18-3.4-2.408c-0.857,0.608-0.551,1.531-0.596,2.335c-0.133,2.374-0.428,4.728-1.152,6.991
				c-1.106,3.459-3.293,5.827-6.935,6.751c-6.213,1.58-11.974-1.466-14.39-7.373c-1.423-3.485-1.543-7.206-2.498-10.76
				c-1.031,2.021-2.345,3.754-4.695,4.33c-1.583,0.387-2.929,0-3.545-1.62c-0.598-1.576,0.23-2.601,1.643-3.21
				c1.414-0.611,2.963-1.212,3.745-2.516c1.091-1.813,2.284-1.828,3.853-0.884c2.576-0.248,4.313-1.416,5.98-3.602
				c1.141-1.493,4.229-0.831,6.015-2.365c0.053-0.046,0.615,0.498,0.935,0.773c3.693,3.197,4.982,3.328,9.278,0.876
				c0.433,0.905,0.86,1.805,1.289,2.705c0.896,0.994,1.519,2.302,3.009,2.611c0.369-1.393,0.922-2.765,1.075-4.181
				c0.622-5.707-1.224-9.157-6.421-11.771c-1.705-0.856-2.713-1.938-2.821-3.831c-0.19-0.165-0.421-0.299-0.568-0.496
				c-3.839-5.15-8.423-5.767-13.589-1.798c-0.555,0.428-1.098,0.905-1.818,0.547c-3.522-1.741-6.537-0.671-9.348,1.623
				c0,0,0.021,0.016,0.02,0.014c-0.047,1.108-0.539,2.04-1.155,2.924c-3.604-1.608-7.257-2.835-11.236-1.382
				c-0.327,0.049-0.653,0.098-0.98,0.146c-0.681,0.116-1.358,0.231-2.038,0.346c-0.906,0.623-1.813,1.245-2.721,1.868h-0.002
				c-0.457,0.403-0.917,0.808-1.375,1.211c-1.779,1.997-3.957,2.774-6.65,2.513c-1.242-0.121-2.428,0.553-3.359,1.479
				c-0.129,0.064-0.217,0.164-0.262,0.303c-0.152,0.434-0.488,0.63-0.916,0.708c-2.596,2-3.155,4.917-3.439,7.896
				c-0.117,1.231-0.439,2.188-1.258,3.166C504.309,415.659,504.473,422.294,508.582,426.775z M573.959,434.526l0.005-0.001
				c-0.001,0.001-0.001,0.002-0.001,0.002L573.959,434.526z"/>
			<path fill-rule="evenodd" clip-rule="evenodd" fill="#464D4F" d="M559.627,424.285c0.943,2.149,2.82,2.565,4.775,2.613
				c1.547,0.037,2.873-0.56,3.896-2.655c-1.395,0.51-2.217,0.813-3.16,1.157c-0.34-1.266-0.258-2.242,0.858-2.947
				c0.509-0.321,1.097-0.739,0.872-1.387c-0.359-1.038-1.143-0.167-1.728-0.229c-0.585-0.065-1.181-0.172-1.759-0.119
				c-0.938,0.086-1.32,0.766-0.522,1.301c1.313,0.883,1.45,2.111,0.614,2.971c-0.85,0.877-1.781-0.382-2.654-0.775
				C560.525,424.083,560.253,423.828,559.627,424.285z"/>
			<path fill-rule="evenodd" clip-rule="evenodd" fill="#464D4F" d="M567.756,415.067c0.078,1.11,0.404,2.11,1.721,2.068
				c1.132-0.034,1.552-0.93,1.555-1.947c0.005-1.109-0.36-2.077-1.688-2.061C568.141,413.144,567.906,414.109,567.756,415.067z"/>
			<path fill-rule="evenodd" clip-rule="evenodd" fill="#464D4F" d="M557.689,417.202c1.135-0.139,1.686-0.81,1.717-1.878
				c0.033-1.096-0.205-2.122-1.546-2.207c-1.2-0.08-1.616,0.793-1.696,1.807C556.076,416.055,556.492,416.914,557.689,417.202z"/>
		</g>
		<g>
			<path fill-rule="evenodd" clip-rule="evenodd" fill="#495D66" d="M442.225,542.382c-0.435-0.402-1.087-0.723-1.27-1.22
				c-0.941-2.545-2.922-2.598-5.097-2.301c0.36,5.836,1.032,11.626,2.692,17.258c0.329,1.117,0.593,2.48,2.184,2.315
				c1.648-0.169,1.222-1.63,1.253-2.611C442.125,551.345,442.156,546.863,442.225,542.382z"/>
			<path fill-rule="evenodd" clip-rule="evenodd" fill="#495D66" d="M465.606,545.095c0.228,4.094,1.112,8.068,2.17,12.011
				c0.329,1.228,0.858,2.465,2.278,2.287c1.321-0.166,1.082-1.569,1.129-2.532c0.221-4.495,0.379-8.992,0.561-13.487
				c-1.688,0.338-3.15,1.503-4.969,1.37c-0.168,0.012-0.336,0.024-0.504,0.035C466.05,544.884,465.829,544.989,465.606,545.095z"/>
			<path fill-rule="evenodd" clip-rule="evenodd" fill="#8E9495" d="M493.334,510.585c0.836,1.227,1.883,2.263,3.4,2.408
				c1.175,0.112,1.189,1.007,1.568,1.696c0.124-0.736,0.12-1.525,0.396-2.2c1.064-2.584,0.469-4.476-2.094-5.728
				c-0.508-0.249-0.891-0.75-1.334-1.131c-1.49-0.309-2.115-1.618-3.01-2.612C491.906,505.642,491.959,508.206,493.334,510.585z"/>
			<path fill-rule="evenodd" clip-rule="evenodd" fill="#4A5A5D" d="M446.441,544.172c0.32,0.091,0.64,0.18,0.961,0.272
				c1.178-0.011,2.357-0.024,3.535-0.035c0.18-0.074,0.361-0.148,0.541-0.22c0.792,1.039,0.066,2.048-0.064,3.067
				c-0.026,0.213-0.053,0.428-0.078,0.64c-0.51,3.41-0.868,6.864-2.866,9.843c-0.28,0.386-0.677,0.36-1.081,0.303
				c-0.743,0.117-1.186-0.302-1.199-0.947C446.092,552.785,445.459,548.46,446.441,544.172z"/>
			<path fill-rule="evenodd" clip-rule="evenodd" fill="#F2F9F9" d="M431.105,495.852c0.426-0.078,0.762-0.274,0.914-0.709
				C431.715,495.378,431.41,495.616,431.105,495.852z"/>
			<path fill-rule="evenodd" clip-rule="evenodd" fill="#81B9CE" d="M486.121,541.395c-0.154,0.123-0.307,0.244-0.459,0.364
				C485.814,541.639,485.967,541.518,486.121,541.395z"/>
			<path fill-rule="evenodd" clip-rule="evenodd" fill="#81B9CE" d="M487.174,540.694c-0.221,0.167-0.441,0.337-0.664,0.504
				C486.73,541.031,486.953,540.86,487.174,540.694z"/>
			<path fill-rule="evenodd" clip-rule="evenodd" fill="#B5B5B5" d="M492.738,512.921c-0.133,2.374-0.426,4.727-1.152,6.991
				c-1.105,3.458-3.293,5.826-6.934,6.751c-6.213,1.58-11.975-1.466-14.391-7.374c-1.423-3.484-1.542-7.204-2.498-10.76
				c0.334-1.3,0.668-2.6,1.001-3.899c2.575-0.249,4.312-1.416,5.98-3.602c1.14-1.493,4.228-0.832,6.015-2.365
				c0.053-0.046,0.615,0.498,0.934,0.772c3.693,3.198,4.982,3.329,9.279,0.877c0.432,0.906,0.859,1.805,1.289,2.705
				c-0.355,2.624-0.303,5.188,1.072,7.567C492.478,511.194,492.783,512.116,492.738,512.921z M482.625,522.798
				c1.546,0.037,2.871-0.56,3.895-2.656c-1.395,0.511-2.217,0.813-3.16,1.158c-0.34-1.266-0.258-2.241,0.859-2.947
				c0.508-0.321,1.096-0.739,0.871-1.387c-0.357-1.039-1.142-0.169-1.727-0.23c-0.586-0.064-1.182-0.172-1.76-0.118
				c-0.938,0.086-1.32,0.766-0.521,1.301c1.313,0.883,1.449,2.11,0.613,2.971c-0.85,0.877-1.78-0.383-2.654-0.775
				c-0.295-0.133-0.566-0.389-1.193,0.069C478.791,522.334,480.668,522.751,482.625,522.798z M487.697,513.035
				c1.133-0.034,1.552-0.93,1.555-1.946c0.006-1.11-0.359-2.078-1.687-2.062c-1.203,0.017-1.438,0.982-1.591,1.938
				C486.055,512.077,486.381,513.077,487.697,513.035z M477.627,511.224c0.033-1.096-0.204-2.122-1.546-2.208
				c-1.2-0.079-1.616,0.793-1.696,1.808c-0.088,1.13,0.328,1.99,1.525,2.278C477.045,512.962,477.596,512.292,477.627,511.224z"/>
			<path fill-rule="evenodd" clip-rule="evenodd" fill="#8E9495" d="M467.764,508.529c0.334-1.3,0.668-2.6,1.001-3.899
				c-1.569-0.945-2.763-0.93-3.853,0.883c-0.783,1.305-2.332,1.905-3.745,2.516c-1.411,0.61-2.241,1.636-1.644,3.211
				c0.617,1.62,1.963,2.006,3.547,1.62C465.42,512.284,466.732,510.551,467.764,508.529z"/>
			<path fill-rule="evenodd" clip-rule="evenodd" fill="#4A5A5D" d="M475.975,541.223c0.518,0.343,1.033,0.687,1.551,1.029
				c0.85,0.174,1.701,0.348,2.552,0.522c0.478-0.01,0.953-0.019,1.431-0.029c-0.523,3.267-0.957,6.552-1.604,9.793
				c-0.362,1.819-1.021,3.587-1.663,5.336c-0.27,0.734-0.949,1.266-1.82,1.097c-0.797-0.152-0.979-0.864-1.039-1.565
				c-0.069-0.846-0.127-1.695-0.141-2.543c-0.076-4.493-0.137-8.984-0.203-13.476C475.35,541.334,475.662,541.279,475.975,541.223z"
				/>
			<path fill-rule="evenodd" clip-rule="evenodd" fill="#F2F9F9" d="M426.804,522.674c0.774,0.846,0.739,1.687,0.638,2.564
				c-0.797,6.847,1.393,10.646,7.73,13.292c0.235,0.099,0.459,0.219,0.687,0.33c2.175-0.297,4.155-0.244,5.097,2.301
				c0.183,0.497,0.835,0.818,1.27,1.22c1.295,0.86,2.762,1.313,4.217,1.79c0.32,0.091,0.64,0.18,0.961,0.272
				c1.178-0.011,2.357-0.024,3.535-0.035c0.18-0.074,0.361-0.148,0.541-0.22c1.834-0.792,3.67-1.582,5.506-2.374
				c2.117,3.081,5.342,3.249,8.621,3.28c0.224-0.106,0.444-0.211,0.666-0.316c0.168-0.011,0.336-0.023,0.504-0.035
				c1.818,0.133,3.281-1.032,4.969-1.37c0.887-1.012,1.396-2.65,3.293-1.984c0.313-0.055,0.625-0.11,0.938-0.166
				c0.518,0.343,1.033,0.687,1.551,1.029c0.85,0.174,1.701,0.348,2.552,0.522c0.478-0.01,0.953-0.019,1.429-0.029
				c1.33-0.564,2.678-1.052,4.156-0.987c0.152-0.121,0.305-0.242,0.459-0.364c0.106-0.109,0.236-0.176,0.389-0.197
				c0.223-0.167,0.443-0.337,0.664-0.504c0,0-0.063-0.005-0.063-0.004c0.676-0.021,1.019-0.368,1.027-1.043
				c2.18-0.653,2.775-2.533,3.096-4.403c0.275-1.611,0.443-3.238,0.951-4.804l0.043,0.104l-0.037-0.12
				c3.067-0.377,3.93-1.434,4.154-5.084c1.404-3.414,2.359-6.907,1.957-10.651c-0.379-0.689-0.394-1.584-1.568-1.696
				c-1.518-0.145-2.564-1.181-3.4-2.408c-0.856,0.609-0.551,1.531-0.596,2.336c-0.133,2.374-0.426,4.727-1.152,6.991
				c-1.105,3.458-3.293,5.826-6.934,6.751c-6.213,1.58-11.975-1.466-14.391-7.374c-1.423-3.484-1.542-7.204-2.498-10.76
				c-1.031,2.022-2.344,3.755-4.693,4.332c-1.584,0.386-2.93,0-3.547-1.62c-0.598-1.576,0.232-2.601,1.644-3.211
				c1.413-0.61,2.962-1.211,3.745-2.516c1.09-1.813,2.283-1.829,3.853-0.883c2.575-0.249,4.312-1.416,5.98-3.602
				c1.14-1.493,4.228-0.832,6.015-2.365c0.053-0.046,0.615,0.498,0.934,0.772c3.693,3.198,4.982,3.329,9.279,0.877
				c0.432,0.906,0.859,1.805,1.289,2.705c0.895,0.994,1.52,2.303,3.01,2.612c0.368-1.394,0.92-2.766,1.073-4.182
				c0.622-5.706-1.223-9.157-6.421-11.771c-1.705-0.857-2.712-1.938-2.82-3.831c-0.191-0.166-0.422-0.3-0.568-0.497
				c-3.84-5.151-8.424-5.767-13.589-1.797c-0.556,0.427-1.099,0.904-1.819,0.546c-3.521-1.741-6.535-0.67-9.348,1.623
				c0,0,0.021,0.016,0.02,0.014c-0.047,1.107-0.538,2.039-1.155,2.923c-3.604-1.608-7.256-2.834-11.236-1.382
				c-0.327,0.049-0.653,0.099-0.979,0.147c-0.681,0.115-1.359,0.23-2.038,0.345c-0.907,0.623-1.813,1.245-2.722,1.869h-0.002
				c-0.457,0.404-0.916,0.807-1.375,1.21c-1.778,1.998-3.957,2.774-6.648,2.513c-1.244-0.121-2.429,0.554-3.361,1.479
				c-0.129,0.064-0.216,0.164-0.262,0.302c-0.152,0.435-0.488,0.631-0.914,0.709c-2.597,1.999-3.156,4.917-3.441,7.896
				c-0.117,1.231-0.439,2.187-1.258,3.166C422.529,511.56,422.693,518.193,426.804,522.674z M492.18,530.427
				c0,0,0.004-0.002,0.005-0.002c-0.001,0.002-0.001,0.002-0.001,0.002H492.18z"/>
			<path fill-rule="evenodd" clip-rule="evenodd" fill="#464D4F" d="M477.848,520.185c0.943,2.15,2.82,2.566,4.777,2.614
				c1.546,0.037,2.871-0.56,3.895-2.656c-1.395,0.511-2.217,0.813-3.16,1.158c-0.34-1.266-0.258-2.241,0.859-2.947
				c0.508-0.321,1.096-0.739,0.871-1.387c-0.357-1.039-1.142-0.169-1.727-0.23c-0.586-0.064-1.182-0.172-1.76-0.118
				c-0.938,0.086-1.32,0.766-0.521,1.301c1.313,0.883,1.449,2.11,0.613,2.971c-0.85,0.877-1.78-0.383-2.654-0.775
				C478.746,519.982,478.475,519.727,477.848,520.185z"/>
			<path fill-rule="evenodd" clip-rule="evenodd" fill="#464D4F" d="M485.979,510.967c0.076,1.11,0.402,2.11,1.719,2.068
				c1.133-0.034,1.552-0.93,1.555-1.946c0.006-1.11-0.359-2.078-1.687-2.062C486.362,509.043,486.128,510.009,485.979,510.967z"/>
			<path fill-rule="evenodd" clip-rule="evenodd" fill="#464D4F" d="M475.91,513.102c1.135-0.139,1.686-0.81,1.717-1.878
				c0.033-1.096-0.204-2.122-1.546-2.208c-1.2-0.079-1.616,0.793-1.696,1.808C474.297,511.954,474.713,512.814,475.91,513.102z"/>
		</g>
	</g>
</g>
</svg>
