<?xml version="1.0" encoding="utf-8"?>
<!-- Generator: Adobe Illustrator 16.0.0, SVG Export Plug-In . SVG Version: 6.00 Build 0)  -->
<!DOCTYPE svg PUBLIC "-//W3C//DTD SVG 1.1//EN" "http://www.w3.org/Graphics/SVG/1.1/DTD/svg11.dtd">
<svg version="1.1" xmlns="http://www.w3.org/2000/svg" xmlns:xlink="http://www.w3.org/1999/xlink" x="0px" y="0px" width="442px"
	 height="464px" viewBox="0 0 442 464" enable-background="new 0 0 442 464" xml:space="preserve">
<g id="圖層_2" display="none">
</g>
<g id="圖層_1參考" display="none">
</g>
<g id="圖層_3">
</g>
<g id="圖層_4">
</g>
<g id="圖層_7">
</g>
<g id="圖層_6">
	<g>
		<defs>
			<rect id="SVGID_3_" x="481.063" width="442" height="464"/>
		</defs>
		<clipPath id="SVGID_2_">
			<use xlink:href="#SVGID_3_"  overflow="visible"/>
		</clipPath>
		<g clip-path="url(#SVGID_2_)">
			<path fill-rule="evenodd" clip-rule="evenodd" fill="#C5DAEE" d="M988.062,252.384c0,92.667-0.024,185.333,0.096,278
				c0.004,3.424-0.672,4.097-4.096,4.095c-185.334-0.106-370.666-0.106-556,0c-3.424,0.002-4.097-0.671-4.095-4.095
				c0.106-185.333,0.106-370.667,0-556c-0.002-3.424,0.671-4.097,4.095-4.095c185.334,0.107,370.666,0.107,556,0
				c3.424-0.002,4.1,0.671,4.096,4.095C988.037,67.05,988.062,159.717,988.062,252.384z M706.063,533.299
				c91.499,0,182.998,0.001,274.497-0.001c6.411,0,6.414-0.008,6.415-6.539c0.002-183-0.017-365.999,0.112-548.998
				c0.003-4.948-1.082-6.422-6.274-6.417c-182.999,0.146-365.998,0.122-548.997,0.124c-6.666,0-6.674,0.013-6.674,6.792
				c0,182.833,0,365.665,0.002,548.498c0,6.536,0.007,6.54,6.42,6.54C523.063,533.299,614.563,533.299,706.063,533.299z"/>
			<path fill-rule="evenodd" clip-rule="evenodd" fill="#FFFFFF" d="M706.063,533.299c-91.5,0-182.999,0-274.499-0.001
				c-6.413,0-6.42-0.004-6.42-6.54c-0.002-182.833-0.002-365.666-0.002-548.498c0-6.779,0.008-6.792,6.674-6.792
				c182.999-0.002,365.998,0.022,548.997-0.124c5.192-0.004,6.277,1.469,6.274,6.417c-0.129,182.999-0.11,365.999-0.112,548.998
				c-0.001,6.531-0.004,6.539-6.415,6.539C889.061,533.3,797.562,533.299,706.063,533.299z M624.87,381.284
				c0.57-0.352,1.14-0.704,1.71-1.056l0.148-0.008c5.989-2.701,12.31-1.061,18.466-1.272c8.297-0.285,8.295-0.041,8.746-8.026
				c0.084-1.483,0.299-2.958,0.453-4.437c1.266,0.29,1.716-0.722,2.346-1.46c13.838-16.252,22.5-35.464,31.244-54.63
				c3.085-6.764,4.559-14.241,9.133-20.348c6.715-8.967,13.328-18.025,24.197-22.522c0.15-0.062,0.29-0.173,0.404-0.291
				c0.85-0.871,2.775-1.306,1.787-3.011c-0.771-1.329-2.392-1.027-3.657-0.751c-2.999,0.656-5.28,2.711-7.815,4.269
				c-1.094,0.672-2.353,1.964-3.52,0.771c-1.34-1.369-0.141-2.749,0.827-3.917c3.172-3.832,6.366-7.644,9.521-11.491
				c0.928-1.133,2.334-2.483,1.033-3.895c-1.43-1.554-2.81-0.272-4.341,0.594c-2.119,1.198-2.796,4.538-6.588,4.29
				c2.175-3.123,4.118-5.753,5.866-8.507c0.639-1.008,1.984-2.274,0.619-3.532c-1.352-1.245-3.091-0.571-4.076,0.46
				c-2.049,2.146-3.809,4.575-5.6,6.955c-2.207,2.934-3.698,6.479-7.396,8.836c-0.499-3.298,1.493-5.146,2.49-7.298
				c1.323-2.854,2.829-5.625,4.295-8.411c0.479-0.91,1.057-1.845,0.132-2.695c-1.049-0.962-2.25-0.55-3.156,0.245
				c-0.857,0.753-1.57,1.706-2.218,2.659c-4.468,6.589-8.861,13.229-13.36,19.797c-3.837,5.6-5.979,5.517-9.057-0.313
				c-1.426-2.701-3.031-5.173-5.986-6.391c-0.918-0.379-2-0.753-2.764,0.167c-0.627,0.754,0.105,1.518,0.375,2.275
				c2.111,5.943,4.521,11.809,6.162,17.881c1.094,4.051,3.824,8.188,1.936,12.525c-4.794,11.004-12.537,20.085-19.877,29.409
				c-0.816-2.147-1.611-4.303-2.451-6.44c-3.235-8.227-6.485-16.447-9.729-24.68c2.896-5.515,4.02-11.476-0.641-16.125
				c-5.543-5.532-5.647-10.622-2.369-17.304c4.633-9.447,2.385-18.04-5.418-25.057c-2.338-2.103-4.595-4.296-6.889-6.448
				c0.346-5.818-0.098-11.682,1.02-17.455c5.694-11.668,1.949-27.087-8.621-37.204c-18.54-17.744-55.885-15.073-64.055,18.811
				c-1.863,7.727-4.904,14.266-11.948,18.73c-8.448,5.354-12.489,13.245-11.138,23.352c0.943,7.067-0.855,13.142-5.482,18.466
				c-10.428,11.998-10.495,25.593-6.151,39.87c-2.354,5.511-2.894,11.35-2.192,17.157c1.993,16.507,4.291,32.978,6.497,49.459
				c0.396,2.962,2.206,4.905,5.116,3.883c5.212-1.83,6.082,1.636,7.209,5.116c-0.703,2.167-0.131,4.262,0.344,6.368
				c1.096,4.848,2.496,9.654,3.189,14.56c1.558,10.999,4.023,21.815,6.092,32.712c0.582,3.072,2.313,4.591,5.467,4.593
				c4.321,0.002,8.643,0.092,12.964,0.145c0.451,0.203,0.901,0.583,1.354,0.584c16.149,0.045,32.316,0.534,48.44-0.096
				c10.965-0.429,21.837-0.631,32.81-0.043c6.025,0.323,12.241-0.433,18.363-0.803c2.425-0.147,3.618-2.491,3.765-4.662
				c0.196-2.893-2.343-2.01-4.004-2.294c-10.078-1.722-20.235-0.788-30.355-0.889c-13.371-0.132-14.91-1.768-13.484-15.231
				c0.127-1.191,0.127-2.317,1.423-2.93c0.599-0.283,1.315-1.005,0.466-1.441c-3.076-1.578-1.295-4.493-2.039-6.686
				c-0.25-0.565-0.499-1.13-0.748-1.695c0.273-1.122,0.547-2.245,0.82-3.367L624.87,381.284z M798.178,407.589
				c-0.379,1.412-0.759,2.823-1.138,4.235c-0.85,0.295-1.7,0.589-2.551,0.884c-13.307-0.093-26.612-0.221-39.919-0.244
				c-2.171-0.004-4.939,0.389-4.976,3.024c-0.038,2.855,1.924,4.868,5.146,4.976c0.498,0.017,0.998,0.021,1.498,0.021
				c15.922-0.019,31.845-0.04,47.768-0.06c0.666,0.171,1.332,0.343,1.999,0.515c0.778,0.827,1.565,1.882,2.243-0.081
				c4.918-0.001,9.834-0.002,14.751-0.003c2.956,3.055,5.995,0.537,9.002,0.134c0.363-0.073,0.726-0.146,1.089-0.22
				c8.486,1.476,17.078,0.229,25.526,1.173c-0.594-0.201-1.188-0.402-1.782-0.604c2.73-0.598,5.441-1.316,8.195-1.772
				c11.184-1.851,22.289-4.087,32.339-9.584c10.589-5.792,14.208-13.442,12.03-25.341c-5.723-31.275-12.635-62.302-20.075-93.207
				c-2.092-8.688-3.581-17.689-9.175-25.14c-0.848-5.312-3.477-7.652-8.818-7.855c-2.111-0.081-4.072-0.026-6.014-1.555
				c-3.881-3.057-8.419-3.475-13.422-3.596c-4.156-0.1-9.084-1.116-12.026-5.269c2.09-0.855,4.247-1.578,6.259-2.588
				c17.646-8.861,15.782-10.329,12.896-24.874c-3.764-18.975-10.859-36.492-23.937-51.336
				c-20.859-23.679-63.972-20.277-74.242,17.868c-7.304,27.129-3.129,53.374,6.222,79.204
				c-12.781,4.678-17.995,14.447-20.552,27.358c-5.745,29.02-10.278,58.221-14.844,87.428c-4.018,6.176-6.72,12.738-7.146,20.261
				c-0.412,7.279,2.863,11.695,10.79,13.451c8.784,1.946,14.663-0.617,16.999-7.414c5.613,1.508,5.635,1.509,5.76-4.388
				c0.041-1.96-0.162-3.954,1.574-5.404c0.649-0.075,1.297-0.168,1.947-0.223c1.434-0.12,3.34,0.241,3.805-1.471
				c0.517-1.907-1.408-2.646-2.652-3.664c-2.014-1.645-4.889-1.988-6.434-4.313c0.23-0.614,0.687-1.238,0.658-1.839
				c-0.271-5.634,2.814-6.938,7.827-6.801c9.078,0.249,18.169,0.038,27.253,0.06c2.109,0.005,4.443-0.322,5.343,2.422
				c-4.971,0.949-10.474,0.02-14.896,3.927c5.117,4.111,10.84,2.145,16.149,2.742c0.034,1.235,0.068,2.47,0.104,3.706
				c-4.594,1.456-9.484-0.686-14.072,1.194c-1.019,0.417-2.775,0.049-2.817,1.431c-0.054,1.748,1.901,1.284,2.994,1.825
				c4.272,2.114,9.032-1,13.358,1.422c-3.564,1.725-7.293,2.254-11.106,2.461c-1.016,0.055-2.271,0.387-2.403,1.416
				c-0.188,1.464,1.277,1.934,2.363,2.021c3.135,0.251,6.289,0.268,9.426,0.378C798.271,404.764,797.759,406.413,798.178,407.589z
				 M690.032,104.272C689.483,84.851,678,68.474,659.679,62.588c-17.495-5.621-33.541-2.294-46.667,11.339
				c-23.395,24.299-12.653,60.896,15.687,72.287c3.238,1.301,3.609,2.884,2.994,5.596c-0.289,1.275-1.262,2.837-0.087,3.747
				c1.573,1.218,2.735-0.674,3.792-1.449c3.012-2.205,5.273-4.881,9.853-4.847C670.118,149.445,689.892,129.347,690.032,104.272z
				 M758.974,153.097c1.943-8.37,1.945-8.355,10.367-9.808c1.14-0.197,2.27-0.543,3.355-0.95
				c18.771-7.034,29.744-20.428,31.18-40.475c1.205-16.836-7.256-33.752-25.102-42.288c-23.148-11.072-51.619-1.906-61.363,24.213
				c-8.086,21.677-0.047,44.731,21.814,55.669C746.413,143.054,755.714,143.302,758.974,153.097z"/>
		</g>
	</g>
	<g>
		<path fill="#1D2A57" d="M71.282,93.319c0.466-5.163,0.849-11.031,1.147-17.603l0.949-20.117c0.332-6.84,0.548-12.724,0.647-17.653
			c-1.505,0.939-2.651,1.668-3.437,2.188c-0.786,0.521-2.735,1.854-5.845,3.999c0.167-2.12,0.31-4.493,0.426-7.118
			c0.117-2.626,0.177-4.646,0.177-6.059c1.171-0.665,2.694-1.563,4.569-2.694s3.047-1.854,3.515-2.17
			c0.469-0.316,1.105-0.791,1.909-1.422c1.98,0.067,4.38,0.101,7.199,0.101c2.752,0,5.354-0.033,7.804-0.101l-0.55,6.84
			c-0.134,1.576-0.283,3.84-0.45,6.79l-1.999,39.983l-0.149,5.985c-0.034,1.241-0.051,2.498-0.051,3.772l0.051,5.281
			c-2.283-0.067-4.768-0.101-7.453-0.101C76.62,93.218,73.801,93.252,71.282,93.319z"/>
	</g>
	<g>
		<path fill-rule="evenodd" clip-rule="evenodd" fill="#1B305A" d="M289.521,246.115c-2.956,1.279-3.334,4.429-3.625,6.734
			c-0.733,5.772-3.88,10.036-7.196,14.348c-8.816-4.134-13.84-12.765-21.713-18.139c-14.839-10.131-30.581-17.022-48.913-16.589
			c-2.249-3.629-0.435-7.796-1.535-11.576c12.557-4.733,22.08-12.32,24.75-26.342c3.432-8.49,1.467-16.918-0.283-25.349
			c-1.552-11.603-2.896-23.383-14.74-29.804c-5.879-3.187-11.947-6.045-18.051-8.783c-2.021-0.907-3.496-0.014-5.671,1.604
			c-4.706,3.503-2.134,8.548-4.36,12.383c-5.385,9.268-12.244,17.04-21.807,21.968c-4.133,2.128-5.421,4.813-5.419,9.334
			c0.019,15.037,6.439,27.641,14.22,39.825c3.42,8.617,3.035,17.613,2.659,26.608c-1.524,18.217-13.075,28.301-32.677,30.518
			c-14.551,1.646-29.173,0.282-43.69,2.433c-11.37,1.686-21.443,5.234-29.007,14.278c-7.413-4.53-13.292-10.387-17.089-18.383
			c-4.028-8.483-3.752-17.397-3.499-26.373c1.42-5.664,2.84-11.328,4.26-16.99c6.472-6.443,9.778-15.119,15.539-22.066
			c3.252-2.889,6.115-6.112,8.41-9.82c6.769-7.394,12.396-15.479,15.268-25.232c7.131-10.414,5.447-23.653,11.073-34.605
			c1.337-2.602,2.37-5.332,4.251-7.621c1.236-1.621,2.473-3.243,3.709-4.865c13.759-18.064,29.74-31.55,54.713-26.756
			c1.52,0.291,3.242-0.071,4.797-0.44c21.194-5.038,41.051-3.416,58.281,11.533c2.982,3.666,5.964,7.33,8.946,10.995
			c12.947,28.048,28.311,54.785,44.104,81.289c0.208,0.847,0.416,1.694,0.627,2.541c1.25,3.686,2.499,7.372,3.749,11.058
			c0,0,0.045,0.19,0.045,0.189c-0.39,3.382,0.749,6.538,1.455,9.757C291.83,231.312,289.457,238.627,289.521,246.115z"/>
		<path fill-rule="evenodd" clip-rule="evenodd" fill="#C5DAEE" d="M380.223,256.181c-2.81-0.182-3.583,2.584-5.453,3.762
			c-1.598-0.252-2.408-1.467-3.238-2.658c-2.07-4.045-6.521-6.583-7.279-11.538c-0.068-0.439-2.069-0.953-3.084-0.811
			c-4.931,0.692-7.54-2.365-9.977-5.818c-0.7-1.937-1.561-3.831-2.077-5.814c-3.039-11.651,2.991-21.75,13.11-22.078
			c-1.957,3.401-4.399,6.62-5.757,10.244c-1.971,5.269-3.03,10.853,2.151,15.239c1.349,1.141,2.757,2.854,4.838,2.069
			c2.308-0.868,1.779-3.167,1.561-4.828c-1.004-7.573,1.454-14.042,5.669-20.135c2.807-4.057,5.041-8.113-3.011-8.654
			c-1.956-0.131-1.015-2.917-2.45-3.827c-0.945-3.089,0.301-4.204,3.405-4.188c14.665,0.072,29.334,0.002,43.999,0.1
			c1.539,0.011,4.286-0.529,3.426,2.673c-1.735,6.449,0.52,12.963-0.481,19.407c-0.061,8.465-0.125,16.929-0.183,25.394
			c0.047,0.957,0.096,1.914,0.144,2.872c-0.118,0.854-0.236,1.709-0.354,2.564c-2.851,1.827-3.999,5.938-8.125,6.05
			C398.112,256.195,389.168,256.188,380.223,256.181z"/>
		<path fill-rule="evenodd" clip-rule="evenodd" fill="#5C7499" d="M337.87,255.214c1.73-5.066,5.444-6.59,10.432-5.841
			c8.251,1.139,15.453,5.366,23.229,7.912c0.83,1.191,1.641,2.406,3.238,2.658c1.222,1.027,2.478,2.012,3.649,3.091
			c1.39,1.281,2.533,2.736,1.907,4.813c-0.788,2.623-3.005,1.613-4.659,1.623c-12.934,0.074-25.871,0.081-38.807,0.027
			c-1.707-0.008-4.385,1.181-4.137-2.397C333.24,262.618,336.361,259.266,337.87,255.214z"/>
		<path fill-rule="evenodd" clip-rule="evenodd" fill="#EDB18D" d="M213.782,407.021c-8.005,5.019-16.828,2.335-25.297,2.476
			c-3.238,0.054-1.957-3.512-2.533-5.519c0.354-6.894,2.388-13.653,1.62-20.643c-0.157-1.413,0.046-2.93,1.485-3.625
			c12.615-6.077,24.004-14.79,38.061-17.752c8.55,0.089,17.1,0.176,25.652,0.263c3.441,7.408-4.357,4.719-7.305,7.637
			c2.844,0.358,4.997,0.43,7.041,0.93c4.245,1.038,6.347,1.352,4.834,8.03c-1.22,5.376-6.59,7.951-6.188,13.723
			c0.165,2.37-4.049,2.937-6.466,2.865C232.738,395.049,223.55,401.758,213.782,407.021z"/>
		<path fill-rule="evenodd" clip-rule="evenodd" fill="#E2705E" d="M206.538,220.894c1.101,3.78-0.714,7.947,1.535,11.576
			c0.184,5.835-2.097,9.153-8.465,9.345c-3.594,0.108-7.179,1.157-10.721,1.979c-3.904,0.908-7.691,1.548-11.052-1.447
			c0.376-9.005,0.761-18.001-2.659-26.621C185.267,219.629,195.589,222.163,206.538,220.894z"/>
		<path fill-rule="evenodd" clip-rule="evenodd" fill="#E7E2E3" d="M252.771,362.221c-8.553-0.087-17.103-0.174-25.652-0.263
			C235.689,360.565,244.238,360.496,252.771,362.221z"/>
		<path fill-rule="evenodd" clip-rule="evenodd" fill="#EDB18D" d="M380.223,256.181c8.945,0.007,17.89,0.015,26.833,0.023
			C398.11,257.828,389.166,257.987,380.223,256.181z"/>
		<path fill-rule="evenodd" clip-rule="evenodd" fill="#EDB18D" d="M206.538,220.894c-10.949,1.269-21.271-1.264-31.361-5.168
			c-7.78-12.181-14.201-24.784-14.22-39.821c-0.002-4.521,1.286-7.206,5.419-9.334c9.563-4.928,16.422-12.7,21.807-21.968
			c2.227-3.834-0.346-8.879,4.36-12.383c2.175-1.617,3.65-2.511,5.671-1.604c6.104,2.738,12.172,5.597,18.051,8.783
			c11.844,6.421,13.188,18.201,14.738,29.787c-0.115,1.922-1.229,2.554-3.072,2.934c-4.486,0.925-5.176,4.542-5.482,8.376
			c-0.316,3.951,1.354,7.08,4.996,7.946c3.836,0.913,3.711,3.369,3.844,6.11C228.618,208.573,219.095,216.161,206.538,220.894z
			 M205.687,183.235c6.166-4.993-1.18-7.785-1.477-11.723c-1.287,4.221,2.754,7.559,1.521,11.771
			c-1.611,0.408-3.692-0.672-5.052,1.875C203.142,186.036,205.068,186.612,205.687,183.235z M183.396,186.08
			c0.21-5.733-3.112-9.721-8.713-9.433c-4.915,0.252-8.046,2.899-8.175,8.447c-0.135,5.909,3.162,8.94,8.336,9.042
			C179.581,194.229,183.259,191.621,183.396,186.08z M213.14,192.091c-5.572,5.103-11.684,4.505-18.059,1.763
			C202.087,200.531,207.456,200.036,213.14,192.091z M190.991,170.421c-5.162,3.631-10.459,1.027-16.025,0.734
			C179.382,175.818,186.704,175.515,190.991,170.421z"/>
		<path fill-rule="evenodd" clip-rule="evenodd" fill="#E2705E" d="M231.288,194.551c-0.133-2.742-0.008-5.197-3.844-6.11
			c-3.643-0.866-5.313-3.995-4.996-7.946c0.307-3.834,0.996-7.451,5.482-8.376c1.844-0.38,2.957-1.012,3.072-2.934
			C232.755,177.633,234.72,186.062,231.288,194.551z"/>
		<path fill-rule="evenodd" clip-rule="evenodd" fill="#EDB18D" d="M362.225,211.225c5.193-2.025,1.682-6.691,3.001-9.891
			c1.436,0.909,0.494,3.695,2.45,3.826c8.052,0.541,5.817,4.597,3.011,8.654c-4.215,6.094-6.673,12.562-5.669,20.135
			c0.219,1.661,0.747,3.96-1.561,4.828c-2.081,0.785-3.489-0.929-4.838-2.069c-5.182-4.387-4.122-9.971-2.151-15.239
			C357.825,217.844,360.268,214.626,362.225,211.225z"/>
		<path fill-rule="evenodd" clip-rule="evenodd" fill="#EDB18D" d="M415.574,219.324c5.536,0.298,8.941,1.306,7.483,8.75
			c-1.263,6.458-1.071,12.902-7.669,16.644C415.449,236.253,415.514,227.789,415.574,219.324z"/>
		<path fill-rule="evenodd" clip-rule="evenodd" fill="#EDB18D" d="M371.531,257.284c-7.776-2.545-14.979-6.772-23.229-7.912
			c2.005-3.125,2.432-6.694,2.89-10.255c2.437,3.453,5.046,6.511,9.977,5.818c1.015-0.143,3.016,0.372,3.084,0.811
			C365.01,250.701,369.461,253.239,371.531,257.284z"/>
		<path fill-rule="evenodd" clip-rule="evenodd" fill="#E2705E" d="M183.396,186.08c-0.138,5.542-3.815,8.149-8.552,8.056
			c-5.174-0.102-8.471-3.133-8.336-9.042c0.129-5.547,3.26-8.195,8.175-8.447C180.284,176.358,183.606,180.346,183.396,186.08z"/>
		<path fill-rule="evenodd" clip-rule="evenodd" fill="#E2705E" d="M213.14,192.091c-5.684,7.945-11.053,8.44-18.059,1.763
			C201.456,196.596,207.567,197.194,213.14,192.091z"/>
		<path fill-rule="evenodd" clip-rule="evenodd" fill="#1B305A" d="M190.991,170.421c-4.287,5.094-11.609,5.397-16.025,0.734
			C180.532,171.448,185.829,174.052,190.991,170.421z"/>
		<path fill-rule="evenodd" clip-rule="evenodd" fill="#1B305A" d="M224.172,165.149c-4.291,5.094-11.611,5.397-16.027,0.735
			C213.71,166.176,219.007,168.781,224.172,165.149z"/>
		<path fill-rule="evenodd" clip-rule="evenodd" fill="#E2705E" d="M205.731,183.283c1.232-4.213-2.809-7.551-1.521-11.771
			c0.297,3.938,7.643,6.73,1.477,11.723L205.731,183.283z"/>
		<path fill-rule="evenodd" clip-rule="evenodd" fill="#E2705E" d="M205.687,183.235c-0.618,3.377-2.545,2.801-5.007,1.924
			c1.359-2.548,3.44-1.467,5.052-1.875L205.687,183.235z"/>
		<path fill-rule="evenodd" clip-rule="evenodd" fill="#5C7499" d="M332.705,269.68l-31.592,31.971l-0.159,0.423
			c-0.354-2.852-1.35-5.557-3.371-8.237c-5.718-7.592-10.607-15.845-17.71-22.292c-1.606-1.455-1.056-2.839-1.174-4.349
			c-8.816-4.133-13.84-12.764-21.713-18.138c-14.839-10.131-30.581-17.022-48.91-16.587c0.181,5.833-2.1,9.151-8.468,9.343
			c-3.594,0.108-7.179,1.157-10.721,1.979c-3.904,0.908-7.691,1.548-11.052-1.447c-1.524,18.208-13.075,28.292-32.677,30.509
			c-14.551,1.646-29.173,0.282-43.69,2.433c-11.37,1.686-21.443,5.234-29.009,14.277c-3.961,7.039-7.918,14.078-11.877,21.116
			c-5.607,13.002-11.173,26.025-14.832,39.75c-4.66,17.481-8.887,34.978,1.174,52.14c3.771,4.063,7.467,8.23,12.159,11.173
			c16.498,0.69,33.009,1.669,49.573,2.799c17.999,0,36,0,54.002,0c-0.796-5.154,1.415-7.278,6.57-6.789
			c2.52,0.239,5.111-0.208,7.615,0.099c4.79,0.585,7.98-0.952,9.107-5.874c0.354-6.895,2.388-13.654,1.62-20.645
			c-0.157-1.413,0.046-2.93,1.485-3.625c12.615-6.077,24.004-14.79,38.067-17.754c8.564-1.391,17.113-1.46,25.646,0.265
			c3.441,7.408-4.357,4.719-7.305,7.637c2.844,0.358,4.997,0.43,7.041,0.93c4.245,1.038,6.347,1.352,4.834,8.03
			c-1.22,5.376-6.59,7.951-6.188,13.723c0.165,2.37-4.049,2.937-6.466,2.865c-11.949-0.355-21.138,6.353-30.905,11.617
			c1.27,2.998,3.885,2.784,6.473,2.78c16.035-0.022,32.075-0.231,48.1,0.106c0.751,0.016,1.396-0.026,1.961-0.109l43.006-2.399
			l37.269-1.396l29.633-136.323H332.705z"/>
	</g>
</g>
<g id="廣告圖1">
</g>
<g id="圖層_8">
</g>
</svg>
