<?xml version="1.0" encoding="utf-8"?>
<!-- Generator: Adobe Illustrator 16.0.0, SVG Export Plug-In . SVG Version: 6.00 Build 0)  -->
<!DOCTYPE svg PUBLIC "-//W3C//DTD SVG 1.1//EN" "http://www.w3.org/Graphics/SVG/1.1/DTD/svg11.dtd">
<svg version="1.1" xmlns="http://www.w3.org/2000/svg" xmlns:xlink="http://www.w3.org/1999/xlink" x="0px" y="0px" width="442px"
	 height="464px" viewBox="0 0 442 464" enable-background="new 0 0 442 464" xml:space="preserve">
<g id="圖層_2" display="none">
</g>
<g id="圖層_1參考" display="none">
</g>
<g id="圖層_3">
</g>
<g id="圖層_4">
</g>
<g id="圖層_7">
</g>
<g id="圖層_6">
	<g>
		<defs>
			<rect id="SVGID_1_" x="-487" width="442" height="464"/>
		</defs>
		<clipPath id="SVGID_2_">
			<use xlink:href="#SVGID_1_"  overflow="visible"/>
		</clipPath>
		<g clip-path="url(#SVGID_2_)">
			<rect x="-147.224" y="209.985" fill-rule="evenodd" clip-rule="evenodd" fill="#FFFFFF" width="148.056" height="134.94"/>
			<path fill-rule="evenodd" clip-rule="evenodd" fill="#C5DAEE" d="M19.999,252.384c0,92.667-0.025,185.333,0.095,278
				c0.004,3.424-0.671,4.097-4.095,4.095c-185.335-0.106-370.667-0.106-556,0c-3.425,0.002-4.097-0.671-4.095-4.095
				c0.106-185.333,0.106-370.667,0-556c-0.002-3.424,0.67-4.097,4.095-4.095c185.333,0.107,370.665,0.107,556,0
				c3.424-0.002,4.099,0.671,4.095,4.095C19.974,67.051,19.999,159.717,19.999,252.384z M-262,533.299
				c91.499,0,182.998,0.001,274.497-0.001c6.41,0,6.414-0.008,6.415-6.539c0.002-183-0.017-365.999,0.112-548.998
				c0.003-4.948-1.082-6.422-6.274-6.417c-182.999,0.146-365.998,0.122-548.998,0.124c-6.665,0-6.673,0.013-6.673,6.792
				c0,182.833,0,365.665,0.003,548.498c0,6.536,0.006,6.54,6.418,6.54C-445,533.299-353.5,533.299-262,533.299z"/>
			<path fill-rule="evenodd" clip-rule="evenodd" fill="#FFFFFF" d="M-262,533.299c-91.5,0-183,0-274.5-0.001
				c-6.412,0-6.418-0.004-6.418-6.54c-0.003-182.833-0.003-365.665-0.003-548.498c0-6.779,0.008-6.792,6.673-6.792
				c183-0.002,365.999,0.022,548.998-0.124c5.192-0.004,6.277,1.469,6.274,6.417c-0.129,182.999-0.11,365.999-0.112,548.998
				c-0.001,6.531-0.005,6.539-6.415,6.539C-79.002,533.3-170.501,533.299-262,533.299z M-343.192,381.284
				c0.569-0.352,1.14-0.704,1.71-1.056l0.148-0.008c5.988-2.701,12.31-1.061,18.466-1.272c8.297-0.285,8.295-0.041,8.746-8.026
				c0.083-1.483,0.298-2.958,0.453-4.437c1.266,0.29,1.716-0.722,2.345-1.46c13.838-16.252,22.5-35.464,31.244-54.63
				c3.086-6.764,4.561-14.241,9.133-20.349c6.716-8.967,13.328-18.025,24.198-22.522c0.15-0.062,0.29-0.173,0.403-0.291
				c0.85-0.871,2.775-1.305,1.787-3.011c-0.77-1.329-2.391-1.027-3.656-0.751c-2.999,0.656-5.281,2.711-7.816,4.269
				c-1.094,0.672-2.352,1.964-3.519,0.772c-1.341-1.369-0.142-2.749,0.827-3.917c3.172-3.832,6.366-7.644,9.521-11.491
				c0.926-1.133,2.333-2.483,1.032-3.895c-1.43-1.554-2.81-0.272-4.341,0.593c-2.119,1.199-2.796,4.538-6.588,4.29
				c2.174-3.123,4.119-5.753,5.866-8.507c0.638-1.008,1.983-2.274,0.619-3.532c-1.353-1.245-3.091-0.571-4.075,0.46
				c-2.051,2.146-3.81,4.575-5.601,6.955c-2.208,2.934-3.698,6.479-7.396,8.836c-0.499-3.298,1.492-5.146,2.49-7.298
				c1.322-2.854,2.829-5.625,4.295-8.411c0.479-0.91,1.057-1.845,0.132-2.695c-1.049-0.963-2.251-0.55-3.157,0.245
				c-0.856,0.753-1.569,1.706-2.217,2.659c-4.468,6.589-8.861,13.229-13.36,19.797c-3.837,5.6-5.978,5.517-9.058-0.313
				c-1.425-2.701-3.03-5.173-5.986-6.391c-0.917-0.378-2-0.752-2.763,0.167c-0.627,0.755,0.106,1.518,0.374,2.275
				c2.112,5.943,4.521,11.809,6.164,17.881c1.092,4.051,3.822,8.188,1.934,12.525c-4.793,11.004-12.536,20.085-19.877,29.409
				c-0.815-2.147-1.611-4.302-2.451-6.44c-3.234-8.227-6.484-16.447-9.728-24.68c2.896-5.515,4.02-11.476-0.641-16.125
				c-5.544-5.532-5.647-10.622-2.37-17.304c4.633-9.447,2.385-18.04-5.417-25.057c-2.338-2.103-4.595-4.296-6.89-6.447
				c0.346-5.818-0.097-11.682,1.021-17.455c5.693-11.668,1.948-27.087-8.623-37.204c-18.539-17.744-55.885-15.073-64.054,18.811
				c-1.862,7.727-4.905,14.266-11.948,18.73c-8.449,5.354-12.489,13.245-11.139,23.352c0.944,7.067-0.854,13.142-5.482,18.466
				c-10.427,11.997-10.494,25.593-6.15,39.87c-2.354,5.511-2.893,11.35-2.192,17.157c1.993,16.507,4.29,32.978,6.497,49.459
				c0.396,2.962,2.206,4.905,5.115,3.883c5.213-1.83,6.083,1.636,7.21,5.116c-0.703,2.167-0.131,4.262,0.343,6.368
				c1.097,4.848,2.496,9.654,3.19,14.56c1.558,10.999,4.024,21.815,6.092,32.712c0.581,3.072,2.313,4.591,5.466,4.593
				c4.322,0.002,8.644,0.092,12.965,0.145c0.451,0.203,0.901,0.583,1.354,0.584c16.15,0.045,32.316,0.534,48.441-0.096
				c10.964-0.429,21.836-0.631,32.809-0.043c6.025,0.323,12.241-0.433,18.363-0.803c2.425-0.147,3.619-2.491,3.764-4.662
				c0.197-2.893-2.342-2.01-4.004-2.294c-10.077-1.722-20.234-0.788-30.355-0.889c-13.369-0.132-14.908-1.768-13.483-15.231
				c0.126-1.191,0.126-2.317,1.423-2.93c0.599-0.283,1.315-1.005,0.466-1.441c-3.077-1.578-1.295-4.493-2.039-6.686
				c-0.251-0.565-0.499-1.13-0.748-1.695c0.273-1.122,0.546-2.245,0.82-3.367L-343.192,381.284z M-169.885,407.589
				c-0.379,1.412-0.759,2.823-1.138,4.235c-0.85,0.295-1.7,0.589-2.551,0.884c-13.308-0.093-26.612-0.221-39.919-0.244
				c-2.172-0.004-4.939,0.389-4.977,3.024c-0.037,2.855,1.924,4.868,5.146,4.976c0.498,0.017,0.998,0.021,1.498,0.021
				c15.922-0.019,31.846-0.04,47.768-0.06c0.666,0.171,1.333,0.343,2,0.515c0.777,0.827,1.564,1.882,2.244-0.081
				c4.918-0.001,9.834-0.002,14.75-0.003c2.955,3.055,5.995,0.537,9.002,0.134c0.363-0.073,0.725-0.146,1.089-0.22
				c8.485,1.476,17.077,0.229,25.526,1.173c-0.594-0.201-1.188-0.402-1.781-0.604c2.729-0.598,5.44-1.316,8.194-1.772
				c11.183-1.851,22.288-4.087,32.339-9.584c10.59-5.792,14.207-13.442,12.029-25.341c-5.722-31.275-12.634-62.302-20.074-93.207
				c-2.092-8.688-3.581-17.689-9.175-25.14c-0.849-5.312-3.478-7.652-8.818-7.855c-2.111-0.08-4.072-0.026-6.014-1.555
				c-3.881-3.057-8.419-3.475-13.423-3.596c-4.156-0.1-9.084-1.116-12.025-5.269c2.09-0.855,4.246-1.578,6.259-2.588
				c17.646-8.861,15.782-10.329,12.896-24.874c-3.763-18.975-10.857-36.492-23.936-51.336
				c-20.859-23.679-63.973-20.277-74.242,17.868c-7.303,27.129-3.129,53.374,6.221,79.204c-12.78,4.678-17.994,14.447-20.551,27.358
				c-5.746,29.02-10.278,58.221-14.844,87.428c-4.018,6.176-6.721,12.738-7.146,20.261c-0.412,7.279,2.862,11.695,10.79,13.451
				c8.784,1.946,14.662-0.617,16.998-7.414c5.614,1.508,5.636,1.509,5.761-4.388c0.04-1.96-0.163-3.954,1.574-5.404
				c0.649-0.075,1.297-0.168,1.947-0.223c1.434-0.12,3.34,0.241,3.805-1.471c0.517-1.907-1.408-2.646-2.651-3.664
				c-2.016-1.645-4.889-1.988-6.436-4.313c0.23-0.614,0.688-1.238,0.659-1.839c-0.271-5.634,2.813-6.938,7.827-6.801
				c9.078,0.249,18.168,0.038,27.252,0.06c2.11,0.005,4.443-0.322,5.344,2.422c-4.971,0.949-10.474,0.02-14.896,3.927
				c5.117,4.111,10.84,2.145,16.149,2.742c0.034,1.235,0.067,2.47,0.103,3.706c-4.593,1.456-9.483-0.686-14.071,1.194
				c-1.019,0.417-2.775,0.049-2.817,1.431c-0.054,1.748,1.901,1.284,2.994,1.825c4.271,2.114,9.031-1,13.358,1.422
				c-3.565,1.725-7.293,2.254-11.106,2.461c-1.016,0.055-2.271,0.387-2.403,1.416c-0.188,1.464,1.276,1.934,2.363,2.021
				c3.134,0.251,6.289,0.268,9.426,0.378C-169.791,404.764-170.305,406.413-169.885,407.589z M-278.031,104.272
				c-0.549-19.422-12.031-35.798-30.354-41.685c-17.494-5.621-33.541-2.294-46.666,11.339
				c-23.395,24.299-12.653,60.896,15.687,72.287c3.238,1.301,3.608,2.884,2.994,5.596c-0.29,1.275-1.263,2.837-0.087,3.747
				c1.572,1.218,2.735-0.674,3.792-1.448c3.012-2.206,5.273-4.882,9.853-4.848C-297.944,149.445-278.172,129.347-278.031,104.272z
				 M-209.089,153.097c1.944-8.369,1.945-8.355,10.367-9.808c1.14-0.196,2.27-0.543,3.354-0.95
				c18.772-7.034,29.744-20.428,31.182-40.475c1.203-16.836-7.258-33.752-25.103-42.288c-23.147-11.072-51.62-1.906-61.363,24.213
				c-8.087,21.677-0.048,44.731,21.814,55.669C-221.65,143.054-212.35,143.302-209.089,153.097z"/>
		</g>
	</g>
	<g>
		<g>
			<defs>
				<rect id="SVGID_11_" width="442" height="464"/>
			</defs>
			<clipPath id="SVGID_4_">
				<use xlink:href="#SVGID_11_"  overflow="visible"/>
			</clipPath>
			<g clip-path="url(#SVGID_4_)">
				<path fill-rule="evenodd" clip-rule="evenodd" fill="#ECC0C1" d="M226.739,265.963c-0.37,13.682-3.187,27.051-5.075,40.545
					c-2.708,19.357-6.572,38.499-10.678,57.573c-3.461,16.084-8.094,31.927-14.522,47.128c-1.393,3.292-2.96,6.307-2.291,9.969
					c-2.524-0.476-3.595,1.251-4.465,3.086c-1.07,2.26-2.763,3.91-4.745,5.32c-5.787,4.123-10.627,2.527-13.872-4.069
					c-3.173-6.453-5.601-13.189-8.309-19.822c-1.315-5.561-0.902-11.388-2.604-16.89c1.677-1.7-0.082-3.401,0-5.101
					c0.022-3.713,0.042-7.425,0.063-11.136c0.602-5.43,1.204-10.86,1.807-16.29c1.264-3.192,1.538-6.591,2.077-9.937
					c1.176,0.151,2.019,0.866,2.919,1.576c3.569,2.815,4.775,2.377,6.377-1.732c2.959-7.591,5.521-15.32,8.652-22.861
					c7.729-18.616,14.076-37.812,23.531-55.704c0.169-0.318-0.362-1.006-0.566-1.521c2.51-3.362-1.025-4.678-2.288-6.763
					c-3.292-5.159-6.585-10.317-9.877-15.475c-0.128-2.84-2.14-4.822-3.335-7.164c-3.4-6.661-3.202-8.786,1.671-14.177
					c0,0,0.228-0.139,0.224-0.142c1.516-0.717,3.036-1.431,4.558-2.145l-0.024,0.014c2.37-0.147,3.989-0.545,3.271-3.783
					c-2.792-12.591-2.67-21.816,0.187-33.703c1.212-5.029,2.128-10.154,4.176-15.092c7.718,9.257,12.62,11.209,19.081,7.249
					c-9.336,0.339-13.455-6.836-18.986-11.862c0.309-0.867,0.616-1.735,0.924-2.602c2.803-0.96,1.746-4.097,3.264-5.783
					c0.057-0.79,0.111-1.578,0.166-2.367c1.734-3.895,3.598-7.746,4.229-12.027c0.266-0.293,0.533-0.587,0.801-0.881l-0.021,0.034
					c3.015-5.927,7.983-8.453,14.486-8.436c3.563,0.01,7.094,0.382,10.528,1.219c8.375,2.042,16.703,4.26,25.053,6.406l-0.013-0.07
					c1.826,1.286,3.955,1.617,6.09,1.931c0,0,0.268-0.139,0.268-0.14c4.979,2.555,10.487,3.142,15.851,4.271
					c1.398,0.294,3.334-0.164,3.351,2.229c-0.088,0.335-0.179,0.669-0.265,1.004c-3.118,2.724-4.401,6.449-5.505,10.246
					c-2.072,7.118-2.721,14.432-2.41,21.792c0.284,6.777,0.971,13.559,3.961,19.793c1.043,2.175,1.76,4.952,5.01,5.063
					c1.891,2.666,3.637,0.03,4.799-0.609c2.574-1.412,4.486-0.996,6.413,0.725c1.739,1.552,2.23,2.954,1.21,5.645
					c-1.115,2.945-4.688,4.811-3.812,8.547c-0.615,1.614-1.82,2.533-3.462,2.937c-2.516-0.019-4.982,1.354-7.496,0.487
					c-2.096-0.724-3.366,0.079-4.786,1.532c-2.07,2.119-4.424,3.961-6.652,5.917c-7.565,5.599-15.589,10.24-24.853,12.571
					c-2.09,0.526-4.66,0.171-6.225,2.279c-4.479-0.94-8.988,0.329-13.491-0.228c-4.876-0.604-6.685,1.236-6.199,6.271
					C225.398,255.875,226.119,260.914,226.739,265.963z M226.51,208.298c-1.248-0.107-2.498-0.215-3.873-0.334
					c0.613,1.547,2.323,1.014,3.039,2.043c-1.347,2.453,0.225,4.068,1.782,5.481c4.001,3.629,12.078,0.46,13.693-5.299
					c1.551-0.766,3.104-1.533,4.654-2.299c-2.217,0.176-4.228,0.576-6.296,0.631C236.898,204.569,229.47,204.441,226.51,208.298z
					 M245.238,183.677c-0.087-0.177-0.172-0.354-0.257-0.532c-0.002,0.084-0.04,0.199,0,0.246c0.084,0.097,0.209,0.159,0.319,0.235
					c4.148,7.852,13.332,9.191,22.774,2.582C259.984,185.033,252.018,188.495,245.238,183.677z M251.253,163.505
					c5.478,0.477,10.367,2.859,15.153,5.563C263.282,163.551,256.949,161.314,251.253,163.505z M211.89,151.775
					c5.217,0.175,9.78,1.995,14.048,5.71C224.201,151.431,217.747,148.911,211.89,151.775z M298.441,207.954
					c-3.132-0.421-5.713,0.069-8.41,1.235c4.4-0.908,3.924,3.424,5.824,5.48c0.697-2.253-0.902-3.531-1.064-5.127
					C295.668,208.439,297.323,209.793,298.441,207.954z M224.812,195.438c0.577-0.219,2.525,0.594,2.081-1.158
					c-0.596-2.362-3.191-2.349-5.125-2.921c-0.789-0.232-1.857,0.021-1.586,1.223C220.688,194.817,222.176,195.832,224.812,195.438z
					"/>
				<path fill-rule="evenodd" clip-rule="evenodd" fill="#C5DAEE" d="M371.299,370.15c1.227-0.25,1.569-0.852,1.16-2.123
					c-3.62-11.19-7.49-22.313-10.666-33.63c-2.289-8.165-5.299-16.027-8.229-23.946c-6.202-16.766-16.224-29.255-35.186-31.928
					c-0.942-7.16-0.225-14.234,2.979-20.639c2.456-4.905,6.046-9.243,9.129-13.833c0.375-0.574,0.747-1.148,1.118-1.722
					c0.448-0.536,0.899-1.073,1.351-1.61c-0.061-1.608,1.514-2.199,2.112-3.396c2.602-1.18,1.809-4.311,3.463-6.036
					c0.236-0.088,0.363-0.257,0.376-0.508c2.881-4.836,4.118-10.201,5.039-15.667c0.036-1.115,0.075-2.23,0.113-3.347
					c1.085-0.997,0.792-2.362,0.85-3.574c0.55-11.742-0.255-23.406-2.839-34.868c-0.803-3.561-0.831-7.597-3.904-10.376
					c0.055-0.183,0.03-0.354-0.068-0.519c0.604-2.643-1.762-4.447-1.938-6.87c0.947,0.067,2.338-0.316,2.527,0.938
					c0.595,3.96,3.473,2.842,5.524,2.299c17.071-4.519,31.528,0.924,44.789,11.347c11.372,8.938,20.044,19.87,24.054,33.903
					c4.706,16.456,4.458,32.673-2.856,48.61c-4.643,10.117-10.481,19.486-15.971,29.106c-8.429,14.77-12.85,30.483-8.821,47.805
					c2.276,9.783,3.107,19.829,1.094,29.811c-1.454,7.22-5.714,13.099-10.167,18.765c-1.55,1.971-3.429,3.682-5.155,5.511
					c-2.12-3.251-3.296-6.767-2.958-10.699l0.038-0.03c0.828-0.416,1.292-1.079,1.362-2.008l0.019-0.019
					C370.313,370.919,370.921,370.79,371.299,370.15z"/>
				<path fill-rule="evenodd" clip-rule="evenodd" fill="#ECC0C1" d="M369.619,370.916c-0.07,0.929-0.534,1.592-1.36,2.006
					c0.002-0.002-0.04,0.032-0.04,0.032c-0.338,3.933,0.838,7.448,2.958,10.699c0.073,2.403,0.597,4.64,1.376,6.974
					c3.521,10.552,7.109,21.121,7.261,32.453c0.058,4.323-2.173,6.576-6.182,7.241c-2.778,0.462-5.602,0.902-8.403,0.906
					c-11.033,0.016-22.018,1.077-33.064,1.025c-22.498-0.104-44.992,1.261-67.496,0.621c-6.49-0.186-13.05-1.434-19.456-0.491
					c-9.146,1.346-18.282,1.483-27.465,1.568c-4.574,0.042-9.015-0.494-13.372-1.841c-1.611-3.307-1.986-7.376-5.667-9.41
					c-1.234-0.682-0.897-1.536-0.594-2.514c2.57-8.316,7.322-14.367,16.267-16.519c2.174-0.521,3.967-0.095,5.708,0.696
					c6.373,2.889,12.694,5.895,18.981,8.968c4.646,2.272,9.23,0.574,13.669-0.329c15.839-3.221,31.91-5.159,47.673-8.797
					c5.055-1.167,10.252-1.727,15.396-2.465c1.806-0.259,2.504-0.979,2.819-2.91c1.313-8.03,0.331-16.099,0.713-24.136
					c0.055-1.131,0.007-2.266,0.044-3.397c0.022-0.691-0.01-1.54,0.881-1.685c0.791-0.129,1.319,0.479,1.537,1.171
					c0.635,2.01,1.195,4.043,1.782,6.067c-2.195-1.497-3.524-1.805-3.421,1.744c0.186,6.334,0.09,12.68-0.008,19.018
					c-0.037,2.386,0.992,3.881,3.184,2.859c2.525-1.178,5.05-1.337,7.681-1.648c2.356-0.279,3.966-1.007,3.064-4.392
					c-0.913-3.43-3.66-6.09-3.651-9.781c7.084-2.555,14.082-5.392,21.277-7.58C357.764,375.228,363.659,372.993,369.619,370.916z"/>
				<path fill-rule="evenodd" clip-rule="evenodd" fill="#C5DAEE" d="M149.587,127.062c1.933,1.912,4.479,2.813,6.825,4
					c5.92,2.991,6.59,7.418,2.119,12.227c-4.016,4.32-8.879,7.216-14.17,9.473c-3.889,1.659-7.344,4.071-9.697,7.341
					c-7.809,10.844-24.686,11.428-34.876,8.244c-7.745-2.421-14.241-6.925-20.029-12.233c-5.219-4.787-9.008-10.561-7.481-18.579
					c1.36-7.151,6.346-9.419,12.365-10.979c3.875-1.005,7.959-1.048,11.344-4.041c2.165-1.914,3.049-3.629,3.004-6.41
					c-0.043-2.76-0.821-5.65,0.657-8.312c0.255,3.381-0.331,6.791,0.504,10.157c3.256,13.109,12.507,20.994,23.553,27.45
					c2.518,1.472,4.296,0.953,6.524-0.462C137.78,140.142,144.232,134.21,149.587,127.062z"/>
				<path fill-rule="evenodd" clip-rule="evenodd" fill="#E7899C" d="M149.587,127.062c-5.354,7.149-11.807,13.08-19.358,17.875
					c-2.229,1.416-4.007,1.935-6.524,0.462c-11.046-6.456-20.297-14.34-23.553-27.45c-0.835-3.366-0.249-6.776-0.504-10.157
					c2.996-8.332,8.057-11.862,14.672-9.81c3.978,1.232,7.232,3.874,9.764,7.161c1.558,2.024,2.616,2.135,4.233,0.162
					c1.247-1.52,2.692-2.943,4.268-4.114c3.881-2.881,8.08-4.81,13.013-2.767c5.053,2.09,6.886,6.46,7.625,11.417
					c0.646,4.318-0.413,8.42-2.025,12.415C150.564,123.82,150.117,125.458,149.587,127.062z"/>
				<path fill-rule="evenodd" clip-rule="evenodd" fill="#C5DAEE" d="M109.363,239.939c-0.533-0.21-0.959-0.075-1.274,0.401
					c-6.784,1.585-12.952,4.716-19.04,7.93c-4.593,2.423-9.182,5.001-12.457,9.262l0.053-0.027c-0.979,1.055-1.776,2.31-3.186,2.889
					c3.221-7.979,3.111-16.874,7.7-24.599c8.501-14.31,20.776-22.682,36.912-25.79c6.628-1.276,13.241-2.636,19.892-3.767
					c4.979-0.846,3.724-5.397,5.133-8.314c0.563-1.166,0.172-2.792,0.215-4.208c2.264,3.751,3.385,7.974,4.949,12.013
					c-0.008,1.948-0.016,3.894-0.023,5.842c-1.479,4.901-4.539,8.831-7.76,12.664c-0.27,0.2-0.541,0.4-0.811,0.598
					c-7.51,4.077-14.763,8.644-22.854,11.618C114.261,237.389,111.359,237.754,109.363,239.939z"/>
				<path fill-rule="evenodd" clip-rule="evenodd" fill="#C5DAEE" d="M160.179,388.804c1.701,5.502,1.288,11.329,2.604,16.89
					c-9.603,0.87-18.923-0.623-27.835-4.07c-5.758-2.228-11.239-5.244-15.425-9.996c-1.974-2.243-4.683-2.394-7.21-3.151
					c1.406-1.025,2.811-2.051,4.215-3.076c2.212-2.391,5.857-1.988,8.168-4.184c5.953-2.241,12.05-2.484,18.244-1.266
					c0.604,0.135,1.206,0.271,1.807,0.405c3.254,1.52,6.511,3.04,9.768,4.559c0,0,0.246,0.083,0.246,0.079
					C156.566,386.262,158.374,387.533,160.179,388.804z"/>
				<path fill-rule="evenodd" clip-rule="evenodd" fill="#244271" d="M73.361,261.257c0.179,3.175-0.979,5.869-2.344,8.729
					c-2.252,4.711-1.34,9.929-0.559,14.858c1.043,6.589,3.01,12.972,5.889,19.043c0.605,1.278,0.85,2.701-0.331,3.913
					c-1.508-0.99-1.68-2.798-2.554-4.174c-0.14-1.868-0.698-3.604-1.629-5.225l0.018-0.055c-1.563-7.836-3.256-15.653-3.577-23.678
					c0.514-4.105,1.72-8.008,3.473-11.748c0.392-0.56,0.784-1.119,1.177-1.678C73.07,261.218,73.217,261.223,73.361,261.257z"/>
				<path fill-rule="evenodd" clip-rule="evenodd" fill="#DFE6EF" d="M68.274,274.669c0.321,8.025,2.015,15.842,3.577,23.678
					c-5.628-0.829-5.644-1.062-5.299-6.674c0.271-4.423-0.004-8.878,0.049-13.318C66.619,276.94,65.955,275.09,68.274,274.669z"/>
				<path fill-rule="evenodd" clip-rule="evenodd" fill="#DFE6EF" d="M86.93,392.426c1.17,0.149,2.338,0.298,3.508,0.446
					c2.857,0.552,5.72,0.664,8.585,0.069c1.942-0.302,3.887-0.604,5.831-0.906c-1.053,2.301-2.713,4.501-5.004,5
					c-2.947,0.642-6.177,0.486-9.207,0.084C88.329,396.811,88.939,393.424,86.93,392.426z"/>
				<path fill-rule="evenodd" clip-rule="evenodd" fill="#244271" d="M104.854,392.035c-1.944,0.303-3.889,0.604-5.831,0.906
					c0.531-2.722,2.792-2.163,4.649-2.571c3.541-0.78,6.592-2.694,9.379-4.905c1.348-1.069,2.316-0.527,3.477-0.066
					c-1.404,1.026-2.809,2.051-4.215,3.077c0-0.001-0.041,0.058-0.04,0.058c-1.276,0.315-2.452,0.813-3.345,1.828
					C107.569,390.92,106.211,391.478,104.854,392.035z"/>
				<path fill-rule="evenodd" clip-rule="evenodd" fill="#244271" d="M73.459,260.394c1.409-0.579,2.207-1.834,3.186-2.889
					c0.59,1.95,1.305,3.875,1.722,5.862c0.214,1.019,0.264,2.406-1.313,2.637c-1.509,0.221-1.909-0.769-1.944-2.06
					c-0.033-1.231,0.205-2.652-1.637-2.863C73.438,260.853,73.433,260.624,73.459,260.394z"/>
				<path fill-rule="evenodd" clip-rule="evenodd" fill="#DFE6EF" d="M150.938,155.563c-3.28,2.125-5.946,4.923-8.522,7.819
					C143.088,157.746,145.57,155.469,150.938,155.563z"/>
				<path fill-rule="evenodd" clip-rule="evenodd" fill="#DFE6EF" d="M66.685,376.537c2.071,2.225,4.098,4.483,5.563,7.178
					C68.146,383.065,65.369,381.387,66.685,376.537z"/>
				<path fill-rule="evenodd" clip-rule="evenodd" fill="#DFE6EF" d="M73.296,384.766c1.731,1.325,3.46,2.649,5.191,3.975
					C75.806,390.38,73.867,388.896,73.296,384.766z"/>
				<path fill-rule="evenodd" clip-rule="evenodd" fill="#DFE6EF" d="M108.928,390.362c0.893-1.016,2.068-1.513,3.345-1.828
					C112.337,391.303,110.305,390.234,108.928,390.362z"/>
				<path fill-rule="evenodd" clip-rule="evenodd" fill="#DFE6EF" d="M72.924,261.243c-0.393,0.56-0.785,1.119-1.177,1.678
					c-0.302-0.566-0.601-1.132-0.899-1.698C71.539,261.229,72.23,261.236,72.924,261.243z"/>
				<path fill-rule="evenodd" clip-rule="evenodd" fill="#244271" d="M202.816,124.983c0.518-0.092,1.035-0.184,1.552-0.275
					c0.183,1.396-0.403,1.616-1.536,1.004C202.799,125.469,202.795,125.226,202.816,124.983z"/>
				<path fill-rule="evenodd" clip-rule="evenodd" fill="#ECC0C1" d="M281.389,267.81c-2.879,2.672-4.95,6.096-8.221,8.432
					c-7.029,5.017-20.78,6.281-27.892-1.831c-2.243-2.558-2.118-6.125-4.607-8.363c2.053-3.17,0.601-7.283,2.801-10.411
					c2.229,0.525,4.511,0.65,6.672-0.041c11.38-3.647,20.693-9.867,25.814-21.168c1.503,2.703,0.15,6.28,2.661,8.674
					c-0.061,0.718-0.121,1.436-0.181,2.15C278.513,252.888,280.113,260.327,281.389,267.81z"/>
				<path fill-rule="evenodd" clip-rule="evenodd" fill="#354966" d="M203.695,163.056c5.531,5.028,9.65,12.203,18.986,11.864
					c-6.461,3.96-11.363,2.008-19.081-7.249c-2.048,4.938-2.964,10.063-4.176,15.092c-2.856,11.886-2.979,21.112-0.187,33.703
					c0.718,3.238-0.901,3.636-3.271,3.783c-0.007-10.343-0.011-20.687-0.024-31.029c-0.003-1.727,0.626-3.984-2.577-3.165
					c-0.551,0.141-1.028-0.141-1.242-0.817c-1.053-3.317-3.827-6.223-2.393-10.127c0.371,0.411,0.743,0.821,1.117,1.232
					c0.113,0.277,0.227,0.555,0.338,0.832l0.113-0.055c0.354,0.174,0.861,0.255,1.035,0.54c1.021,1.655,1.938,3.826,4.297,3.07
					c2.175-0.696,2.49-2.783,2.843-5.029C200.164,171.308,201.173,166.896,203.695,163.056z"/>
				<path fill-rule="evenodd" clip-rule="evenodd" fill="#354966" d="M163.747,314.818c-0.481,4.284-3.034,7.766-4.568,11.639
					c-1.716,4.328-3.784,8.515-5.7,12.762c-1.241,0.135-2.52,0.479-3.596-0.636c6.449-6.383,8.479-13.973,6.229-22.746
					c0.229-0.059,0.564-0.262,0.734-0.167C158.48,316.58,162.334,316.129,163.747,314.818z"/>
				<path fill-rule="evenodd" clip-rule="evenodd" fill="#244271" d="M278.617,243.102c-2.511-2.394-1.158-5.971-2.661-8.671
					c-0.094-1.501-0.188-3.004-0.284-4.507c2.231-1.96,4.585-3.803,6.655-5.921c1.42-1.454,2.69-2.256,4.786-1.532
					c2.514,0.866,4.98-0.506,7.496-0.487c-1.29,2.674-3.955,2.409-6.092,2.335c-6.793-0.235-12.828,8-10.02,14.113
					C279.246,240.06,279.914,241.505,278.617,243.102z"/>
				<path fill-rule="evenodd" clip-rule="evenodd" fill="#354966" d="M205.039,266.1c-7.555,0.137-13.867,3.069-19.037,8.52
					c-0.854,0.902-1.393,2.137-2.776,2.42c-0.15-3.337,1.757-5.803,4.212-7.336c3.101-1.935,6.354-3.708,10.353-3.867
					c3.712-0.149,5.972-2.299,4.961-6.499C204.014,261.422,207.549,262.738,205.039,266.1z"/>
				<path fill-rule="evenodd" clip-rule="evenodd" fill="#DFE6EF" d="M289.461,204.738c2.924-2.372,6.401-2.578,9.929-2.47
					c2.671,0.08,3.882,1.89,4.608,4.174c0.467,5.35-2.449,9.11-5.927,12.606c-0.876-3.738,2.696-5.603,3.812-8.548
					c1.021-2.691,0.529-4.093-1.21-5.645c-1.927-1.721-3.839-2.137-6.413-0.725C293.098,204.768,291.352,207.404,289.461,204.738z"
					/>
				<path fill-rule="evenodd" clip-rule="evenodd" fill="#244271" d="M191.21,222.521c-4.873,5.391-5.071,7.516-1.671,14.177
					c1.195,2.342,3.207,4.323,3.335,7.164c-2.289-0.231-3.519-1.543-3.736-3.783c-0.106-1.112-0.419-1.934-1.688-2.017
					c-0.131-0.618-0.261-1.235-0.39-1.853c-0.11,0.074-0.289,0.126-0.321,0.225c-0.235,0.731,0.024,1.277,0.673,1.66
					c-2.939,0.493-2.629-1.834-2.306-3.234c0.548-2.364,0.356-4.644,0.394-6.995C185.554,224.476,187.729,222.622,191.21,222.521z"
					/>
				<path fill-rule="evenodd" clip-rule="evenodd" fill="#244271" d="M281.389,267.81c-1.275-7.482-2.876-14.922-2.952-22.558
					c2.678,6.021,2.325,12.721,4.23,18.933c0.511,1.66,1.387,2.334,2.761,2.707c1.07,0.291,2.336,0.163,2.418,1.757
					C285.572,269.293,283.635,267.369,281.389,267.81z"/>
				<path fill-rule="evenodd" clip-rule="evenodd" fill="#244271" d="M142.939,379.95c-6.194-1.219-12.291-0.976-18.244,1.266
					c1.258-3.277-3.168-1.55-3.289-4.095c1.961,0.461,3.705-1.553,5.893,1.048c0.976,1.161,4.52,0.198,6.896,0.138
					C137.234,378.231,140.388,377.467,142.939,379.95z"/>
				<path fill-rule="evenodd" clip-rule="evenodd" fill="#244271" d="M288.67,146.84c-0.017-2.393-1.952-1.935-3.351-2.229
					c-5.363-1.129-10.872-1.716-15.851-4.271c2.745-0.478,4.935-1.08,7.934,1.126c2.189,1.609,6.58,0.982,9.945,1.999
					C289.732,144.186,290.204,144.93,288.67,146.84z"/>
				<path fill-rule="evenodd" clip-rule="evenodd" fill="#DFE6EF" d="M190.848,176.343c-0.374-0.411-0.746-0.822-1.117-1.232
					c0.002-0.001-0.053,0.078-0.053,0.078c-0.022-2.354-0.04-4.706-0.055-7.059c0.43-1.383,0.859-2.767,1.289-4.15
					c0.831-1.117,1.662-2.234,2.494-3.351l-0.041-0.046c0.576,1.668-1.138,2.565-1.34,3.971
					C190.021,168.322,190.598,172.348,190.848,176.343z"/>
				<path fill-rule="evenodd" clip-rule="evenodd" fill="#DFE6EF" d="M208.049,152.305c-0.055,0.789-0.109,1.578-0.166,2.367
					c-5.213-0.969-9.135,1.258-12.437,5.021c-0.204,0.09-0.337,0.24-0.402,0.452c-0.594,0.018-0.878,1.22-1.679,0.438l0.041,0.046
					c0.134-0.379,0.267-0.758,0.402-1.136c0,0,0.141-0.207,0.138-0.208c0.218-0.227,0.438-0.453,0.659-0.678l0.199-0.174
					c0.709-0.646,1.42-1.291,2.131-1.938l-0.006,0.009c2.693-1.197,5.385-2.394,8.078-3.592
					C206.187,153.536,207.018,152.418,208.049,152.305z"/>
				<path fill-rule="evenodd" clip-rule="evenodd" fill="#244271" d="M162.049,356.278c-0.603,5.43-1.205,10.86-1.807,16.29
					c-1.172-0.979-1.666-2.49-1.37-3.72c0.849-3.53,1.511-7.042,1.358-10.687C160.179,356.958,160.99,356.47,162.049,356.278z"/>
				<path fill-rule="evenodd" clip-rule="evenodd" fill="#244271" d="M205.008,152.912c-2.693,1.198-5.385,2.396-8.078,3.592
					c-0.168-2.203,1.065-3.743,2.973-4.024c2.168-0.318,2.923-1.656,3.429-3.678C204.717,150.204,204.924,151.535,205.008,152.912z"
					/>
				<path fill-rule="evenodd" clip-rule="evenodd" fill="#244271" d="M343.946,215.112c-0.921,5.466-2.158,10.831-5.039,15.667
					c-1.385-3.875,1.386-6.95,2.566-10.09C342.129,218.954,340.841,215.826,343.946,215.112z"/>
				<path fill-rule="evenodd" clip-rule="evenodd" fill="#244271" d="M154.514,384.914c-3.257-1.52-6.514-3.039-9.768-4.559
					C148.821,380.118,152.996,379.67,154.514,384.914z"/>
				<path fill-rule="evenodd" clip-rule="evenodd" fill="#244271" d="M338.531,231.287c-1.654,1.725-0.861,4.855-3.463,6.036
					C333.949,231.761,334.707,230.44,338.531,231.287z"/>
				<path fill-rule="evenodd" clip-rule="evenodd" fill="#244271" d="M193.809,159.492c-0.136,0.378-0.269,0.757-0.402,1.136
					c-0.832,1.117-1.663,2.234-2.494,3.351c-2.684-0.452-2.045-2.61-1.46-3.886C190.344,158.158,192.23,158.938,193.809,159.492z"/>
				<path fill-rule="evenodd" clip-rule="evenodd" fill="#244271" d="M141.089,375.979c2.851-1.121,4.759-1.171,7.562,0.02
					C145.85,377.12,143.941,377.071,141.089,375.979z"/>
				<path fill-rule="evenodd" clip-rule="evenodd" fill="#244271" d="M269.201,140.481c-2.135-0.314-4.264-0.645-6.09-1.931
					C265.189,139.044,268.109,136.881,269.201,140.481z"/>
				<path fill-rule="evenodd" clip-rule="evenodd" fill="#244271" d="M195.991,220.235c-1.521,0.714-3.042,1.428-4.558,2.145
					C191.752,220.164,191.752,220.164,195.991,220.235z"/>
				<path fill-rule="evenodd" clip-rule="evenodd" fill="#244271" d="M189.623,168.129c0.015,2.353,0.032,4.705,0.052,7.058
					C187.434,172.853,187.521,170.499,189.623,168.129z"/>
				<path fill-rule="evenodd" clip-rule="evenodd" fill="#244271" d="M196.936,156.495c-0.711,0.646-1.422,1.292-2.131,1.938
					C193.929,156.041,195.605,156.46,196.936,156.495z"/>
				<path fill-rule="evenodd" clip-rule="evenodd" fill="#244271" d="M332.956,240.719c-0.451,0.537-0.902,1.074-1.351,1.61
					c-0.563-0.227-1.102-0.737-0.607-1.178C331.434,240.763,332.286,240.844,332.956,240.719z"/>
				<path fill-rule="evenodd" clip-rule="evenodd" fill="#244271" d="M292.004,269.823c-0.826-0.088-1.65-0.177-2.479-0.265
					C290.543,267.859,291.398,267.658,292.004,269.823z"/>
				<path fill-rule="evenodd" clip-rule="evenodd" fill="#244271" d="M209.414,117.293c-0.677-0.753,0.048-1.009,0.482-1.368
					C210.182,116.537,209.932,116.962,209.414,117.293z"/>
				<path fill-rule="evenodd" clip-rule="evenodd" fill="#244271" d="M213.078,139.397c-0.268,0.294-0.535,0.588-0.801,0.881
					C212.545,139.984,212.811,139.69,213.078,139.397z"/>
				<path fill-rule="evenodd" clip-rule="evenodd" fill="#244271" d="M214.367,111.419c0.348-0.154,0.696-0.308,1.044-0.462
					C215.236,111.503,214.963,111.828,214.367,111.419z"/>
				<path fill-rule="evenodd" clip-rule="evenodd" fill="#244271" d="M194.605,158.606c-0.221,0.225-0.441,0.451-0.659,0.678
					C193.667,158.576,193.912,158.374,194.605,158.606z"/>
				<path fill-rule="evenodd" clip-rule="evenodd" fill="#DFE6EF" d="M330.434,384.65c-0.009,3.691,2.738,6.352,3.651,9.781
					c0.901,3.384-0.708,4.112-3.064,4.392c-2.631,0.311-5.155,0.471-7.681,1.648c-2.191,1.022-3.221-0.473-3.184-2.859
					c0.098-6.338,0.193-12.683,0.008-19.018c-0.104-3.549,1.226-3.241,3.421-1.744c0.92,2.855,0.437,6.479,4.256,7.738
					c0.292,0.504,0.611,0.554,0.968,0.064C329.35,384.651,329.893,384.65,330.434,384.65z"/>
				<path fill-rule="evenodd" clip-rule="evenodd" fill="#244271" d="M242.766,283.188c9.394,5.138,19.177,6.363,29.442,2.76
					c-8.521,4.856-22.558,3.478-29.481-2.712L242.766,283.188z"/>
				<path fill-rule="evenodd" clip-rule="evenodd" fill="#244271" d="M321.959,285.78c-2.359,5.35-5.459,10.406-6.637,16.223
					c0.914-5.925,2.439-11.611,6.588-16.274L321.959,285.78z"/>
				<path fill-rule="evenodd" clip-rule="evenodd" fill="#244271" d="M319.171,353.18c0.249,3.585,0.498,7.17,0.745,10.755
					C318.166,360.472,319.061,356.793,319.171,353.18z"/>
				<path fill-rule="evenodd" clip-rule="evenodd" fill="#244271" d="M246.166,364.07c-3.194-1.368-6.06-3.443-9.352-4.604
					c3.398,0.935,6.998,1.439,9.373,4.579L246.166,364.07z"/>
				<path fill-rule="evenodd" clip-rule="evenodd" fill="#244271" d="M246.188,364.044c1.368-0.108,2.35,0.673,3.915,1.826
					c-2.017-0.111-2.989-0.925-3.937-1.8L246.188,364.044z"/>
				<path fill-rule="evenodd" clip-rule="evenodd" fill="#244271" d="M235.096,274.686c0.48,0.633,0.962,1.265,1.443,1.897
					c-1.23-0.155-1.468-0.949-1.416-1.92L235.096,274.686z"/>
				<path fill-rule="evenodd" clip-rule="evenodd" fill="#ECC0C1" d="M371.299,370.15c-0.378,0.64-0.985,0.769-1.661,0.747
					C369.965,370.144,370.585,370.042,371.299,370.15z"/>
				<path fill-rule="evenodd" clip-rule="evenodd" fill="#244271" d="M242.727,283.236c-0.727,0.023-1.331-0.183-1.674-0.885
					l0.019-0.018c0.741-0.064,1.424-0.012,1.694,0.855L242.727,283.236z"/>
				<path fill-rule="evenodd" clip-rule="evenodd" fill="#244271" d="M322.737,284.856c-0.073-0.751,0.214-1.307,0.89-1.651
					l-0.023-0.023c0.006,0.707-0.012,1.402-0.809,1.736L322.737,284.856z"/>
				<path fill-rule="evenodd" clip-rule="evenodd" fill="#244271" d="M275.119,284.905c-0.313,0.217-0.625,0.433-0.938,0.65
					c-0.094-0.158-0.188-0.316-0.28-0.474c0.396-0.068,0.793-0.135,1.188-0.203L275.119,284.905z"/>
				<polygon fill-rule="evenodd" clip-rule="evenodd" fill="#244271" points="323.627,283.206 323.76,283.089 323.604,283.182 				
					"/>
				<path fill-rule="evenodd" clip-rule="evenodd" fill="#244271" d="M277.169,283.788c-0.08-0.076-0.16-0.151-0.239-0.225
					c0.09-0.061,0.188-0.175,0.27-0.167c0.083,0.009,0.155,0.141,0.23,0.218C277.34,283.675,277.248,283.736,277.169,283.788z"/>
				<path fill-rule="evenodd" clip-rule="evenodd" fill="#244271" d="M275.089,284.878c0.146-0.207,0.288-0.413,0.432-0.62
					c0.679,0.72-0.274,0.428-0.401,0.646L275.089,284.878z"/>
				<path fill-rule="evenodd" clip-rule="evenodd" fill="#244271" d="M321.91,285.729c0.051-0.503,0.23-0.886,0.827-0.873
					l0.058,0.062c-0.058,0.501-0.248,0.875-0.836,0.862L321.91,285.729z"/>
				<path fill-rule="evenodd" clip-rule="evenodd" fill="#ECC0C1" d="M328.809,384.652c-0.356,0.49-0.676,0.44-0.968-0.064
					C328.164,384.61,328.485,384.63,328.809,384.652z"/>
				<polygon fill-rule="evenodd" clip-rule="evenodd" fill="#244271" points="237.272,278.194 237.39,278.519 237.115,278.502 				
					"/>
				<path fill-rule="evenodd" clip-rule="evenodd" fill="#244271" d="M241.053,282.351c-0.287-0.283-0.57-0.566-0.855-0.849
					l0.047-0.045c0.568,0.018,0.822,0.328,0.827,0.876L241.053,282.351z"/>
				<path fill-rule="evenodd" clip-rule="evenodd" fill="#244271" d="M239.347,280.658c-0.218-0.147-0.433-0.294-0.647-0.441
					c0.63-0.537,0.615,0.002,0.68,0.408L239.347,280.658z"/>
				<path fill-rule="evenodd" clip-rule="evenodd" fill="#244271" d="M240.197,281.502c-0.285-0.282-0.567-0.563-0.852-0.843
					c0.001-0.001,0.033-0.034,0.033-0.034c0.488,0.07,0.863,0.258,0.865,0.832L240.197,281.502z"/>
				<path fill-rule="evenodd" clip-rule="evenodd" fill="#E7899C" d="M244.574,245.816c0.006-0.349,0.014-0.698,0.021-1.048
					c1.566-2.107,4.137-1.752,6.227-2.278c9.264-2.331,17.287-6.972,24.853-12.571c0.093,1.507,0.188,3.01,0.281,4.511
					c-5.121,11.298-14.435,17.518-25.814,21.165c-2.161,0.691-4.442,0.566-6.672,0.041c0.128-2.694,0.25-5.386,0.374-8.079
					C244.746,247.253,244.762,246.578,244.574,245.816z"/>
				<g>
					<path fill-rule="evenodd" clip-rule="evenodd" fill="#354966" d="M73.463,303.627c-0.14-1.868-0.698-3.604-1.629-5.225
						C72.086,300.234,70.289,302.706,73.463,303.627z"/>
					<path fill-rule="evenodd" clip-rule="evenodd" fill="#354966" d="M372.459,368.028c-3.62-11.19-7.49-22.313-10.666-33.63
						c-2.289-8.165-5.299-16.027-8.229-23.946c-6.202-16.766-16.224-29.255-35.184-31.933c-0.001,0-0.002-0.001-0.003-0.001
						c-0.94-7.158-0.223-14.23,2.98-20.634c2.456-4.905,6.046-9.243,9.129-13.833c0.375-0.574,0.747-1.148,1.119-1.724
						c-0.563-0.226-1.103-0.735-0.608-1.177c0.436-0.388,1.288-0.306,1.958-0.432c-0.061-1.608,1.514-2.199,2.113-3.396
						c-1.12-5.561-0.362-6.882,3.462-6.035c0.236-0.088,0.363-0.257,0.379-0.507c-1.388-3.876,1.383-6.951,2.563-10.091
						c0.655-1.736-0.633-4.864,2.473-5.578c0.036-1.115,0.075-2.23,0.113-3.346c0,0,0,0,0,0c1.085-0.997,0.792-2.362,0.85-3.574
						c0.55-11.742-0.255-23.406-2.839-34.868c-0.803-3.561-0.831-7.597-3.904-10.376c0.055-0.183,0.03-0.354-0.068-0.517
						c-2.907-1.452-4.049-4.036-4.98-6.729c0.932,2.693,2.073,5.276,4.98,6.727c0.604-2.643-1.762-4.447-1.938-6.87
						c-1.603-1.771-1.872-4.458-4.022-5.854c-2.346-2.57-3.376-6.324-6.977-7.769c-3.304-1.391-4.458-4.032-5.104-7.448
						c-1.176-6.216-2.898-12.324-8.16-16.599c-0.693-1.872-2.427-2.756-3.924-3.669c-6.398-3.898-13.463-6.216-20.674-8.043
						c-4.88-1.236-9.843-2.156-14.768-3.218c-12.929-1.315-25.876-2.114-38.809-0.277c-6.68,0.949-13.262,2.431-18.172,7.695
						c-0.176,0.162-0.223,0.355-0.14,0.58c-0.175,0.547-0.448,0.872-1.044,0.462c-0.218-0.044-0.389,0.027-0.514,0.211
						c0,0,0,0.001,0.001,0.001c-1.709,1.011-2.921,2.482-3.878,4.191l-0.082,0.101c0.287,0.613,0.037,1.039-0.48,1.37
						c-1.699,2.46-4.309,4.302-5.046,7.415c0.183,1.396-0.403,1.616-1.536,1.004c0.002-0.001-0.068,0.117-0.068,0.117
						c0,0.001,0,0.001,0,0.002c-7.363,11.926-17.996,19.032-31.595,22.307c-6.97,1.678-13.804,4.083-20.231,7.425
						c-3.28,2.125-5.946,4.923-8.522,7.819c0.037,0.253-0.051,0.45-0.266,0.59c-3.529,8.316-2.284,16.582,0.323,24.809
						c0.514,1.62,1.247,3.16,0.82,4.918l0.018,0.017c2.264,3.751,3.385,7.974,4.949,12.013c-0.008,1.948-0.016,3.894-0.023,5.842
						c-1.479,4.901-4.539,8.831-7.76,12.664c-0.27,0.2-0.541,0.4-0.811,0.6c0-0.001,0-0.001,0-0.002
						c-7.51,4.077-14.763,8.644-22.854,11.618c-2.551,0.938-5.452,1.303-7.448,3.488c-0.533-0.21-0.959-0.075-1.274,0.403
						c-0.308,0.532-0.418,0.91-0.395,1.185c-0.023-0.275,0.087-0.654,0.395-1.187c-6.784,1.585-12.952,4.716-19.04,7.93
						c-4.593,2.423-9.182,5.001-12.457,9.262c0.021,0.003,0.043,0.006,0.064,0.009c0.587,1.938,1.296,3.851,1.71,5.826
						c0.214,1.019,0.264,2.406-1.313,2.637c-1.509,0.221-1.909-0.769-1.944-2.06c-0.033-1.231,0.205-2.652-1.637-2.863l-0.111,0.176
						c0.179,3.175-0.979,5.869-2.344,8.729c-2.252,4.711-1.34,9.929-0.559,14.858c1.043,6.589,3.01,12.972,5.889,19.043
						c0.605,1.278,0.85,2.701-0.331,3.913c0.571,5.518,2.771,10.878,1.606,16.565c-2.297,7.654-5.34,14.929-9.514,21.818
						c-5.894,9.729-8.16,19.901-1.425,30.353c2.071,2.225,4.098,4.483,5.563,7.178c0.35,0.351,0.699,0.701,1.048,1.051
						c1.731,1.325,3.46,2.649,5.191,3.975c2.814,1.229,5.628,2.457,8.442,3.685c1.17,0.149,2.338,0.298,3.508,0.446
						c2.857,0.552,5.72,0.664,8.588,0.069c0.528-2.722,2.789-2.163,4.646-2.571c3.541-0.78,6.592-2.694,9.379-4.905
						c1.348-1.069,2.316-0.527,3.477-0.066c2.212-2.39,5.857-1.988,8.17-4.184c1.256-3.276-3.17-1.549-3.291-4.094
						c1.961,0.461,3.705-1.553,5.893,1.048c0.976,1.161,4.52,0.198,6.896,0.138c3.039-0.076,6.192-0.84,8.744,1.643
						c0.604,0.135,1.206,0.271,1.807,0.406c4.075-0.238,8.25-0.686,9.768,4.558l0.246,0.083c0.004,0.001,0.007,0.002,0.011,0.004
						c1.803,1.266,3.607,2.535,5.408,3.803c1.677-1.7-0.082-3.401,0-5.102c0.022-3.712,0.042-7.424,0.063-11.135
						c-1.172-0.979-1.666-2.49-1.37-3.72c0.849-3.53,1.511-7.042,1.358-10.687c-0.052-1.203,0.76-1.691,1.818-1.883
						c1.264-3.192,1.538-6.591,2.079-9.935c-2.554-1.355-5.114-2.697-7.658-4.07c2.544,1.373,5.104,2.715,7.656,4.068
						c1.176,0.151,2.019,0.866,2.919,1.576c3.569,2.815,4.775,2.377,6.377-1.732c2.959-7.591,5.521-15.32,8.652-22.861
						c7.729-18.616,14.076-37.812,23.531-55.704c0.169-0.318-0.362-1.006-0.566-1.521c-7.555,0.137-13.867,3.069-19.037,8.52
						c-0.854,0.902-1.393,2.137-2.776,2.42c-1.509,3.327-2.989,6.669-4.739,9.87c1.75-3.201,3.23-6.543,4.739-9.873
						c-0.15-3.334,1.757-5.8,4.212-7.333c3.101-1.935,6.354-3.708,10.353-3.867c3.712-0.149,5.972-2.299,4.961-6.499
						c-3.292-5.159-6.585-10.317-9.877-15.476c-2.289-0.231-3.519-1.543-3.736-3.783c-0.106-1.112-0.419-1.934-1.688-2.018
						l-0.038,0.033c-2.939,0.493-2.629-1.834-2.306-3.234c0.548-2.364,0.356-4.644,0.394-6.995c0.054-3.389,2.229-5.242,5.71-5.343
						l0.228-0.139c0.313-2.214,0.316-2.219,4.529-2.148c-0.007-10.338-0.011-20.677-0.024-31.015
						c-0.003-1.727,0.626-3.984-2.577-3.165c-0.551,0.141-1.028-0.141-1.242-0.817c-1.053-3.317-3.827-6.223-2.391-10.128
						l-0.055,0.079c-2.244-2.335-2.157-4.689-0.055-7.059c0.43-1.383,0.859-2.767,1.289-4.15c-2.684-0.452-2.045-2.61-1.46-3.886
						c0.892-1.935,2.778-1.155,4.356-0.601l0.141-0.207c-0.282-0.71-0.037-0.912,0.656-0.679l0.2-0.174
						c-0.876-2.388,0.795-1.974,2.124-1.938c-0.164-2.198,1.068-3.734,2.973-4.015c2.168-0.318,2.923-1.656,3.429-3.678
						c1.386,1.401,1.593,2.732,1.677,4.109c1.179,0.624,2.01-0.494,3.041-0.607c1.734-3.895,3.598-7.746,4.229-12.028
						c0.261-0.285,0.519-0.571,0.779-0.856c0,0.003,0,0.006,0,0.01c0,0,0.001-0.001,0.001-0.002c0,0.001,0,0.001,0,0.002
						l0.021-0.034c-0.003,0.002-0.005,0.006-0.008,0.009c3.016-5.908,7.979-8.428,14.473-8.411c3.563,0.01,7.094,0.382,10.528,1.219
						c8.375,2.042,16.703,4.26,25.053,6.406c-0.002-0.025-0.009-0.045-0.011-0.07c2.078,0.493,4.996-1.668,6.088,1.931l0.268-0.139
						c2.745-0.479,4.935-1.081,7.934,1.125c2.189,1.609,6.58,0.982,9.945,1.999c2.385,0.72,2.856,1.464,1.322,3.374
						c-0.088,0.335-0.179,0.669-0.267,1.004c0.001,0,0.001,0,0.002,0c-3.118,2.724-4.401,6.449-5.505,10.246
						c-2.072,7.118-2.721,14.432-2.41,21.792c0.284,6.777,0.971,13.559,3.961,19.793c1.043,2.175,1.76,4.952,5.01,5.063
						c2.924-2.372,6.401-2.578,9.929-2.47c2.671,0.08,3.882,1.89,4.608,4.174c0.467,5.35-2.449,9.11-5.927,12.606
						c-0.615,1.612-1.82,2.531-3.462,2.935c-1.29,2.674-3.955,2.409-6.092,2.335c-6.793-0.235-12.828,8-10.02,14.113
						c0.748,1.629,1.416,3.075,0.119,4.671c-0.061,0.718-0.121,1.436-0.183,2.153c2.68,6.018,2.327,12.718,4.232,18.93
						c0.511,1.66,1.387,2.334,2.761,2.707c1.07,0.291,2.336,0.163,2.418,1.757c-2.273,0.645-4.211-1.279-6.457-0.839
						c-2.879,2.672-4.95,6.096-8.221,8.432c-7.029,5.017-20.78,6.281-27.892-1.831c-2.243-2.558-2.118-6.125-4.607-8.363
						c2.053-3.17,0.601-7.283,2.804-10.413c0.125-2.692,0.247-5.384,0.371-8.076c-2.641,3.861-3.836,8.229-3.516,12.795
						c0.257,3.685-1.59,4.258-4.454,4.118c-8.953-0.439-7.476-0.157-9.219-8.939c-0.269-1.359-0.082-2.813-0.075-4.223
						c0.02-4.145,1.402-5.498,5.726-5.522c4.09-0.022,8.179,0.017,12.269,0.029c0.006-0.349,0.014-0.698,0.021-1.048
						c-4.477-0.939-8.986,0.33-13.489-0.227c-4.876-0.604-6.685,1.236-6.199,6.271c0.491,5.062,1.212,10.101,1.832,15.148
						c-0.37,13.683-3.187,27.052-5.075,40.546c-2.708,19.357-6.572,38.499-10.678,57.573c-3.461,16.084-8.094,31.927-14.522,47.128
						c-1.393,3.292-2.96,6.307-2.291,9.969c0.376,0.754,0.403,1.533,0.476,2.378c0.77,8.951,0.807,8.947,9.724,8.553
						c-1.608-3.307-1.983-7.376-5.664-9.41c-1.234-0.682-0.897-1.536-0.594-2.514c2.57-8.316,7.322-14.367,16.267-16.519
						c2.174-0.521,3.967-0.095,5.708,0.696c6.373,2.889,12.694,5.895,18.981,8.968c4.646,2.272,9.23,0.574,13.669-0.329
						c15.839-3.221,31.91-5.159,47.673-8.797c5.055-1.167,10.252-1.727,15.396-2.465c1.806-0.259,2.504-0.979,2.819-2.91
						c1.313-8.03,0.331-16.099,0.713-24.136c0.055-1.131,0.007-2.266,0.044-3.397c0.022-0.691-0.01-1.54,0.881-1.685
						c0.791-0.129,1.319,0.479,1.537,1.171c0.635,2.01,1.195,4.043,1.782,6.067c0.92,2.855,0.437,6.479,4.255,7.739
						c0.324,0.021,0.646,0.041,0.969,0.063c0.541-0.001,1.084-0.002,1.625-0.002c7.084-2.555,14.082-5.392,21.277-7.58
						c6.053-1.842,11.948-4.078,17.908-6.154l0.019-0.019c0.327-0.753,0.947-0.856,1.661-0.747
						C372.525,369.9,372.868,369.298,372.459,368.028z M344.223,205.555c-0.035-7.219-0.823-14.347-1.966-21.433
						C343.399,191.208,344.188,198.335,344.223,205.555z M141.089,375.979c2.851-1.121,4.759-1.171,7.562,0.02
						C145.85,377.12,143.941,377.071,141.089,375.979z M159.179,326.457c-1.716,4.327-3.783,8.514-5.699,12.76v0
						c-1.242,0.137-2.521,0.481-3.597-0.633c6.449-6.383,8.479-13.973,6.229-22.746c0.229-0.059,0.564-0.262,0.734-0.167
						c1.635,0.911,5.488,0.46,6.901-0.851C163.266,319.103,160.713,322.584,159.179,326.457z M237.272,278.194l0.117,0.325
						l-0.274-0.017L237.272,278.194z M235.122,274.721c-0.009-0.012-0.018-0.023-0.026-0.035l0.027-0.023
						C235.122,274.683,235.123,274.701,235.122,274.721c0.472,0.621,0.944,1.241,1.417,1.862
						C235.334,276.431,235.083,275.665,235.122,274.721z M246.166,364.07c-3.194-1.368-6.06-3.443-9.352-4.604
						c3.398,0.935,6.998,1.439,9.373,4.579c1.368-0.108,2.35,0.673,3.915,1.826C248.086,365.759,247.113,364.945,246.166,364.07z
						 M242.727,283.236c-0.727,0.023-1.331-0.183-1.674-0.885c-0.287-0.283-0.57-0.566-0.855-0.849
						c-0.285-0.282-0.567-0.563-0.852-0.843c-0.217-0.148-0.432-0.295-0.646-0.442c0.63-0.537,0.615,0.002,0.68,0.408
						c0.488,0.07,0.863,0.258,0.865,0.832c0.568,0.017,0.822,0.327,0.827,0.876c0.741-0.064,1.424-0.013,1.696,0.854
						c9.392,5.138,19.175,6.363,29.44,2.76C263.688,290.804,249.65,289.426,242.727,283.236z M275.119,284.906
						c-0.313,0.216-0.625,0.433-0.938,0.649c-0.094-0.158-0.188-0.316-0.28-0.474c0.396-0.068,0.793-0.135,1.188-0.203
						c0.146-0.207,0.288-0.413,0.432-0.62C276.199,284.979,275.246,284.687,275.119,284.906z M277.169,283.788
						c-0.08-0.076-0.16-0.151-0.239-0.225c0.09-0.061,0.188-0.175,0.27-0.167c0.083,0.009,0.155,0.141,0.23,0.218
						C277.34,283.675,277.248,283.736,277.169,283.788z M289.525,269.558c1.018-1.698,1.873-1.899,2.479,0.265
						c0,0-0.008-0.083-0.008-0.086l0.008,0.086C291.178,269.734,290.354,269.646,289.525,269.558z M311.596,276.094
						c0.15,0.228,0.357,0.313,0.623,0.255C311.954,276.408,311.746,276.323,311.596,276.094z M319.171,353.18
						c0.249,3.585,0.498,7.17,0.745,10.755C318.166,360.472,319.061,356.793,319.171,353.18z M323.627,283.206
						c-0.009,0.004-0.015,0.011-0.023,0.016c0.005,0.693-0.026,1.369-0.809,1.696c-0.058,0.502-0.248,0.875-0.836,0.862
						c-2.359,5.35-5.459,10.407-6.637,16.223c0.914-5.925,2.439-11.611,6.588-16.274c0.051-0.503,0.23-0.886,0.827-0.872
						c-0.072-0.742,0.21-1.291,0.866-1.636c0-0.014,0-0.026,0-0.04l0.156-0.093L323.627,283.206z"/>
					<polygon fill-rule="evenodd" clip-rule="evenodd" fill="#354966" points="196.936,156.495 196.93,156.495 196.93,156.504 					
						"/>
					<path fill-rule="evenodd" clip-rule="evenodd" fill="#354966" d="M195.991,220.235c-0.009,0-0.016,0-0.024,0
						c0,0.005,0,0.01,0,0.015L195.991,220.235z"/>
					<path fill-rule="evenodd" clip-rule="evenodd" fill="#354966" d="M192.022,164.556c-2.001,3.766-1.425,7.792-1.175,11.787
						c0.113,0.277,0.227,0.555,0.338,0.832c0,0,0.113-0.057,0.113-0.056c0.354,0.175,0.861,0.256,1.035,0.541
						c1.021,1.655,1.938,3.826,4.297,3.07c2.175-0.696,2.49-2.783,2.843-5.029c0.69-4.394,1.699-8.806,4.222-12.644
						c0.309-0.867,0.616-1.735,0.924-2.602c-0.603-1.356-0.15-3.521-3.234-1.955c-1.426,0.725-3.68,2.393-5.938,1.195
						c-0.205,0.086-0.338,0.236-0.403,0.448C197.384,163.904,194.555,164.13,192.022,164.556z"/>
				</g>
				<path fill-rule="evenodd" clip-rule="evenodd" fill="#244271" d="M245.235,183.679c6.782,4.816,14.749,1.354,22.84,2.529
					c-9.442,6.609-18.626,5.27-22.774-2.582L245.235,183.679z"/>
				<path fill-rule="evenodd" clip-rule="evenodd" fill="#E7899C" d="M241.151,210.19c-1.615,5.759-9.692,8.928-13.693,5.299
					c-1.558-1.414-3.129-3.028-1.782-5.481c3.223,0.332,6.128,2.445,9.574,1.583C237.208,211.101,238.89,209.402,241.151,210.19z"/>
				<path fill-rule="evenodd" clip-rule="evenodd" fill="#244271" d="M241.151,210.19c-2.262-0.788-3.943,0.911-5.901,1.401
					c-3.446,0.862-6.352-1.251-9.574-1.583c-0.716-1.029-2.426-0.496-3.039-2.043c1.375,0.119,2.625,0.227,3.875,0.334
					c4.309,1.58,8.643,1.522,12.998,0.223c2.068-0.055,4.079-0.455,6.296-0.631C244.255,208.657,242.702,209.424,241.151,210.19z"/>
				<path fill-rule="evenodd" clip-rule="evenodd" fill="#E7899C" d="M239.51,208.521c-4.355,1.299-8.689,1.357-12.998-0.223
					C229.47,204.441,236.898,204.569,239.51,208.521z"/>
				<path fill-rule="evenodd" clip-rule="evenodd" fill="#244271" d="M251.253,163.505c5.696-2.191,12.029,0.045,15.153,5.563
					C261.62,166.364,256.73,163.982,251.253,163.505z"/>
				<path fill-rule="evenodd" clip-rule="evenodd" fill="#244271" d="M204.619,160.456c-0.603-1.356-0.15-3.521-3.234-1.955
					c-1.426,0.725-3.68,2.393-5.938,1.195c3.301-3.767,7.223-5.993,12.436-5.024C206.365,156.358,207.422,159.495,204.619,160.456z"
					/>
				<path fill-rule="evenodd" clip-rule="evenodd" fill="#244271" d="M211.89,151.775c5.857-2.864,12.312-0.344,14.048,5.71
					C221.67,153.771,217.106,151.95,211.89,151.775z"/>
				<path fill-rule="evenodd" clip-rule="evenodd" fill="#244271" d="M298.441,207.954c-1.118,1.839-2.773,0.485-3.65,1.588
					c0.162,1.596,1.762,2.874,1.064,5.127c-1.9-2.056-1.424-6.388-5.824-5.48C292.729,208.023,295.31,207.533,298.441,207.954z"/>
				<path fill-rule="evenodd" clip-rule="evenodd" fill="#E7899C" d="M224.812,195.438c-2.636,0.394-4.124-0.621-4.63-2.855
					c-0.271-1.202,0.797-1.456,1.586-1.223c1.934,0.572,4.529,0.559,5.125,2.921C227.337,196.032,225.389,195.219,224.812,195.438z"
					/>
				<path fill-rule="evenodd" clip-rule="evenodd" fill="#244271" d="M245.301,183.626c-0.11-0.077-0.235-0.138-0.319-0.235
					c-0.04-0.047-0.002-0.162,0-0.246c0.085,0.178,0.17,0.355,0.255,0.533C245.235,183.679,245.301,183.626,245.301,183.626z"/>
				<path fill-rule="evenodd" clip-rule="evenodd" fill="#E7899C" d="M368.219,372.954c0,0,0.042-0.034,0.04-0.032
					S368.219,372.954,368.219,372.954z"/>
				<path fill-rule="evenodd" clip-rule="evenodd" fill="#DFE6EF" d="M191.186,177.175c0,0,0.113-0.057,0.113-0.056
					S191.186,177.175,191.186,177.175z"/>
				<path fill-rule="evenodd" clip-rule="evenodd" fill="#023C84" d="M187.412,238.093c-0.648-0.382-0.908-0.929-0.673-1.66
					c0.032-0.099,0.211-0.151,0.321-0.225c0.129,0.618,0.259,1.235,0.39,1.853C187.45,238.061,187.412,238.093,187.412,238.093z"/>
				<path fill-rule="evenodd" clip-rule="evenodd" fill="#244271" d="M195.044,160.145c2.34,3.76-0.489,3.985-3.021,4.411
					c0.205-1.408,1.919-2.306,1.343-3.974C194.166,161.364,194.45,160.162,195.044,160.145z"/>
				<path fill-rule="evenodd" clip-rule="evenodd" fill="#354966" d="M244.574,245.816c0.188,0.761,0.172,1.437-0.73,1.741
					c-2.641,3.862-3.836,8.23-3.516,12.796c0.257,3.685-1.59,4.258-4.454,4.118c-8.953-0.439-7.476-0.157-9.219-8.939
					c-0.269-1.359-0.082-2.813-0.075-4.223c0.02-4.145,1.402-5.498,5.726-5.522C236.396,245.766,240.484,245.805,244.574,245.816z"
					/>
			</g>
		</g>
		<g>
			<path fill="#1D2A57" d="M40.962,91.911c-0.27-4.559-0.604-8.5-1.006-11.819c6.964,2.515,13.408,3.772,19.335,3.772
				c2.946,0,5.616-0.468,8.01-1.405c2.394-0.937,4.286-2.283,5.675-4.04c1.39-1.755,2.084-3.821,2.084-6.196
				c0-2.007-0.577-3.771-1.731-5.294c-1.154-1.522-2.961-2.659-5.42-3.412c-2.46-0.752-5.63-1.129-9.511-1.129
				c-2.477,0-5.036,0.151-7.68,0.453c0.335-3.874,0.604-7.544,0.805-11.014c1.979,0.335,3.924,0.503,5.834,0.503
				c2.95,0,5.759-0.284,8.425-0.855c2.665-0.57,4.735-1.735,6.211-3.496c1.475-1.76,2.213-3.679,2.213-5.758
				c0-0.837-0.126-1.651-0.377-2.439c-0.252-0.788-0.604-1.509-1.057-2.163c-0.452-0.653-1.022-1.232-1.71-1.735
				s-1.45-0.913-2.288-1.232c-0.839-0.318-1.979-0.579-3.42-0.78c-1.442-0.201-2.984-0.302-4.627-0.302
				c-2.213,0-4.501,0.143-6.865,0.427c-2.363,0.285-5.373,0.83-9.027,1.635l0.956-4.174l1.207-6.588
				c3.854-0.536,7.107-0.905,9.756-1.106s5.516-0.302,8.601-0.302c3.521,0,6.932,0.285,10.234,0.855
				c3.303,0.571,6.127,1.561,8.475,2.97c2.347,1.41,4.082,3.238,5.205,5.487s1.685,4.714,1.685,7.399
				c0,1.745-0.251,3.465-0.754,5.159s-1.249,3.263-2.238,4.706c-0.989,1.442-2.096,2.634-3.319,3.574s-2.423,1.694-3.596,2.265
				c-1.174,0.571-2.884,1.242-5.13,2.013c2.414,0.369,4.258,0.779,5.532,1.231c1.273,0.453,2.531,1.14,3.772,2.061
				c1.239,0.922,2.296,1.994,3.168,3.216c0.871,1.223,1.525,2.63,1.961,4.221c0.436,1.592,0.654,3.258,0.654,5
				c0,3.15-0.746,6.123-2.238,8.92s-3.654,5.118-6.487,6.961c-2.834,1.843-6.061,3.141-9.682,3.895s-7.394,1.131-11.315,1.131
				c-2.885,0-5.868-0.185-8.953-0.553C49.242,93.604,45.454,92.917,40.962,91.911z"/>
		</g>
		<ellipse fill-rule="evenodd" clip-rule="evenodd" fill="#354966" cx="152.741" cy="318.958" rx="14.304" ry="28.958"/>
		<ellipse fill-rule="evenodd" clip-rule="evenodd" fill="#354966" cx="320.241" cy="312.458" rx="14.304" ry="28.958"/>
		<ellipse fill-rule="evenodd" clip-rule="evenodd" fill="#354966" cx="296.741" cy="277.958" rx="14.304" ry="28.958"/>
		<ellipse fill-rule="evenodd" clip-rule="evenodd" fill="#354966" cx="272.241" cy="312.458" rx="14.304" ry="28.958"/>
		<ellipse fill-rule="evenodd" clip-rule="evenodd" fill="#354966" cx="252.741" cy="312.458" rx="14.304" ry="28.958"/>
		<ellipse fill-rule="evenodd" clip-rule="evenodd" fill="#354966" cx="238.438" cy="303.958" rx="14.304" ry="28.958"/>
		<ellipse fill-rule="evenodd" clip-rule="evenodd" fill="#354966" cx="322.438" cy="341.417" rx="14.304" ry="28.958"/>
		<ellipse fill-rule="evenodd" clip-rule="evenodd" fill="#354966" cx="107.938" cy="303.958" rx="14.304" ry="28.958"/>
		<ellipse fill-rule="evenodd" clip-rule="evenodd" fill="#354966" cx="170.438" cy="206.458" rx="14.304" ry="28.958"/>
		<ellipse fill-rule="evenodd" clip-rule="evenodd" fill="#354966" cx="327.938" cy="180.458" rx="14.304" ry="28.958"/>
		<ellipse fill-rule="evenodd" clip-rule="evenodd" fill="#354966" cx="252.741" cy="365.958" rx="14.304" ry="28.958"/>
		<ellipse fill-rule="evenodd" clip-rule="evenodd" fill="#354966" cx="152.741" cy="312.458" rx="14.304" ry="28.958"/>
		<ellipse fill-rule="evenodd" clip-rule="evenodd" fill="#354966" cx="184.741" cy="264.375" rx="14.304" ry="28.958"/>
	</g>
</g>
<g id="廣告圖1">
</g>
<g id="圖層_8">
</g>
</svg>
