<?xml version="1.0" encoding="utf-8"?>
<!-- Generator: Adobe Illustrator 16.0.0, SVG Export Plug-In . SVG Version: 6.00 Build 0)  -->
<!DOCTYPE svg PUBLIC "-//W3C//DTD SVG 1.1//EN" "http://www.w3.org/Graphics/SVG/1.1/DTD/svg11.dtd">
<svg version="1.1" xmlns="http://www.w3.org/2000/svg" xmlns:xlink="http://www.w3.org/1999/xlink" x="0px" y="0px" width="442px"
	 height="464px" viewBox="0 0 442 464" enable-background="new 0 0 442 464" xml:space="preserve">
<g id="圖層_2" display="none">
</g>
<g id="圖層_1參考" display="none">
</g>
<g id="圖層_3">
</g>
<g id="圖層_4">
</g>
<g id="圖層_7">
</g>
<g id="圖層_6">
	<g>
		<defs>
			<rect id="SVGID_3_" width="442" height="464"/>
		</defs>
		<clipPath id="SVGID_2_">
			<use xlink:href="#SVGID_3_"  overflow="visible"/>
		</clipPath>
		<g clip-path="url(#SVGID_2_)">
			<rect x="339.776" y="209.985" fill-rule="evenodd" clip-rule="evenodd" fill="#FFFFFF" width="148.056" height="134.94"/>
			<path fill-rule="evenodd" clip-rule="evenodd" fill="#C5DAEE" d="M506.999,252.384c0,92.667-0.024,185.333,0.096,278
				c0.004,3.424-0.672,4.097-4.096,4.095c-185.334-0.106-370.666-0.106-556,0c-3.424,0.002-4.097-0.671-4.095-4.095
				c0.106-185.333,0.106-370.667,0-556c-0.002-3.424,0.671-4.097,4.095-4.095c185.334,0.107,370.666,0.107,556,0
				c3.424-0.002,4.1,0.671,4.096,4.095C506.975,67.05,506.999,159.717,506.999,252.384z M225,533.299
				c91.499,0,182.998,0.001,274.497-0.001c6.411,0,6.414-0.008,6.415-6.539c0.002-183-0.017-365.999,0.112-548.998
				c0.003-4.948-1.082-6.422-6.274-6.417c-182.999,0.146-365.998,0.122-548.997,0.124c-6.666,0-6.674,0.013-6.674,6.792
				c0,182.833,0,365.665,0.002,548.498c0,6.536,0.007,6.54,6.42,6.54C42.001,533.299,133.5,533.299,225,533.299z"/>
			<path fill-rule="evenodd" clip-rule="evenodd" fill="#FFFFFF" d="M225,533.299c-91.5,0-182.999,0-274.499-0.001
				c-6.413,0-6.42-0.004-6.42-6.54c-0.002-182.833-0.002-365.666-0.002-548.498c0-6.779,0.008-6.792,6.674-6.792
				c182.999-0.002,365.998,0.022,548.997-0.124c5.192-0.004,6.277,1.469,6.274,6.417c-0.129,182.999-0.11,365.999-0.112,548.998
				c-0.001,6.531-0.004,6.539-6.415,6.539C407.998,533.3,316.499,533.299,225,533.299z M143.808,381.284
				c0.57-0.352,1.14-0.704,1.71-1.056l0.148-0.008c5.989-2.701,12.31-1.061,18.466-1.272c8.297-0.285,8.295-0.041,8.746-8.026
				c0.084-1.483,0.299-2.958,0.453-4.437c1.266,0.29,1.716-0.722,2.346-1.46c13.838-16.252,22.5-35.464,31.244-54.63
				c3.085-6.764,4.559-14.241,9.133-20.348c6.715-8.967,13.328-18.025,24.197-22.522c0.15-0.062,0.29-0.173,0.404-0.291
				c0.85-0.871,2.775-1.306,1.787-3.011c-0.771-1.329-2.392-1.027-3.657-0.751c-2.999,0.656-5.28,2.711-7.815,4.269
				c-1.094,0.672-2.353,1.964-3.52,0.771c-1.34-1.369-0.141-2.749,0.827-3.917c3.172-3.832,6.366-7.644,9.521-11.491
				c0.928-1.133,2.334-2.483,1.033-3.895c-1.43-1.554-2.81-0.272-4.341,0.594c-2.119,1.198-2.796,4.538-6.588,4.29
				c2.175-3.123,4.118-5.753,5.866-8.507c0.639-1.008,1.984-2.274,0.619-3.532c-1.352-1.245-3.091-0.571-4.076,0.46
				c-2.049,2.146-3.809,4.575-5.6,6.955c-2.207,2.934-3.698,6.479-7.396,8.836c-0.499-3.298,1.493-5.146,2.49-7.298
				c1.323-2.854,2.829-5.625,4.295-8.411c0.479-0.91,1.057-1.845,0.132-2.695c-1.049-0.962-2.25-0.55-3.156,0.245
				c-0.857,0.753-1.57,1.706-2.218,2.659c-4.468,6.589-8.861,13.229-13.36,19.797c-3.837,5.6-5.979,5.517-9.057-0.313
				c-1.426-2.701-3.031-5.173-5.986-6.391c-0.918-0.379-2-0.753-2.764,0.167c-0.627,0.754,0.105,1.518,0.375,2.275
				c2.111,5.943,4.521,11.809,6.162,17.881c1.094,4.051,3.824,8.188,1.936,12.525c-4.794,11.004-12.537,20.085-19.877,29.409
				c-0.816-2.147-1.611-4.303-2.451-6.44c-3.235-8.227-6.485-16.447-9.729-24.68c2.896-5.515,4.02-11.476-0.641-16.125
				c-5.543-5.532-5.647-10.622-2.369-17.304c4.633-9.447,2.385-18.04-5.418-25.057c-2.338-2.103-4.595-4.296-6.889-6.448
				c0.346-5.818-0.098-11.682,1.02-17.455c5.694-11.668,1.949-27.087-8.621-37.204c-18.54-17.744-55.885-15.073-64.055,18.811
				c-1.863,7.727-4.904,14.266-11.948,18.73c-8.448,5.354-12.489,13.245-11.138,23.352c0.943,7.067-0.855,13.142-5.482,18.466
				c-10.428,11.998-10.495,25.593-6.151,39.87c-2.354,5.511-2.894,11.35-2.192,17.157c1.993,16.507,4.291,32.978,6.497,49.459
				c0.396,2.962,2.206,4.905,5.116,3.883c5.212-1.83,6.082,1.636,7.209,5.116c-0.703,2.167-0.131,4.262,0.344,6.368
				c1.096,4.848,2.496,9.654,3.189,14.56c1.558,10.999,4.023,21.815,6.092,32.712c0.582,3.072,2.313,4.591,5.467,4.593
				c4.321,0.002,8.643,0.092,12.964,0.145c0.451,0.203,0.901,0.583,1.354,0.584c16.149,0.045,32.316,0.534,48.44-0.096
				c10.965-0.429,21.837-0.631,32.81-0.043c6.025,0.323,12.241-0.433,18.363-0.803c2.425-0.147,3.618-2.491,3.765-4.662
				c0.196-2.893-2.343-2.01-4.004-2.294c-10.078-1.722-20.235-0.788-30.355-0.889c-13.371-0.132-14.91-1.768-13.484-15.231
				c0.127-1.191,0.127-2.317,1.423-2.93c0.599-0.283,1.315-1.005,0.466-1.441c-3.076-1.578-1.295-4.493-2.039-6.686
				c-0.25-0.565-0.499-1.13-0.748-1.695c0.273-1.122,0.547-2.245,0.82-3.367L143.808,381.284z M317.115,407.589
				c-0.379,1.412-0.759,2.823-1.138,4.235c-0.85,0.295-1.7,0.589-2.551,0.884c-13.307-0.093-26.612-0.221-39.919-0.244
				c-2.171-0.004-4.939,0.389-4.976,3.024c-0.038,2.855,1.924,4.868,5.146,4.976c0.498,0.017,0.998,0.021,1.498,0.021
				c15.922-0.019,31.845-0.04,47.768-0.06c0.666,0.171,1.332,0.343,1.999,0.515c0.778,0.827,1.565,1.882,2.243-0.081
				c4.918-0.001,9.834-0.002,14.751-0.003c2.956,3.055,5.995,0.537,9.002,0.134c0.363-0.073,0.726-0.146,1.089-0.22
				c8.486,1.476,17.078,0.229,25.526,1.173c-0.594-0.201-1.188-0.402-1.782-0.604c2.73-0.598,5.441-1.316,8.195-1.772
				c11.184-1.851,22.289-4.087,32.339-9.584c10.589-5.792,14.208-13.442,12.03-25.341c-5.723-31.275-12.635-62.302-20.075-93.207
				c-2.092-8.688-3.581-17.689-9.175-25.14c-0.848-5.312-3.477-7.652-8.818-7.855c-2.111-0.081-4.072-0.026-6.014-1.555
				c-3.881-3.057-8.419-3.475-13.422-3.596c-4.156-0.1-9.084-1.116-12.026-5.269c2.09-0.855,4.247-1.578,6.259-2.588
				c17.646-8.861,15.782-10.329,12.896-24.874c-3.764-18.975-10.859-36.492-23.937-51.336
				c-20.859-23.679-63.972-20.277-74.242,17.868c-7.304,27.129-3.129,53.374,6.222,79.204
				c-12.781,4.678-17.995,14.447-20.552,27.358c-5.745,29.02-10.278,58.221-14.844,87.428c-4.018,6.176-6.72,12.738-7.146,20.261
				c-0.412,7.279,2.863,11.695,10.79,13.451c8.784,1.946,14.663-0.617,16.999-7.414c5.613,1.508,5.635,1.509,5.76-4.388
				c0.041-1.96-0.162-3.954,1.574-5.404c0.649-0.075,1.297-0.168,1.947-0.223c1.434-0.12,3.34,0.241,3.805-1.471
				c0.517-1.907-1.408-2.646-2.652-3.664c-2.014-1.645-4.889-1.988-6.434-4.313c0.23-0.614,0.687-1.238,0.658-1.839
				c-0.271-5.634,2.814-6.938,7.827-6.801c9.078,0.249,18.169,0.038,27.253,0.06c2.109,0.005,4.443-0.322,5.343,2.422
				c-4.971,0.949-10.474,0.02-14.896,3.927c5.117,4.111,10.84,2.145,16.149,2.742c0.034,1.235,0.068,2.47,0.104,3.706
				c-4.594,1.456-9.484-0.686-14.072,1.194c-1.019,0.417-2.775,0.049-2.817,1.431c-0.054,1.748,1.901,1.284,2.994,1.825
				c4.272,2.114,9.032-1,13.358,1.422c-3.564,1.725-7.293,2.254-11.106,2.461c-1.016,0.055-2.271,0.387-2.403,1.416
				c-0.188,1.464,1.277,1.934,2.363,2.021c3.135,0.251,6.289,0.268,9.426,0.378C317.209,404.764,316.696,406.413,317.115,407.589z
				 M208.97,104.272c-0.549-19.422-12.032-35.798-30.354-41.685c-17.495-5.621-33.541-2.294-46.667,11.339
				c-23.395,24.299-12.653,60.896,15.687,72.287c3.238,1.301,3.609,2.884,2.994,5.596c-0.289,1.275-1.262,2.837-0.087,3.747
				c1.573,1.218,2.735-0.674,3.792-1.449c3.012-2.205,5.273-4.881,9.853-4.847C189.056,149.445,208.829,129.347,208.97,104.272z
				 M277.911,153.097c1.943-8.37,1.945-8.355,10.367-9.808c1.14-0.197,2.27-0.543,3.355-0.95
				c18.771-7.034,29.744-20.428,31.18-40.475c1.205-16.836-7.256-33.752-25.102-42.288c-23.148-11.072-51.619-1.906-61.363,24.213
				c-8.086,21.677-0.047,44.731,21.814,55.669C265.351,143.054,274.651,143.302,277.911,153.097z"/>
			<path fill-rule="evenodd" clip-rule="evenodd" fill="#5C7499" d="M399.087,266.295c5.594,7.45,7.083,16.451,9.175,25.139
				c7.44,30.905,14.353,61.932,20.075,93.207c2.178,11.899-1.441,19.549-12.03,25.341c-10.05,5.497-21.155,7.733-32.339,9.584
				c-2.754,0.456-5.465,1.175-8.152,1.766c-7.877-1.253-15.839-0.597-23.787-0.563c-0.363,0.073-0.726,0.146-1.088,0.22
				c-2.988-0.861-5.994-0.631-9.003-0.134c-4.917,0.001-9.833,0.002-14.751,0.002c-0.748,0.027-1.496,0.055-2.243,0.082
				c-0.667-0.172-1.333-0.344-1.999-0.516c0.855-1.999,1.711-3.999,2.566-5.998c5.732-0.852,11.472-1.66,17.194-2.572
				c2.591-0.412,5.304-0.664,7.675-1.666c1.952-0.824,1.033-17.669-0.828-18.88c-0.546-0.355-1.199-0.551-1.812-0.798
				c-10.144-4.084-20.399-7.767-31.406-8.754c-0.899-2.744-3.233-2.417-5.343-2.422c-9.084-0.022-18.175,0.188-27.253-0.06
				c-5.013-0.137-8.098,1.167-7.827,6.801c0.028,0.601-0.428,1.225-0.647,1.833c-3.75-0.086-6.942-2.039-10.06-3.661
				c-4.674-2.431-10.019-0.885-14.595-3.168c4.565-29.207,9.099-58.408,14.844-87.428c2.557-12.912,7.771-22.681,20.552-27.358
				c1.162,0.01,2.144-0.371,3.233-0.868c7.993-3.652,16.165-6.86,24.656-9.196c0.923,2.112,0.12,4.183-0.026,6.303
				c-0.833,12.042,5.263,18.077,16.4,15.259c6.904-1.748,12.249-6.086,14.625-13.261c2.182-2.709,1.624-6.01,1.758-9.082
				c0.116-2.693,1.176-3.359,3.646-2.98c4.763,0.731,9.62,0.982,14.312,2.01C376.536,257.093,389.079,258.042,399.087,266.295z
				 M382.584,348.938c-1.099,9.562-2.255,19.117-3.247,28.69c-0.2,1.928,0.459,2.983,2.984,2.095c6.625-2.33,7.211-3.136,5.65-9.986
				c-0.404-1.778-0.619-3.602-1.071-5.366C385.583,359.235,385.5,353.776,382.584,348.938z M365.977,302.816
				c-5.367,1.278-10.872,0.714-16.31,1.173c-2.494,0.211-3.464,1.451-3.331,3.901c0.094,1.732,0.545,2.96,2.542,2.833
				c5.938-0.376,11.876-0.76,17.809-1.196c2.29-0.168,3.041-1.632,2.91-3.765C369.454,303.442,368.272,302.498,365.977,302.816z
				 M352.18,411.178c0.169,0.005,0.337,0.01,0.506,0.016c0-6.548,0-13.095,0-19.643c-0.169,0.002-0.337,0.005-0.506,0.007
				C352.18,398.098,352.18,404.638,352.18,411.178z"/>
			<path fill-rule="evenodd" clip-rule="evenodd" fill="#354966" d="M143.911,381.111c-0.273,1.122-0.547,2.245-0.82,3.366
				c-1.597,0.806-3.219,1.566-4.785,2.427c-5.855,3.221-7.633,11.083-3.531,15.513c1.627,2.452,3.457,4.497,6.627,5.107
				c1.498,0.289,2.363,1.738,2.192,3.459c-0.198,1.985-1.732,1.742-2.989,1.606c-3.754-0.405-5.295,1.414-4.85,4.917
				c0.339,2.672-1.033,3.099-3.153,3.06c-12.58-0.232-25.169,0.496-37.743-0.362c-0.008-1.824,0.207-3.682-0.057-5.468
				c-2.771-18.781-6.508-37.42-8.147-56.367c-0.305-3.519-1.87-4.326-5.338-2.918c-7.203,2.924-14.444,5.878-22.271,6.834
				c-1.127-3.48-1.997-6.946-7.209-5.116c-2.91,1.021-4.72-0.921-5.116-3.883c-2.206-16.481-4.504-32.952-6.497-49.459
				c-0.701-5.807-0.161-11.646,2.191-17.158c0.787-0.813,1.701-1.536,2.342-2.45c3.465-4.941,8.037-8.701,12.871-12.179
				c1.15-0.828,2.303-2.077,3.33,0.458c4.693,11.574,14.293,17.516,25.552,20.88c6.532,1.952,13.444,2.582,19.196-2.767
				c6.166,9.397,14.854,16.422,22.742,24.201c1.298,1.281,2.414,1.03,3.252-0.323c1.126-1.814,2.555-3.651,2.971-5.661
				c2.25-10.873,5.146-21.69,4.361-32.96c-0.185-2.649,0.449-4.863,2.433-6.652c7.886,3.504,14.425,8.645,19.562,15.62
				c0.677,0.918,0.634,3.525,3.08,2.209c3.245,8.223,6.495,16.443,9.73,24.669c0.84,2.138,1.635,4.293,2.45,6.44
				c-1.386,2.613-2.339,5.616-4.261,7.744c-2.559,2.833-2.627,5.561-2.118,9.065c1.067,7.358,1.181,14.865,2.445,22.18
				c0.542,3.135-2.002,6.559,0.978,9.342c-0.154,1.479-0.369,2.954-0.453,4.437c-0.451,7.986-0.449,7.742-8.746,8.026
				c-6.156,0.211-12.477-1.429-18.465,1.271c0,0-0.279-0.077-0.279-0.077l0.13,0.086c-0.57,0.352-1.14,0.704-1.709,1.057
				C143.81,381.285,143.911,381.111,143.911,381.111z M131.854,330.254c0.992-0.043,1.984-0.086,2.977-0.129
				c3.367-0.701,2.35-3.141,1.719-5.025c-0.697-2.082-2.465-3.028-4.746-2.553c-2.545,0.529-3.507,2.501-3.578,4.724
				c-0.064,2.044,0.912,3.743,3.341,3.882C131.646,331.156,131.758,330.566,131.854,330.254z"/>
			<path fill-rule="evenodd" clip-rule="evenodd" fill="#17213C" d="M105.706,290.611c-5.752,5.348-12.664,4.719-19.196,2.767
				c-11.259-3.364-20.858-9.306-25.552-20.88c-1.027-2.535-2.18-1.286-3.33-0.458c-4.834,3.478-9.406,7.238-12.871,12.179
				c-0.641,0.914-1.555,1.637-2.342,2.45c-4.343-14.275-4.275-27.871,6.152-39.869c4.627-5.324,6.426-11.399,5.482-18.466
				c-1.352-10.107,2.689-17.998,11.138-23.352c7.044-4.464,10.085-11.003,11.948-18.73c8.17-33.884,45.515-36.555,64.055-18.811
				c10.57,10.116,14.315,25.536,8.623,37.201c-1.072-4.316-2.072-8.65-3.262-12.931c-0.416-1.494-0.658-3.237-2.992-3.391
				c-5.402-0.357-9.49-3.068-13.437-6.796c-4.705-4.444-10.801-4.006-16.449-1.791c-5.169,2.027-6.588,6.684-6.645,11.836
				c-0.05,4.564,1.079,8.929,2.714,13.118c3.359,8.61,2.506,16.22-4.459,22.834c-3.59,3.41-3.36,7.329-0.666,11.287
				c1.909,2.804,4.578,4.807,7.086,6.993c5.283,4.606,5.937,9.644,2.018,15.433c-2.36,3.487-5.203,6.584-8.832,8.706
				c-4.041,2.362-3.834,5.065-1.605,8.552C105.629,282.163,107.794,285.997,105.706,290.611z"/>
			<path fill-rule="evenodd" clip-rule="evenodd" fill="#17213C" d="M313.895,256.229c-8.491,2.335-16.663,5.543-24.656,9.196
				c-1.09,0.498-2.071,0.878-3.233,0.868c-9.351-25.83-13.525-52.075-6.222-79.204c10.271-38.146,53.383-41.547,74.242-17.868
				c13.077,14.845,20.173,32.361,23.937,51.336c2.886,14.545,4.75,16.013-12.896,24.874c-2.012,1.01-4.169,1.732-6.256,2.584
				c-4.758,1.413-9.52,2.83-14.28,4.246c-2.286,0.385-4.679,0.466-6.836,1.219c-4.233,1.478-5.309,0.06-5.614-4.205
				c-1.061-14.802-3.943-29.323-8.09-43.567c-2.67-9.169-6.037-11.736-15.602-12.57c-5.315-0.463-10.992-0.447-15.047-4.325
				c-3.704-3.542-4.298-1.117-5.326,1.807c-4.117,11.706-2.634,23.31,0.821,34.79c4.348,14.445,11.31,21.523,26.165,21.064
				c0.026,1.363,0.053,2.726,0.078,4.089C314.685,252.452,314.29,254.34,313.895,256.229z"/>
			<path fill-rule="evenodd" clip-rule="evenodd" fill="#C5DAEE" d="M208.97,104.272c-0.141,25.075-19.914,45.173-44.782,44.988
				c-4.579-0.034-6.841,2.642-9.853,4.847c-1.057,0.774-2.219,2.667-3.792,1.449c-1.175-0.91-0.202-2.472,0.087-3.747
				c0.615-2.712,0.244-4.294-2.994-5.596c-28.34-11.39-39.081-47.988-15.687-72.287c13.126-13.633,29.172-16.96,46.667-11.339
				C196.938,68.474,208.421,84.851,208.97,104.272z"/>
			<path fill-rule="evenodd" clip-rule="evenodd" fill="#C5DAEE" d="M277.911,153.097c-3.26-9.794-12.561-10.043-19.748-13.638
				c-21.861-10.938-29.9-33.993-21.814-55.669c9.744-26.119,38.215-35.285,61.363-24.213c17.846,8.535,26.307,25.452,25.102,42.288
				c-1.436,20.047-12.408,33.441-31.18,40.475c-1.086,0.407-2.216,0.753-3.355,0.95
				C279.856,144.741,279.854,144.727,277.911,153.097z"/>
			<path fill-rule="evenodd" clip-rule="evenodd" fill="#F2B18C" d="M105.706,290.611c2.088-4.614-0.077-8.448-2.422-12.119
				c-2.229-3.486-2.436-6.19,1.605-8.552c3.629-2.121,6.472-5.219,8.832-8.706c3.919-5.789,3.266-10.826-2.018-15.433
				c-2.508-2.187-5.177-4.189-7.086-6.993c-2.694-3.958-2.924-7.877,0.666-11.287c6.965-6.615,7.818-14.225,4.459-22.834
				c-1.635-4.189-2.764-8.554-2.714-13.118c0.057-5.153,1.476-9.81,6.645-11.836c5.648-2.215,11.744-2.653,16.449,1.791
				c3.946,3.728,8.034,6.439,13.437,6.796c2.334,0.154,2.576,1.897,2.992,3.391c1.189,4.281,2.189,8.615,3.262,12.931
				c-1.119,5.776-0.676,11.64-1.02,17.459c-1.082,0.428-1.332,1.407-1.543,2.388c-2.227,10.312-7.737,17.816-18.084,21.199
				c-3.602-2.12-7.663-0.633-11.529-1.627c2.486,2.335,4.996,4.404,8.193,5.121c1.758,0.394,2.629,1.094,2.57,2.875
				c-0.981,8.006-0.537,8.886,6.555,12.883c2.264,1.276,4.746,2.22,6.502,4.27c-1.977,1.794-2.61,4.007-2.426,6.657
				c0.785,11.271-2.111,22.087-4.361,32.96c-0.416,2.01-1.845,3.847-2.971,5.661c-0.838,1.353-1.954,1.604-3.252,0.323
				C120.56,307.033,111.872,300.008,105.706,290.611z M128.487,228.799c-1.314-1.813-3.197-1.98-4.894-1.986
				c-1.311-0.004-3.734-1.693-3.827,1.115c-0.064,1.988,1.996,2.926,3.904,3.099C125.382,231.182,126.839,230.352,128.487,228.799z
				 M141.927,205.632c-0.264-1.624-0.807-3.187-2.569-3.15c-2.085,0.044-2.532,1.781-2.446,3.528
				c0.074,1.543,0.613,3.162,2.418,3.081C141.312,209.002,141.787,207.283,141.927,205.632z M121.649,210.315
				c2.088-0.395,2.437-1.903,2.382-3.656c-0.052-1.657-0.808-3.116-2.507-2.961c-1.889,0.172-2.554,1.86-2.438,3.647
				C119.188,208.912,119.817,210.177,121.649,210.315z M115.37,200.412c2.644-1.289,5.451-1.44,8.225-1.814
				C120.243,196.208,117.406,196.527,115.37,200.412z M134.905,199.096c2.305-0.79,4.711-1.292,7.693-0.891
				C138.811,194.826,138.45,194.866,134.905,199.096z"/>
			<path fill-rule="evenodd" clip-rule="evenodd" fill="#F2B18C" d="M173.331,366.484c-2.979-2.783-0.436-6.207-0.978-9.342
				c-1.265-7.314-1.378-14.821-2.445-22.18c-0.509-3.504-0.44-6.232,2.118-9.065c1.922-2.128,2.875-5.13,4.261-7.744
				c7.341-9.323,15.084-18.405,19.878-29.409c1.889-4.337-0.842-8.474-1.936-12.525c-1.641-6.072-4.051-11.938-6.162-17.881
				c-0.27-0.757-1.002-1.521-0.375-2.275c0.764-0.92,1.846-0.546,2.764-0.167c2.955,1.218,4.561,3.689,5.986,6.391
				c3.078,5.83,5.22,5.913,9.057,0.313c4.499-6.567,8.893-13.208,13.36-19.797c0.647-0.953,1.36-1.906,2.218-2.659
				c0.906-0.795,2.107-1.208,3.156-0.245c0.925,0.85,0.347,1.785-0.132,2.695c-1.466,2.786-2.972,5.557-4.295,8.411
				c-0.997,2.152-2.989,4-2.49,7.298c3.697-2.357,5.188-5.902,7.396-8.836c1.791-2.38,3.551-4.81,5.6-6.955
				c0.985-1.031,2.725-1.705,4.076-0.46c1.365,1.258,0.02,2.524-0.619,3.532c-1.748,2.754-3.691,5.384-5.866,8.507
				c3.792,0.248,4.469-3.091,6.588-4.29c1.531-0.866,2.911-2.147,4.341-0.594c1.301,1.412-0.105,2.762-1.033,3.895
				c-3.154,3.847-6.349,7.659-9.521,11.491c-0.968,1.168-2.167,2.548-0.827,3.917c1.167,1.192,2.426-0.099,3.52-0.771
				c2.535-1.558,4.816-3.613,7.815-4.269c1.266-0.276,2.887-0.578,3.657,0.751c0.988,1.706-0.938,2.14-1.787,3.011
				c-0.114,0.118-0.254,0.229-0.404,0.291c-10.869,4.498-17.482,13.556-24.197,22.522c-4.574,6.107-6.048,13.584-9.133,20.348
				c-8.744,19.167-17.406,38.378-31.244,54.63C175.047,365.762,174.597,366.774,173.331,366.484z"/>
			<path fill-rule="evenodd" clip-rule="evenodd" fill="#F2B18C" d="M59.046,362.286c7.826-0.957,15.067-3.91,22.271-6.834
				c3.468-1.408,5.033-0.601,5.338,2.918c1.64,18.946,5.377,37.585,8.147,56.367c0.264,1.786,0.049,3.644,0.057,5.467
				c-2.586,0.153-5.172,0.307-7.757,0.46c-4.321-0.053-8.643-0.143-12.964-0.145c-3.153-0.002-4.885-1.521-5.467-4.593
				c-2.068-10.896-4.534-21.713-6.092-32.712c-0.693-4.906-2.094-9.712-3.189-14.56C58.915,366.548,58.343,364.453,59.046,362.286z"
				/>
			<path fill-rule="evenodd" clip-rule="evenodd" fill="#17213C" d="M129.167,245.688c10.347-3.383,15.857-10.888,18.084-21.199
				c0.211-0.981,0.461-1.96,1.543-2.388c2.292,2.15,4.549,4.343,6.887,6.446c7.803,7.018,10.051,15.61,5.418,25.057
				c-3.278,6.683-3.174,11.772,2.369,17.304c4.66,4.649,3.537,10.61,0.641,16.13c-2.448,1.321-2.405-1.285-3.082-2.204
				c-5.137-6.975-11.676-12.116-19.562-15.62c-1.763-2.055-4.245-2.998-6.509-4.274c-7.092-3.997-7.536-4.877-6.559-12.87
				C128.651,249.952,128.909,247.82,129.167,245.688z"/>
			<path fill-rule="evenodd" clip-rule="evenodd" fill="#F2B18C" d="M316.334,381.755c11.007,0.988,21.263,4.67,31.406,8.754
				c0.612,0.247,1.266,0.442,1.812,0.798c1.861,1.211,2.78,18.056,0.828,18.88c-2.371,1.002-5.084,1.254-7.675,1.666
				c-5.723,0.912-11.462,1.721-17.196,2.573c-2.943,0.704-5.466,2.786-8.813,2.266c-2.506-0.391-4.166-1.013-3.27-3.984
				c0.851-0.295,1.701-0.589,2.551-0.887c3.186,0.178,5.023-2.568,7.682-3.534c1.944,0.212,3.333-0.289,3.232-2.597
				c-0.059-1.363-0.165-2.911-1.979-2.888c-3.21,0.04-6.697-1.44-9.469,1.473c-3.148-0.108-6.303-0.125-9.438-0.376
				c-1.086-0.087-2.551-0.557-2.363-2.021c0.133-1.029,1.388-1.361,2.403-1.416c3.813-0.207,7.542-0.736,11.106-2.461
				c-4.326-2.422-9.086,0.692-13.358-1.422c-1.093-0.541-3.048-0.077-2.994-1.825c0.042-1.382,1.799-1.014,2.817-1.431
				c4.588-1.88,9.479,0.262,14.069-1.194c3.095,1.939,5.642-0.03,8.534-0.83c-2.338-3.482-5.561-2.932-8.635-2.876
				c-5.31-0.597-11.032,1.37-16.149-2.742C305.86,381.775,311.363,382.704,316.334,381.755z"/>
			<path fill-rule="evenodd" clip-rule="evenodd" fill="#F2B18C" d="M250.609,381.078c4.576,2.284,9.921,0.737,14.595,3.168
				c3.117,1.622,6.31,3.574,10.06,3.661c1.534,2.331,4.409,2.674,6.423,4.319c1.244,1.018,3.169,1.757,2.652,3.664
				c-0.465,1.712-2.371,1.351-3.805,1.471c-0.65,0.055-1.298,0.147-1.941,0.222c-1.788-1.421-3.014-4.325-6.018-2.819
				c-2.723,1.365-1.445,4.045-1.525,6.198c-0.079,2.133,0.124,4.275,0.203,6.414c-2.336,6.797-8.215,9.36-16.999,7.414
				c-7.927-1.756-11.202-6.172-10.79-13.451C243.89,393.816,246.592,387.254,250.609,381.078z"/>
			<path fill-rule="evenodd" clip-rule="evenodd" fill="#C5DAEE" d="M87.102,420.663c2.585-0.153,5.171-0.307,7.757-0.46
				c12.574,0.859,25.163,0.131,37.743,0.363c2.12,0.039,3.492-0.388,3.153-3.06c-0.445-3.503,1.096-5.322,4.85-4.917
				c1.257,0.136,2.791,0.379,2.989-1.606c0.171-1.721-0.694-3.17-2.192-3.459c-3.17-0.61-5-2.655-6.626-5.106
				c0.217-1.618-0.626-3.785,2.118-4.1c0.314,0.912,0.438,1.971,0.99,2.702c0.807,1.065,1.202,2.787,3.279,2.324
				c2.444-0.545,1.847-2.432,1.814-3.914c-0.064-2.938,0.572-5.916-0.377-8.815c0.299-1.513-0.318-3.281,1.236-4.444
				c0.746,2.194-1.035,5.109,2.041,6.687c0.85,0.437,0.133,1.158-0.466,1.441c-1.296,0.612-1.296,1.738-1.423,2.93
				c-1.426,13.464,0.113,15.1,13.484,15.231c10.12,0.101,20.277-0.833,30.355,0.889c1.661,0.284,4.2-0.599,4.004,2.294
				c-0.146,2.171-1.34,4.515-3.765,4.662c-6.122,0.37-12.338,1.126-18.363,0.803c-10.973-0.588-21.845-0.386-32.81,0.043
				c-16.124,0.63-32.291,0.141-48.44,0.096C88.003,421.246,87.553,420.866,87.102,420.663z"/>
			<path fill-rule="evenodd" clip-rule="evenodd" fill="#C5DAEE" d="M313.427,412.708c-0.896,2.972,0.764,3.594,3.27,3.984
				c3.347,0.521,5.869-1.562,8.813-2.266c-0.854,1.998-1.709,3.998-2.564,5.998c-15.923,0.02-31.846,0.041-47.768,0.06
				c-0.5,0.001-1-0.004-1.498-0.021c-3.223-0.107-5.185-2.12-5.146-4.976c0.036-2.636,2.805-3.028,4.976-3.024
				C286.814,412.487,300.12,412.615,313.427,412.708z"/>
			<path fill-rule="evenodd" clip-rule="evenodd" fill="#F2B18C" d="M136.894,398.318c-2.744,0.314-1.901,2.481-2.118,4.1
				c-4.103-4.431-2.325-12.293,3.53-15.514c1.566-0.861,3.188-1.621,4.785-2.427c0.249,0.565,0.498,1.131,0.747,1.695
				c-1.556,1.163-0.938,2.931-1.237,4.444C139.583,392.357,136.962,394.392,136.894,398.318z"/>
			<path fill-rule="evenodd" clip-rule="evenodd" fill="#C5DAEE" d="M271.253,407.376c-0.079-2.139-0.282-4.281-0.203-6.414
				c0.08-2.153-1.197-4.833,1.525-6.198c3.004-1.506,4.229,1.398,6.018,2.819c-1.742,1.451-1.539,3.445-1.58,5.405
				C276.888,408.885,276.866,408.884,271.253,407.376z M275.917,400.638c-0.396-1.525,0.797-3.888-2.007-4.217
				c-2.326-0.272-2.044,1.509-2.027,2.972c0.021,1.901-0.575,4.32,2.312,4.521C276.612,404.083,275.504,401.877,275.917,400.638z"/>
			<path fill-rule="evenodd" clip-rule="evenodd" fill="#2F6DB5" d="M323.659,408.287c-2.658,0.966-4.496,3.712-7.682,3.534
				c0.379-1.409,0.759-2.82,1.139-4.233c0.258-0.595,0.477-1.212,0.783-1.78c1.781-3.311,5.002-2.058,6.885-1.109
				C327.366,405.999,324.132,407.045,323.659,408.287z"/>
			<path fill-rule="evenodd" clip-rule="evenodd" fill="#2F6DB5" d="M317.587,388.424c3.074-0.056,6.297-0.606,8.635,2.876
				c-2.893,0.799-5.439,2.769-8.534,0.83C317.655,390.895,317.621,389.66,317.587,388.424z"/>
			<path fill-rule="evenodd" clip-rule="evenodd" fill="#C5DAEE" d="M323.659,408.287c0.473-1.242,3.707-2.288,1.125-3.589
				c-1.883-0.948-5.104-2.201-6.885,1.109c-0.307,0.568-0.525,1.186-0.783,1.78c-0.42-1.175,0.093-2.824-1.678-3.312
				c2.777-2.914,6.265-1.434,9.475-1.474c1.813-0.023,1.92,1.524,1.979,2.888C326.992,407.998,325.604,408.499,323.659,408.287z"/>
			<path fill-rule="evenodd" clip-rule="evenodd" fill="#17213C" d="M352.028,420.77c7.948-0.034,15.91-0.69,23.787,0.563
				c0.552,0.208,1.146,0.409,1.739,0.61C369.106,420.999,360.515,422.245,352.028,420.77z"/>
			<path fill-rule="evenodd" clip-rule="evenodd" fill="#C5DAEE" d="M341.938,420.855c3.009-0.497,6.015-0.728,9.003,0.134
				C347.933,421.393,344.894,423.91,341.938,420.855z"/>
			<path fill-rule="evenodd" clip-rule="evenodd" fill="#C5DAEE" d="M324.943,420.939c0.747-0.027,1.495-0.055,2.243-0.082
				C326.509,422.821,325.722,421.767,324.943,420.939z"/>
			<polygon fill-rule="evenodd" clip-rule="evenodd" fill="#C5DAEE" points="145.518,380.228 145.388,380.142 145.667,380.219 			
				"/>
			<path fill-rule="evenodd" clip-rule="evenodd" fill="#C5DAEE" d="M143.911,381.111c0,0-0.102,0.174-0.103,0.174
				S143.911,381.111,143.911,381.111z"/>
			<path fill-rule="evenodd" clip-rule="evenodd" fill="#F2B18C" d="M344.529,252.261c1.281,4.053,0.227,8.176,0.365,12.266
				c-2.377,7.178-7.722,11.517-14.626,13.264c-11.138,2.818-17.233-3.217-16.4-15.259c0.146-2.12,0.949-4.191,0.026-6.303
				c0.396-1.888,0.79-3.777,1.186-5.667c3.681-1.519,6.795-3.66,9.218-8.698c-3.866,1.917-6.581,3.264-9.297,4.611
				c-14.855,0.459-21.817-6.619-26.165-21.064c-3.455-11.48-4.938-23.084-0.821-34.79c1.028-2.924,1.622-5.348,5.326-1.807
				c4.055,3.877,9.731,3.861,15.047,4.325c9.564,0.834,12.932,3.401,15.602,12.57c4.146,14.244,7.029,28.765,8.09,43.567
				c0.306,4.264,1.381,5.683,5.614,4.205C339.851,252.727,342.243,252.646,344.529,252.261z M312.498,204.906
				c-1.818,0.699-2.544,2.105-2.251,3.935c0.25,1.567,0.99,2.998,2.929,2.64c1.925-0.355,1.95-2.011,1.929-3.541
				C315.079,206.245,314.379,205.079,312.498,204.906z M294.194,213.347c1.846-0.216,2.457-1.555,2.585-3.075
				c0.151-1.789-0.579-3.461-2.469-3.637c-1.778-0.165-2.407,1.434-2.48,3.005C291.749,211.378,292.176,212.902,294.194,213.347z
				 M317.231,201.973c-3.679-3.778-5.541-3.672-8.79,0.65C311.263,201.171,314.127,201.235,317.231,201.973z M313.838,225.647
				c-1.456,3.119-4.538,4.002-7.816,5.425C310.833,231.723,313.385,230.063,313.838,225.647z M298.133,202.562
				c-2.438-2.425-5.015-3.804-8.247,0.637C293.093,202.072,295.563,202.13,298.133,202.562z"/>
			<path fill-rule="evenodd" clip-rule="evenodd" fill="#C5DAEE" d="M382.584,348.938c2.916,4.838,2.999,10.297,4.316,15.433
				c0.452,1.764,0.667,3.588,1.071,5.366c1.561,6.85,0.975,7.656-5.65,9.986c-2.525,0.888-3.185-0.167-2.984-2.095
				C380.329,368.055,381.485,358.499,382.584,348.938z"/>
			<path fill-rule="evenodd" clip-rule="evenodd" fill="#C5DAEE" d="M365.977,302.816c2.296-0.319,3.478,0.626,3.62,2.946
				c0.131,2.133-0.62,3.597-2.91,3.765c-5.933,0.436-11.87,0.82-17.809,1.196c-1.997,0.126-2.448-1.101-2.542-2.833
				c-0.133-2.45,0.837-3.69,3.331-3.901C355.104,303.53,360.609,304.095,365.977,302.816z"/>
			<path fill-rule="evenodd" clip-rule="evenodd" fill="#17213C" d="M352.18,411.178c0-6.54,0-13.08,0-19.62
				c0.169-0.002,0.337-0.005,0.506-0.007c0,6.548,0,13.095,0,19.643C352.517,411.188,352.349,411.183,352.18,411.178z"/>
			<path fill-rule="evenodd" clip-rule="evenodd" fill="#354966" d="M131.854,330.254c-0.097,0.313-0.209,0.902-0.288,0.898
				c-2.429-0.14-3.405-1.838-3.341-3.882c0.071-2.223,1.033-4.194,3.578-4.724c2.281-0.475,4.049,0.471,4.746,2.553
				c0.631,1.885,1.648,4.324-1.719,5.025c0.028-0.975,0.113-1.953,0.072-2.925c-0.048-1.134-0.051-2.361-1.59-2.608
				c-2.121-0.34-0.75,1.878-1.861,2.586C130.54,327.76,131.147,329.271,131.854,330.254z"/>
			<path fill-rule="evenodd" clip-rule="evenodd" fill="#354966" d="M131.854,330.254c-0.707-0.983-1.314-2.494-0.402-3.076
				c1.111-0.708-0.26-2.927,1.861-2.586c1.539,0.247,1.542,1.474,1.59,2.608c0.041,0.972-0.044,1.95-0.072,2.925
				C133.839,330.167,132.847,330.21,131.854,330.254z"/>
			<path fill-rule="evenodd" clip-rule="evenodd" fill="#EF8523" d="M315.001,246.474c2.716-1.347,5.431-2.693,9.297-4.611
				c-2.423,5.039-5.537,7.179-9.218,8.698C315.054,249.2,315.027,247.837,315.001,246.474z"/>
			<path fill-rule="evenodd" clip-rule="evenodd" fill="#EF8523" d="M129.167,245.688c-0.258,2.132-0.516,4.264-0.77,6.382
				c0.063-1.795-0.809-2.495-2.566-2.889c-3.197-0.716-5.707-2.785-8.193-5.121C121.504,245.055,125.565,243.568,129.167,245.688z"
				/>
			<path fill-rule="evenodd" clip-rule="evenodd" fill="#FFFFFF" d="M128.487,228.799c-1.648,1.553-3.105,2.383-4.816,2.228
				c-1.908-0.173-3.969-1.11-3.904-3.099c0.093-2.809,2.517-1.12,3.827-1.115C125.29,226.819,127.173,226.985,128.487,228.799z"/>
			<path fill-rule="evenodd" clip-rule="evenodd" fill="#17213C" d="M141.927,205.632c-0.14,1.651-0.615,3.371-2.598,3.459
				c-1.805,0.081-2.344-1.538-2.418-3.081c-0.086-1.747,0.361-3.483,2.446-3.528C141.12,202.445,141.663,204.008,141.927,205.632z"
				/>
			<path fill-rule="evenodd" clip-rule="evenodd" fill="#17213C" d="M121.649,210.315c-1.832-0.138-2.461-1.404-2.563-2.971
				c-0.116-1.787,0.549-3.475,2.438-3.647c1.699-0.155,2.455,1.305,2.507,2.961C124.086,208.413,123.737,209.92,121.649,210.315z"/>
			<path fill-rule="evenodd" clip-rule="evenodd" fill="#17213C" d="M115.37,200.412c2.036-3.885,4.873-4.203,8.225-1.814
				C120.821,198.971,118.014,199.123,115.37,200.412z"/>
			<path fill-rule="evenodd" clip-rule="evenodd" fill="#17213C" d="M134.905,199.096c3.545-4.23,3.905-4.27,7.693-0.891
				C139.616,197.804,137.21,198.307,134.905,199.096z"/>
			<path fill-rule="evenodd" clip-rule="evenodd" fill="#354966" d="M136.894,398.318c0.068-3.927,2.689-5.961,5.707-7.703
				c0.949,2.899,0.313,5.877,0.377,8.815c0.032,1.482,0.63,3.369-1.814,3.914c-2.077,0.463-2.473-1.259-3.279-2.324
				C137.331,400.289,137.208,399.23,136.894,398.318z"/>
			<path fill-rule="evenodd" clip-rule="evenodd" fill="#2F6DB5" d="M275.917,400.638c-0.413,1.239,0.695,3.445-1.723,3.276
				c-2.887-0.201-2.291-2.62-2.312-4.521c-0.017-1.463-0.299-3.244,2.027-2.972C276.714,396.75,275.521,399.112,275.917,400.638z"/>
			<path fill-rule="evenodd" clip-rule="evenodd" fill="#17213C" d="M312.498,204.906c1.881,0.173,2.581,1.339,2.606,3.034
				c0.021,1.53-0.004,3.186-1.929,3.541c-1.938,0.358-2.679-1.073-2.929-2.64C309.954,207.011,310.68,205.605,312.498,204.906z"/>
			<path fill-rule="evenodd" clip-rule="evenodd" fill="#17213C" d="M294.194,213.347c-2.019-0.445-2.445-1.969-2.364-3.707
				c0.073-1.572,0.702-3.17,2.48-3.005c1.89,0.175,2.62,1.848,2.469,3.637C296.651,211.792,296.04,213.131,294.194,213.347z"/>
			<path fill-rule="evenodd" clip-rule="evenodd" fill="#17213C" d="M317.231,201.973c-3.104-0.738-5.969-0.802-8.79,0.65
				C311.69,198.301,313.553,198.195,317.231,201.973z"/>
			<path fill-rule="evenodd" clip-rule="evenodd" fill="#17213C" d="M313.838,225.647c-0.453,4.415-3.005,6.076-7.816,5.425
				C309.3,229.649,312.382,228.766,313.838,225.647z"/>
			<path fill-rule="evenodd" clip-rule="evenodd" fill="#17213C" d="M298.133,202.562c-2.569-0.432-5.04-0.49-8.247,0.637
				C293.118,198.758,295.694,200.137,298.133,202.562z"/>
		</g>
	</g>
	<g>
		<defs>
			<rect id="SVGID_11_" x="28.163" y="65.068" width="380.248" height="380.248"/>
		</defs>
		<clipPath id="SVGID_4_">
			<use xlink:href="#SVGID_11_"  overflow="visible"/>
		</clipPath>
	</g>
	<g>
		<path fill="#1D2A57" d="M45.077,93.319c0.1-1.274,0.15-2.296,0.15-3.068l0.302-7.343c4.19-3.751,8.021-7.377,11.492-10.877
			c3.47-3.5,7.016-7.25,10.637-11.254c3.621-4.002,6.354-7.226,8.198-9.671c1.508-1.976,2.514-3.458,3.018-4.447
			c0.502-0.988,0.837-1.825,1.006-2.511c0.167-0.687,0.251-1.382,0.251-2.086c0-1.842-0.554-3.34-1.659-4.496
			c-1.107-1.155-2.624-2.06-4.552-2.713c-1.929-0.653-4.167-0.98-6.714-0.98c-2.348,0-4.896,0.206-7.645,0.618
			c-2.75,0.412-6.287,1.161-10.612,2.249l0.956-5.08c0.201-1.207,0.502-3.235,0.904-6.085c7.746-1.408,15.189-2.112,22.33-2.112
			c3.252,0,6.388,0.311,9.405,0.931c3.018,0.621,5.708,1.677,8.072,3.168c2.363,1.492,4.09,3.219,5.18,5.181
			c1.09,1.961,1.635,4.016,1.635,6.161c0,1.275-0.126,2.54-0.377,3.797c-0.252,1.257-0.612,2.406-1.081,3.445
			c-0.906,2.08-2.056,4.174-3.447,6.287s-3.571,4.929-6.539,8.449s-6.204,7.125-9.708,10.813
			c-3.505,3.689-7.403,7.561-11.695,11.618h4.577l11.218-0.05c3.723,0,6.456-0.042,8.199-0.125c1.744-0.083,3.84-0.243,6.288-0.478
			c-0.067,1.04-0.176,2.389-0.326,4.048c-0.151,1.66-0.327,3.865-0.528,6.614c-7.611-0.067-15.524-0.101-23.738-0.101
			C60.215,93.218,51.815,93.252,45.077,93.319z"/>
	</g>
</g>
<g id="廣告圖1">
</g>
<g id="圖層_8">
</g>
</svg>
