<?xml version="1.0" encoding="utf-8"?>
<!-- Generator: Adobe Illustrator 16.0.0, SVG Export Plug-In . SVG Version: 6.00 Build 0)  -->
<!DOCTYPE svg PUBLIC "-//W3C//DTD SVG 1.1//EN" "http://www.w3.org/Graphics/SVG/1.1/DTD/svg11.dtd">
<svg version="1.1" xmlns="http://www.w3.org/2000/svg" xmlns:xlink="http://www.w3.org/1999/xlink" x="0px" y="0px"
	 width="337.656px" height="236.602px" viewBox="0 0 337.656 236.602" enable-background="new 0 0 337.656 236.602"
	 xml:space="preserve">
<g id="圖層_2" display="none">
</g>
<g id="圖層_1參考">
</g>
<g id="圖層_3">
</g>
<g id="圖層_4">
</g>
<g id="圖層_7">
</g>
<g id="圖層_6">
</g>
<g id="廣告圖1">
</g>
<g id="圖層_8">
	<path fill-rule="evenodd" clip-rule="evenodd" fill="#ECECA5" d="M337.536,182.414c-0.613-3.435-3.247-3.832-5.458-4.71
		c-10.693-4.242-20.721-10.088-29.945-18.185c7.844-15.635,11.71-32.15,10.302-49.686c-3.171-39.467-24.898-67.841-58.438-87.309
		C232.354,9.963,208.128,5.358,183.499,3.317c-18.216-1.511-36.429-0.897-54.577,1.988C97.198,10.351,67.603,20.36,41.655,39.993
		C16.609,58.938,1.261,83.022,0.049,115.05c-0.085,2.7-0.104,5.383-0.049,8.053c-0.017,0.692-0.034,1.383-0.034,2.078
		c0,21.65,8.143,41.855,22.217,58.957c7.246,9.195,15.793,16.828,25.402,23.193c26.113,18.176,60.913,29.271,99.131,29.271
		c0.504,0,1.005-0.012,1.507-0.015c0.005,0.007,0.013,0.01,0.018,0.015c0.083-0.005,0.165-0.013,0.249-0.017
		c17.263-0.156,33.81-2.569,49.148-6.88c0.675-0.129,1.35-0.255,2.025-0.386c0.756-0.406,1.68-0.715,2.815-0.941
		c15.304-3.042,30.21-7.708,43.98-14.98c8.432-4.453,16.443-9.352,23.821-15.049c0.527,0.011,1.088,0.071,1.738,0.248
		c22.885,6.259,43.213,1.535,61.929-9.768C336.145,187.499,338.177,185.986,337.536,182.414z"/>
	<g>
		<path fill="#354966" stroke="#354966" stroke-miterlimit="10" d="M171.212,68.552c-0.521,0-0.78-0.271-0.78-0.811
			c0-0.52,0.26-0.779,0.78-0.779h25.319c0.521,0,0.78,0.26,0.78,0.779c0,0.54-0.26,0.811-0.78,0.811h-12.66H171.212z"/>
		<path fill="#354966" stroke="#354966" stroke-miterlimit="10" d="M205.621,70.352c-0.38,0-0.68-0.109-0.899-0.33
			c-0.221-0.22-0.33-0.52-0.33-0.899v-7.891c-0.9,1.2-1.811,2.25-2.73,3.15c-0.34,0.32-0.68,0.34-1.02,0.06
			c-0.44-0.34-0.431-0.709,0.03-1.109c2.439-2.24,4.39-5.011,5.85-8.311c0.18-0.38,0.48-0.51,0.9-0.39
			c0.479,0.16,0.619,0.45,0.42,0.87c-0.48,1.02-0.95,1.91-1.41,2.67h5.97c0.48-0.88,0.95-1.88,1.41-3c0.16-0.4,0.46-0.54,0.9-0.42
			c0.52,0.14,0.659,0.47,0.42,0.989c-0.461,0.921-0.9,1.73-1.32,2.431h10.44c0.42,0,0.63,0.21,0.63,0.63s-0.21,0.63-0.63,0.63h-9.66
			v2.4h8.46c0.38,0,0.569,0.19,0.569,0.569c0,0.4-0.189,0.601-0.569,0.601h-8.46v2.43h8.46c0.38,0,0.569,0.19,0.569,0.57
			c0,0.4-0.189,0.6-0.569,0.6h-8.46v2.521h10.2c0.399,0,0.6,0.2,0.6,0.6c0,0.42-0.2,0.63-0.6,0.63h-9.9H205.621z M200.852,81.212
			c-0.221-0.521-0.021-0.811,0.6-0.87c4.141-0.4,7.771-1.1,10.891-2.101c-2.24-1.079-4.011-2.289-5.311-3.63
			c-0.34-0.359-0.27-0.67,0.21-0.93l0.09-0.03h-5.13c-0.42,0-0.63-0.21-0.63-0.63s0.21-0.63,0.63-0.63h9.511h9.72
			c0.479,0,0.78,0.12,0.899,0.36c0.12,0.239,0.04,0.569-0.239,0.989c-1.46,1.801-3.551,3.311-6.271,4.53
			c3.04,1.001,6.5,1.69,10.38,2.07c0.7,0.06,0.88,0.36,0.54,0.899c-0.18,0.301-0.47,0.431-0.87,0.391
			c-4.46-0.48-8.39-1.37-11.79-2.67c-3.439,1.3-7.56,2.209-12.359,2.729C201.302,81.711,201.012,81.552,200.852,81.212z
			 M205.802,61.832h3.689h3.69v-2.4h-7.38V61.832z M205.802,65.432h3.689h3.69v-2.43h-7.38V65.432z M206.222,69.122h3.27h3.69
			v-2.521h-7.38v2.101C205.802,68.982,205.941,69.122,206.222,69.122z M214.081,77.611c2.9-1.1,5.101-2.419,6.601-3.96h-6.42h-6.42
			C209.301,75.231,211.382,76.552,214.081,77.611z"/>
		<path fill="#354966" stroke="#354966" stroke-miterlimit="10" d="M243.812,81.662c-0.5,0-0.75-0.24-0.75-0.721v-6.63h-11.67
			c-0.46,0-0.69-0.24-0.69-0.72c0-0.46,0.23-0.69,0.69-0.69h11.67v-5.31h-8.52c-0.461,0-0.69-0.229-0.69-0.69
			c0-0.46,0.229-0.689,0.69-0.689h8.52v-5.07h-9.99c-0.46,0-0.689-0.24-0.689-0.72c0-0.46,0.229-0.69,0.689-0.69h5.37
			c-0.521-1.3-1.24-2.609-2.16-3.93c-0.3-0.46-0.21-0.79,0.271-0.99c0.34-0.14,0.64-0.05,0.899,0.271
			c0.82,1.199,1.46,2.27,1.92,3.21c0.101,0.239,0.091,0.495-0.029,0.765c-0.12,0.271-0.33,0.476-0.63,0.615l-0.12,0.06h9.989
			l-0.51-0.21c-0.22-0.1-0.27-0.24-0.149-0.42c0.88-1.26,1.649-2.61,2.31-4.05c0.2-0.42,0.52-0.55,0.96-0.39
			c0.5,0.2,0.62,0.55,0.36,1.05c-0.94,1.66-1.8,3-2.58,4.02h5.79c0.46,0,0.689,0.23,0.689,0.69c0,0.479-0.229,0.72-0.689,0.72
			h-10.23v5.07h8.4c0.46,0,0.689,0.229,0.689,0.689c0,0.461-0.229,0.69-0.689,0.69h-8.4v5.31h6.21h5.521
			c0.46,0,0.689,0.23,0.689,0.69c0,0.479-0.229,0.72-0.689,0.72h-11.73v6.63C244.531,81.422,244.292,81.662,243.812,81.662z"/>
		<path fill="#354966" stroke="#354966" stroke-miterlimit="10" d="M262.562,79.861c-0.42,0-0.78-0.149-1.08-0.449
			c-0.3-0.301-0.45-0.695-0.45-1.186c0-0.489,0.15-0.885,0.45-1.185c0.3-0.301,0.66-0.45,1.08-0.45s0.78,0.149,1.08,0.45
			c0.3,0.3,0.45,0.7,0.45,1.199c0,0.48-0.15,0.87-0.45,1.171C263.342,79.712,262.981,79.861,262.562,79.861z"/>
		<path fill="#354966" stroke="#354966" stroke-miterlimit="10" d="M270.062,79.861c-0.42,0-0.78-0.149-1.08-0.449
			c-0.3-0.301-0.45-0.695-0.45-1.186c0-0.489,0.15-0.885,0.45-1.185c0.3-0.301,0.66-0.45,1.08-0.45s0.78,0.149,1.08,0.45
			c0.3,0.3,0.45,0.7,0.45,1.199c0,0.48-0.15,0.87-0.45,1.171C270.842,79.712,270.481,79.861,270.062,79.861z"/>
		<path fill="#354966" stroke="#354966" stroke-miterlimit="10" d="M277.562,79.861c-0.42,0-0.78-0.149-1.08-0.449
			c-0.3-0.301-0.45-0.695-0.45-1.186c0-0.489,0.15-0.885,0.45-1.185c0.3-0.301,0.66-0.45,1.08-0.45s0.78,0.149,1.08,0.45
			c0.3,0.3,0.45,0.7,0.45,1.199c0,0.48-0.15,0.87-0.45,1.171C278.342,79.712,277.981,79.861,277.562,79.861z"/>
	</g>
	<g>
		<path fill="#354966" stroke="#354966" stroke-miterlimit="10" d="M103.191,122.876c-0.5,0-0.75-0.26-0.75-0.78
			c0-0.499,0.25-0.75,0.75-0.75h24.75c0.5,0,0.75,0.251,0.75,0.75c0,0.521-0.25,0.78-0.75,0.78h-12.39H103.191z M105.771,104.846
			c-0.5,0-0.75-0.249-0.75-0.75c0-0.499,0.25-0.75,0.75-0.75h19.59c0.5,0,0.75,0.251,0.75,0.75c0,0.501-0.25,0.75-0.75,0.75h-9.81
			H105.771z"/>
		<path fill="#354966" stroke="#354966" stroke-miterlimit="10" d="M137.361,114.836c-0.38,0-0.68-0.109-0.899-0.33
			c-0.221-0.22-0.33-0.52-0.33-0.899v-7.891c-0.9,1.2-1.811,2.25-2.73,3.15c-0.34,0.32-0.68,0.34-1.02,0.06
			c-0.44-0.34-0.431-0.709,0.03-1.109c2.439-2.24,4.39-5.011,5.85-8.311c0.18-0.38,0.48-0.51,0.9-0.39
			c0.479,0.16,0.619,0.45,0.42,0.87c-0.48,1.02-0.95,1.91-1.41,2.67h5.97c0.48-0.88,0.95-1.88,1.41-3c0.16-0.4,0.46-0.54,0.9-0.42
			c0.52,0.14,0.659,0.47,0.42,0.989c-0.461,0.921-0.9,1.73-1.32,2.431h10.44c0.42,0,0.63,0.21,0.63,0.63s-0.21,0.63-0.63,0.63h-9.66
			v2.4h8.46c0.38,0,0.569,0.19,0.569,0.569c0,0.4-0.189,0.601-0.569,0.601h-8.46v2.43h8.46c0.38,0,0.569,0.19,0.569,0.57
			c0,0.4-0.189,0.6-0.569,0.6h-8.46v2.521h10.2c0.399,0,0.6,0.2,0.6,0.6c0,0.42-0.2,0.63-0.6,0.63h-9.9H137.361z M132.592,125.696
			c-0.221-0.521-0.021-0.811,0.6-0.87c4.141-0.4,7.771-1.1,10.891-2.101c-2.24-1.079-4.011-2.289-5.311-3.63
			c-0.34-0.359-0.27-0.67,0.21-0.93l0.09-0.03h-5.13c-0.42,0-0.63-0.21-0.63-0.63s0.21-0.63,0.63-0.63h9.511h9.72
			c0.479,0,0.78,0.12,0.899,0.36c0.12,0.239,0.04,0.569-0.239,0.989c-1.46,1.801-3.551,3.311-6.271,4.53
			c3.04,1.001,6.5,1.69,10.38,2.07c0.7,0.06,0.88,0.36,0.54,0.899c-0.18,0.301-0.47,0.431-0.87,0.391
			c-4.46-0.48-8.39-1.37-11.79-2.67c-3.439,1.3-7.56,2.209-12.359,2.729C133.042,126.195,132.752,126.036,132.592,125.696z
			 M137.542,106.316h3.689h3.69v-2.4h-7.38V106.316z M137.542,109.916h3.689h3.69v-2.43h-7.38V109.916z M137.962,113.606h3.27h3.69
			v-2.521h-7.38v2.101C137.542,113.467,137.682,113.606,137.962,113.606z M145.821,122.096c2.9-1.1,5.101-2.419,6.601-3.96h-6.42
			h-6.42C141.041,119.716,143.122,121.036,145.821,122.096z"/>
		<path fill="#354966" stroke="#354966" stroke-miterlimit="10" d="M175.552,126.146c-0.5,0-0.75-0.24-0.75-0.721v-6.63h-11.67
			c-0.46,0-0.69-0.24-0.69-0.72c0-0.46,0.23-0.69,0.69-0.69h11.67v-5.31h-8.52c-0.461,0-0.69-0.229-0.69-0.69
			c0-0.46,0.229-0.689,0.69-0.689h8.52v-5.07h-9.99c-0.46,0-0.689-0.24-0.689-0.72c0-0.46,0.229-0.69,0.689-0.69h5.37
			c-0.521-1.3-1.24-2.609-2.16-3.93c-0.3-0.46-0.21-0.79,0.271-0.99c0.34-0.14,0.64-0.05,0.899,0.271
			c0.82,1.199,1.46,2.27,1.92,3.21c0.101,0.239,0.091,0.495-0.029,0.765c-0.12,0.271-0.33,0.476-0.63,0.615l-0.12,0.06h9.989
			l-0.51-0.21c-0.22-0.1-0.27-0.24-0.149-0.42c0.88-1.26,1.649-2.61,2.31-4.05c0.2-0.42,0.52-0.55,0.96-0.39
			c0.5,0.2,0.62,0.55,0.36,1.05c-0.94,1.66-1.8,3-2.58,4.02h5.79c0.46,0,0.689,0.23,0.689,0.69c0,0.479-0.229,0.72-0.689,0.72
			h-10.23v5.07h8.4c0.46,0,0.689,0.229,0.689,0.689c0,0.461-0.229,0.69-0.689,0.69h-8.4v5.31h6.21h5.521
			c0.46,0,0.689,0.23,0.689,0.69c0,0.479-0.229,0.72-0.689,0.72h-11.73v6.63C176.271,125.906,176.032,126.146,175.552,126.146z"/>
		<path fill="#354966" stroke="#354966" stroke-miterlimit="10" d="M194.302,124.346c-0.42,0-0.78-0.149-1.08-0.449
			c-0.3-0.301-0.45-0.695-0.45-1.186c0-0.489,0.15-0.885,0.45-1.185c0.3-0.301,0.66-0.45,1.08-0.45s0.78,0.149,1.08,0.45
			c0.3,0.3,0.45,0.7,0.45,1.199c0,0.48-0.15,0.87-0.45,1.171C195.082,124.196,194.722,124.346,194.302,124.346z"/>
		<path fill="#354966" stroke="#354966" stroke-miterlimit="10" d="M201.802,124.346c-0.42,0-0.78-0.149-1.08-0.449
			c-0.3-0.301-0.45-0.695-0.45-1.186c0-0.489,0.15-0.885,0.45-1.185c0.3-0.301,0.66-0.45,1.08-0.45s0.78,0.149,1.08,0.45
			c0.3,0.3,0.45,0.7,0.45,1.199c0,0.48-0.15,0.87-0.45,1.171C202.582,124.196,202.222,124.346,201.802,124.346z"/>
		<path fill="#354966" stroke="#354966" stroke-miterlimit="10" d="M209.302,124.346c-0.42,0-0.78-0.149-1.08-0.449
			c-0.3-0.301-0.45-0.695-0.45-1.186c0-0.489,0.15-0.885,0.45-1.185c0.3-0.301,0.66-0.45,1.08-0.45s0.78,0.149,1.08,0.45
			c0.3,0.3,0.45,0.7,0.45,1.199c0,0.48-0.15,0.87-0.45,1.171C210.082,124.196,209.722,124.346,209.302,124.346z"/>
	</g>
	<g>
		<path fill="#354966" stroke="#354966" stroke-miterlimit="10" d="M43.099,171.079c-0.479,0-0.72-0.24-0.72-0.72
			c0-0.48,0.24-0.721,0.72-0.721h24.24c0.479,0,0.72,0.24,0.72,0.721c0,0.479-0.24,0.72-0.72,0.72h-12.12H43.099z M44.869,150.679
			c-0.48,0-0.721-0.239-0.721-0.72c0-0.479,0.24-0.72,0.721-0.72h20.819c0.48,0,0.721,0.24,0.721,0.72c0,0.48-0.24,0.72-0.721,0.72
			h-10.41H44.869z M46.639,160.52c-0.479,0-0.72-0.24-0.72-0.721c0-0.479,0.24-0.72,0.72-0.72h16.74c0.479,0,0.72,0.24,0.72,0.72
			c0,0.48-0.24,0.721-0.72,0.721h-8.37H46.639z"/>
		<path fill="#354966" stroke="#354966" stroke-miterlimit="10" d="M77.028,162.169c-0.38,0-0.68-0.109-0.899-0.33
			c-0.221-0.22-0.33-0.52-0.33-0.899v-7.891c-0.9,1.2-1.811,2.25-2.73,3.15c-0.34,0.32-0.68,0.34-1.02,0.06
			c-0.44-0.34-0.431-0.709,0.03-1.109c2.439-2.24,4.39-5.011,5.85-8.311c0.18-0.38,0.48-0.51,0.9-0.39
			c0.479,0.16,0.619,0.45,0.42,0.87c-0.48,1.02-0.95,1.91-1.41,2.67h5.97c0.48-0.88,0.95-1.88,1.41-3c0.16-0.4,0.46-0.54,0.9-0.42
			c0.52,0.14,0.659,0.47,0.42,0.989c-0.461,0.921-0.9,1.73-1.32,2.431h10.44c0.42,0,0.63,0.21,0.63,0.63s-0.21,0.63-0.63,0.63h-9.66
			v2.4h8.46c0.38,0,0.569,0.19,0.569,0.569c0,0.4-0.189,0.601-0.569,0.601h-8.46v2.43h8.46c0.38,0,0.569,0.19,0.569,0.57
			c0,0.4-0.189,0.6-0.569,0.6h-8.46v2.521h10.2c0.399,0,0.6,0.2,0.6,0.6c0,0.42-0.2,0.63-0.6,0.63h-9.9H77.028z M72.259,173.029
			c-0.221-0.521-0.021-0.811,0.6-0.87c4.141-0.4,7.771-1.1,10.891-2.101c-2.24-1.079-4.011-2.289-5.311-3.63
			c-0.34-0.359-0.27-0.67,0.21-0.93l0.09-0.03h-5.13c-0.42,0-0.63-0.21-0.63-0.63s0.21-0.63,0.63-0.63h9.511h9.72
			c0.479,0,0.78,0.12,0.899,0.36c0.12,0.239,0.04,0.569-0.239,0.989c-1.46,1.801-3.551,3.311-6.271,4.53
			c3.04,1.001,6.5,1.69,10.38,2.07c0.7,0.06,0.88,0.36,0.54,0.899c-0.18,0.301-0.47,0.431-0.87,0.391
			c-4.46-0.48-8.39-1.37-11.79-2.67c-3.439,1.3-7.56,2.209-12.359,2.729C72.709,173.528,72.419,173.369,72.259,173.029z
			 M77.209,153.649h3.689h3.69v-2.4h-7.38V153.649z M77.209,157.249h3.689h3.69v-2.43h-7.38V157.249z M77.629,160.939h3.27h3.69
			v-2.521h-7.38v2.101C77.209,160.8,77.349,160.939,77.629,160.939z M85.488,169.429c2.9-1.1,5.101-2.419,6.601-3.96h-6.42h-6.42
			C80.708,167.049,82.789,168.369,85.488,169.429z"/>
		<path fill="#354966" stroke="#354966" stroke-miterlimit="10" d="M115.219,173.479c-0.5,0-0.75-0.24-0.75-0.721v-6.63h-11.67
			c-0.46,0-0.69-0.24-0.69-0.72c0-0.46,0.23-0.69,0.69-0.69h11.67v-5.31h-8.52c-0.461,0-0.69-0.229-0.69-0.69
			c0-0.46,0.229-0.689,0.69-0.689h8.52v-5.07h-9.99c-0.46,0-0.689-0.24-0.689-0.72c0-0.46,0.229-0.69,0.689-0.69h5.37
			c-0.521-1.3-1.24-2.609-2.16-3.93c-0.3-0.46-0.21-0.79,0.271-0.99c0.34-0.14,0.64-0.05,0.899,0.271
			c0.82,1.199,1.46,2.27,1.92,3.21c0.101,0.239,0.091,0.495-0.029,0.765c-0.12,0.271-0.33,0.476-0.63,0.615l-0.12,0.06h9.989
			l-0.51-0.21c-0.22-0.1-0.27-0.24-0.149-0.42c0.88-1.26,1.649-2.61,2.31-4.05c0.2-0.42,0.52-0.55,0.96-0.39
			c0.5,0.2,0.62,0.55,0.36,1.05c-0.94,1.66-1.8,3-2.58,4.02h5.79c0.46,0,0.689,0.23,0.689,0.69c0,0.479-0.229,0.72-0.689,0.72
			h-10.23v5.07h8.4c0.46,0,0.689,0.229,0.689,0.689c0,0.461-0.229,0.69-0.689,0.69h-8.4v5.31h6.21h5.521
			c0.46,0,0.689,0.23,0.689,0.69c0,0.479-0.229,0.72-0.689,0.72h-11.73v6.63C115.938,173.239,115.699,173.479,115.219,173.479z"/>
		<path fill="#354966" stroke="#354966" stroke-miterlimit="10" d="M133.969,171.679c-0.42,0-0.78-0.149-1.08-0.449
			c-0.3-0.301-0.45-0.695-0.45-1.186c0-0.489,0.15-0.885,0.45-1.185c0.3-0.301,0.66-0.45,1.08-0.45s0.78,0.149,1.08,0.45
			c0.3,0.3,0.45,0.7,0.45,1.199c0,0.48-0.15,0.87-0.45,1.171C134.749,171.529,134.389,171.679,133.969,171.679z"/>
		<path fill="#354966" stroke="#354966" stroke-miterlimit="10" d="M141.469,171.679c-0.42,0-0.78-0.149-1.08-0.449
			c-0.3-0.301-0.45-0.695-0.45-1.186c0-0.489,0.15-0.885,0.45-1.185c0.3-0.301,0.66-0.45,1.08-0.45s0.78,0.149,1.08,0.45
			c0.3,0.3,0.45,0.7,0.45,1.199c0,0.48-0.15,0.87-0.45,1.171C142.249,171.529,141.889,171.679,141.469,171.679z"/>
		<path fill="#354966" stroke="#354966" stroke-miterlimit="10" d="M148.969,171.679c-0.42,0-0.78-0.149-1.08-0.449
			c-0.3-0.301-0.45-0.695-0.45-1.186c0-0.489,0.15-0.885,0.45-1.185c0.3-0.301,0.66-0.45,1.08-0.45s0.78,0.149,1.08,0.45
			c0.3,0.3,0.45,0.7,0.45,1.199c0,0.48-0.15,0.87-0.45,1.171C149.749,171.529,149.389,171.679,148.969,171.679z"/>
	</g>
</g>
</svg>
